%TF.GenerationSoftware,KiCad,Pcbnew,8.0.3*%
%TF.CreationDate,2025-02-27T13:02:28-06:00*%
%TF.ProjectId,HearingAid_Left,48656172-696e-4674-9169-645f4c656674,rev?*%
%TF.SameCoordinates,Original*%
%TF.FileFunction,Paste,Top*%
%TF.FilePolarity,Positive*%
%FSLAX46Y46*%
G04 Gerber Fmt 4.6, Leading zero omitted, Abs format (unit mm)*
G04 Created by KiCad (PCBNEW 8.0.3) date 2025-02-27 13:02:28*
%MOMM*%
%LPD*%
G01*
G04 APERTURE LIST*
G04 Aperture macros list*
%AMRoundRect*
0 Rectangle with rounded corners*
0 $1 Rounding radius*
0 $2 $3 $4 $5 $6 $7 $8 $9 X,Y pos of 4 corners*
0 Add a 4 corners polygon primitive as box body*
4,1,4,$2,$3,$4,$5,$6,$7,$8,$9,$2,$3,0*
0 Add four circle primitives for the rounded corners*
1,1,$1+$1,$2,$3*
1,1,$1+$1,$4,$5*
1,1,$1+$1,$6,$7*
1,1,$1+$1,$8,$9*
0 Add four rect primitives between the rounded corners*
20,1,$1+$1,$2,$3,$4,$5,0*
20,1,$1+$1,$4,$5,$6,$7,0*
20,1,$1+$1,$6,$7,$8,$9,0*
20,1,$1+$1,$8,$9,$2,$3,0*%
G04 Aperture macros list end*
%ADD10C,0.010000*%
%ADD11RoundRect,0.155000X-0.155000X0.212500X-0.155000X-0.212500X0.155000X-0.212500X0.155000X0.212500X0*%
%ADD12RoundRect,0.160000X-0.160000X0.197500X-0.160000X-0.197500X0.160000X-0.197500X0.160000X0.197500X0*%
%ADD13RoundRect,0.160000X0.197500X0.160000X-0.197500X0.160000X-0.197500X-0.160000X0.197500X-0.160000X0*%
%ADD14RoundRect,0.150000X0.512500X0.150000X-0.512500X0.150000X-0.512500X-0.150000X0.512500X-0.150000X0*%
%ADD15R,0.590000X1.210000*%
%ADD16R,0.600000X1.800000*%
%ADD17RoundRect,0.160000X-0.197500X-0.160000X0.197500X-0.160000X0.197500X0.160000X-0.197500X0.160000X0*%
%ADD18RoundRect,0.125000X0.125000X-0.125000X0.125000X0.125000X-0.125000X0.125000X-0.125000X-0.125000X0*%
%ADD19RoundRect,0.062500X0.062500X-0.350000X0.062500X0.350000X-0.062500X0.350000X-0.062500X-0.350000X0*%
%ADD20RoundRect,0.062500X0.350000X-0.062500X0.350000X0.062500X-0.350000X0.062500X-0.350000X-0.062500X0*%
%ADD21RoundRect,0.150000X0.150000X-0.512500X0.150000X0.512500X-0.150000X0.512500X-0.150000X-0.512500X0*%
%ADD22RoundRect,0.160000X0.160000X-0.197500X0.160000X0.197500X-0.160000X0.197500X-0.160000X-0.197500X0*%
%ADD23C,0.650000*%
%ADD24R,1.140000X0.600000*%
%ADD25R,1.140000X0.300000*%
%ADD26O,2.100000X1.050000*%
%ADD27RoundRect,0.155000X0.155000X-0.212500X0.155000X0.212500X-0.155000X0.212500X-0.155000X-0.212500X0*%
%ADD28RoundRect,0.147500X0.172500X-0.147500X0.172500X0.147500X-0.172500X0.147500X-0.172500X-0.147500X0*%
%ADD29RoundRect,0.135000X0.135000X0.185000X-0.135000X0.185000X-0.135000X-0.185000X0.135000X-0.185000X0*%
%ADD30R,1.600200X0.863600*%
G04 APERTURE END LIST*
D10*
%TO.C,U3*%
X101455000Y-35936200D02*
X100055000Y-35936200D01*
X100055000Y-34936200D01*
X101455000Y-34936200D01*
X101455000Y-35936200D01*
G36*
X101455000Y-35936200D02*
G01*
X100055000Y-35936200D01*
X100055000Y-34936200D01*
X101455000Y-34936200D01*
X101455000Y-35936200D01*
G37*
X101455000Y-37336200D02*
X100055000Y-37336200D01*
X100055000Y-36336200D01*
X101455000Y-36336200D01*
X101455000Y-37336200D01*
G36*
X101455000Y-37336200D02*
G01*
X100055000Y-37336200D01*
X100055000Y-36336200D01*
X101455000Y-36336200D01*
X101455000Y-37336200D01*
G37*
X103255000Y-35936200D02*
X101855000Y-35936200D01*
X101855000Y-34936200D01*
X103255000Y-34936200D01*
X103255000Y-35936200D01*
G36*
X103255000Y-35936200D02*
G01*
X101855000Y-35936200D01*
X101855000Y-34936200D01*
X103255000Y-34936200D01*
X103255000Y-35936200D01*
G37*
X103255000Y-37336200D02*
X101855000Y-37336200D01*
X101855000Y-36336200D01*
X103255000Y-36336200D01*
X103255000Y-37336200D01*
G36*
X103255000Y-37336200D02*
G01*
X101855000Y-37336200D01*
X101855000Y-36336200D01*
X103255000Y-36336200D01*
X103255000Y-37336200D01*
G37*
%TD*%
D11*
%TO.C,C9*%
X96850000Y-37442500D03*
X96850000Y-38577500D03*
%TD*%
D12*
%TO.C,R9*%
X95700000Y-37400000D03*
X95700000Y-38595000D03*
%TD*%
D13*
%TO.C,R6*%
X103590000Y-31860000D03*
X102395000Y-31860000D03*
%TD*%
D14*
%TO.C,Q2*%
X102695000Y-43870000D03*
X102695000Y-42920000D03*
X102695000Y-41970000D03*
X100420000Y-41970000D03*
X100420000Y-42920000D03*
X100420000Y-43870000D03*
%TD*%
D15*
%TO.C,U4*%
X94030000Y-43410000D03*
X94980000Y-43410000D03*
X95930000Y-43410000D03*
X95930000Y-40900000D03*
X94980000Y-40900000D03*
X94030000Y-40900000D03*
%TD*%
D16*
%TO.C,U3*%
X103560000Y-33520000D03*
X102290000Y-33520000D03*
X101020000Y-33520000D03*
X99750000Y-33520000D03*
X99750000Y-38752400D03*
X101020000Y-38752400D03*
X102290000Y-38752400D03*
X103560000Y-38752400D03*
%TD*%
D17*
%TO.C,R5*%
X99485000Y-40420000D03*
X100680000Y-40420000D03*
%TD*%
D18*
%TO.C,U2*%
X101332500Y-29380000D03*
X101952500Y-29380000D03*
X101332500Y-28760000D03*
X101952500Y-28760000D03*
D19*
X100892500Y-30507500D03*
X101392500Y-30507500D03*
X101892500Y-30507500D03*
X102392500Y-30507500D03*
D20*
X103080000Y-29820000D03*
X103080000Y-29320000D03*
X103080000Y-28820000D03*
X103080000Y-28320000D03*
D19*
X102392500Y-27632500D03*
X101892500Y-27632500D03*
X101392500Y-27632500D03*
X100892500Y-27632500D03*
D20*
X100205000Y-28320000D03*
X100205000Y-28820000D03*
X100205000Y-29320000D03*
X100205000Y-29820000D03*
%TD*%
D21*
%TO.C,U1*%
X106630000Y-29870000D03*
X107580000Y-29870000D03*
X108530000Y-29870000D03*
X108530000Y-27595000D03*
X106630000Y-27595000D03*
%TD*%
D22*
%TO.C,R3*%
X105960000Y-33647500D03*
X105960000Y-32452500D03*
%TD*%
%TO.C,R1*%
X98660000Y-32467500D03*
X98660000Y-31272500D03*
%TD*%
D13*
%TO.C,R4*%
X103717500Y-40420000D03*
X102522500Y-40420000D03*
%TD*%
D23*
%TO.C,J1*%
X108890000Y-38870000D03*
X108890000Y-33090000D03*
D24*
X107820000Y-39180000D03*
X107820000Y-38380000D03*
D25*
X107820000Y-37230000D03*
X107820000Y-36230000D03*
X107820000Y-35730000D03*
X107820000Y-34730000D03*
D24*
X107820000Y-32780000D03*
X107820000Y-33580000D03*
D25*
X107820000Y-34230000D03*
X107820000Y-35230000D03*
X107820000Y-36730000D03*
X107820000Y-37730000D03*
D26*
X108390000Y-40300000D03*
X108390000Y-31660000D03*
%TD*%
D27*
%TO.C,C1*%
X96480000Y-32430000D03*
X96480000Y-31295000D03*
%TD*%
%TO.C,C2*%
X97580000Y-32437500D03*
X97580000Y-31302500D03*
%TD*%
D28*
%TO.C,D1*%
X98380000Y-40420000D03*
X98380000Y-39450000D03*
%TD*%
D22*
%TO.C,R2*%
X105990000Y-38367500D03*
X105990000Y-37172500D03*
%TD*%
D29*
%TO.C,R10*%
X101335000Y-31876200D03*
X100315000Y-31876200D03*
%TD*%
D28*
%TO.C,D2*%
X104840000Y-40430000D03*
X104840000Y-39460000D03*
%TD*%
D30*
%TO.C,Q1*%
X95970000Y-34049999D03*
X95970000Y-35950001D03*
X97981000Y-35000000D03*
%TD*%
D22*
%TO.C,R7*%
X92610000Y-41750000D03*
X92610000Y-40555000D03*
%TD*%
M02*
