%TF.GenerationSoftware,KiCad,Pcbnew,8.0.3*%
%TF.CreationDate,2025-02-27T13:02:28-06:00*%
%TF.ProjectId,HearingAid_Left,48656172-696e-4674-9169-645f4c656674,rev?*%
%TF.SameCoordinates,Original*%
%TF.FileFunction,Legend,Bot*%
%TF.FilePolarity,Positive*%
%FSLAX46Y46*%
G04 Gerber Fmt 4.6, Leading zero omitted, Abs format (unit mm)*
G04 Created by KiCad (PCBNEW 8.0.3) date 2025-02-27 13:02:28*
%MOMM*%
%LPD*%
G01*
G04 APERTURE LIST*
%ADD10C,0.080000*%
%ADD11C,0.120000*%
%ADD12O,2.004000X1.104000*%
%ADD13R,1.270000X5.080000*%
%ADD14C,17.800000*%
G04 APERTURE END LIST*
D10*
X111460226Y-44777935D02*
X111698321Y-44777935D01*
X111698321Y-44777935D02*
X111698321Y-43977935D01*
X111103083Y-44739840D02*
X111150702Y-44777935D01*
X111150702Y-44777935D02*
X111245940Y-44777935D01*
X111245940Y-44777935D02*
X111293559Y-44739840D01*
X111293559Y-44739840D02*
X111317368Y-44663649D01*
X111317368Y-44663649D02*
X111317368Y-44358887D01*
X111317368Y-44358887D02*
X111293559Y-44282697D01*
X111293559Y-44282697D02*
X111245940Y-44244601D01*
X111245940Y-44244601D02*
X111150702Y-44244601D01*
X111150702Y-44244601D02*
X111103083Y-44282697D01*
X111103083Y-44282697D02*
X111079273Y-44358887D01*
X111079273Y-44358887D02*
X111079273Y-44435078D01*
X111079273Y-44435078D02*
X111317368Y-44511268D01*
X110936416Y-44244601D02*
X110745940Y-44244601D01*
X110864988Y-44777935D02*
X110864988Y-44092220D01*
X110864988Y-44092220D02*
X110841178Y-44016030D01*
X110841178Y-44016030D02*
X110793559Y-43977935D01*
X110793559Y-43977935D02*
X110745940Y-43977935D01*
X110650702Y-44244601D02*
X110460226Y-44244601D01*
X110579274Y-43977935D02*
X110579274Y-44663649D01*
X110579274Y-44663649D02*
X110555464Y-44739840D01*
X110555464Y-44739840D02*
X110507845Y-44777935D01*
X110507845Y-44777935D02*
X110460226Y-44777935D01*
X109912608Y-44777935D02*
X109912608Y-43977935D01*
X109912608Y-43977935D02*
X109722132Y-43977935D01*
X109722132Y-43977935D02*
X109674513Y-44016030D01*
X109674513Y-44016030D02*
X109650703Y-44054125D01*
X109650703Y-44054125D02*
X109626894Y-44130316D01*
X109626894Y-44130316D02*
X109626894Y-44244601D01*
X109626894Y-44244601D02*
X109650703Y-44320792D01*
X109650703Y-44320792D02*
X109674513Y-44358887D01*
X109674513Y-44358887D02*
X109722132Y-44396982D01*
X109722132Y-44396982D02*
X109912608Y-44396982D01*
X109126894Y-44701744D02*
X109150703Y-44739840D01*
X109150703Y-44739840D02*
X109222132Y-44777935D01*
X109222132Y-44777935D02*
X109269751Y-44777935D01*
X109269751Y-44777935D02*
X109341179Y-44739840D01*
X109341179Y-44739840D02*
X109388798Y-44663649D01*
X109388798Y-44663649D02*
X109412608Y-44587459D01*
X109412608Y-44587459D02*
X109436417Y-44435078D01*
X109436417Y-44435078D02*
X109436417Y-44320792D01*
X109436417Y-44320792D02*
X109412608Y-44168411D01*
X109412608Y-44168411D02*
X109388798Y-44092220D01*
X109388798Y-44092220D02*
X109341179Y-44016030D01*
X109341179Y-44016030D02*
X109269751Y-43977935D01*
X109269751Y-43977935D02*
X109222132Y-43977935D01*
X109222132Y-43977935D02*
X109150703Y-44016030D01*
X109150703Y-44016030D02*
X109126894Y-44054125D01*
X108745941Y-44358887D02*
X108674513Y-44396982D01*
X108674513Y-44396982D02*
X108650703Y-44435078D01*
X108650703Y-44435078D02*
X108626894Y-44511268D01*
X108626894Y-44511268D02*
X108626894Y-44625554D01*
X108626894Y-44625554D02*
X108650703Y-44701744D01*
X108650703Y-44701744D02*
X108674513Y-44739840D01*
X108674513Y-44739840D02*
X108722132Y-44777935D01*
X108722132Y-44777935D02*
X108912608Y-44777935D01*
X108912608Y-44777935D02*
X108912608Y-43977935D01*
X108912608Y-43977935D02*
X108745941Y-43977935D01*
X108745941Y-43977935D02*
X108698322Y-44016030D01*
X108698322Y-44016030D02*
X108674513Y-44054125D01*
X108674513Y-44054125D02*
X108650703Y-44130316D01*
X108650703Y-44130316D02*
X108650703Y-44206506D01*
X108650703Y-44206506D02*
X108674513Y-44282697D01*
X108674513Y-44282697D02*
X108698322Y-44320792D01*
X108698322Y-44320792D02*
X108745941Y-44358887D01*
X108745941Y-44358887D02*
X108912608Y-44358887D01*
D11*
%TO.C,BT2*%
X91150000Y-29980000D02*
X93230000Y-27900000D01*
X91150000Y-32440000D02*
X91150000Y-29980000D01*
X91150000Y-39070000D02*
X91150000Y-38440000D01*
X92590000Y-43020000D02*
X91150000Y-39070000D01*
X96730000Y-27900000D02*
X93230000Y-27900000D01*
X110630000Y-27900000D02*
X107130000Y-27900000D01*
X111270000Y-43020000D02*
X112710000Y-39070000D01*
X112710000Y-29980000D02*
X110630000Y-27900000D01*
X112710000Y-32440000D02*
X112710000Y-29980000D01*
X112710000Y-39070000D02*
X112710000Y-38440000D01*
X95930000Y-43990000D02*
G75*
G02*
X92604757Y-43028169I-1310000J1700000D01*
G01*
X111270000Y-43020000D02*
G75*
G02*
X107933354Y-44006530I-2030000J730001D01*
G01*
%TD*%
%LPC*%
D12*
%TO.C,J1*%
X112570000Y-40300000D03*
X112570000Y-31660000D03*
%TD*%
D13*
%TO.C,BT2*%
X112915000Y-35440000D03*
X90945000Y-35440000D03*
D14*
X101930000Y-35440000D03*
%TD*%
%LPD*%
M02*
