%TF.GenerationSoftware,KiCad,Pcbnew,8.0.3*%
%TF.CreationDate,2025-02-27T13:02:28-06:00*%
%TF.ProjectId,HearingAid_Left,48656172-696e-4674-9169-645f4c656674,rev?*%
%TF.SameCoordinates,Original*%
%TF.FileFunction,Legend,Top*%
%TF.FilePolarity,Positive*%
%FSLAX46Y46*%
G04 Gerber Fmt 4.6, Leading zero omitted, Abs format (unit mm)*
G04 Created by KiCad (PCBNEW 8.0.3) date 2025-02-27 13:02:28*
%MOMM*%
%LPD*%
G01*
G04 APERTURE LIST*
G04 Aperture macros list*
%AMRoundRect*
0 Rectangle with rounded corners*
0 $1 Rounding radius*
0 $2 $3 $4 $5 $6 $7 $8 $9 X,Y pos of 4 corners*
0 Add a 4 corners polygon primitive as box body*
4,1,4,$2,$3,$4,$5,$6,$7,$8,$9,$2,$3,0*
0 Add four circle primitives for the rounded corners*
1,1,$1+$1,$2,$3*
1,1,$1+$1,$4,$5*
1,1,$1+$1,$6,$7*
1,1,$1+$1,$8,$9*
0 Add four rect primitives between the rounded corners*
20,1,$1+$1,$2,$3,$4,$5,0*
20,1,$1+$1,$4,$5,$6,$7,0*
20,1,$1+$1,$6,$7,$8,$9,0*
20,1,$1+$1,$8,$9,$2,$3,0*%
G04 Aperture macros list end*
%ADD10C,0.080000*%
%ADD11C,0.150000*%
%ADD12C,0.100000*%
%ADD13C,0.120000*%
%ADD14C,0.200000*%
%ADD15C,0.000000*%
%ADD16C,0.127000*%
%ADD17C,0.152400*%
%ADD18R,1.000000X1.000000*%
%ADD19RoundRect,0.155000X-0.155000X0.212500X-0.155000X-0.212500X0.155000X-0.212500X0.155000X0.212500X0*%
%ADD20RoundRect,0.160000X-0.160000X0.197500X-0.160000X-0.197500X0.160000X-0.197500X0.160000X0.197500X0*%
%ADD21RoundRect,0.160000X0.197500X0.160000X-0.197500X0.160000X-0.197500X-0.160000X0.197500X-0.160000X0*%
%ADD22RoundRect,0.150000X0.512500X0.150000X-0.512500X0.150000X-0.512500X-0.150000X0.512500X-0.150000X0*%
%ADD23RoundRect,0.102000X0.295000X-0.605000X0.295000X0.605000X-0.295000X0.605000X-0.295000X-0.605000X0*%
%ADD24R,0.750000X0.750000*%
%ADD25RoundRect,0.102000X0.300000X0.900000X-0.300000X0.900000X-0.300000X-0.900000X0.300000X-0.900000X0*%
%ADD26RoundRect,0.102000X1.700000X1.250000X-1.700000X1.250000X-1.700000X-1.250000X1.700000X-1.250000X0*%
%ADD27RoundRect,0.160000X-0.197500X-0.160000X0.197500X-0.160000X0.197500X0.160000X-0.197500X0.160000X0*%
%ADD28RoundRect,0.062500X0.062500X-0.350000X0.062500X0.350000X-0.062500X0.350000X-0.062500X-0.350000X0*%
%ADD29RoundRect,0.062500X0.350000X-0.062500X0.350000X0.062500X-0.350000X0.062500X-0.350000X-0.062500X0*%
%ADD30R,1.230000X1.230000*%
%ADD31RoundRect,0.150000X0.150000X-0.512500X0.150000X0.512500X-0.150000X0.512500X-0.150000X-0.512500X0*%
%ADD32RoundRect,0.160000X0.160000X-0.197500X0.160000X0.197500X-0.160000X0.197500X-0.160000X-0.197500X0*%
%ADD33R,1.140000X0.600000*%
%ADD34R,1.140000X0.300000*%
%ADD35RoundRect,0.102000X0.570000X-0.300000X0.570000X0.300000X-0.570000X0.300000X-0.570000X-0.300000X0*%
%ADD36O,2.100000X1.050000*%
%ADD37O,2.004000X1.104000*%
%ADD38RoundRect,0.155000X0.155000X-0.212500X0.155000X0.212500X-0.155000X0.212500X-0.155000X-0.212500X0*%
%ADD39RoundRect,0.147500X0.172500X-0.147500X0.172500X0.147500X-0.172500X0.147500X-0.172500X-0.147500X0*%
%ADD40RoundRect,0.135000X0.135000X0.185000X-0.135000X0.185000X-0.135000X-0.185000X0.135000X-0.185000X0*%
%ADD41R,1.600200X0.863600*%
G04 APERTURE END LIST*
D10*
X104567869Y-43281408D02*
X104805964Y-43281408D01*
X104520250Y-43509980D02*
X104686916Y-42709980D01*
X104686916Y-42709980D02*
X104853583Y-43509980D01*
X104972630Y-42976646D02*
X105091678Y-43509980D01*
X105091678Y-43509980D02*
X105210725Y-42976646D01*
X105591677Y-43471885D02*
X105544058Y-43509980D01*
X105544058Y-43509980D02*
X105448820Y-43509980D01*
X105448820Y-43509980D02*
X105401201Y-43471885D01*
X105401201Y-43471885D02*
X105377392Y-43395694D01*
X105377392Y-43395694D02*
X105377392Y-43090932D01*
X105377392Y-43090932D02*
X105401201Y-43014742D01*
X105401201Y-43014742D02*
X105448820Y-42976646D01*
X105448820Y-42976646D02*
X105544058Y-42976646D01*
X105544058Y-42976646D02*
X105591677Y-43014742D01*
X105591677Y-43014742D02*
X105615487Y-43090932D01*
X105615487Y-43090932D02*
X105615487Y-43167123D01*
X105615487Y-43167123D02*
X105377392Y-43243313D01*
X105829772Y-43509980D02*
X105829772Y-42976646D01*
X105829772Y-43129027D02*
X105853582Y-43052837D01*
X105853582Y-43052837D02*
X105877391Y-43014742D01*
X105877391Y-43014742D02*
X105925010Y-42976646D01*
X105925010Y-42976646D02*
X105972629Y-42976646D01*
X106091677Y-42976646D02*
X106210725Y-43509980D01*
X106329772Y-42976646D02*
X106210725Y-43509980D01*
X106210725Y-43509980D02*
X106163106Y-43700456D01*
X106163106Y-43700456D02*
X106139296Y-43738551D01*
X106139296Y-43738551D02*
X106091677Y-43776646D01*
X106877391Y-43281408D02*
X107115486Y-43281408D01*
X106829772Y-43509980D02*
X106996438Y-42709980D01*
X106996438Y-42709980D02*
X107163105Y-43509980D01*
X107258343Y-42976646D02*
X107448819Y-42976646D01*
X107329771Y-42709980D02*
X107329771Y-43395694D01*
X107329771Y-43395694D02*
X107353581Y-43471885D01*
X107353581Y-43471885D02*
X107401200Y-43509980D01*
X107401200Y-43509980D02*
X107448819Y-43509980D01*
X107829771Y-43471885D02*
X107782152Y-43509980D01*
X107782152Y-43509980D02*
X107686914Y-43509980D01*
X107686914Y-43509980D02*
X107639295Y-43471885D01*
X107639295Y-43471885D02*
X107615485Y-43433789D01*
X107615485Y-43433789D02*
X107591676Y-43357599D01*
X107591676Y-43357599D02*
X107591676Y-43129027D01*
X107591676Y-43129027D02*
X107615485Y-43052837D01*
X107615485Y-43052837D02*
X107639295Y-43014742D01*
X107639295Y-43014742D02*
X107686914Y-42976646D01*
X107686914Y-42976646D02*
X107782152Y-42976646D01*
X107782152Y-42976646D02*
X107829771Y-43014742D01*
X108044056Y-43509980D02*
X108044056Y-42709980D01*
X108258342Y-43509980D02*
X108258342Y-43090932D01*
X108258342Y-43090932D02*
X108234532Y-43014742D01*
X108234532Y-43014742D02*
X108186913Y-42976646D01*
X108186913Y-42976646D02*
X108115485Y-42976646D01*
X108115485Y-42976646D02*
X108067866Y-43014742D01*
X108067866Y-43014742D02*
X108044056Y-43052837D01*
X108567866Y-43509980D02*
X108520247Y-43471885D01*
X108520247Y-43471885D02*
X108496437Y-43395694D01*
X108496437Y-43395694D02*
X108496437Y-42709980D01*
X108948818Y-43471885D02*
X108901199Y-43509980D01*
X108901199Y-43509980D02*
X108805961Y-43509980D01*
X108805961Y-43509980D02*
X108758342Y-43471885D01*
X108758342Y-43471885D02*
X108734533Y-43395694D01*
X108734533Y-43395694D02*
X108734533Y-43090932D01*
X108734533Y-43090932D02*
X108758342Y-43014742D01*
X108758342Y-43014742D02*
X108805961Y-42976646D01*
X108805961Y-42976646D02*
X108901199Y-42976646D01*
X108901199Y-42976646D02*
X108948818Y-43014742D01*
X108948818Y-43014742D02*
X108972628Y-43090932D01*
X108972628Y-43090932D02*
X108972628Y-43167123D01*
X108972628Y-43167123D02*
X108734533Y-43243313D01*
X109139294Y-42976646D02*
X109258342Y-43509980D01*
X109377389Y-42976646D02*
X109258342Y-43509980D01*
X109258342Y-43509980D02*
X109210723Y-43700456D01*
X109210723Y-43700456D02*
X109186913Y-43738551D01*
X109186913Y-43738551D02*
X109139294Y-43776646D01*
X104591678Y-44797935D02*
X104591678Y-43997935D01*
X104591678Y-43997935D02*
X104782154Y-43997935D01*
X104782154Y-43997935D02*
X104829773Y-44036030D01*
X104829773Y-44036030D02*
X104853583Y-44074125D01*
X104853583Y-44074125D02*
X104877392Y-44150316D01*
X104877392Y-44150316D02*
X104877392Y-44264601D01*
X104877392Y-44264601D02*
X104853583Y-44340792D01*
X104853583Y-44340792D02*
X104829773Y-44378887D01*
X104829773Y-44378887D02*
X104782154Y-44416982D01*
X104782154Y-44416982D02*
X104591678Y-44416982D01*
X105163107Y-44797935D02*
X105115488Y-44759840D01*
X105115488Y-44759840D02*
X105091678Y-44683649D01*
X105091678Y-44683649D02*
X105091678Y-43997935D01*
X105567869Y-44797935D02*
X105567869Y-44378887D01*
X105567869Y-44378887D02*
X105544059Y-44302697D01*
X105544059Y-44302697D02*
X105496440Y-44264601D01*
X105496440Y-44264601D02*
X105401202Y-44264601D01*
X105401202Y-44264601D02*
X105353583Y-44302697D01*
X105567869Y-44759840D02*
X105520250Y-44797935D01*
X105520250Y-44797935D02*
X105401202Y-44797935D01*
X105401202Y-44797935D02*
X105353583Y-44759840D01*
X105353583Y-44759840D02*
X105329774Y-44683649D01*
X105329774Y-44683649D02*
X105329774Y-44607459D01*
X105329774Y-44607459D02*
X105353583Y-44531268D01*
X105353583Y-44531268D02*
X105401202Y-44493173D01*
X105401202Y-44493173D02*
X105520250Y-44493173D01*
X105520250Y-44493173D02*
X105567869Y-44455078D01*
X105805964Y-44264601D02*
X105805964Y-44797935D01*
X105805964Y-44340792D02*
X105829774Y-44302697D01*
X105829774Y-44302697D02*
X105877393Y-44264601D01*
X105877393Y-44264601D02*
X105948821Y-44264601D01*
X105948821Y-44264601D02*
X105996440Y-44302697D01*
X105996440Y-44302697D02*
X106020250Y-44378887D01*
X106020250Y-44378887D02*
X106020250Y-44797935D01*
X106639297Y-44797935D02*
X106639297Y-43997935D01*
X106877392Y-44797935D02*
X106877392Y-43997935D01*
X107425011Y-43997935D02*
X107710725Y-43997935D01*
X107567868Y-44797935D02*
X107567868Y-43997935D01*
X107877391Y-44797935D02*
X107877391Y-43997935D01*
X108091677Y-44797935D02*
X108091677Y-44378887D01*
X108091677Y-44378887D02*
X108067867Y-44302697D01*
X108067867Y-44302697D02*
X108020248Y-44264601D01*
X108020248Y-44264601D02*
X107948820Y-44264601D01*
X107948820Y-44264601D02*
X107901201Y-44302697D01*
X107901201Y-44302697D02*
X107877391Y-44340792D01*
X108520248Y-44759840D02*
X108472629Y-44797935D01*
X108472629Y-44797935D02*
X108377391Y-44797935D01*
X108377391Y-44797935D02*
X108329772Y-44759840D01*
X108329772Y-44759840D02*
X108305963Y-44683649D01*
X108305963Y-44683649D02*
X108305963Y-44378887D01*
X108305963Y-44378887D02*
X108329772Y-44302697D01*
X108329772Y-44302697D02*
X108377391Y-44264601D01*
X108377391Y-44264601D02*
X108472629Y-44264601D01*
X108472629Y-44264601D02*
X108520248Y-44302697D01*
X108520248Y-44302697D02*
X108544058Y-44378887D01*
X108544058Y-44378887D02*
X108544058Y-44455078D01*
X108544058Y-44455078D02*
X108305963Y-44531268D01*
X108734534Y-44759840D02*
X108782153Y-44797935D01*
X108782153Y-44797935D02*
X108877391Y-44797935D01*
X108877391Y-44797935D02*
X108925010Y-44759840D01*
X108925010Y-44759840D02*
X108948819Y-44683649D01*
X108948819Y-44683649D02*
X108948819Y-44645554D01*
X108948819Y-44645554D02*
X108925010Y-44569363D01*
X108925010Y-44569363D02*
X108877391Y-44531268D01*
X108877391Y-44531268D02*
X108805962Y-44531268D01*
X108805962Y-44531268D02*
X108758343Y-44493173D01*
X108758343Y-44493173D02*
X108734534Y-44416982D01*
X108734534Y-44416982D02*
X108734534Y-44378887D01*
X108734534Y-44378887D02*
X108758343Y-44302697D01*
X108758343Y-44302697D02*
X108805962Y-44264601D01*
X108805962Y-44264601D02*
X108877391Y-44264601D01*
X108877391Y-44264601D02*
X108925010Y-44302697D01*
X109163105Y-44797935D02*
X109163105Y-44264601D01*
X109163105Y-43997935D02*
X109139296Y-44036030D01*
X109139296Y-44036030D02*
X109163105Y-44074125D01*
X109163105Y-44074125D02*
X109186915Y-44036030D01*
X109186915Y-44036030D02*
X109163105Y-43997935D01*
X109163105Y-43997935D02*
X109163105Y-44074125D01*
X109377391Y-44759840D02*
X109425010Y-44797935D01*
X109425010Y-44797935D02*
X109520248Y-44797935D01*
X109520248Y-44797935D02*
X109567867Y-44759840D01*
X109567867Y-44759840D02*
X109591676Y-44683649D01*
X109591676Y-44683649D02*
X109591676Y-44645554D01*
X109591676Y-44645554D02*
X109567867Y-44569363D01*
X109567867Y-44569363D02*
X109520248Y-44531268D01*
X109520248Y-44531268D02*
X109448819Y-44531268D01*
X109448819Y-44531268D02*
X109401200Y-44493173D01*
X109401200Y-44493173D02*
X109377391Y-44416982D01*
X109377391Y-44416982D02*
X109377391Y-44378887D01*
X109377391Y-44378887D02*
X109401200Y-44302697D01*
X109401200Y-44302697D02*
X109448819Y-44264601D01*
X109448819Y-44264601D02*
X109520248Y-44264601D01*
X109520248Y-44264601D02*
X109567867Y-44302697D01*
D11*
X98329580Y-37954166D02*
X98377200Y-38001785D01*
X98377200Y-38001785D02*
X98424819Y-38144642D01*
X98424819Y-38144642D02*
X98424819Y-38239880D01*
X98424819Y-38239880D02*
X98377200Y-38382737D01*
X98377200Y-38382737D02*
X98281961Y-38477975D01*
X98281961Y-38477975D02*
X98186723Y-38525594D01*
X98186723Y-38525594D02*
X97996247Y-38573213D01*
X97996247Y-38573213D02*
X97853390Y-38573213D01*
X97853390Y-38573213D02*
X97662914Y-38525594D01*
X97662914Y-38525594D02*
X97567676Y-38477975D01*
X97567676Y-38477975D02*
X97472438Y-38382737D01*
X97472438Y-38382737D02*
X97424819Y-38239880D01*
X97424819Y-38239880D02*
X97424819Y-38144642D01*
X97424819Y-38144642D02*
X97472438Y-38001785D01*
X97472438Y-38001785D02*
X97520057Y-37954166D01*
X98424819Y-37477975D02*
X98424819Y-37287499D01*
X98424819Y-37287499D02*
X98377200Y-37192261D01*
X98377200Y-37192261D02*
X98329580Y-37144642D01*
X98329580Y-37144642D02*
X98186723Y-37049404D01*
X98186723Y-37049404D02*
X97996247Y-37001785D01*
X97996247Y-37001785D02*
X97615295Y-37001785D01*
X97615295Y-37001785D02*
X97520057Y-37049404D01*
X97520057Y-37049404D02*
X97472438Y-37097023D01*
X97472438Y-37097023D02*
X97424819Y-37192261D01*
X97424819Y-37192261D02*
X97424819Y-37382737D01*
X97424819Y-37382737D02*
X97472438Y-37477975D01*
X97472438Y-37477975D02*
X97520057Y-37525594D01*
X97520057Y-37525594D02*
X97615295Y-37573213D01*
X97615295Y-37573213D02*
X97853390Y-37573213D01*
X97853390Y-37573213D02*
X97948628Y-37525594D01*
X97948628Y-37525594D02*
X97996247Y-37477975D01*
X97996247Y-37477975D02*
X98043866Y-37382737D01*
X98043866Y-37382737D02*
X98043866Y-37192261D01*
X98043866Y-37192261D02*
X97996247Y-37097023D01*
X97996247Y-37097023D02*
X97948628Y-37049404D01*
X97948628Y-37049404D02*
X97853390Y-37001785D01*
X95044819Y-38211666D02*
X94568628Y-38544999D01*
X95044819Y-38783094D02*
X94044819Y-38783094D01*
X94044819Y-38783094D02*
X94044819Y-38402142D01*
X94044819Y-38402142D02*
X94092438Y-38306904D01*
X94092438Y-38306904D02*
X94140057Y-38259285D01*
X94140057Y-38259285D02*
X94235295Y-38211666D01*
X94235295Y-38211666D02*
X94378152Y-38211666D01*
X94378152Y-38211666D02*
X94473390Y-38259285D01*
X94473390Y-38259285D02*
X94521009Y-38306904D01*
X94521009Y-38306904D02*
X94568628Y-38402142D01*
X94568628Y-38402142D02*
X94568628Y-38783094D01*
X95044819Y-37735475D02*
X95044819Y-37544999D01*
X95044819Y-37544999D02*
X94997200Y-37449761D01*
X94997200Y-37449761D02*
X94949580Y-37402142D01*
X94949580Y-37402142D02*
X94806723Y-37306904D01*
X94806723Y-37306904D02*
X94616247Y-37259285D01*
X94616247Y-37259285D02*
X94235295Y-37259285D01*
X94235295Y-37259285D02*
X94140057Y-37306904D01*
X94140057Y-37306904D02*
X94092438Y-37354523D01*
X94092438Y-37354523D02*
X94044819Y-37449761D01*
X94044819Y-37449761D02*
X94044819Y-37640237D01*
X94044819Y-37640237D02*
X94092438Y-37735475D01*
X94092438Y-37735475D02*
X94140057Y-37783094D01*
X94140057Y-37783094D02*
X94235295Y-37830713D01*
X94235295Y-37830713D02*
X94473390Y-37830713D01*
X94473390Y-37830713D02*
X94568628Y-37783094D01*
X94568628Y-37783094D02*
X94616247Y-37735475D01*
X94616247Y-37735475D02*
X94663866Y-37640237D01*
X94663866Y-37640237D02*
X94663866Y-37449761D01*
X94663866Y-37449761D02*
X94616247Y-37354523D01*
X94616247Y-37354523D02*
X94568628Y-37306904D01*
X94568628Y-37306904D02*
X94473390Y-37259285D01*
X104564761Y-42410057D02*
X104469523Y-42362438D01*
X104469523Y-42362438D02*
X104374285Y-42267200D01*
X104374285Y-42267200D02*
X104231428Y-42124342D01*
X104231428Y-42124342D02*
X104136190Y-42076723D01*
X104136190Y-42076723D02*
X104040952Y-42076723D01*
X104088571Y-42314819D02*
X103993333Y-42267200D01*
X103993333Y-42267200D02*
X103898095Y-42171961D01*
X103898095Y-42171961D02*
X103850476Y-41981485D01*
X103850476Y-41981485D02*
X103850476Y-41648152D01*
X103850476Y-41648152D02*
X103898095Y-41457676D01*
X103898095Y-41457676D02*
X103993333Y-41362438D01*
X103993333Y-41362438D02*
X104088571Y-41314819D01*
X104088571Y-41314819D02*
X104279047Y-41314819D01*
X104279047Y-41314819D02*
X104374285Y-41362438D01*
X104374285Y-41362438D02*
X104469523Y-41457676D01*
X104469523Y-41457676D02*
X104517142Y-41648152D01*
X104517142Y-41648152D02*
X104517142Y-41981485D01*
X104517142Y-41981485D02*
X104469523Y-42171961D01*
X104469523Y-42171961D02*
X104374285Y-42267200D01*
X104374285Y-42267200D02*
X104279047Y-42314819D01*
X104279047Y-42314819D02*
X104088571Y-42314819D01*
X104898095Y-41410057D02*
X104945714Y-41362438D01*
X104945714Y-41362438D02*
X105040952Y-41314819D01*
X105040952Y-41314819D02*
X105279047Y-41314819D01*
X105279047Y-41314819D02*
X105374285Y-41362438D01*
X105374285Y-41362438D02*
X105421904Y-41410057D01*
X105421904Y-41410057D02*
X105469523Y-41505295D01*
X105469523Y-41505295D02*
X105469523Y-41600533D01*
X105469523Y-41600533D02*
X105421904Y-41743390D01*
X105421904Y-41743390D02*
X104850476Y-42314819D01*
X104850476Y-42314819D02*
X105469523Y-42314819D01*
X96844819Y-44181904D02*
X97654342Y-44181904D01*
X97654342Y-44181904D02*
X97749580Y-44134285D01*
X97749580Y-44134285D02*
X97797200Y-44086666D01*
X97797200Y-44086666D02*
X97844819Y-43991428D01*
X97844819Y-43991428D02*
X97844819Y-43800952D01*
X97844819Y-43800952D02*
X97797200Y-43705714D01*
X97797200Y-43705714D02*
X97749580Y-43658095D01*
X97749580Y-43658095D02*
X97654342Y-43610476D01*
X97654342Y-43610476D02*
X96844819Y-43610476D01*
X97178152Y-42705714D02*
X97844819Y-42705714D01*
X96797200Y-42943809D02*
X97511485Y-43181904D01*
X97511485Y-43181904D02*
X97511485Y-42562857D01*
D10*
X101995190Y-40363278D02*
X101995190Y-40622325D01*
X101995190Y-40622325D02*
X102010428Y-40652801D01*
X102010428Y-40652801D02*
X102025666Y-40668040D01*
X102025666Y-40668040D02*
X102056142Y-40683278D01*
X102056142Y-40683278D02*
X102117095Y-40683278D01*
X102117095Y-40683278D02*
X102147571Y-40668040D01*
X102147571Y-40668040D02*
X102162809Y-40652801D01*
X102162809Y-40652801D02*
X102178047Y-40622325D01*
X102178047Y-40622325D02*
X102178047Y-40363278D01*
X102299952Y-40363278D02*
X102498047Y-40363278D01*
X102498047Y-40363278D02*
X102391380Y-40485182D01*
X102391380Y-40485182D02*
X102437095Y-40485182D01*
X102437095Y-40485182D02*
X102467571Y-40500420D01*
X102467571Y-40500420D02*
X102482809Y-40515659D01*
X102482809Y-40515659D02*
X102498047Y-40546135D01*
X102498047Y-40546135D02*
X102498047Y-40622325D01*
X102498047Y-40622325D02*
X102482809Y-40652801D01*
X102482809Y-40652801D02*
X102467571Y-40668040D01*
X102467571Y-40668040D02*
X102437095Y-40683278D01*
X102437095Y-40683278D02*
X102345666Y-40683278D01*
X102345666Y-40683278D02*
X102315190Y-40668040D01*
X102315190Y-40668040D02*
X102299952Y-40652801D01*
D11*
X98332319Y-28273204D02*
X99141842Y-28273204D01*
X99141842Y-28273204D02*
X99237080Y-28225585D01*
X99237080Y-28225585D02*
X99284700Y-28177966D01*
X99284700Y-28177966D02*
X99332319Y-28082728D01*
X99332319Y-28082728D02*
X99332319Y-27892252D01*
X99332319Y-27892252D02*
X99284700Y-27797014D01*
X99284700Y-27797014D02*
X99237080Y-27749395D01*
X99237080Y-27749395D02*
X99141842Y-27701776D01*
X99141842Y-27701776D02*
X98332319Y-27701776D01*
X98427557Y-27273204D02*
X98379938Y-27225585D01*
X98379938Y-27225585D02*
X98332319Y-27130347D01*
X98332319Y-27130347D02*
X98332319Y-26892252D01*
X98332319Y-26892252D02*
X98379938Y-26797014D01*
X98379938Y-26797014D02*
X98427557Y-26749395D01*
X98427557Y-26749395D02*
X98522795Y-26701776D01*
X98522795Y-26701776D02*
X98618033Y-26701776D01*
X98618033Y-26701776D02*
X98760890Y-26749395D01*
X98760890Y-26749395D02*
X99332319Y-27320823D01*
X99332319Y-27320823D02*
X99332319Y-26701776D01*
X104634819Y-29494404D02*
X105444342Y-29494404D01*
X105444342Y-29494404D02*
X105539580Y-29446785D01*
X105539580Y-29446785D02*
X105587200Y-29399166D01*
X105587200Y-29399166D02*
X105634819Y-29303928D01*
X105634819Y-29303928D02*
X105634819Y-29113452D01*
X105634819Y-29113452D02*
X105587200Y-29018214D01*
X105587200Y-29018214D02*
X105539580Y-28970595D01*
X105539580Y-28970595D02*
X105444342Y-28922976D01*
X105444342Y-28922976D02*
X104634819Y-28922976D01*
X105634819Y-27922976D02*
X105634819Y-28494404D01*
X105634819Y-28208690D02*
X104634819Y-28208690D01*
X104634819Y-28208690D02*
X104777676Y-28303928D01*
X104777676Y-28303928D02*
X104872914Y-28399166D01*
X104872914Y-28399166D02*
X104920533Y-28494404D01*
X105244819Y-33216666D02*
X104768628Y-33549999D01*
X105244819Y-33788094D02*
X104244819Y-33788094D01*
X104244819Y-33788094D02*
X104244819Y-33407142D01*
X104244819Y-33407142D02*
X104292438Y-33311904D01*
X104292438Y-33311904D02*
X104340057Y-33264285D01*
X104340057Y-33264285D02*
X104435295Y-33216666D01*
X104435295Y-33216666D02*
X104578152Y-33216666D01*
X104578152Y-33216666D02*
X104673390Y-33264285D01*
X104673390Y-33264285D02*
X104721009Y-33311904D01*
X104721009Y-33311904D02*
X104768628Y-33407142D01*
X104768628Y-33407142D02*
X104768628Y-33788094D01*
X104244819Y-32883332D02*
X104244819Y-32264285D01*
X104244819Y-32264285D02*
X104625771Y-32597618D01*
X104625771Y-32597618D02*
X104625771Y-32454761D01*
X104625771Y-32454761D02*
X104673390Y-32359523D01*
X104673390Y-32359523D02*
X104721009Y-32311904D01*
X104721009Y-32311904D02*
X104816247Y-32264285D01*
X104816247Y-32264285D02*
X105054342Y-32264285D01*
X105054342Y-32264285D02*
X105149580Y-32311904D01*
X105149580Y-32311904D02*
X105197200Y-32359523D01*
X105197200Y-32359523D02*
X105244819Y-32454761D01*
X105244819Y-32454761D02*
X105244819Y-32740475D01*
X105244819Y-32740475D02*
X105197200Y-32835713D01*
X105197200Y-32835713D02*
X105149580Y-32883332D01*
X99294819Y-29986666D02*
X98818628Y-30319999D01*
X99294819Y-30558094D02*
X98294819Y-30558094D01*
X98294819Y-30558094D02*
X98294819Y-30177142D01*
X98294819Y-30177142D02*
X98342438Y-30081904D01*
X98342438Y-30081904D02*
X98390057Y-30034285D01*
X98390057Y-30034285D02*
X98485295Y-29986666D01*
X98485295Y-29986666D02*
X98628152Y-29986666D01*
X98628152Y-29986666D02*
X98723390Y-30034285D01*
X98723390Y-30034285D02*
X98771009Y-30081904D01*
X98771009Y-30081904D02*
X98818628Y-30177142D01*
X98818628Y-30177142D02*
X98818628Y-30558094D01*
X99294819Y-29034285D02*
X99294819Y-29605713D01*
X99294819Y-29319999D02*
X98294819Y-29319999D01*
X98294819Y-29319999D02*
X98437676Y-29415237D01*
X98437676Y-29415237D02*
X98532914Y-29510475D01*
X98532914Y-29510475D02*
X98580533Y-29605713D01*
X103619819Y-37933333D02*
X104334104Y-37933333D01*
X104334104Y-37933333D02*
X104476961Y-37980952D01*
X104476961Y-37980952D02*
X104572200Y-38076190D01*
X104572200Y-38076190D02*
X104619819Y-38219047D01*
X104619819Y-38219047D02*
X104619819Y-38314285D01*
X104619819Y-36933333D02*
X104619819Y-37504761D01*
X104619819Y-37219047D02*
X103619819Y-37219047D01*
X103619819Y-37219047D02*
X103762676Y-37314285D01*
X103762676Y-37314285D02*
X103857914Y-37409523D01*
X103857914Y-37409523D02*
X103905533Y-37504761D01*
X96739580Y-30036666D02*
X96787200Y-30084285D01*
X96787200Y-30084285D02*
X96834819Y-30227142D01*
X96834819Y-30227142D02*
X96834819Y-30322380D01*
X96834819Y-30322380D02*
X96787200Y-30465237D01*
X96787200Y-30465237D02*
X96691961Y-30560475D01*
X96691961Y-30560475D02*
X96596723Y-30608094D01*
X96596723Y-30608094D02*
X96406247Y-30655713D01*
X96406247Y-30655713D02*
X96263390Y-30655713D01*
X96263390Y-30655713D02*
X96072914Y-30608094D01*
X96072914Y-30608094D02*
X95977676Y-30560475D01*
X95977676Y-30560475D02*
X95882438Y-30465237D01*
X95882438Y-30465237D02*
X95834819Y-30322380D01*
X95834819Y-30322380D02*
X95834819Y-30227142D01*
X95834819Y-30227142D02*
X95882438Y-30084285D01*
X95882438Y-30084285D02*
X95930057Y-30036666D01*
X96834819Y-29084285D02*
X96834819Y-29655713D01*
X96834819Y-29369999D02*
X95834819Y-29369999D01*
X95834819Y-29369999D02*
X95977676Y-29465237D01*
X95977676Y-29465237D02*
X96072914Y-29560475D01*
X96072914Y-29560475D02*
X96120533Y-29655713D01*
X97959580Y-30036666D02*
X98007200Y-30084285D01*
X98007200Y-30084285D02*
X98054819Y-30227142D01*
X98054819Y-30227142D02*
X98054819Y-30322380D01*
X98054819Y-30322380D02*
X98007200Y-30465237D01*
X98007200Y-30465237D02*
X97911961Y-30560475D01*
X97911961Y-30560475D02*
X97816723Y-30608094D01*
X97816723Y-30608094D02*
X97626247Y-30655713D01*
X97626247Y-30655713D02*
X97483390Y-30655713D01*
X97483390Y-30655713D02*
X97292914Y-30608094D01*
X97292914Y-30608094D02*
X97197676Y-30560475D01*
X97197676Y-30560475D02*
X97102438Y-30465237D01*
X97102438Y-30465237D02*
X97054819Y-30322380D01*
X97054819Y-30322380D02*
X97054819Y-30227142D01*
X97054819Y-30227142D02*
X97102438Y-30084285D01*
X97102438Y-30084285D02*
X97150057Y-30036666D01*
X97150057Y-29655713D02*
X97102438Y-29608094D01*
X97102438Y-29608094D02*
X97054819Y-29512856D01*
X97054819Y-29512856D02*
X97054819Y-29274761D01*
X97054819Y-29274761D02*
X97102438Y-29179523D01*
X97102438Y-29179523D02*
X97150057Y-29131904D01*
X97150057Y-29131904D02*
X97245295Y-29084285D01*
X97245295Y-29084285D02*
X97340533Y-29084285D01*
X97340533Y-29084285D02*
X97483390Y-29131904D01*
X97483390Y-29131904D02*
X98054819Y-29703332D01*
X98054819Y-29703332D02*
X98054819Y-29084285D01*
X97664819Y-40673094D02*
X96664819Y-40673094D01*
X96664819Y-40673094D02*
X96664819Y-40434999D01*
X96664819Y-40434999D02*
X96712438Y-40292142D01*
X96712438Y-40292142D02*
X96807676Y-40196904D01*
X96807676Y-40196904D02*
X96902914Y-40149285D01*
X96902914Y-40149285D02*
X97093390Y-40101666D01*
X97093390Y-40101666D02*
X97236247Y-40101666D01*
X97236247Y-40101666D02*
X97426723Y-40149285D01*
X97426723Y-40149285D02*
X97521961Y-40196904D01*
X97521961Y-40196904D02*
X97617200Y-40292142D01*
X97617200Y-40292142D02*
X97664819Y-40434999D01*
X97664819Y-40434999D02*
X97664819Y-40673094D01*
X97664819Y-39149285D02*
X97664819Y-39720713D01*
X97664819Y-39434999D02*
X96664819Y-39434999D01*
X96664819Y-39434999D02*
X96807676Y-39530237D01*
X96807676Y-39530237D02*
X96902914Y-39625475D01*
X96902914Y-39625475D02*
X96950533Y-39720713D01*
X105274819Y-37936666D02*
X104798628Y-38269999D01*
X105274819Y-38508094D02*
X104274819Y-38508094D01*
X104274819Y-38508094D02*
X104274819Y-38127142D01*
X104274819Y-38127142D02*
X104322438Y-38031904D01*
X104322438Y-38031904D02*
X104370057Y-37984285D01*
X104370057Y-37984285D02*
X104465295Y-37936666D01*
X104465295Y-37936666D02*
X104608152Y-37936666D01*
X104608152Y-37936666D02*
X104703390Y-37984285D01*
X104703390Y-37984285D02*
X104751009Y-38031904D01*
X104751009Y-38031904D02*
X104798628Y-38127142D01*
X104798628Y-38127142D02*
X104798628Y-38508094D01*
X104370057Y-37555713D02*
X104322438Y-37508094D01*
X104322438Y-37508094D02*
X104274819Y-37412856D01*
X104274819Y-37412856D02*
X104274819Y-37174761D01*
X104274819Y-37174761D02*
X104322438Y-37079523D01*
X104322438Y-37079523D02*
X104370057Y-37031904D01*
X104370057Y-37031904D02*
X104465295Y-36984285D01*
X104465295Y-36984285D02*
X104560533Y-36984285D01*
X104560533Y-36984285D02*
X104703390Y-37031904D01*
X104703390Y-37031904D02*
X105274819Y-37603332D01*
X105274819Y-37603332D02*
X105274819Y-36984285D01*
X106514819Y-40788094D02*
X105514819Y-40788094D01*
X105514819Y-40788094D02*
X105514819Y-40549999D01*
X105514819Y-40549999D02*
X105562438Y-40407142D01*
X105562438Y-40407142D02*
X105657676Y-40311904D01*
X105657676Y-40311904D02*
X105752914Y-40264285D01*
X105752914Y-40264285D02*
X105943390Y-40216666D01*
X105943390Y-40216666D02*
X106086247Y-40216666D01*
X106086247Y-40216666D02*
X106276723Y-40264285D01*
X106276723Y-40264285D02*
X106371961Y-40311904D01*
X106371961Y-40311904D02*
X106467200Y-40407142D01*
X106467200Y-40407142D02*
X106514819Y-40549999D01*
X106514819Y-40549999D02*
X106514819Y-40788094D01*
X105610057Y-39835713D02*
X105562438Y-39788094D01*
X105562438Y-39788094D02*
X105514819Y-39692856D01*
X105514819Y-39692856D02*
X105514819Y-39454761D01*
X105514819Y-39454761D02*
X105562438Y-39359523D01*
X105562438Y-39359523D02*
X105610057Y-39311904D01*
X105610057Y-39311904D02*
X105705295Y-39264285D01*
X105705295Y-39264285D02*
X105800533Y-39264285D01*
X105800533Y-39264285D02*
X105943390Y-39311904D01*
X105943390Y-39311904D02*
X106514819Y-39883332D01*
X106514819Y-39883332D02*
X106514819Y-39264285D01*
X97525557Y-35095238D02*
X97477938Y-35190476D01*
X97477938Y-35190476D02*
X97382700Y-35285714D01*
X97382700Y-35285714D02*
X97239842Y-35428571D01*
X97239842Y-35428571D02*
X97192223Y-35523809D01*
X97192223Y-35523809D02*
X97192223Y-35619047D01*
X97430319Y-35571428D02*
X97382700Y-35666666D01*
X97382700Y-35666666D02*
X97287461Y-35761904D01*
X97287461Y-35761904D02*
X97096985Y-35809523D01*
X97096985Y-35809523D02*
X96763652Y-35809523D01*
X96763652Y-35809523D02*
X96573176Y-35761904D01*
X96573176Y-35761904D02*
X96477938Y-35666666D01*
X96477938Y-35666666D02*
X96430319Y-35571428D01*
X96430319Y-35571428D02*
X96430319Y-35380952D01*
X96430319Y-35380952D02*
X96477938Y-35285714D01*
X96477938Y-35285714D02*
X96573176Y-35190476D01*
X96573176Y-35190476D02*
X96763652Y-35142857D01*
X96763652Y-35142857D02*
X97096985Y-35142857D01*
X97096985Y-35142857D02*
X97287461Y-35190476D01*
X97287461Y-35190476D02*
X97382700Y-35285714D01*
X97382700Y-35285714D02*
X97430319Y-35380952D01*
X97430319Y-35380952D02*
X97430319Y-35571428D01*
X97430319Y-34190476D02*
X97430319Y-34761904D01*
X97430319Y-34476190D02*
X96430319Y-34476190D01*
X96430319Y-34476190D02*
X96573176Y-34571428D01*
X96573176Y-34571428D02*
X96668414Y-34666666D01*
X96668414Y-34666666D02*
X96716033Y-34761904D01*
X91894819Y-41319166D02*
X91418628Y-41652499D01*
X91894819Y-41890594D02*
X90894819Y-41890594D01*
X90894819Y-41890594D02*
X90894819Y-41509642D01*
X90894819Y-41509642D02*
X90942438Y-41414404D01*
X90942438Y-41414404D02*
X90990057Y-41366785D01*
X90990057Y-41366785D02*
X91085295Y-41319166D01*
X91085295Y-41319166D02*
X91228152Y-41319166D01*
X91228152Y-41319166D02*
X91323390Y-41366785D01*
X91323390Y-41366785D02*
X91371009Y-41414404D01*
X91371009Y-41414404D02*
X91418628Y-41509642D01*
X91418628Y-41509642D02*
X91418628Y-41890594D01*
X90894819Y-40985832D02*
X90894819Y-40319166D01*
X90894819Y-40319166D02*
X91894819Y-40747737D01*
%TO.C,TP30*%
D12*
X104150000Y-29370000D02*
X105650000Y-29370000D01*
X105650000Y-30870000D01*
X104150000Y-30870000D01*
X104150000Y-29370000D01*
D13*
%TO.C,C9*%
X96490000Y-37894165D02*
X96490000Y-38125835D01*
X97210000Y-37894165D02*
X97210000Y-38125835D01*
%TO.C,TP11*%
D12*
X93100000Y-29290000D02*
X94600000Y-29290000D01*
X94600000Y-30790000D01*
X93100000Y-30790000D01*
X93100000Y-29290000D01*
D13*
%TO.C,R9*%
X95320000Y-37829879D02*
X95320000Y-38165121D01*
X96080000Y-37829879D02*
X96080000Y-38165121D01*
%TO.C,TP10*%
D12*
X94100000Y-27430000D02*
X95600000Y-27430000D01*
X95600000Y-28930000D01*
X94100000Y-28930000D01*
X94100000Y-27430000D01*
%TO.C,TP1*%
X91070000Y-29290000D02*
X92570000Y-29290000D01*
X92570000Y-30790000D01*
X91070000Y-30790000D01*
X91070000Y-29290000D01*
D13*
%TO.C,R6*%
X103160121Y-31480000D02*
X102824879Y-31480000D01*
X103160121Y-32240000D02*
X102824879Y-32240000D01*
%TO.C,TP25*%
D12*
X96920000Y-28610000D02*
X98420000Y-28610000D01*
X98420000Y-30110000D01*
X96920000Y-30110000D01*
X96920000Y-28610000D01*
%TO.C,TP2*%
X92110000Y-27430000D02*
X93610000Y-27430000D01*
X93610000Y-28930000D01*
X92110000Y-28930000D01*
X92110000Y-27430000D01*
D13*
%TO.C,Q2*%
X101557500Y-41360000D02*
X100757500Y-41360000D01*
X101557500Y-41360000D02*
X102357500Y-41360000D01*
X101557500Y-44480000D02*
X100757500Y-44480000D01*
X101557500Y-44480000D02*
X102357500Y-44480000D01*
X103097500Y-44760000D02*
X102617500Y-44760000D01*
X102857500Y-44430000D01*
X103097500Y-44760000D01*
G36*
X103097500Y-44760000D02*
G01*
X102617500Y-44760000D01*
X102857500Y-44430000D01*
X103097500Y-44760000D01*
G37*
D14*
%TO.C,U4*%
X94130000Y-44710000D02*
G75*
G02*
X93930000Y-44710000I-100000J0D01*
G01*
X93930000Y-44710000D02*
G75*
G02*
X94130000Y-44710000I100000J0D01*
G01*
D15*
%TO.C,G\u002A\u002A\u002A*%
G36*
X112636822Y-43260530D02*
G01*
X112628909Y-43268442D01*
X112620997Y-43260530D01*
X112628909Y-43252617D01*
X112636822Y-43260530D01*
G37*
G36*
X112684299Y-43228879D02*
G01*
X112676386Y-43236791D01*
X112668473Y-43228879D01*
X112676386Y-43220966D01*
X112684299Y-43228879D01*
G37*
G36*
X112684299Y-43260530D02*
G01*
X112676386Y-43268442D01*
X112668473Y-43260530D01*
X112676386Y-43252617D01*
X112684299Y-43260530D01*
G37*
G36*
X112715950Y-43244704D02*
G01*
X112708037Y-43252617D01*
X112700124Y-43244704D01*
X112708037Y-43236791D01*
X112715950Y-43244704D01*
G37*
G36*
X112584331Y-43186347D02*
G01*
X112586217Y-43211081D01*
X112583081Y-43216680D01*
X112575888Y-43211960D01*
X112574769Y-43195909D01*
X112578634Y-43179022D01*
X112584331Y-43186347D01*
G37*
G36*
X112663198Y-43115462D02*
G01*
X112661026Y-43124870D01*
X112652648Y-43126013D01*
X112639621Y-43120222D01*
X112642097Y-43115462D01*
X112660878Y-43113568D01*
X112663198Y-43115462D01*
G37*
G36*
X112616031Y-43136235D02*
G01*
X112613084Y-43141838D01*
X112598173Y-43156952D01*
X112595390Y-43157664D01*
X112594311Y-43147441D01*
X112597258Y-43141838D01*
X112612169Y-43126725D01*
X112614952Y-43126013D01*
X112616031Y-43136235D01*
G37*
G36*
X112709614Y-43147824D02*
G01*
X112727020Y-43178504D01*
X112727219Y-43199313D01*
X112721169Y-43218561D01*
X112718488Y-43207437D01*
X112717786Y-43196436D01*
X112708878Y-43160145D01*
X112700181Y-43144947D01*
X112697036Y-43138172D01*
X112709614Y-43147824D01*
G37*
G36*
X112684056Y-43166016D02*
G01*
X112673338Y-43187606D01*
X112652648Y-43209381D01*
X112629899Y-43226519D01*
X112622016Y-43219194D01*
X112621239Y-43193116D01*
X112623592Y-43165515D01*
X112631826Y-43166306D01*
X112637064Y-43173489D01*
X112651961Y-43189271D01*
X112666120Y-43176656D01*
X112668231Y-43173489D01*
X112681047Y-43161010D01*
X112684056Y-43166016D01*
G37*
G36*
X109069398Y-42236496D02*
G01*
X109169893Y-42248559D01*
X109275209Y-42269250D01*
X109381637Y-42298758D01*
X109396337Y-42303577D01*
X109458559Y-42325071D01*
X109514957Y-42346534D01*
X109570218Y-42370359D01*
X109629028Y-42398941D01*
X109696077Y-42434672D01*
X109776051Y-42479944D01*
X109873637Y-42537153D01*
X109991076Y-42607222D01*
X110082997Y-42661323D01*
X110171447Y-42711548D01*
X110250854Y-42754871D01*
X110315644Y-42788267D01*
X110360243Y-42808709D01*
X110366537Y-42811078D01*
X110461109Y-42833915D01*
X110565973Y-42842345D01*
X110669789Y-42836550D01*
X110761214Y-42816710D01*
X110793146Y-42804253D01*
X110819083Y-42792841D01*
X110844248Y-42784110D01*
X110873129Y-42777723D01*
X110910215Y-42773347D01*
X110959996Y-42770644D01*
X111026959Y-42769279D01*
X111115594Y-42768918D01*
X111230390Y-42769223D01*
X111260000Y-42769348D01*
X111383331Y-42770110D01*
X111479335Y-42771393D01*
X111552334Y-42773499D01*
X111606651Y-42776728D01*
X111646607Y-42781380D01*
X111676526Y-42787757D01*
X111700730Y-42796160D01*
X111711028Y-42800738D01*
X111772845Y-42820296D01*
X111854249Y-42833241D01*
X111943724Y-42838811D01*
X112029751Y-42836245D01*
X112095480Y-42826160D01*
X112134513Y-42814974D01*
X112176781Y-42799229D01*
X112226015Y-42776987D01*
X112285951Y-42746306D01*
X112360319Y-42705249D01*
X112452853Y-42651876D01*
X112567286Y-42584247D01*
X112608837Y-42559459D01*
X112774088Y-42464124D01*
X112919984Y-42387898D01*
X113051074Y-42329145D01*
X113171908Y-42286229D01*
X113287035Y-42257511D01*
X113401004Y-42241356D01*
X113507227Y-42236195D01*
X113603928Y-42237819D01*
X113672549Y-42245600D01*
X113716248Y-42260600D01*
X113738185Y-42283878D01*
X113741704Y-42314961D01*
X113736697Y-42358474D01*
X113562616Y-42368416D01*
X113466052Y-42376720D01*
X113377729Y-42391333D01*
X113293194Y-42414306D01*
X113207994Y-42447692D01*
X113117673Y-42493545D01*
X113017779Y-42553916D01*
X112903858Y-42630860D01*
X112771456Y-42726429D01*
X112747601Y-42744073D01*
X112611969Y-42842481D01*
X112496320Y-42921457D01*
X112397395Y-42983056D01*
X112311934Y-43029334D01*
X112253112Y-43055878D01*
X112210461Y-43075387D01*
X112183218Y-43091976D01*
X112177941Y-43098550D01*
X112191249Y-43116309D01*
X112224809Y-43138844D01*
X112268872Y-43160840D01*
X112313690Y-43176984D01*
X112327918Y-43180300D01*
X112372924Y-43196339D01*
X112406605Y-43220141D01*
X112426610Y-43256953D01*
X112417705Y-43292809D01*
X112379011Y-43329098D01*
X112314849Y-43364767D01*
X112214541Y-43400849D01*
X112118752Y-43409514D01*
X112019128Y-43390911D01*
X111964236Y-43371006D01*
X111898984Y-43345186D01*
X111856693Y-43334493D01*
X111831181Y-43341700D01*
X111816266Y-43369584D01*
X111805769Y-43420919D01*
X111802177Y-43443762D01*
X111785432Y-43518591D01*
X111755635Y-43606058D01*
X111710742Y-43711858D01*
X111690122Y-43756316D01*
X111653937Y-43834137D01*
X111621429Y-43906276D01*
X111595717Y-43965654D01*
X111579919Y-44005194D01*
X111578045Y-44010648D01*
X111562203Y-44103294D01*
X111567520Y-44211973D01*
X111593458Y-44328871D01*
X111610144Y-44386765D01*
X111617243Y-44424448D01*
X111615252Y-44451714D01*
X111604667Y-44478354D01*
X111601370Y-44484841D01*
X111583897Y-44528589D01*
X111576512Y-44566859D01*
X111576511Y-44567213D01*
X111562544Y-44609370D01*
X111525569Y-44654121D01*
X111472971Y-44695237D01*
X111412139Y-44726486D01*
X111373956Y-44738081D01*
X111296191Y-44751516D01*
X111231936Y-44753134D01*
X111165220Y-44742638D01*
X111128708Y-44733498D01*
X111052624Y-44702577D01*
X110994924Y-44653287D01*
X110951090Y-44580835D01*
X110928544Y-44521086D01*
X110894790Y-44415795D01*
X110927052Y-44322320D01*
X110951660Y-44221016D01*
X110958364Y-44118470D01*
X110946589Y-44026692D01*
X110941954Y-44010648D01*
X110928826Y-43976566D01*
X110905080Y-43921048D01*
X110873833Y-43851171D01*
X110838206Y-43774014D01*
X110829878Y-43756316D01*
X110779547Y-43643881D01*
X110744745Y-43551594D01*
X110723294Y-43473368D01*
X110717626Y-43442492D01*
X110709026Y-43387981D01*
X110699541Y-43354229D01*
X110683169Y-43338986D01*
X110653906Y-43340006D01*
X110605747Y-43355041D01*
X110544289Y-43377594D01*
X110480715Y-43396328D01*
X110415617Y-43408399D01*
X110381730Y-43410872D01*
X110324608Y-43403950D01*
X110260039Y-43385678D01*
X110196484Y-43359802D01*
X110142403Y-43330066D01*
X110106258Y-43300215D01*
X110097009Y-43284858D01*
X110098751Y-43244015D01*
X110126702Y-43208488D01*
X110175428Y-43184253D01*
X110192081Y-43180300D01*
X110236589Y-43166966D01*
X110282655Y-43145752D01*
X110320644Y-43122038D01*
X110340924Y-43101201D01*
X110342118Y-43096524D01*
X110328469Y-43084125D01*
X110292849Y-43065701D01*
X110247697Y-43047084D01*
X110179730Y-43015569D01*
X110091014Y-42964602D01*
X109984282Y-42895954D01*
X109862264Y-42811396D01*
X109727694Y-42712700D01*
X109701183Y-42692686D01*
X109564859Y-42593546D01*
X109444165Y-42515851D01*
X109333808Y-42457295D01*
X109228495Y-42415572D01*
X109122935Y-42388376D01*
X109011836Y-42373402D01*
X108960796Y-42370135D01*
X108882411Y-42365695D01*
X108830018Y-42360248D01*
X108797958Y-42352715D01*
X108780572Y-42342022D01*
X108775459Y-42334866D01*
X108769109Y-42299080D01*
X108789842Y-42270800D01*
X108833948Y-42250215D01*
X108897716Y-42237512D01*
X108977436Y-42232877D01*
X109069398Y-42236496D01*
G37*
%TO.C,TP12*%
D12*
X93130000Y-31260000D02*
X94630000Y-31260000D01*
X94630000Y-32760000D01*
X93130000Y-32760000D01*
X93130000Y-31260000D01*
%TO.C,TP29*%
X104740000Y-35330000D02*
X105740000Y-35330000D01*
X105740000Y-34330000D01*
X104740000Y-34330000D01*
X104740000Y-35330000D01*
D14*
%TO.C,U3*%
X103858400Y-34845600D02*
G75*
G02*
X103658400Y-34845600I-100000J0D01*
G01*
X103658400Y-34845600D02*
G75*
G02*
X103858400Y-34845600I100000J0D01*
G01*
D13*
%TO.C,R5*%
X99914879Y-40040000D02*
X100250121Y-40040000D01*
X99914879Y-40800000D02*
X100250121Y-40800000D01*
%TO.C,U2*%
X100032500Y-27460000D02*
X100507500Y-27460000D01*
X100032500Y-27935000D02*
X100032500Y-27460000D01*
X100032500Y-30205000D02*
X100032500Y-30380000D01*
X100507500Y-30680000D02*
X100272500Y-30680000D01*
X103252500Y-27460000D02*
X102777500Y-27460000D01*
X103252500Y-27935000D02*
X103252500Y-27460000D01*
X103252500Y-30205000D02*
X103252500Y-30680000D01*
X103252500Y-30680000D02*
X102777500Y-30680000D01*
X100032500Y-30680000D02*
X99702500Y-30920000D01*
X99702500Y-30440000D01*
X100032500Y-30680000D01*
G36*
X100032500Y-30680000D02*
G01*
X99702500Y-30920000D01*
X99702500Y-30440000D01*
X100032500Y-30680000D01*
G37*
%TO.C,U1*%
X106020000Y-28732500D02*
X106020000Y-27932500D01*
X106020000Y-28732500D02*
X106020000Y-29532500D01*
X109140000Y-28732500D02*
X109140000Y-27932500D01*
X109140000Y-28732500D02*
X109140000Y-29532500D01*
X106070000Y-30032500D02*
X105740000Y-30272500D01*
X105740000Y-29792500D01*
X106070000Y-30032500D01*
G36*
X106070000Y-30032500D02*
G01*
X105740000Y-30272500D01*
X105740000Y-29792500D01*
X106070000Y-30032500D01*
G37*
%TO.C,R3*%
X105580000Y-33217621D02*
X105580000Y-32882379D01*
X106340000Y-33217621D02*
X106340000Y-32882379D01*
%TO.C,R1*%
X98280000Y-32037621D02*
X98280000Y-31702379D01*
X99040000Y-32037621D02*
X99040000Y-31702379D01*
%TO.C,R4*%
X103287621Y-40040000D02*
X102952379Y-40040000D01*
X103287621Y-40800000D02*
X102952379Y-40800000D01*
D16*
%TO.C,J1*%
X109760000Y-31510000D02*
X111350000Y-31510000D01*
X109760000Y-40450000D02*
X111350000Y-40450000D01*
X115170000Y-31510000D02*
X113790000Y-31510000D01*
X115170000Y-31510000D02*
X115170000Y-40450000D01*
X115170000Y-40450000D02*
X113790000Y-40450000D01*
%TO.C,TP14*%
D12*
X91090000Y-33180000D02*
X92590000Y-33180000D01*
X92590000Y-34680000D01*
X91090000Y-34680000D01*
X91090000Y-33180000D01*
%TO.C,TP27*%
X91080000Y-31280000D02*
X92580000Y-31280000D01*
X92580000Y-32780000D01*
X91080000Y-32780000D01*
X91080000Y-31280000D01*
D13*
%TO.C,C1*%
X96120000Y-31978335D02*
X96120000Y-31746665D01*
X96840000Y-31978335D02*
X96840000Y-31746665D01*
%TO.C,TP28*%
D12*
X104760000Y-36530000D02*
X105760000Y-36530000D01*
X105760000Y-35530000D01*
X104760000Y-35530000D01*
X104760000Y-36530000D01*
D13*
%TO.C,C2*%
X97220000Y-31985835D02*
X97220000Y-31754165D01*
X97940000Y-31985835D02*
X97940000Y-31754165D01*
D12*
%TO.C,D1*%
X98430000Y-41025000D02*
G75*
G02*
X98330000Y-41025000I-50000J0D01*
G01*
X98330000Y-41025000D02*
G75*
G02*
X98430000Y-41025000I50000J0D01*
G01*
D13*
%TO.C,R2*%
X105610000Y-37937621D02*
X105610000Y-37602379D01*
X106370000Y-37937621D02*
X106370000Y-37602379D01*
%TO.C,R10*%
X100978641Y-31496200D02*
X100671359Y-31496200D01*
X100978641Y-32256200D02*
X100671359Y-32256200D01*
D12*
%TO.C,D2*%
X104890000Y-41035000D02*
G75*
G02*
X104790000Y-41035000I-50000J0D01*
G01*
X104790000Y-41035000D02*
G75*
G02*
X104890000Y-41035000I50000J0D01*
G01*
D17*
%TO.C,Q1*%
X96150000Y-34814539D02*
X96150000Y-35185461D01*
X96996546Y-36625600D02*
X97801000Y-36625600D01*
X97801000Y-33374400D02*
X96996546Y-33374400D01*
X97801000Y-34235460D02*
X97801000Y-33374400D01*
X97801000Y-36625600D02*
X97801000Y-35764540D01*
%TO.C,TP31*%
D12*
X93160000Y-33170000D02*
X94660000Y-33170000D01*
X94660000Y-34670000D01*
X93160000Y-34670000D01*
X93160000Y-33170000D01*
D13*
%TO.C,R7*%
X92230000Y-41320121D02*
X92230000Y-40984879D01*
X92990000Y-41320121D02*
X92990000Y-40984879D01*
%TD*%
%LPC*%
D18*
%TO.C,TP30*%
X104900000Y-30120000D03*
%TD*%
D19*
%TO.C,C9*%
X96850000Y-37442500D03*
X96850000Y-38577500D03*
%TD*%
D18*
%TO.C,TP11*%
X93850000Y-30040000D03*
%TD*%
D20*
%TO.C,R9*%
X95700000Y-37400000D03*
X95700000Y-38595000D03*
%TD*%
D18*
%TO.C,TP10*%
X94850000Y-28180000D03*
%TD*%
%TO.C,TP1*%
X91820000Y-30040000D03*
%TD*%
D21*
%TO.C,R6*%
X103590000Y-31860000D03*
X102395000Y-31860000D03*
%TD*%
D18*
%TO.C,TP25*%
X97670000Y-29360000D03*
%TD*%
%TO.C,TP2*%
X92860000Y-28180000D03*
%TD*%
D22*
%TO.C,Q2*%
X102695000Y-43870000D03*
X102695000Y-42920000D03*
X102695000Y-41970000D03*
X100420000Y-41970000D03*
X100420000Y-42920000D03*
X100420000Y-43870000D03*
%TD*%
D23*
%TO.C,U4*%
X94030000Y-43410000D03*
X94980000Y-43410000D03*
X95930000Y-43410000D03*
X95930000Y-40900000D03*
X94980000Y-40900000D03*
X94030000Y-40900000D03*
%TD*%
D18*
%TO.C,TP12*%
X93880000Y-32010000D03*
%TD*%
D24*
%TO.C,TP29*%
X105240000Y-34830000D03*
%TD*%
D25*
%TO.C,U3*%
X103560000Y-33520000D03*
X102290000Y-33520000D03*
X101020000Y-33520000D03*
X99750000Y-33520000D03*
X99750000Y-38752400D03*
X101020000Y-38752400D03*
X102290000Y-38752400D03*
X103560000Y-38752400D03*
D26*
X101655000Y-36136200D03*
%TD*%
D27*
%TO.C,R5*%
X99485000Y-40420000D03*
X100680000Y-40420000D03*
%TD*%
D28*
%TO.C,U2*%
X100892500Y-30507500D03*
X101392500Y-30507500D03*
X101892500Y-30507500D03*
X102392500Y-30507500D03*
D29*
X103080000Y-29820000D03*
X103080000Y-29320000D03*
X103080000Y-28820000D03*
X103080000Y-28320000D03*
D28*
X102392500Y-27632500D03*
X101892500Y-27632500D03*
X101392500Y-27632500D03*
X100892500Y-27632500D03*
D29*
X100205000Y-28320000D03*
X100205000Y-28820000D03*
X100205000Y-29320000D03*
X100205000Y-29820000D03*
D30*
X101642500Y-29070000D03*
%TD*%
D31*
%TO.C,U1*%
X106630000Y-29870000D03*
X107580000Y-29870000D03*
X108530000Y-29870000D03*
X108530000Y-27595000D03*
X106630000Y-27595000D03*
%TD*%
D32*
%TO.C,R3*%
X105960000Y-33647500D03*
X105960000Y-32452500D03*
%TD*%
%TO.C,R1*%
X98660000Y-32467500D03*
X98660000Y-31272500D03*
%TD*%
D21*
%TO.C,R4*%
X103717500Y-40420000D03*
X102522500Y-40420000D03*
%TD*%
D33*
%TO.C,J1*%
X107820000Y-39180000D03*
X107820000Y-38380000D03*
D34*
X107820000Y-37230000D03*
X107820000Y-36230000D03*
X107820000Y-35730000D03*
X107820000Y-34730000D03*
D35*
X107820000Y-32780000D03*
D33*
X107820000Y-33580000D03*
D34*
X107820000Y-34230000D03*
X107820000Y-35230000D03*
X107820000Y-36730000D03*
X107820000Y-37730000D03*
D36*
X108390000Y-40300000D03*
X108390000Y-31660000D03*
D37*
X112570000Y-40300000D03*
X112570000Y-31660000D03*
%TD*%
D18*
%TO.C,TP14*%
X91840000Y-33930000D03*
%TD*%
%TO.C,TP27*%
X91830000Y-32030000D03*
%TD*%
D38*
%TO.C,C1*%
X96480000Y-32430000D03*
X96480000Y-31295000D03*
%TD*%
D24*
%TO.C,TP28*%
X105260000Y-36030000D03*
%TD*%
D38*
%TO.C,C2*%
X97580000Y-32437500D03*
X97580000Y-31302500D03*
%TD*%
D39*
%TO.C,D1*%
X98380000Y-40420000D03*
X98380000Y-39450000D03*
%TD*%
D32*
%TO.C,R2*%
X105990000Y-38367500D03*
X105990000Y-37172500D03*
%TD*%
D40*
%TO.C,R10*%
X101335000Y-31876200D03*
X100315000Y-31876200D03*
%TD*%
D39*
%TO.C,D2*%
X104840000Y-40430000D03*
X104840000Y-39460000D03*
%TD*%
D41*
%TO.C,Q1*%
X95970000Y-34049999D03*
X95970000Y-35950001D03*
X97981000Y-35000000D03*
%TD*%
D18*
%TO.C,TP31*%
X93910000Y-33920000D03*
%TD*%
D32*
%TO.C,R7*%
X92610000Y-41750000D03*
X92610000Y-40555000D03*
%TD*%
%LPD*%
M02*
