%TF.GenerationSoftware,KiCad,Pcbnew,8.0.3*%
%TF.CreationDate,2025-02-27T13:02:32-06:00*%
%TF.ProjectId,HearingAid_Left,48656172-696e-4674-9169-645f4c656674,rev?*%
%TF.SameCoordinates,Original*%
%TF.FileFunction,Drillmap*%
%TF.FilePolarity,Positive*%
%FSLAX45Y45*%
G04 Gerber Fmt 4.5, Leading zero omitted, Abs format (unit mm)*
G04 Created by KiCad (PCBNEW 8.0.3) date 2025-02-27 13:02:32*
%MOMM*%
%LPD*%
G01*
G04 APERTURE LIST*
%ADD10C,0.100000*%
%ADD11C,0.200000*%
G04 APERTURE END LIST*
D10*
X11119931Y-2601387D02*
X11119931Y-2601387D01*
G75*
G02*
X11419931Y-2901386I-1J-300003D01*
G01*
X11418931Y-4213123D01*
G75*
G02*
X11118931Y-4513123I-300001J3D01*
G01*
X9279397Y-4512588D01*
G75*
G02*
X8980063Y-4213255I3J299338D01*
G01*
X8980195Y-2901386D01*
G75*
G02*
X9280195Y-2601387I299995J-4D01*
G01*
X11119931Y-2601387D01*
D11*
X9235840Y-4829606D02*
X9235840Y-4629606D01*
X9235840Y-4629606D02*
X9283459Y-4629606D01*
X9283459Y-4629606D02*
X9312030Y-4639130D01*
X9312030Y-4639130D02*
X9331078Y-4658178D01*
X9331078Y-4658178D02*
X9340602Y-4677225D01*
X9340602Y-4677225D02*
X9350125Y-4715321D01*
X9350125Y-4715321D02*
X9350125Y-4743892D01*
X9350125Y-4743892D02*
X9340602Y-4781987D01*
X9340602Y-4781987D02*
X9331078Y-4801035D01*
X9331078Y-4801035D02*
X9312030Y-4820083D01*
X9312030Y-4820083D02*
X9283459Y-4829606D01*
X9283459Y-4829606D02*
X9235840Y-4829606D01*
X9435840Y-4829606D02*
X9435840Y-4696273D01*
X9435840Y-4734368D02*
X9445363Y-4715321D01*
X9445363Y-4715321D02*
X9454887Y-4705797D01*
X9454887Y-4705797D02*
X9473935Y-4696273D01*
X9473935Y-4696273D02*
X9492983Y-4696273D01*
X9559649Y-4829606D02*
X9559649Y-4696273D01*
X9559649Y-4629606D02*
X9550125Y-4639130D01*
X9550125Y-4639130D02*
X9559649Y-4648654D01*
X9559649Y-4648654D02*
X9569173Y-4639130D01*
X9569173Y-4639130D02*
X9559649Y-4629606D01*
X9559649Y-4629606D02*
X9559649Y-4648654D01*
X9683459Y-4829606D02*
X9664411Y-4820083D01*
X9664411Y-4820083D02*
X9654887Y-4801035D01*
X9654887Y-4801035D02*
X9654887Y-4629606D01*
X9788221Y-4829606D02*
X9769173Y-4820083D01*
X9769173Y-4820083D02*
X9759649Y-4801035D01*
X9759649Y-4801035D02*
X9759649Y-4629606D01*
X10016792Y-4829606D02*
X10016792Y-4629606D01*
X10016792Y-4629606D02*
X10083459Y-4772463D01*
X10083459Y-4772463D02*
X10150125Y-4629606D01*
X10150125Y-4629606D02*
X10150125Y-4829606D01*
X10331078Y-4829606D02*
X10331078Y-4724844D01*
X10331078Y-4724844D02*
X10321554Y-4705797D01*
X10321554Y-4705797D02*
X10302506Y-4696273D01*
X10302506Y-4696273D02*
X10264411Y-4696273D01*
X10264411Y-4696273D02*
X10245363Y-4705797D01*
X10331078Y-4820083D02*
X10312030Y-4829606D01*
X10312030Y-4829606D02*
X10264411Y-4829606D01*
X10264411Y-4829606D02*
X10245363Y-4820083D01*
X10245363Y-4820083D02*
X10235840Y-4801035D01*
X10235840Y-4801035D02*
X10235840Y-4781987D01*
X10235840Y-4781987D02*
X10245363Y-4762940D01*
X10245363Y-4762940D02*
X10264411Y-4753416D01*
X10264411Y-4753416D02*
X10312030Y-4753416D01*
X10312030Y-4753416D02*
X10331078Y-4743892D01*
X10426316Y-4696273D02*
X10426316Y-4896273D01*
X10426316Y-4705797D02*
X10445363Y-4696273D01*
X10445363Y-4696273D02*
X10483459Y-4696273D01*
X10483459Y-4696273D02*
X10502506Y-4705797D01*
X10502506Y-4705797D02*
X10512030Y-4715321D01*
X10512030Y-4715321D02*
X10521554Y-4734368D01*
X10521554Y-4734368D02*
X10521554Y-4791511D01*
X10521554Y-4791511D02*
X10512030Y-4810559D01*
X10512030Y-4810559D02*
X10502506Y-4820083D01*
X10502506Y-4820083D02*
X10483459Y-4829606D01*
X10483459Y-4829606D02*
X10445363Y-4829606D01*
X10445363Y-4829606D02*
X10426316Y-4820083D01*
X10607268Y-4810559D02*
X10616792Y-4820083D01*
X10616792Y-4820083D02*
X10607268Y-4829606D01*
X10607268Y-4829606D02*
X10597744Y-4820083D01*
X10597744Y-4820083D02*
X10607268Y-4810559D01*
X10607268Y-4810559D02*
X10607268Y-4829606D01*
X10607268Y-4705797D02*
X10616792Y-4715321D01*
X10616792Y-4715321D02*
X10607268Y-4724844D01*
X10607268Y-4724844D02*
X10597744Y-4715321D01*
X10597744Y-4715321D02*
X10607268Y-4705797D01*
X10607268Y-4705797D02*
X10607268Y-4724844D01*
M02*
