%TF.GenerationSoftware,KiCad,Pcbnew,8.0.3*%
%TF.CreationDate,2025-02-27T13:02:32-06:00*%
%TF.ProjectId,HearingAid_Left,48656172-696e-4674-9169-645f4c656674,rev?*%
%TF.SameCoordinates,Original*%
%TF.FileFunction,Drillmap*%
%TF.FilePolarity,Positive*%
%FSLAX45Y45*%
G04 Gerber Fmt 4.5, Leading zero omitted, Abs format (unit mm)*
G04 Created by KiCad (PCBNEW 8.0.3) date 2025-02-27 13:02:32*
%MOMM*%
%LPD*%
G01*
G04 APERTURE LIST*
%ADD10C,0.100000*%
%ADD11C,0.200000*%
G04 APERTURE END LIST*
D10*
X11119931Y-2601387D02*
X11119931Y-2601387D01*
G75*
G02*
X11419931Y-2901386I-1J-300003D01*
G01*
X11418931Y-4213123D01*
G75*
G02*
X11118931Y-4513123I-300001J3D01*
G01*
X9279397Y-4512588D01*
G75*
G02*
X8980063Y-4213255I3J299338D01*
G01*
X8980195Y-2901386D01*
G75*
G02*
X9280195Y-2601387I299995J-4D01*
G01*
X11119931Y-2601387D01*
D11*
D10*
X9080000Y-3879000D02*
X9110000Y-3909000D01*
X9110000Y-3879000D02*
X9080000Y-3909000D01*
X9170000Y-3988000D02*
X9200000Y-4018000D01*
X9200000Y-3988000D02*
X9170000Y-4018000D01*
X9220000Y-3614000D02*
X9250000Y-3644000D01*
X9250000Y-3614000D02*
X9220000Y-3644000D01*
X9241000Y-3742000D02*
X9271000Y-3772000D01*
X9271000Y-3742000D02*
X9241000Y-3772000D01*
X9277536Y-2912603D02*
X9307536Y-2942603D01*
X9307536Y-2912603D02*
X9277536Y-2942603D01*
X11030000Y-2911000D02*
X11060000Y-2941000D01*
X11060000Y-2911000D02*
X11030000Y-2941000D01*
X11069000Y-4205000D02*
X11099000Y-4235000D01*
X11099000Y-4205000D02*
X11069000Y-4235000D01*
X11287000Y-3166000D02*
G75*
G02*
X11227000Y-3166000I-30000J0D01*
G01*
X11227000Y-3166000D02*
G75*
G02*
X11287000Y-3166000I30000J0D01*
G01*
X11217000Y-3196000D02*
X11297000Y-3196000D01*
X11297000Y-3136000D02*
G75*
G02*
X11297000Y-3196000I0J-30000D01*
G01*
X11297000Y-3136000D02*
X11217000Y-3136000D01*
X11217000Y-3136000D02*
G75*
G03*
X11217000Y-3196000I0J-30000D01*
G01*
X11287000Y-4030000D02*
G75*
G02*
X11227000Y-4030000I-30000J0D01*
G01*
X11227000Y-4030000D02*
G75*
G02*
X11287000Y-4030000I30000J0D01*
G01*
X11217000Y-4060000D02*
X11297000Y-4060000D01*
X11297000Y-4000000D02*
G75*
G02*
X11297000Y-4060000I0J-30000D01*
G01*
X11297000Y-4000000D02*
X11217000Y-4000000D01*
X11217000Y-4000000D02*
G75*
G03*
X11217000Y-4060000I0J-30000D01*
G01*
D11*
X9235840Y-4829606D02*
X9235840Y-4629606D01*
X9235840Y-4629606D02*
X9283459Y-4629606D01*
X9283459Y-4629606D02*
X9312030Y-4639130D01*
X9312030Y-4639130D02*
X9331078Y-4658178D01*
X9331078Y-4658178D02*
X9340602Y-4677225D01*
X9340602Y-4677225D02*
X9350125Y-4715321D01*
X9350125Y-4715321D02*
X9350125Y-4743892D01*
X9350125Y-4743892D02*
X9340602Y-4781987D01*
X9340602Y-4781987D02*
X9331078Y-4801035D01*
X9331078Y-4801035D02*
X9312030Y-4820083D01*
X9312030Y-4820083D02*
X9283459Y-4829606D01*
X9283459Y-4829606D02*
X9235840Y-4829606D01*
X9435840Y-4829606D02*
X9435840Y-4696273D01*
X9435840Y-4734368D02*
X9445363Y-4715321D01*
X9445363Y-4715321D02*
X9454887Y-4705797D01*
X9454887Y-4705797D02*
X9473935Y-4696273D01*
X9473935Y-4696273D02*
X9492983Y-4696273D01*
X9559649Y-4829606D02*
X9559649Y-4696273D01*
X9559649Y-4629606D02*
X9550125Y-4639130D01*
X9550125Y-4639130D02*
X9559649Y-4648654D01*
X9559649Y-4648654D02*
X9569173Y-4639130D01*
X9569173Y-4639130D02*
X9559649Y-4629606D01*
X9559649Y-4629606D02*
X9559649Y-4648654D01*
X9683459Y-4829606D02*
X9664411Y-4820083D01*
X9664411Y-4820083D02*
X9654887Y-4801035D01*
X9654887Y-4801035D02*
X9654887Y-4629606D01*
X9788221Y-4829606D02*
X9769173Y-4820083D01*
X9769173Y-4820083D02*
X9759649Y-4801035D01*
X9759649Y-4801035D02*
X9759649Y-4629606D01*
X10016792Y-4829606D02*
X10016792Y-4629606D01*
X10016792Y-4629606D02*
X10083459Y-4772463D01*
X10083459Y-4772463D02*
X10150125Y-4629606D01*
X10150125Y-4629606D02*
X10150125Y-4829606D01*
X10331078Y-4829606D02*
X10331078Y-4724844D01*
X10331078Y-4724844D02*
X10321554Y-4705797D01*
X10321554Y-4705797D02*
X10302506Y-4696273D01*
X10302506Y-4696273D02*
X10264411Y-4696273D01*
X10264411Y-4696273D02*
X10245363Y-4705797D01*
X10331078Y-4820083D02*
X10312030Y-4829606D01*
X10312030Y-4829606D02*
X10264411Y-4829606D01*
X10264411Y-4829606D02*
X10245363Y-4820083D01*
X10245363Y-4820083D02*
X10235840Y-4801035D01*
X10235840Y-4801035D02*
X10235840Y-4781987D01*
X10235840Y-4781987D02*
X10245363Y-4762940D01*
X10245363Y-4762940D02*
X10264411Y-4753416D01*
X10264411Y-4753416D02*
X10312030Y-4753416D01*
X10312030Y-4753416D02*
X10331078Y-4743892D01*
X10426316Y-4696273D02*
X10426316Y-4896273D01*
X10426316Y-4705797D02*
X10445363Y-4696273D01*
X10445363Y-4696273D02*
X10483459Y-4696273D01*
X10483459Y-4696273D02*
X10502506Y-4705797D01*
X10502506Y-4705797D02*
X10512030Y-4715321D01*
X10512030Y-4715321D02*
X10521554Y-4734368D01*
X10521554Y-4734368D02*
X10521554Y-4791511D01*
X10521554Y-4791511D02*
X10512030Y-4810559D01*
X10512030Y-4810559D02*
X10502506Y-4820083D01*
X10502506Y-4820083D02*
X10483459Y-4829606D01*
X10483459Y-4829606D02*
X10445363Y-4829606D01*
X10445363Y-4829606D02*
X10426316Y-4820083D01*
X10607268Y-4810559D02*
X10616792Y-4820083D01*
X10616792Y-4820083D02*
X10607268Y-4829606D01*
X10607268Y-4829606D02*
X10597744Y-4820083D01*
X10597744Y-4820083D02*
X10607268Y-4810559D01*
X10607268Y-4810559D02*
X10607268Y-4829606D01*
X10607268Y-4705797D02*
X10616792Y-4715321D01*
X10616792Y-4715321D02*
X10607268Y-4724844D01*
X10607268Y-4724844D02*
X10597744Y-4715321D01*
X10597744Y-4715321D02*
X10607268Y-4705797D01*
X10607268Y-4705797D02*
X10607268Y-4724844D01*
D10*
X8945063Y-5143123D02*
X8975063Y-5173123D01*
X8975063Y-5143123D02*
X8945063Y-5173123D01*
D11*
X9273935Y-5049606D02*
X9292983Y-5049606D01*
X9292983Y-5049606D02*
X9312030Y-5059130D01*
X9312030Y-5059130D02*
X9321554Y-5068654D01*
X9321554Y-5068654D02*
X9331078Y-5087702D01*
X9331078Y-5087702D02*
X9340602Y-5125797D01*
X9340602Y-5125797D02*
X9340602Y-5173416D01*
X9340602Y-5173416D02*
X9331078Y-5211511D01*
X9331078Y-5211511D02*
X9321554Y-5230559D01*
X9321554Y-5230559D02*
X9312030Y-5240083D01*
X9312030Y-5240083D02*
X9292983Y-5249606D01*
X9292983Y-5249606D02*
X9273935Y-5249606D01*
X9273935Y-5249606D02*
X9254887Y-5240083D01*
X9254887Y-5240083D02*
X9245363Y-5230559D01*
X9245363Y-5230559D02*
X9235840Y-5211511D01*
X9235840Y-5211511D02*
X9226316Y-5173416D01*
X9226316Y-5173416D02*
X9226316Y-5125797D01*
X9226316Y-5125797D02*
X9235840Y-5087702D01*
X9235840Y-5087702D02*
X9245363Y-5068654D01*
X9245363Y-5068654D02*
X9254887Y-5059130D01*
X9254887Y-5059130D02*
X9273935Y-5049606D01*
X9426316Y-5230559D02*
X9435840Y-5240083D01*
X9435840Y-5240083D02*
X9426316Y-5249606D01*
X9426316Y-5249606D02*
X9416792Y-5240083D01*
X9416792Y-5240083D02*
X9426316Y-5230559D01*
X9426316Y-5230559D02*
X9426316Y-5249606D01*
X9502506Y-5049606D02*
X9626316Y-5049606D01*
X9626316Y-5049606D02*
X9559649Y-5125797D01*
X9559649Y-5125797D02*
X9588221Y-5125797D01*
X9588221Y-5125797D02*
X9607268Y-5135321D01*
X9607268Y-5135321D02*
X9616792Y-5144844D01*
X9616792Y-5144844D02*
X9626316Y-5163892D01*
X9626316Y-5163892D02*
X9626316Y-5211511D01*
X9626316Y-5211511D02*
X9616792Y-5230559D01*
X9616792Y-5230559D02*
X9607268Y-5240083D01*
X9607268Y-5240083D02*
X9588221Y-5249606D01*
X9588221Y-5249606D02*
X9531078Y-5249606D01*
X9531078Y-5249606D02*
X9512030Y-5240083D01*
X9512030Y-5240083D02*
X9502506Y-5230559D01*
X9750125Y-5049606D02*
X9769173Y-5049606D01*
X9769173Y-5049606D02*
X9788221Y-5059130D01*
X9788221Y-5059130D02*
X9797744Y-5068654D01*
X9797744Y-5068654D02*
X9807268Y-5087702D01*
X9807268Y-5087702D02*
X9816792Y-5125797D01*
X9816792Y-5125797D02*
X9816792Y-5173416D01*
X9816792Y-5173416D02*
X9807268Y-5211511D01*
X9807268Y-5211511D02*
X9797744Y-5230559D01*
X9797744Y-5230559D02*
X9788221Y-5240083D01*
X9788221Y-5240083D02*
X9769173Y-5249606D01*
X9769173Y-5249606D02*
X9750125Y-5249606D01*
X9750125Y-5249606D02*
X9731078Y-5240083D01*
X9731078Y-5240083D02*
X9721554Y-5230559D01*
X9721554Y-5230559D02*
X9712030Y-5211511D01*
X9712030Y-5211511D02*
X9702506Y-5173416D01*
X9702506Y-5173416D02*
X9702506Y-5125797D01*
X9702506Y-5125797D02*
X9712030Y-5087702D01*
X9712030Y-5087702D02*
X9721554Y-5068654D01*
X9721554Y-5068654D02*
X9731078Y-5059130D01*
X9731078Y-5059130D02*
X9750125Y-5049606D01*
X9940602Y-5049606D02*
X9959649Y-5049606D01*
X9959649Y-5049606D02*
X9978697Y-5059130D01*
X9978697Y-5059130D02*
X9988221Y-5068654D01*
X9988221Y-5068654D02*
X9997744Y-5087702D01*
X9997744Y-5087702D02*
X10007268Y-5125797D01*
X10007268Y-5125797D02*
X10007268Y-5173416D01*
X10007268Y-5173416D02*
X9997744Y-5211511D01*
X9997744Y-5211511D02*
X9988221Y-5230559D01*
X9988221Y-5230559D02*
X9978697Y-5240083D01*
X9978697Y-5240083D02*
X9959649Y-5249606D01*
X9959649Y-5249606D02*
X9940602Y-5249606D01*
X9940602Y-5249606D02*
X9921554Y-5240083D01*
X9921554Y-5240083D02*
X9912030Y-5230559D01*
X9912030Y-5230559D02*
X9902506Y-5211511D01*
X9902506Y-5211511D02*
X9892983Y-5173416D01*
X9892983Y-5173416D02*
X9892983Y-5125797D01*
X9892983Y-5125797D02*
X9902506Y-5087702D01*
X9902506Y-5087702D02*
X9912030Y-5068654D01*
X9912030Y-5068654D02*
X9921554Y-5059130D01*
X9921554Y-5059130D02*
X9940602Y-5049606D01*
X10092983Y-5249606D02*
X10092983Y-5116273D01*
X10092983Y-5135321D02*
X10102506Y-5125797D01*
X10102506Y-5125797D02*
X10121554Y-5116273D01*
X10121554Y-5116273D02*
X10150125Y-5116273D01*
X10150125Y-5116273D02*
X10169173Y-5125797D01*
X10169173Y-5125797D02*
X10178697Y-5144844D01*
X10178697Y-5144844D02*
X10178697Y-5249606D01*
X10178697Y-5144844D02*
X10188221Y-5125797D01*
X10188221Y-5125797D02*
X10207268Y-5116273D01*
X10207268Y-5116273D02*
X10235840Y-5116273D01*
X10235840Y-5116273D02*
X10254887Y-5125797D01*
X10254887Y-5125797D02*
X10264411Y-5144844D01*
X10264411Y-5144844D02*
X10264411Y-5249606D01*
X10359649Y-5249606D02*
X10359649Y-5116273D01*
X10359649Y-5135321D02*
X10369173Y-5125797D01*
X10369173Y-5125797D02*
X10388221Y-5116273D01*
X10388221Y-5116273D02*
X10416792Y-5116273D01*
X10416792Y-5116273D02*
X10435840Y-5125797D01*
X10435840Y-5125797D02*
X10445364Y-5144844D01*
X10445364Y-5144844D02*
X10445364Y-5249606D01*
X10445364Y-5144844D02*
X10454887Y-5125797D01*
X10454887Y-5125797D02*
X10473935Y-5116273D01*
X10473935Y-5116273D02*
X10502506Y-5116273D01*
X10502506Y-5116273D02*
X10521554Y-5125797D01*
X10521554Y-5125797D02*
X10531078Y-5144844D01*
X10531078Y-5144844D02*
X10531078Y-5249606D01*
X10921554Y-5040083D02*
X10750126Y-5297225D01*
X11178697Y-5049606D02*
X11197745Y-5049606D01*
X11197745Y-5049606D02*
X11216792Y-5059130D01*
X11216792Y-5059130D02*
X11226316Y-5068654D01*
X11226316Y-5068654D02*
X11235840Y-5087702D01*
X11235840Y-5087702D02*
X11245364Y-5125797D01*
X11245364Y-5125797D02*
X11245364Y-5173416D01*
X11245364Y-5173416D02*
X11235840Y-5211511D01*
X11235840Y-5211511D02*
X11226316Y-5230559D01*
X11226316Y-5230559D02*
X11216792Y-5240083D01*
X11216792Y-5240083D02*
X11197745Y-5249606D01*
X11197745Y-5249606D02*
X11178697Y-5249606D01*
X11178697Y-5249606D02*
X11159649Y-5240083D01*
X11159649Y-5240083D02*
X11150126Y-5230559D01*
X11150126Y-5230559D02*
X11140602Y-5211511D01*
X11140602Y-5211511D02*
X11131078Y-5173416D01*
X11131078Y-5173416D02*
X11131078Y-5125797D01*
X11131078Y-5125797D02*
X11140602Y-5087702D01*
X11140602Y-5087702D02*
X11150126Y-5068654D01*
X11150126Y-5068654D02*
X11159649Y-5059130D01*
X11159649Y-5059130D02*
X11178697Y-5049606D01*
X11331078Y-5230559D02*
X11340602Y-5240083D01*
X11340602Y-5240083D02*
X11331078Y-5249606D01*
X11331078Y-5249606D02*
X11321554Y-5240083D01*
X11321554Y-5240083D02*
X11331078Y-5230559D01*
X11331078Y-5230559D02*
X11331078Y-5249606D01*
X11464411Y-5049606D02*
X11483459Y-5049606D01*
X11483459Y-5049606D02*
X11502506Y-5059130D01*
X11502506Y-5059130D02*
X11512030Y-5068654D01*
X11512030Y-5068654D02*
X11521554Y-5087702D01*
X11521554Y-5087702D02*
X11531078Y-5125797D01*
X11531078Y-5125797D02*
X11531078Y-5173416D01*
X11531078Y-5173416D02*
X11521554Y-5211511D01*
X11521554Y-5211511D02*
X11512030Y-5230559D01*
X11512030Y-5230559D02*
X11502506Y-5240083D01*
X11502506Y-5240083D02*
X11483459Y-5249606D01*
X11483459Y-5249606D02*
X11464411Y-5249606D01*
X11464411Y-5249606D02*
X11445364Y-5240083D01*
X11445364Y-5240083D02*
X11435840Y-5230559D01*
X11435840Y-5230559D02*
X11426316Y-5211511D01*
X11426316Y-5211511D02*
X11416792Y-5173416D01*
X11416792Y-5173416D02*
X11416792Y-5125797D01*
X11416792Y-5125797D02*
X11426316Y-5087702D01*
X11426316Y-5087702D02*
X11435840Y-5068654D01*
X11435840Y-5068654D02*
X11445364Y-5059130D01*
X11445364Y-5059130D02*
X11464411Y-5049606D01*
X11721554Y-5249606D02*
X11607268Y-5249606D01*
X11664411Y-5249606D02*
X11664411Y-5049606D01*
X11664411Y-5049606D02*
X11645364Y-5078178D01*
X11645364Y-5078178D02*
X11626316Y-5097225D01*
X11626316Y-5097225D02*
X11607268Y-5106749D01*
X11912030Y-5249606D02*
X11797745Y-5249606D01*
X11854887Y-5249606D02*
X11854887Y-5049606D01*
X11854887Y-5049606D02*
X11835840Y-5078178D01*
X11835840Y-5078178D02*
X11816792Y-5097225D01*
X11816792Y-5097225D02*
X11797745Y-5106749D01*
X12026316Y-5135321D02*
X12007268Y-5125797D01*
X12007268Y-5125797D02*
X11997745Y-5116273D01*
X11997745Y-5116273D02*
X11988221Y-5097225D01*
X11988221Y-5097225D02*
X11988221Y-5087702D01*
X11988221Y-5087702D02*
X11997745Y-5068654D01*
X11997745Y-5068654D02*
X12007268Y-5059130D01*
X12007268Y-5059130D02*
X12026316Y-5049606D01*
X12026316Y-5049606D02*
X12064411Y-5049606D01*
X12064411Y-5049606D02*
X12083459Y-5059130D01*
X12083459Y-5059130D02*
X12092983Y-5068654D01*
X12092983Y-5068654D02*
X12102506Y-5087702D01*
X12102506Y-5087702D02*
X12102506Y-5097225D01*
X12102506Y-5097225D02*
X12092983Y-5116273D01*
X12092983Y-5116273D02*
X12083459Y-5125797D01*
X12083459Y-5125797D02*
X12064411Y-5135321D01*
X12064411Y-5135321D02*
X12026316Y-5135321D01*
X12026316Y-5135321D02*
X12007268Y-5144844D01*
X12007268Y-5144844D02*
X11997745Y-5154368D01*
X11997745Y-5154368D02*
X11988221Y-5173416D01*
X11988221Y-5173416D02*
X11988221Y-5211511D01*
X11988221Y-5211511D02*
X11997745Y-5230559D01*
X11997745Y-5230559D02*
X12007268Y-5240083D01*
X12007268Y-5240083D02*
X12026316Y-5249606D01*
X12026316Y-5249606D02*
X12064411Y-5249606D01*
X12064411Y-5249606D02*
X12083459Y-5240083D01*
X12083459Y-5240083D02*
X12092983Y-5230559D01*
X12092983Y-5230559D02*
X12102506Y-5211511D01*
X12102506Y-5211511D02*
X12102506Y-5173416D01*
X12102506Y-5173416D02*
X12092983Y-5154368D01*
X12092983Y-5154368D02*
X12083459Y-5144844D01*
X12083459Y-5144844D02*
X12064411Y-5135321D01*
X12178697Y-5049606D02*
X12178697Y-5087702D01*
X12254887Y-5049606D02*
X12254887Y-5087702D01*
X12550126Y-5325797D02*
X12540602Y-5316273D01*
X12540602Y-5316273D02*
X12521554Y-5287702D01*
X12521554Y-5287702D02*
X12512030Y-5268654D01*
X12512030Y-5268654D02*
X12502507Y-5240083D01*
X12502507Y-5240083D02*
X12492983Y-5192463D01*
X12492983Y-5192463D02*
X12492983Y-5154368D01*
X12492983Y-5154368D02*
X12502507Y-5106749D01*
X12502507Y-5106749D02*
X12512030Y-5078178D01*
X12512030Y-5078178D02*
X12521554Y-5059130D01*
X12521554Y-5059130D02*
X12540602Y-5030559D01*
X12540602Y-5030559D02*
X12550126Y-5021035D01*
X12607268Y-5049606D02*
X12740602Y-5049606D01*
X12740602Y-5049606D02*
X12654887Y-5249606D01*
X12969173Y-5249606D02*
X12969173Y-5049606D01*
X13054888Y-5249606D02*
X13054888Y-5144844D01*
X13054888Y-5144844D02*
X13045364Y-5125797D01*
X13045364Y-5125797D02*
X13026316Y-5116273D01*
X13026316Y-5116273D02*
X12997745Y-5116273D01*
X12997745Y-5116273D02*
X12978697Y-5125797D01*
X12978697Y-5125797D02*
X12969173Y-5135321D01*
X13178697Y-5249606D02*
X13159649Y-5240083D01*
X13159649Y-5240083D02*
X13150126Y-5230559D01*
X13150126Y-5230559D02*
X13140602Y-5211511D01*
X13140602Y-5211511D02*
X13140602Y-5154368D01*
X13140602Y-5154368D02*
X13150126Y-5135321D01*
X13150126Y-5135321D02*
X13159649Y-5125797D01*
X13159649Y-5125797D02*
X13178697Y-5116273D01*
X13178697Y-5116273D02*
X13207269Y-5116273D01*
X13207269Y-5116273D02*
X13226316Y-5125797D01*
X13226316Y-5125797D02*
X13235840Y-5135321D01*
X13235840Y-5135321D02*
X13245364Y-5154368D01*
X13245364Y-5154368D02*
X13245364Y-5211511D01*
X13245364Y-5211511D02*
X13235840Y-5230559D01*
X13235840Y-5230559D02*
X13226316Y-5240083D01*
X13226316Y-5240083D02*
X13207269Y-5249606D01*
X13207269Y-5249606D02*
X13178697Y-5249606D01*
X13359649Y-5249606D02*
X13340602Y-5240083D01*
X13340602Y-5240083D02*
X13331078Y-5221035D01*
X13331078Y-5221035D02*
X13331078Y-5049606D01*
X13512030Y-5240083D02*
X13492983Y-5249606D01*
X13492983Y-5249606D02*
X13454888Y-5249606D01*
X13454888Y-5249606D02*
X13435840Y-5240083D01*
X13435840Y-5240083D02*
X13426316Y-5221035D01*
X13426316Y-5221035D02*
X13426316Y-5144844D01*
X13426316Y-5144844D02*
X13435840Y-5125797D01*
X13435840Y-5125797D02*
X13454888Y-5116273D01*
X13454888Y-5116273D02*
X13492983Y-5116273D01*
X13492983Y-5116273D02*
X13512030Y-5125797D01*
X13512030Y-5125797D02*
X13521554Y-5144844D01*
X13521554Y-5144844D02*
X13521554Y-5163892D01*
X13521554Y-5163892D02*
X13426316Y-5182940D01*
X13597745Y-5240083D02*
X13616792Y-5249606D01*
X13616792Y-5249606D02*
X13654888Y-5249606D01*
X13654888Y-5249606D02*
X13673935Y-5240083D01*
X13673935Y-5240083D02*
X13683459Y-5221035D01*
X13683459Y-5221035D02*
X13683459Y-5211511D01*
X13683459Y-5211511D02*
X13673935Y-5192463D01*
X13673935Y-5192463D02*
X13654888Y-5182940D01*
X13654888Y-5182940D02*
X13626316Y-5182940D01*
X13626316Y-5182940D02*
X13607269Y-5173416D01*
X13607269Y-5173416D02*
X13597745Y-5154368D01*
X13597745Y-5154368D02*
X13597745Y-5144844D01*
X13597745Y-5144844D02*
X13607269Y-5125797D01*
X13607269Y-5125797D02*
X13626316Y-5116273D01*
X13626316Y-5116273D02*
X13654888Y-5116273D01*
X13654888Y-5116273D02*
X13673935Y-5125797D01*
X13750126Y-5325797D02*
X13759650Y-5316273D01*
X13759650Y-5316273D02*
X13778697Y-5287702D01*
X13778697Y-5287702D02*
X13788221Y-5268654D01*
X13788221Y-5268654D02*
X13797745Y-5240083D01*
X13797745Y-5240083D02*
X13807269Y-5192463D01*
X13807269Y-5192463D02*
X13807269Y-5154368D01*
X13807269Y-5154368D02*
X13797745Y-5106749D01*
X13797745Y-5106749D02*
X13788221Y-5078178D01*
X13788221Y-5078178D02*
X13778697Y-5059130D01*
X13778697Y-5059130D02*
X13759650Y-5030559D01*
X13759650Y-5030559D02*
X13750126Y-5021035D01*
D10*
X8975063Y-5422123D02*
G75*
G02*
X8915063Y-5422123I-30000J0D01*
G01*
X8915063Y-5422123D02*
G75*
G02*
X8975063Y-5422123I30000J0D01*
G01*
D11*
X9273935Y-5313606D02*
X9292983Y-5313606D01*
X9292983Y-5313606D02*
X9312030Y-5323130D01*
X9312030Y-5323130D02*
X9321554Y-5332654D01*
X9321554Y-5332654D02*
X9331078Y-5351702D01*
X9331078Y-5351702D02*
X9340602Y-5389797D01*
X9340602Y-5389797D02*
X9340602Y-5437416D01*
X9340602Y-5437416D02*
X9331078Y-5475511D01*
X9331078Y-5475511D02*
X9321554Y-5494559D01*
X9321554Y-5494559D02*
X9312030Y-5504083D01*
X9312030Y-5504083D02*
X9292983Y-5513606D01*
X9292983Y-5513606D02*
X9273935Y-5513606D01*
X9273935Y-5513606D02*
X9254887Y-5504083D01*
X9254887Y-5504083D02*
X9245363Y-5494559D01*
X9245363Y-5494559D02*
X9235840Y-5475511D01*
X9235840Y-5475511D02*
X9226316Y-5437416D01*
X9226316Y-5437416D02*
X9226316Y-5389797D01*
X9226316Y-5389797D02*
X9235840Y-5351702D01*
X9235840Y-5351702D02*
X9245363Y-5332654D01*
X9245363Y-5332654D02*
X9254887Y-5323130D01*
X9254887Y-5323130D02*
X9273935Y-5313606D01*
X9426316Y-5494559D02*
X9435840Y-5504083D01*
X9435840Y-5504083D02*
X9426316Y-5513606D01*
X9426316Y-5513606D02*
X9416792Y-5504083D01*
X9416792Y-5504083D02*
X9426316Y-5494559D01*
X9426316Y-5494559D02*
X9426316Y-5513606D01*
X9607268Y-5313606D02*
X9569173Y-5313606D01*
X9569173Y-5313606D02*
X9550125Y-5323130D01*
X9550125Y-5323130D02*
X9540602Y-5332654D01*
X9540602Y-5332654D02*
X9521554Y-5361225D01*
X9521554Y-5361225D02*
X9512030Y-5399321D01*
X9512030Y-5399321D02*
X9512030Y-5475511D01*
X9512030Y-5475511D02*
X9521554Y-5494559D01*
X9521554Y-5494559D02*
X9531078Y-5504083D01*
X9531078Y-5504083D02*
X9550125Y-5513606D01*
X9550125Y-5513606D02*
X9588221Y-5513606D01*
X9588221Y-5513606D02*
X9607268Y-5504083D01*
X9607268Y-5504083D02*
X9616792Y-5494559D01*
X9616792Y-5494559D02*
X9626316Y-5475511D01*
X9626316Y-5475511D02*
X9626316Y-5427892D01*
X9626316Y-5427892D02*
X9616792Y-5408844D01*
X9616792Y-5408844D02*
X9607268Y-5399321D01*
X9607268Y-5399321D02*
X9588221Y-5389797D01*
X9588221Y-5389797D02*
X9550125Y-5389797D01*
X9550125Y-5389797D02*
X9531078Y-5399321D01*
X9531078Y-5399321D02*
X9521554Y-5408844D01*
X9521554Y-5408844D02*
X9512030Y-5427892D01*
X9750125Y-5313606D02*
X9769173Y-5313606D01*
X9769173Y-5313606D02*
X9788221Y-5323130D01*
X9788221Y-5323130D02*
X9797744Y-5332654D01*
X9797744Y-5332654D02*
X9807268Y-5351702D01*
X9807268Y-5351702D02*
X9816792Y-5389797D01*
X9816792Y-5389797D02*
X9816792Y-5437416D01*
X9816792Y-5437416D02*
X9807268Y-5475511D01*
X9807268Y-5475511D02*
X9797744Y-5494559D01*
X9797744Y-5494559D02*
X9788221Y-5504083D01*
X9788221Y-5504083D02*
X9769173Y-5513606D01*
X9769173Y-5513606D02*
X9750125Y-5513606D01*
X9750125Y-5513606D02*
X9731078Y-5504083D01*
X9731078Y-5504083D02*
X9721554Y-5494559D01*
X9721554Y-5494559D02*
X9712030Y-5475511D01*
X9712030Y-5475511D02*
X9702506Y-5437416D01*
X9702506Y-5437416D02*
X9702506Y-5389797D01*
X9702506Y-5389797D02*
X9712030Y-5351702D01*
X9712030Y-5351702D02*
X9721554Y-5332654D01*
X9721554Y-5332654D02*
X9731078Y-5323130D01*
X9731078Y-5323130D02*
X9750125Y-5313606D01*
X9940602Y-5313606D02*
X9959649Y-5313606D01*
X9959649Y-5313606D02*
X9978697Y-5323130D01*
X9978697Y-5323130D02*
X9988221Y-5332654D01*
X9988221Y-5332654D02*
X9997744Y-5351702D01*
X9997744Y-5351702D02*
X10007268Y-5389797D01*
X10007268Y-5389797D02*
X10007268Y-5437416D01*
X10007268Y-5437416D02*
X9997744Y-5475511D01*
X9997744Y-5475511D02*
X9988221Y-5494559D01*
X9988221Y-5494559D02*
X9978697Y-5504083D01*
X9978697Y-5504083D02*
X9959649Y-5513606D01*
X9959649Y-5513606D02*
X9940602Y-5513606D01*
X9940602Y-5513606D02*
X9921554Y-5504083D01*
X9921554Y-5504083D02*
X9912030Y-5494559D01*
X9912030Y-5494559D02*
X9902506Y-5475511D01*
X9902506Y-5475511D02*
X9892983Y-5437416D01*
X9892983Y-5437416D02*
X9892983Y-5389797D01*
X9892983Y-5389797D02*
X9902506Y-5351702D01*
X9902506Y-5351702D02*
X9912030Y-5332654D01*
X9912030Y-5332654D02*
X9921554Y-5323130D01*
X9921554Y-5323130D02*
X9940602Y-5313606D01*
X10092983Y-5513606D02*
X10092983Y-5380273D01*
X10092983Y-5399321D02*
X10102506Y-5389797D01*
X10102506Y-5389797D02*
X10121554Y-5380273D01*
X10121554Y-5380273D02*
X10150125Y-5380273D01*
X10150125Y-5380273D02*
X10169173Y-5389797D01*
X10169173Y-5389797D02*
X10178697Y-5408844D01*
X10178697Y-5408844D02*
X10178697Y-5513606D01*
X10178697Y-5408844D02*
X10188221Y-5389797D01*
X10188221Y-5389797D02*
X10207268Y-5380273D01*
X10207268Y-5380273D02*
X10235840Y-5380273D01*
X10235840Y-5380273D02*
X10254887Y-5389797D01*
X10254887Y-5389797D02*
X10264411Y-5408844D01*
X10264411Y-5408844D02*
X10264411Y-5513606D01*
X10359649Y-5513606D02*
X10359649Y-5380273D01*
X10359649Y-5399321D02*
X10369173Y-5389797D01*
X10369173Y-5389797D02*
X10388221Y-5380273D01*
X10388221Y-5380273D02*
X10416792Y-5380273D01*
X10416792Y-5380273D02*
X10435840Y-5389797D01*
X10435840Y-5389797D02*
X10445364Y-5408844D01*
X10445364Y-5408844D02*
X10445364Y-5513606D01*
X10445364Y-5408844D02*
X10454887Y-5389797D01*
X10454887Y-5389797D02*
X10473935Y-5380273D01*
X10473935Y-5380273D02*
X10502506Y-5380273D01*
X10502506Y-5380273D02*
X10521554Y-5389797D01*
X10521554Y-5389797D02*
X10531078Y-5408844D01*
X10531078Y-5408844D02*
X10531078Y-5513606D01*
X10921554Y-5304083D02*
X10750126Y-5561225D01*
X11178697Y-5313606D02*
X11197745Y-5313606D01*
X11197745Y-5313606D02*
X11216792Y-5323130D01*
X11216792Y-5323130D02*
X11226316Y-5332654D01*
X11226316Y-5332654D02*
X11235840Y-5351702D01*
X11235840Y-5351702D02*
X11245364Y-5389797D01*
X11245364Y-5389797D02*
X11245364Y-5437416D01*
X11245364Y-5437416D02*
X11235840Y-5475511D01*
X11235840Y-5475511D02*
X11226316Y-5494559D01*
X11226316Y-5494559D02*
X11216792Y-5504083D01*
X11216792Y-5504083D02*
X11197745Y-5513606D01*
X11197745Y-5513606D02*
X11178697Y-5513606D01*
X11178697Y-5513606D02*
X11159649Y-5504083D01*
X11159649Y-5504083D02*
X11150126Y-5494559D01*
X11150126Y-5494559D02*
X11140602Y-5475511D01*
X11140602Y-5475511D02*
X11131078Y-5437416D01*
X11131078Y-5437416D02*
X11131078Y-5389797D01*
X11131078Y-5389797D02*
X11140602Y-5351702D01*
X11140602Y-5351702D02*
X11150126Y-5332654D01*
X11150126Y-5332654D02*
X11159649Y-5323130D01*
X11159649Y-5323130D02*
X11178697Y-5313606D01*
X11331078Y-5494559D02*
X11340602Y-5504083D01*
X11340602Y-5504083D02*
X11331078Y-5513606D01*
X11331078Y-5513606D02*
X11321554Y-5504083D01*
X11321554Y-5504083D02*
X11331078Y-5494559D01*
X11331078Y-5494559D02*
X11331078Y-5513606D01*
X11464411Y-5313606D02*
X11483459Y-5313606D01*
X11483459Y-5313606D02*
X11502506Y-5323130D01*
X11502506Y-5323130D02*
X11512030Y-5332654D01*
X11512030Y-5332654D02*
X11521554Y-5351702D01*
X11521554Y-5351702D02*
X11531078Y-5389797D01*
X11531078Y-5389797D02*
X11531078Y-5437416D01*
X11531078Y-5437416D02*
X11521554Y-5475511D01*
X11521554Y-5475511D02*
X11512030Y-5494559D01*
X11512030Y-5494559D02*
X11502506Y-5504083D01*
X11502506Y-5504083D02*
X11483459Y-5513606D01*
X11483459Y-5513606D02*
X11464411Y-5513606D01*
X11464411Y-5513606D02*
X11445364Y-5504083D01*
X11445364Y-5504083D02*
X11435840Y-5494559D01*
X11435840Y-5494559D02*
X11426316Y-5475511D01*
X11426316Y-5475511D02*
X11416792Y-5437416D01*
X11416792Y-5437416D02*
X11416792Y-5389797D01*
X11416792Y-5389797D02*
X11426316Y-5351702D01*
X11426316Y-5351702D02*
X11435840Y-5332654D01*
X11435840Y-5332654D02*
X11445364Y-5323130D01*
X11445364Y-5323130D02*
X11464411Y-5313606D01*
X11607268Y-5332654D02*
X11616792Y-5323130D01*
X11616792Y-5323130D02*
X11635840Y-5313606D01*
X11635840Y-5313606D02*
X11683459Y-5313606D01*
X11683459Y-5313606D02*
X11702506Y-5323130D01*
X11702506Y-5323130D02*
X11712030Y-5332654D01*
X11712030Y-5332654D02*
X11721554Y-5351702D01*
X11721554Y-5351702D02*
X11721554Y-5370749D01*
X11721554Y-5370749D02*
X11712030Y-5399321D01*
X11712030Y-5399321D02*
X11597745Y-5513606D01*
X11597745Y-5513606D02*
X11721554Y-5513606D01*
X11788221Y-5313606D02*
X11912030Y-5313606D01*
X11912030Y-5313606D02*
X11845364Y-5389797D01*
X11845364Y-5389797D02*
X11873935Y-5389797D01*
X11873935Y-5389797D02*
X11892983Y-5399321D01*
X11892983Y-5399321D02*
X11902506Y-5408844D01*
X11902506Y-5408844D02*
X11912030Y-5427892D01*
X11912030Y-5427892D02*
X11912030Y-5475511D01*
X11912030Y-5475511D02*
X11902506Y-5494559D01*
X11902506Y-5494559D02*
X11892983Y-5504083D01*
X11892983Y-5504083D02*
X11873935Y-5513606D01*
X11873935Y-5513606D02*
X11816792Y-5513606D01*
X11816792Y-5513606D02*
X11797745Y-5504083D01*
X11797745Y-5504083D02*
X11788221Y-5494559D01*
X12083459Y-5313606D02*
X12045364Y-5313606D01*
X12045364Y-5313606D02*
X12026316Y-5323130D01*
X12026316Y-5323130D02*
X12016792Y-5332654D01*
X12016792Y-5332654D02*
X11997745Y-5361225D01*
X11997745Y-5361225D02*
X11988221Y-5399321D01*
X11988221Y-5399321D02*
X11988221Y-5475511D01*
X11988221Y-5475511D02*
X11997745Y-5494559D01*
X11997745Y-5494559D02*
X12007268Y-5504083D01*
X12007268Y-5504083D02*
X12026316Y-5513606D01*
X12026316Y-5513606D02*
X12064411Y-5513606D01*
X12064411Y-5513606D02*
X12083459Y-5504083D01*
X12083459Y-5504083D02*
X12092983Y-5494559D01*
X12092983Y-5494559D02*
X12102506Y-5475511D01*
X12102506Y-5475511D02*
X12102506Y-5427892D01*
X12102506Y-5427892D02*
X12092983Y-5408844D01*
X12092983Y-5408844D02*
X12083459Y-5399321D01*
X12083459Y-5399321D02*
X12064411Y-5389797D01*
X12064411Y-5389797D02*
X12026316Y-5389797D01*
X12026316Y-5389797D02*
X12007268Y-5399321D01*
X12007268Y-5399321D02*
X11997745Y-5408844D01*
X11997745Y-5408844D02*
X11988221Y-5427892D01*
X12178697Y-5313606D02*
X12178697Y-5351702D01*
X12254887Y-5313606D02*
X12254887Y-5351702D01*
X12550126Y-5589797D02*
X12540602Y-5580273D01*
X12540602Y-5580273D02*
X12521554Y-5551702D01*
X12521554Y-5551702D02*
X12512030Y-5532654D01*
X12512030Y-5532654D02*
X12502507Y-5504083D01*
X12502507Y-5504083D02*
X12492983Y-5456463D01*
X12492983Y-5456463D02*
X12492983Y-5418368D01*
X12492983Y-5418368D02*
X12502507Y-5370749D01*
X12502507Y-5370749D02*
X12512030Y-5342178D01*
X12512030Y-5342178D02*
X12521554Y-5323130D01*
X12521554Y-5323130D02*
X12540602Y-5294559D01*
X12540602Y-5294559D02*
X12550126Y-5285035D01*
X12664411Y-5313606D02*
X12683459Y-5313606D01*
X12683459Y-5313606D02*
X12702507Y-5323130D01*
X12702507Y-5323130D02*
X12712030Y-5332654D01*
X12712030Y-5332654D02*
X12721554Y-5351702D01*
X12721554Y-5351702D02*
X12731078Y-5389797D01*
X12731078Y-5389797D02*
X12731078Y-5437416D01*
X12731078Y-5437416D02*
X12721554Y-5475511D01*
X12721554Y-5475511D02*
X12712030Y-5494559D01*
X12712030Y-5494559D02*
X12702507Y-5504083D01*
X12702507Y-5504083D02*
X12683459Y-5513606D01*
X12683459Y-5513606D02*
X12664411Y-5513606D01*
X12664411Y-5513606D02*
X12645364Y-5504083D01*
X12645364Y-5504083D02*
X12635840Y-5494559D01*
X12635840Y-5494559D02*
X12626316Y-5475511D01*
X12626316Y-5475511D02*
X12616792Y-5437416D01*
X12616792Y-5437416D02*
X12616792Y-5389797D01*
X12616792Y-5389797D02*
X12626316Y-5351702D01*
X12626316Y-5351702D02*
X12635840Y-5332654D01*
X12635840Y-5332654D02*
X12645364Y-5323130D01*
X12645364Y-5323130D02*
X12664411Y-5313606D01*
X12969173Y-5513606D02*
X12969173Y-5313606D01*
X13054888Y-5513606D02*
X13054888Y-5408844D01*
X13054888Y-5408844D02*
X13045364Y-5389797D01*
X13045364Y-5389797D02*
X13026316Y-5380273D01*
X13026316Y-5380273D02*
X12997745Y-5380273D01*
X12997745Y-5380273D02*
X12978697Y-5389797D01*
X12978697Y-5389797D02*
X12969173Y-5399321D01*
X13178697Y-5513606D02*
X13159649Y-5504083D01*
X13159649Y-5504083D02*
X13150126Y-5494559D01*
X13150126Y-5494559D02*
X13140602Y-5475511D01*
X13140602Y-5475511D02*
X13140602Y-5418368D01*
X13140602Y-5418368D02*
X13150126Y-5399321D01*
X13150126Y-5399321D02*
X13159649Y-5389797D01*
X13159649Y-5389797D02*
X13178697Y-5380273D01*
X13178697Y-5380273D02*
X13207269Y-5380273D01*
X13207269Y-5380273D02*
X13226316Y-5389797D01*
X13226316Y-5389797D02*
X13235840Y-5399321D01*
X13235840Y-5399321D02*
X13245364Y-5418368D01*
X13245364Y-5418368D02*
X13245364Y-5475511D01*
X13245364Y-5475511D02*
X13235840Y-5494559D01*
X13235840Y-5494559D02*
X13226316Y-5504083D01*
X13226316Y-5504083D02*
X13207269Y-5513606D01*
X13207269Y-5513606D02*
X13178697Y-5513606D01*
X13359649Y-5513606D02*
X13340602Y-5504083D01*
X13340602Y-5504083D02*
X13331078Y-5485035D01*
X13331078Y-5485035D02*
X13331078Y-5313606D01*
X13512030Y-5504083D02*
X13492983Y-5513606D01*
X13492983Y-5513606D02*
X13454888Y-5513606D01*
X13454888Y-5513606D02*
X13435840Y-5504083D01*
X13435840Y-5504083D02*
X13426316Y-5485035D01*
X13426316Y-5485035D02*
X13426316Y-5408844D01*
X13426316Y-5408844D02*
X13435840Y-5389797D01*
X13435840Y-5389797D02*
X13454888Y-5380273D01*
X13454888Y-5380273D02*
X13492983Y-5380273D01*
X13492983Y-5380273D02*
X13512030Y-5389797D01*
X13512030Y-5389797D02*
X13521554Y-5408844D01*
X13521554Y-5408844D02*
X13521554Y-5427892D01*
X13521554Y-5427892D02*
X13426316Y-5446940D01*
X13597745Y-5504083D02*
X13616792Y-5513606D01*
X13616792Y-5513606D02*
X13654888Y-5513606D01*
X13654888Y-5513606D02*
X13673935Y-5504083D01*
X13673935Y-5504083D02*
X13683459Y-5485035D01*
X13683459Y-5485035D02*
X13683459Y-5475511D01*
X13683459Y-5475511D02*
X13673935Y-5456463D01*
X13673935Y-5456463D02*
X13654888Y-5446940D01*
X13654888Y-5446940D02*
X13626316Y-5446940D01*
X13626316Y-5446940D02*
X13607269Y-5437416D01*
X13607269Y-5437416D02*
X13597745Y-5418368D01*
X13597745Y-5418368D02*
X13597745Y-5408844D01*
X13597745Y-5408844D02*
X13607269Y-5389797D01*
X13607269Y-5389797D02*
X13626316Y-5380273D01*
X13626316Y-5380273D02*
X13654888Y-5380273D01*
X13654888Y-5380273D02*
X13673935Y-5389797D01*
X13921554Y-5437416D02*
X14073935Y-5437416D01*
X13997745Y-5513606D02*
X13997745Y-5361225D01*
X14312031Y-5332654D02*
X14321554Y-5323130D01*
X14321554Y-5323130D02*
X14340602Y-5313606D01*
X14340602Y-5313606D02*
X14388221Y-5313606D01*
X14388221Y-5313606D02*
X14407269Y-5323130D01*
X14407269Y-5323130D02*
X14416792Y-5332654D01*
X14416792Y-5332654D02*
X14426316Y-5351702D01*
X14426316Y-5351702D02*
X14426316Y-5370749D01*
X14426316Y-5370749D02*
X14416792Y-5399321D01*
X14416792Y-5399321D02*
X14302507Y-5513606D01*
X14302507Y-5513606D02*
X14426316Y-5513606D01*
X14654888Y-5504083D02*
X14673935Y-5513606D01*
X14673935Y-5513606D02*
X14712031Y-5513606D01*
X14712031Y-5513606D02*
X14731078Y-5504083D01*
X14731078Y-5504083D02*
X14740602Y-5485035D01*
X14740602Y-5485035D02*
X14740602Y-5475511D01*
X14740602Y-5475511D02*
X14731078Y-5456463D01*
X14731078Y-5456463D02*
X14712031Y-5446940D01*
X14712031Y-5446940D02*
X14683459Y-5446940D01*
X14683459Y-5446940D02*
X14664412Y-5437416D01*
X14664412Y-5437416D02*
X14654888Y-5418368D01*
X14654888Y-5418368D02*
X14654888Y-5408844D01*
X14654888Y-5408844D02*
X14664412Y-5389797D01*
X14664412Y-5389797D02*
X14683459Y-5380273D01*
X14683459Y-5380273D02*
X14712031Y-5380273D01*
X14712031Y-5380273D02*
X14731078Y-5389797D01*
X14854888Y-5513606D02*
X14835840Y-5504083D01*
X14835840Y-5504083D02*
X14826316Y-5485035D01*
X14826316Y-5485035D02*
X14826316Y-5313606D01*
X14959650Y-5513606D02*
X14940602Y-5504083D01*
X14940602Y-5504083D02*
X14931078Y-5494559D01*
X14931078Y-5494559D02*
X14921554Y-5475511D01*
X14921554Y-5475511D02*
X14921554Y-5418368D01*
X14921554Y-5418368D02*
X14931078Y-5399321D01*
X14931078Y-5399321D02*
X14940602Y-5389797D01*
X14940602Y-5389797D02*
X14959650Y-5380273D01*
X14959650Y-5380273D02*
X14988221Y-5380273D01*
X14988221Y-5380273D02*
X15007269Y-5389797D01*
X15007269Y-5389797D02*
X15016793Y-5399321D01*
X15016793Y-5399321D02*
X15026316Y-5418368D01*
X15026316Y-5418368D02*
X15026316Y-5475511D01*
X15026316Y-5475511D02*
X15016793Y-5494559D01*
X15016793Y-5494559D02*
X15007269Y-5504083D01*
X15007269Y-5504083D02*
X14988221Y-5513606D01*
X14988221Y-5513606D02*
X14959650Y-5513606D01*
X15083459Y-5380273D02*
X15159650Y-5380273D01*
X15112031Y-5313606D02*
X15112031Y-5485035D01*
X15112031Y-5485035D02*
X15121554Y-5504083D01*
X15121554Y-5504083D02*
X15140602Y-5513606D01*
X15140602Y-5513606D02*
X15159650Y-5513606D01*
X15216793Y-5504083D02*
X15235840Y-5513606D01*
X15235840Y-5513606D02*
X15273935Y-5513606D01*
X15273935Y-5513606D02*
X15292983Y-5504083D01*
X15292983Y-5504083D02*
X15302507Y-5485035D01*
X15302507Y-5485035D02*
X15302507Y-5475511D01*
X15302507Y-5475511D02*
X15292983Y-5456463D01*
X15292983Y-5456463D02*
X15273935Y-5446940D01*
X15273935Y-5446940D02*
X15245364Y-5446940D01*
X15245364Y-5446940D02*
X15226316Y-5437416D01*
X15226316Y-5437416D02*
X15216793Y-5418368D01*
X15216793Y-5418368D02*
X15216793Y-5408844D01*
X15216793Y-5408844D02*
X15226316Y-5389797D01*
X15226316Y-5389797D02*
X15245364Y-5380273D01*
X15245364Y-5380273D02*
X15273935Y-5380273D01*
X15273935Y-5380273D02*
X15292983Y-5389797D01*
X15369174Y-5589797D02*
X15378697Y-5580273D01*
X15378697Y-5580273D02*
X15397745Y-5551702D01*
X15397745Y-5551702D02*
X15407269Y-5532654D01*
X15407269Y-5532654D02*
X15416793Y-5504083D01*
X15416793Y-5504083D02*
X15426316Y-5456463D01*
X15426316Y-5456463D02*
X15426316Y-5418368D01*
X15426316Y-5418368D02*
X15416793Y-5370749D01*
X15416793Y-5370749D02*
X15407269Y-5342178D01*
X15407269Y-5342178D02*
X15397745Y-5323130D01*
X15397745Y-5323130D02*
X15378697Y-5294559D01*
X15378697Y-5294559D02*
X15369174Y-5285035D01*
M02*
