%TF.GenerationSoftware,KiCad,Pcbnew,8.0.3*%
%TF.CreationDate,2025-02-27T13:02:28-06:00*%
%TF.ProjectId,HearingAid_Left,48656172-696e-4674-9169-645f4c656674,rev?*%
%TF.SameCoordinates,Original*%
%TF.FileFunction,Copper,L2,Bot*%
%TF.FilePolarity,Positive*%
%FSLAX46Y46*%
G04 Gerber Fmt 4.6, Leading zero omitted, Abs format (unit mm)*
G04 Created by KiCad (PCBNEW 8.0.3) date 2025-02-27 13:02:28*
%MOMM*%
%LPD*%
G01*
G04 APERTURE LIST*
%TA.AperFunction,ComponentPad*%
%ADD10O,1.800000X0.900000*%
%TD*%
%TA.AperFunction,SMDPad,CuDef*%
%ADD11R,1.270000X5.080000*%
%TD*%
%TA.AperFunction,SMDPad,CuDef*%
%ADD12C,17.800000*%
%TD*%
%TA.AperFunction,ViaPad*%
%ADD13C,0.600000*%
%TD*%
%TA.AperFunction,Conductor*%
%ADD14C,0.200000*%
%TD*%
%TA.AperFunction,Conductor*%
%ADD15C,0.150000*%
%TD*%
G04 APERTURE END LIST*
D10*
%TO.P,J1,SH3,SHIELD__2*%
%TO.N,B-*%
X112570000Y-40300000D03*
%TO.P,J1,SH4,SHIELD__3*%
X112570000Y-31660000D03*
%TD*%
D11*
%TO.P,BT2,1,+*%
%TO.N,B+*%
X112915000Y-35440000D03*
X90945000Y-35440000D03*
D12*
%TO.P,BT2,2,-*%
%TO.N,B-*%
X101930000Y-35440000D03*
%TD*%
D13*
%TO.N,B-*%
X92560000Y-37570000D03*
X91850000Y-40030000D03*
X110450000Y-29260000D03*
X92925356Y-29276032D03*
%TO.N,B+*%
X92350000Y-36290000D03*
X90950000Y-38940000D03*
X110840000Y-42200000D03*
%TD*%
D14*
%TO.N,B-*%
X111910000Y-31000000D02*
X112570000Y-31660000D01*
D15*
X110450000Y-29260000D02*
X108110000Y-29260000D01*
X101930000Y-35440000D02*
X101557500Y-35812500D01*
D14*
X99795000Y-37570000D02*
X101552500Y-35812500D01*
X92925356Y-29276032D02*
X99089324Y-35440000D01*
D15*
X108110000Y-29260000D02*
X101930000Y-35440000D01*
X101557500Y-35812500D02*
X101552500Y-35812500D01*
D14*
X92560000Y-37570000D02*
X91850000Y-38280000D01*
X106365000Y-31000000D02*
X111910000Y-31000000D01*
X101552500Y-35812500D02*
X106365000Y-31000000D01*
X92560000Y-37570000D02*
X99795000Y-37570000D01*
X99089324Y-35440000D02*
X101930000Y-35440000D01*
X91850000Y-38280000D02*
X91850000Y-40030000D01*
D15*
%TO.N,B+*%
X110840000Y-39415000D02*
X112940000Y-37315000D01*
X90950000Y-38940000D02*
X90950000Y-38630000D01*
X112940000Y-37315000D02*
X112940000Y-35410000D01*
X90950000Y-38630000D02*
X90970000Y-38610000D01*
X110840000Y-42200000D02*
X110840000Y-39415000D01*
D14*
X90970000Y-36030000D02*
X90970000Y-35410000D01*
X92350000Y-36290000D02*
X91850000Y-36290000D01*
X91850000Y-36290000D02*
X90970000Y-35410000D01*
D15*
X90970000Y-38610000D02*
X90970000Y-35410000D01*
%TD*%
M02*
