%TF.GenerationSoftware,KiCad,Pcbnew,8.0.3*%
%TF.CreationDate,2025-02-28T01:09:01-06:00*%
%TF.ProjectId,HearingAid_Right,48656172-696e-4674-9169-645f52696768,rev?*%
%TF.SameCoordinates,Original*%
%TF.FileFunction,Soldermask,Top*%
%TF.FilePolarity,Negative*%
%FSLAX46Y46*%
G04 Gerber Fmt 4.6, Leading zero omitted, Abs format (unit mm)*
G04 Created by KiCad (PCBNEW 8.0.3) date 2025-02-28 01:09:01*
%MOMM*%
%LPD*%
G01*
G04 APERTURE LIST*
G04 Aperture macros list*
%AMRoundRect*
0 Rectangle with rounded corners*
0 $1 Rounding radius*
0 $2 $3 $4 $5 $6 $7 $8 $9 X,Y pos of 4 corners*
0 Add a 4 corners polygon primitive as box body*
4,1,4,$2,$3,$4,$5,$6,$7,$8,$9,$2,$3,0*
0 Add four circle primitives for the rounded corners*
1,1,$1+$1,$2,$3*
1,1,$1+$1,$4,$5*
1,1,$1+$1,$6,$7*
1,1,$1+$1,$8,$9*
0 Add four rect primitives between the rounded corners*
20,1,$1+$1,$2,$3,$4,$5,0*
20,1,$1+$1,$4,$5,$6,$7,0*
20,1,$1+$1,$6,$7,$8,$9,0*
20,1,$1+$1,$8,$9,$2,$3,0*%
G04 Aperture macros list end*
%ADD10RoundRect,0.147500X0.147500X0.172500X-0.147500X0.172500X-0.147500X-0.172500X0.147500X-0.172500X0*%
%ADD11RoundRect,0.147500X-0.147500X-0.172500X0.147500X-0.172500X0.147500X0.172500X-0.147500X0.172500X0*%
%ADD12RoundRect,0.155000X-0.212500X-0.155000X0.212500X-0.155000X0.212500X0.155000X-0.212500X0.155000X0*%
%ADD13R,1.000000X1.000000*%
%ADD14RoundRect,0.135000X-0.135000X-0.185000X0.135000X-0.185000X0.135000X0.185000X-0.135000X0.185000X0*%
%ADD15RoundRect,0.135000X0.135000X0.185000X-0.135000X0.185000X-0.135000X-0.185000X0.135000X-0.185000X0*%
%ADD16RoundRect,0.102000X0.350000X0.550000X-0.350000X0.550000X-0.350000X-0.550000X0.350000X-0.550000X0*%
%ADD17RoundRect,0.102000X0.500000X0.400000X-0.500000X0.400000X-0.500000X-0.400000X0.500000X-0.400000X0*%
%ADD18RoundRect,0.102000X0.400000X0.850000X-0.400000X0.850000X-0.400000X-0.850000X0.400000X-0.850000X0*%
%ADD19RoundRect,0.050000X-0.350000X-0.050000X0.350000X-0.050000X0.350000X0.050000X-0.350000X0.050000X0*%
%ADD20RoundRect,0.050000X-0.050000X-0.350000X0.050000X-0.350000X0.050000X0.350000X-0.050000X0.350000X0*%
%ADD21R,4.000000X4.000000*%
%ADD22RoundRect,0.062500X-0.062500X0.350000X-0.062500X-0.350000X0.062500X-0.350000X0.062500X0.350000X0*%
%ADD23RoundRect,0.062500X-0.350000X0.062500X-0.350000X-0.062500X0.350000X-0.062500X0.350000X0.062500X0*%
%ADD24R,1.230000X1.230000*%
%ADD25RoundRect,0.160000X-0.197500X-0.160000X0.197500X-0.160000X0.197500X0.160000X-0.197500X0.160000X0*%
%ADD26RoundRect,0.102000X-0.400000X-0.850000X0.400000X-0.850000X0.400000X0.850000X-0.400000X0.850000X0*%
%ADD27RoundRect,0.160000X0.197500X0.160000X-0.197500X0.160000X-0.197500X-0.160000X0.197500X-0.160000X0*%
G04 APERTURE END LIST*
D10*
%TO.C,D4*%
X120770000Y-75530000D03*
X119800000Y-75530000D03*
%TD*%
D11*
%TO.C,D3*%
X130090000Y-73770000D03*
X131060000Y-73770000D03*
%TD*%
D12*
%TO.C,C3*%
X127912500Y-64280000D03*
X129047500Y-64280000D03*
%TD*%
D13*
%TO.C,TP20*%
X111890000Y-64600000D03*
%TD*%
D14*
%TO.C,R11*%
X130060000Y-72620000D03*
X131080000Y-72620000D03*
%TD*%
D12*
%TO.C,C5*%
X125222500Y-62250000D03*
X126357500Y-62250000D03*
%TD*%
D13*
%TO.C,TP4*%
X115500000Y-74000000D03*
%TD*%
%TO.C,TP22*%
X128280000Y-75180000D03*
%TD*%
D15*
%TO.C,R13*%
X114790000Y-68010000D03*
X113770000Y-68010000D03*
%TD*%
D16*
%TO.C,S1*%
X122100000Y-75880000D03*
X125100000Y-75880000D03*
X126600000Y-75880000D03*
D17*
X128100000Y-79080000D03*
X120600000Y-79080000D03*
X120600000Y-76780000D03*
X128100000Y-76780000D03*
%TD*%
D13*
%TO.C,TP6*%
X113820000Y-64600000D03*
%TD*%
D18*
%TO.C,RST*%
X125670000Y-64300000D03*
X122270000Y-64300000D03*
%TD*%
D19*
%TO.C,U8*%
X121990000Y-67430000D03*
X121990000Y-67830000D03*
X121990000Y-68230000D03*
X121990000Y-68630000D03*
X121990000Y-69030000D03*
X121990000Y-69430000D03*
X121990000Y-69830000D03*
X121990000Y-70230000D03*
X121990000Y-70630000D03*
X121990000Y-71030000D03*
X121990000Y-71430000D03*
X121990000Y-71830000D03*
X121990000Y-72230000D03*
X121990000Y-72630000D03*
D20*
X122840000Y-73480000D03*
X123240000Y-73480000D03*
X123640000Y-73480000D03*
X124040000Y-73480000D03*
X124440000Y-73480000D03*
X124840000Y-73480000D03*
X125240000Y-73480000D03*
X125640000Y-73480000D03*
X126040000Y-73480000D03*
X126440000Y-73480000D03*
X126840000Y-73480000D03*
X127240000Y-73480000D03*
X127640000Y-73480000D03*
X128040000Y-73480000D03*
D19*
X128890000Y-72630000D03*
X128890000Y-72230000D03*
X128890000Y-71830000D03*
X128890000Y-71430000D03*
X128890000Y-71030000D03*
X128890000Y-70630000D03*
X128890000Y-70230000D03*
X128890000Y-69830000D03*
X128890000Y-69430000D03*
X128890000Y-69030000D03*
X128890000Y-68630000D03*
X128890000Y-68230000D03*
X128890000Y-67830000D03*
X128890000Y-67430000D03*
D20*
X128040000Y-66580000D03*
X127640000Y-66580000D03*
X127240000Y-66580000D03*
X126840000Y-66580000D03*
X126440000Y-66580000D03*
X126040000Y-66580000D03*
X125640000Y-66580000D03*
X125240000Y-66580000D03*
X124840000Y-66580000D03*
X124440000Y-66580000D03*
X124040000Y-66580000D03*
X123640000Y-66580000D03*
X123240000Y-66580000D03*
X122840000Y-66580000D03*
D21*
X125440000Y-70030000D03*
%TD*%
D13*
%TO.C,TP13*%
X120200000Y-73040000D03*
%TD*%
D22*
%TO.C,U5*%
X115282500Y-69242500D03*
X114782500Y-69242500D03*
X114282500Y-69242500D03*
X113782500Y-69242500D03*
D23*
X113095000Y-69930000D03*
X113095000Y-70430000D03*
X113095000Y-70930000D03*
X113095000Y-71430000D03*
D22*
X113782500Y-72117500D03*
X114282500Y-72117500D03*
X114782500Y-72117500D03*
X115282500Y-72117500D03*
D23*
X115970000Y-71430000D03*
X115970000Y-70930000D03*
X115970000Y-70430000D03*
X115970000Y-69930000D03*
D24*
X114532500Y-70680000D03*
%TD*%
D13*
%TO.C,TP17*%
X119640000Y-66460000D03*
%TD*%
D12*
%TO.C,C8*%
X127925000Y-65350000D03*
X129060000Y-65350000D03*
%TD*%
D14*
%TO.C,R12*%
X119770000Y-74410000D03*
X120790000Y-74410000D03*
%TD*%
D12*
%TO.C,C4*%
X127915000Y-63200000D03*
X129050000Y-63200000D03*
%TD*%
D13*
%TO.C,TP16*%
X117820000Y-66500000D03*
%TD*%
D25*
%TO.C,R14*%
X121172500Y-62260000D03*
X122367500Y-62260000D03*
%TD*%
D26*
%TO.C,BOOT*%
X116350000Y-64130000D03*
X119750000Y-64130000D03*
%TD*%
D13*
%TO.C,TP24*%
X113360000Y-75840000D03*
%TD*%
%TO.C,TP18*%
X113940000Y-66530000D03*
%TD*%
%TO.C,TP3*%
X113375000Y-73995000D03*
%TD*%
%TO.C,TP8*%
X117870000Y-70850000D03*
%TD*%
%TO.C,TP15*%
X115910000Y-66510000D03*
%TD*%
%TO.C,TP7*%
X117880000Y-72570000D03*
%TD*%
D27*
%TO.C,R15*%
X119790000Y-62110000D03*
X118595000Y-62110000D03*
%TD*%
D13*
%TO.C,TP9*%
X117860000Y-69030000D03*
%TD*%
%TO.C,TP21*%
X129960000Y-77990000D03*
%TD*%
%TO.C,TP23*%
X130020000Y-75190000D03*
%TD*%
M02*
