%TF.GenerationSoftware,KiCad,Pcbnew,8.0.3*%
%TF.CreationDate,2025-02-28T01:09:05-06:00*%
%TF.ProjectId,HearingAid_Right,48656172-696e-4674-9169-645f52696768,rev?*%
%TF.SameCoordinates,Original*%
%TF.FileFunction,Drillmap*%
%TF.FilePolarity,Positive*%
%FSLAX45Y45*%
G04 Gerber Fmt 4.5, Leading zero omitted, Abs format (unit mm)*
G04 Created by KiCad (PCBNEW 8.0.3) date 2025-02-28 01:09:05*
%MOMM*%
%LPD*%
G01*
G04 APERTURE LIST*
%ADD10C,0.100000*%
%ADD11C,0.200000*%
G04 APERTURE END LIST*
D10*
X13131779Y-6087009D02*
X13131779Y-6087009D01*
G75*
G02*
X13431779Y-6387009I1J-300001D01*
G01*
X13430779Y-7698745D01*
G75*
G02*
X13130779Y-7998745I-299999J5D01*
G01*
X11291245Y-7998211D01*
G75*
G02*
X10991911Y-7698877I5J299331D01*
G01*
X10992043Y-6387009D01*
G75*
G02*
X11292043Y-6087009I299997J-1D01*
G01*
X13131779Y-6087009D01*
D11*
D10*
X11096500Y-7344500D02*
X11126500Y-7374500D01*
X11126500Y-7344500D02*
X11096500Y-7374500D01*
X11420000Y-6206350D02*
X11450000Y-6236350D01*
X11450000Y-6206350D02*
X11420000Y-6236350D01*
X12657000Y-7903612D02*
X12687000Y-7933612D01*
X12687000Y-7903612D02*
X12657000Y-7933612D01*
X12696341Y-6227659D02*
X12726341Y-6257659D01*
X12726341Y-6227659D02*
X12696341Y-6257659D01*
X13052000Y-7639000D02*
X13082000Y-7669000D01*
X13082000Y-7639000D02*
X13052000Y-7669000D01*
D11*
X11247688Y-8315229D02*
X11247688Y-8115229D01*
X11247688Y-8115229D02*
X11295307Y-8115229D01*
X11295307Y-8115229D02*
X11323878Y-8124753D01*
X11323878Y-8124753D02*
X11342926Y-8143800D01*
X11342926Y-8143800D02*
X11352450Y-8162848D01*
X11352450Y-8162848D02*
X11361974Y-8200943D01*
X11361974Y-8200943D02*
X11361974Y-8229515D01*
X11361974Y-8229515D02*
X11352450Y-8267610D01*
X11352450Y-8267610D02*
X11342926Y-8286657D01*
X11342926Y-8286657D02*
X11323878Y-8305705D01*
X11323878Y-8305705D02*
X11295307Y-8315229D01*
X11295307Y-8315229D02*
X11247688Y-8315229D01*
X11447688Y-8315229D02*
X11447688Y-8181895D01*
X11447688Y-8219991D02*
X11457212Y-8200943D01*
X11457212Y-8200943D02*
X11466735Y-8191419D01*
X11466735Y-8191419D02*
X11485783Y-8181895D01*
X11485783Y-8181895D02*
X11504831Y-8181895D01*
X11571497Y-8315229D02*
X11571497Y-8181895D01*
X11571497Y-8115229D02*
X11561974Y-8124753D01*
X11561974Y-8124753D02*
X11571497Y-8134276D01*
X11571497Y-8134276D02*
X11581021Y-8124753D01*
X11581021Y-8124753D02*
X11571497Y-8115229D01*
X11571497Y-8115229D02*
X11571497Y-8134276D01*
X11695307Y-8315229D02*
X11676259Y-8305705D01*
X11676259Y-8305705D02*
X11666735Y-8286657D01*
X11666735Y-8286657D02*
X11666735Y-8115229D01*
X11800069Y-8315229D02*
X11781021Y-8305705D01*
X11781021Y-8305705D02*
X11771497Y-8286657D01*
X11771497Y-8286657D02*
X11771497Y-8115229D01*
X12028640Y-8315229D02*
X12028640Y-8115229D01*
X12028640Y-8115229D02*
X12095307Y-8258086D01*
X12095307Y-8258086D02*
X12161974Y-8115229D01*
X12161974Y-8115229D02*
X12161974Y-8315229D01*
X12342926Y-8315229D02*
X12342926Y-8210467D01*
X12342926Y-8210467D02*
X12333402Y-8191419D01*
X12333402Y-8191419D02*
X12314355Y-8181895D01*
X12314355Y-8181895D02*
X12276259Y-8181895D01*
X12276259Y-8181895D02*
X12257212Y-8191419D01*
X12342926Y-8305705D02*
X12323878Y-8315229D01*
X12323878Y-8315229D02*
X12276259Y-8315229D01*
X12276259Y-8315229D02*
X12257212Y-8305705D01*
X12257212Y-8305705D02*
X12247688Y-8286657D01*
X12247688Y-8286657D02*
X12247688Y-8267610D01*
X12247688Y-8267610D02*
X12257212Y-8248562D01*
X12257212Y-8248562D02*
X12276259Y-8239038D01*
X12276259Y-8239038D02*
X12323878Y-8239038D01*
X12323878Y-8239038D02*
X12342926Y-8229515D01*
X12438164Y-8181895D02*
X12438164Y-8381895D01*
X12438164Y-8191419D02*
X12457212Y-8181895D01*
X12457212Y-8181895D02*
X12495307Y-8181895D01*
X12495307Y-8181895D02*
X12514355Y-8191419D01*
X12514355Y-8191419D02*
X12523878Y-8200943D01*
X12523878Y-8200943D02*
X12533402Y-8219991D01*
X12533402Y-8219991D02*
X12533402Y-8277134D01*
X12533402Y-8277134D02*
X12523878Y-8296181D01*
X12523878Y-8296181D02*
X12514355Y-8305705D01*
X12514355Y-8305705D02*
X12495307Y-8315229D01*
X12495307Y-8315229D02*
X12457212Y-8315229D01*
X12457212Y-8315229D02*
X12438164Y-8305705D01*
X12619116Y-8296181D02*
X12628640Y-8305705D01*
X12628640Y-8305705D02*
X12619116Y-8315229D01*
X12619116Y-8315229D02*
X12609593Y-8305705D01*
X12609593Y-8305705D02*
X12619116Y-8296181D01*
X12619116Y-8296181D02*
X12619116Y-8315229D01*
X12619116Y-8191419D02*
X12628640Y-8200943D01*
X12628640Y-8200943D02*
X12619116Y-8210467D01*
X12619116Y-8210467D02*
X12609593Y-8200943D01*
X12609593Y-8200943D02*
X12619116Y-8191419D01*
X12619116Y-8191419D02*
X12619116Y-8210467D01*
D10*
X10956911Y-8628745D02*
X10986911Y-8658745D01*
X10986911Y-8628745D02*
X10956911Y-8658745D01*
D11*
X11285783Y-8535229D02*
X11304831Y-8535229D01*
X11304831Y-8535229D02*
X11323878Y-8544753D01*
X11323878Y-8544753D02*
X11333402Y-8554277D01*
X11333402Y-8554277D02*
X11342926Y-8573324D01*
X11342926Y-8573324D02*
X11352450Y-8611419D01*
X11352450Y-8611419D02*
X11352450Y-8659038D01*
X11352450Y-8659038D02*
X11342926Y-8697134D01*
X11342926Y-8697134D02*
X11333402Y-8716181D01*
X11333402Y-8716181D02*
X11323878Y-8725705D01*
X11323878Y-8725705D02*
X11304831Y-8735229D01*
X11304831Y-8735229D02*
X11285783Y-8735229D01*
X11285783Y-8735229D02*
X11266735Y-8725705D01*
X11266735Y-8725705D02*
X11257212Y-8716181D01*
X11257212Y-8716181D02*
X11247688Y-8697134D01*
X11247688Y-8697134D02*
X11238164Y-8659038D01*
X11238164Y-8659038D02*
X11238164Y-8611419D01*
X11238164Y-8611419D02*
X11247688Y-8573324D01*
X11247688Y-8573324D02*
X11257212Y-8554277D01*
X11257212Y-8554277D02*
X11266735Y-8544753D01*
X11266735Y-8544753D02*
X11285783Y-8535229D01*
X11438164Y-8716181D02*
X11447688Y-8725705D01*
X11447688Y-8725705D02*
X11438164Y-8735229D01*
X11438164Y-8735229D02*
X11428640Y-8725705D01*
X11428640Y-8725705D02*
X11438164Y-8716181D01*
X11438164Y-8716181D02*
X11438164Y-8735229D01*
X11514355Y-8535229D02*
X11638164Y-8535229D01*
X11638164Y-8535229D02*
X11571497Y-8611419D01*
X11571497Y-8611419D02*
X11600069Y-8611419D01*
X11600069Y-8611419D02*
X11619116Y-8620943D01*
X11619116Y-8620943D02*
X11628640Y-8630467D01*
X11628640Y-8630467D02*
X11638164Y-8649515D01*
X11638164Y-8649515D02*
X11638164Y-8697134D01*
X11638164Y-8697134D02*
X11628640Y-8716181D01*
X11628640Y-8716181D02*
X11619116Y-8725705D01*
X11619116Y-8725705D02*
X11600069Y-8735229D01*
X11600069Y-8735229D02*
X11542926Y-8735229D01*
X11542926Y-8735229D02*
X11523878Y-8725705D01*
X11523878Y-8725705D02*
X11514355Y-8716181D01*
X11761974Y-8535229D02*
X11781021Y-8535229D01*
X11781021Y-8535229D02*
X11800069Y-8544753D01*
X11800069Y-8544753D02*
X11809593Y-8554277D01*
X11809593Y-8554277D02*
X11819116Y-8573324D01*
X11819116Y-8573324D02*
X11828640Y-8611419D01*
X11828640Y-8611419D02*
X11828640Y-8659038D01*
X11828640Y-8659038D02*
X11819116Y-8697134D01*
X11819116Y-8697134D02*
X11809593Y-8716181D01*
X11809593Y-8716181D02*
X11800069Y-8725705D01*
X11800069Y-8725705D02*
X11781021Y-8735229D01*
X11781021Y-8735229D02*
X11761974Y-8735229D01*
X11761974Y-8735229D02*
X11742926Y-8725705D01*
X11742926Y-8725705D02*
X11733402Y-8716181D01*
X11733402Y-8716181D02*
X11723878Y-8697134D01*
X11723878Y-8697134D02*
X11714355Y-8659038D01*
X11714355Y-8659038D02*
X11714355Y-8611419D01*
X11714355Y-8611419D02*
X11723878Y-8573324D01*
X11723878Y-8573324D02*
X11733402Y-8554277D01*
X11733402Y-8554277D02*
X11742926Y-8544753D01*
X11742926Y-8544753D02*
X11761974Y-8535229D01*
X11952450Y-8535229D02*
X11971497Y-8535229D01*
X11971497Y-8535229D02*
X11990545Y-8544753D01*
X11990545Y-8544753D02*
X12000069Y-8554277D01*
X12000069Y-8554277D02*
X12009593Y-8573324D01*
X12009593Y-8573324D02*
X12019116Y-8611419D01*
X12019116Y-8611419D02*
X12019116Y-8659038D01*
X12019116Y-8659038D02*
X12009593Y-8697134D01*
X12009593Y-8697134D02*
X12000069Y-8716181D01*
X12000069Y-8716181D02*
X11990545Y-8725705D01*
X11990545Y-8725705D02*
X11971497Y-8735229D01*
X11971497Y-8735229D02*
X11952450Y-8735229D01*
X11952450Y-8735229D02*
X11933402Y-8725705D01*
X11933402Y-8725705D02*
X11923878Y-8716181D01*
X11923878Y-8716181D02*
X11914355Y-8697134D01*
X11914355Y-8697134D02*
X11904831Y-8659038D01*
X11904831Y-8659038D02*
X11904831Y-8611419D01*
X11904831Y-8611419D02*
X11914355Y-8573324D01*
X11914355Y-8573324D02*
X11923878Y-8554277D01*
X11923878Y-8554277D02*
X11933402Y-8544753D01*
X11933402Y-8544753D02*
X11952450Y-8535229D01*
X12104831Y-8735229D02*
X12104831Y-8601896D01*
X12104831Y-8620943D02*
X12114355Y-8611419D01*
X12114355Y-8611419D02*
X12133402Y-8601896D01*
X12133402Y-8601896D02*
X12161974Y-8601896D01*
X12161974Y-8601896D02*
X12181021Y-8611419D01*
X12181021Y-8611419D02*
X12190545Y-8630467D01*
X12190545Y-8630467D02*
X12190545Y-8735229D01*
X12190545Y-8630467D02*
X12200069Y-8611419D01*
X12200069Y-8611419D02*
X12219116Y-8601896D01*
X12219116Y-8601896D02*
X12247688Y-8601896D01*
X12247688Y-8601896D02*
X12266736Y-8611419D01*
X12266736Y-8611419D02*
X12276259Y-8630467D01*
X12276259Y-8630467D02*
X12276259Y-8735229D01*
X12371497Y-8735229D02*
X12371497Y-8601896D01*
X12371497Y-8620943D02*
X12381021Y-8611419D01*
X12381021Y-8611419D02*
X12400069Y-8601896D01*
X12400069Y-8601896D02*
X12428640Y-8601896D01*
X12428640Y-8601896D02*
X12447688Y-8611419D01*
X12447688Y-8611419D02*
X12457212Y-8630467D01*
X12457212Y-8630467D02*
X12457212Y-8735229D01*
X12457212Y-8630467D02*
X12466736Y-8611419D01*
X12466736Y-8611419D02*
X12485783Y-8601896D01*
X12485783Y-8601896D02*
X12514355Y-8601896D01*
X12514355Y-8601896D02*
X12533402Y-8611419D01*
X12533402Y-8611419D02*
X12542926Y-8630467D01*
X12542926Y-8630467D02*
X12542926Y-8735229D01*
X12933402Y-8525705D02*
X12761974Y-8782848D01*
X13190545Y-8535229D02*
X13209593Y-8535229D01*
X13209593Y-8535229D02*
X13228640Y-8544753D01*
X13228640Y-8544753D02*
X13238164Y-8554277D01*
X13238164Y-8554277D02*
X13247688Y-8573324D01*
X13247688Y-8573324D02*
X13257212Y-8611419D01*
X13257212Y-8611419D02*
X13257212Y-8659038D01*
X13257212Y-8659038D02*
X13247688Y-8697134D01*
X13247688Y-8697134D02*
X13238164Y-8716181D01*
X13238164Y-8716181D02*
X13228640Y-8725705D01*
X13228640Y-8725705D02*
X13209593Y-8735229D01*
X13209593Y-8735229D02*
X13190545Y-8735229D01*
X13190545Y-8735229D02*
X13171498Y-8725705D01*
X13171498Y-8725705D02*
X13161974Y-8716181D01*
X13161974Y-8716181D02*
X13152450Y-8697134D01*
X13152450Y-8697134D02*
X13142926Y-8659038D01*
X13142926Y-8659038D02*
X13142926Y-8611419D01*
X13142926Y-8611419D02*
X13152450Y-8573324D01*
X13152450Y-8573324D02*
X13161974Y-8554277D01*
X13161974Y-8554277D02*
X13171498Y-8544753D01*
X13171498Y-8544753D02*
X13190545Y-8535229D01*
X13342926Y-8716181D02*
X13352450Y-8725705D01*
X13352450Y-8725705D02*
X13342926Y-8735229D01*
X13342926Y-8735229D02*
X13333402Y-8725705D01*
X13333402Y-8725705D02*
X13342926Y-8716181D01*
X13342926Y-8716181D02*
X13342926Y-8735229D01*
X13476259Y-8535229D02*
X13495307Y-8535229D01*
X13495307Y-8535229D02*
X13514355Y-8544753D01*
X13514355Y-8544753D02*
X13523879Y-8554277D01*
X13523879Y-8554277D02*
X13533402Y-8573324D01*
X13533402Y-8573324D02*
X13542926Y-8611419D01*
X13542926Y-8611419D02*
X13542926Y-8659038D01*
X13542926Y-8659038D02*
X13533402Y-8697134D01*
X13533402Y-8697134D02*
X13523879Y-8716181D01*
X13523879Y-8716181D02*
X13514355Y-8725705D01*
X13514355Y-8725705D02*
X13495307Y-8735229D01*
X13495307Y-8735229D02*
X13476259Y-8735229D01*
X13476259Y-8735229D02*
X13457212Y-8725705D01*
X13457212Y-8725705D02*
X13447688Y-8716181D01*
X13447688Y-8716181D02*
X13438164Y-8697134D01*
X13438164Y-8697134D02*
X13428640Y-8659038D01*
X13428640Y-8659038D02*
X13428640Y-8611419D01*
X13428640Y-8611419D02*
X13438164Y-8573324D01*
X13438164Y-8573324D02*
X13447688Y-8554277D01*
X13447688Y-8554277D02*
X13457212Y-8544753D01*
X13457212Y-8544753D02*
X13476259Y-8535229D01*
X13733402Y-8735229D02*
X13619117Y-8735229D01*
X13676259Y-8735229D02*
X13676259Y-8535229D01*
X13676259Y-8535229D02*
X13657212Y-8563800D01*
X13657212Y-8563800D02*
X13638164Y-8582848D01*
X13638164Y-8582848D02*
X13619117Y-8592372D01*
X13923879Y-8735229D02*
X13809593Y-8735229D01*
X13866736Y-8735229D02*
X13866736Y-8535229D01*
X13866736Y-8535229D02*
X13847688Y-8563800D01*
X13847688Y-8563800D02*
X13828640Y-8582848D01*
X13828640Y-8582848D02*
X13809593Y-8592372D01*
X14038164Y-8620943D02*
X14019117Y-8611419D01*
X14019117Y-8611419D02*
X14009593Y-8601896D01*
X14009593Y-8601896D02*
X14000069Y-8582848D01*
X14000069Y-8582848D02*
X14000069Y-8573324D01*
X14000069Y-8573324D02*
X14009593Y-8554277D01*
X14009593Y-8554277D02*
X14019117Y-8544753D01*
X14019117Y-8544753D02*
X14038164Y-8535229D01*
X14038164Y-8535229D02*
X14076260Y-8535229D01*
X14076260Y-8535229D02*
X14095307Y-8544753D01*
X14095307Y-8544753D02*
X14104831Y-8554277D01*
X14104831Y-8554277D02*
X14114355Y-8573324D01*
X14114355Y-8573324D02*
X14114355Y-8582848D01*
X14114355Y-8582848D02*
X14104831Y-8601896D01*
X14104831Y-8601896D02*
X14095307Y-8611419D01*
X14095307Y-8611419D02*
X14076260Y-8620943D01*
X14076260Y-8620943D02*
X14038164Y-8620943D01*
X14038164Y-8620943D02*
X14019117Y-8630467D01*
X14019117Y-8630467D02*
X14009593Y-8639991D01*
X14009593Y-8639991D02*
X14000069Y-8659038D01*
X14000069Y-8659038D02*
X14000069Y-8697134D01*
X14000069Y-8697134D02*
X14009593Y-8716181D01*
X14009593Y-8716181D02*
X14019117Y-8725705D01*
X14019117Y-8725705D02*
X14038164Y-8735229D01*
X14038164Y-8735229D02*
X14076260Y-8735229D01*
X14076260Y-8735229D02*
X14095307Y-8725705D01*
X14095307Y-8725705D02*
X14104831Y-8716181D01*
X14104831Y-8716181D02*
X14114355Y-8697134D01*
X14114355Y-8697134D02*
X14114355Y-8659038D01*
X14114355Y-8659038D02*
X14104831Y-8639991D01*
X14104831Y-8639991D02*
X14095307Y-8630467D01*
X14095307Y-8630467D02*
X14076260Y-8620943D01*
X14190545Y-8535229D02*
X14190545Y-8573324D01*
X14266736Y-8535229D02*
X14266736Y-8573324D01*
X14561974Y-8811419D02*
X14552450Y-8801896D01*
X14552450Y-8801896D02*
X14533402Y-8773324D01*
X14533402Y-8773324D02*
X14523879Y-8754277D01*
X14523879Y-8754277D02*
X14514355Y-8725705D01*
X14514355Y-8725705D02*
X14504831Y-8678086D01*
X14504831Y-8678086D02*
X14504831Y-8639991D01*
X14504831Y-8639991D02*
X14514355Y-8592372D01*
X14514355Y-8592372D02*
X14523879Y-8563800D01*
X14523879Y-8563800D02*
X14533402Y-8544753D01*
X14533402Y-8544753D02*
X14552450Y-8516181D01*
X14552450Y-8516181D02*
X14561974Y-8506657D01*
X14733402Y-8535229D02*
X14638164Y-8535229D01*
X14638164Y-8535229D02*
X14628641Y-8630467D01*
X14628641Y-8630467D02*
X14638164Y-8620943D01*
X14638164Y-8620943D02*
X14657212Y-8611419D01*
X14657212Y-8611419D02*
X14704831Y-8611419D01*
X14704831Y-8611419D02*
X14723879Y-8620943D01*
X14723879Y-8620943D02*
X14733402Y-8630467D01*
X14733402Y-8630467D02*
X14742926Y-8649515D01*
X14742926Y-8649515D02*
X14742926Y-8697134D01*
X14742926Y-8697134D02*
X14733402Y-8716181D01*
X14733402Y-8716181D02*
X14723879Y-8725705D01*
X14723879Y-8725705D02*
X14704831Y-8735229D01*
X14704831Y-8735229D02*
X14657212Y-8735229D01*
X14657212Y-8735229D02*
X14638164Y-8725705D01*
X14638164Y-8725705D02*
X14628641Y-8716181D01*
X14981022Y-8735229D02*
X14981022Y-8535229D01*
X15066736Y-8735229D02*
X15066736Y-8630467D01*
X15066736Y-8630467D02*
X15057212Y-8611419D01*
X15057212Y-8611419D02*
X15038164Y-8601896D01*
X15038164Y-8601896D02*
X15009593Y-8601896D01*
X15009593Y-8601896D02*
X14990545Y-8611419D01*
X14990545Y-8611419D02*
X14981022Y-8620943D01*
X15190545Y-8735229D02*
X15171498Y-8725705D01*
X15171498Y-8725705D02*
X15161974Y-8716181D01*
X15161974Y-8716181D02*
X15152450Y-8697134D01*
X15152450Y-8697134D02*
X15152450Y-8639991D01*
X15152450Y-8639991D02*
X15161974Y-8620943D01*
X15161974Y-8620943D02*
X15171498Y-8611419D01*
X15171498Y-8611419D02*
X15190545Y-8601896D01*
X15190545Y-8601896D02*
X15219117Y-8601896D01*
X15219117Y-8601896D02*
X15238164Y-8611419D01*
X15238164Y-8611419D02*
X15247688Y-8620943D01*
X15247688Y-8620943D02*
X15257212Y-8639991D01*
X15257212Y-8639991D02*
X15257212Y-8697134D01*
X15257212Y-8697134D02*
X15247688Y-8716181D01*
X15247688Y-8716181D02*
X15238164Y-8725705D01*
X15238164Y-8725705D02*
X15219117Y-8735229D01*
X15219117Y-8735229D02*
X15190545Y-8735229D01*
X15371498Y-8735229D02*
X15352450Y-8725705D01*
X15352450Y-8725705D02*
X15342926Y-8706657D01*
X15342926Y-8706657D02*
X15342926Y-8535229D01*
X15523879Y-8725705D02*
X15504831Y-8735229D01*
X15504831Y-8735229D02*
X15466736Y-8735229D01*
X15466736Y-8735229D02*
X15447688Y-8725705D01*
X15447688Y-8725705D02*
X15438164Y-8706657D01*
X15438164Y-8706657D02*
X15438164Y-8630467D01*
X15438164Y-8630467D02*
X15447688Y-8611419D01*
X15447688Y-8611419D02*
X15466736Y-8601896D01*
X15466736Y-8601896D02*
X15504831Y-8601896D01*
X15504831Y-8601896D02*
X15523879Y-8611419D01*
X15523879Y-8611419D02*
X15533403Y-8630467D01*
X15533403Y-8630467D02*
X15533403Y-8649515D01*
X15533403Y-8649515D02*
X15438164Y-8668562D01*
X15609593Y-8725705D02*
X15628641Y-8735229D01*
X15628641Y-8735229D02*
X15666736Y-8735229D01*
X15666736Y-8735229D02*
X15685784Y-8725705D01*
X15685784Y-8725705D02*
X15695307Y-8706657D01*
X15695307Y-8706657D02*
X15695307Y-8697134D01*
X15695307Y-8697134D02*
X15685784Y-8678086D01*
X15685784Y-8678086D02*
X15666736Y-8668562D01*
X15666736Y-8668562D02*
X15638164Y-8668562D01*
X15638164Y-8668562D02*
X15619117Y-8659038D01*
X15619117Y-8659038D02*
X15609593Y-8639991D01*
X15609593Y-8639991D02*
X15609593Y-8630467D01*
X15609593Y-8630467D02*
X15619117Y-8611419D01*
X15619117Y-8611419D02*
X15638164Y-8601896D01*
X15638164Y-8601896D02*
X15666736Y-8601896D01*
X15666736Y-8601896D02*
X15685784Y-8611419D01*
X15761974Y-8811419D02*
X15771498Y-8801896D01*
X15771498Y-8801896D02*
X15790545Y-8773324D01*
X15790545Y-8773324D02*
X15800069Y-8754277D01*
X15800069Y-8754277D02*
X15809593Y-8725705D01*
X15809593Y-8725705D02*
X15819117Y-8678086D01*
X15819117Y-8678086D02*
X15819117Y-8639991D01*
X15819117Y-8639991D02*
X15809593Y-8592372D01*
X15809593Y-8592372D02*
X15800069Y-8563800D01*
X15800069Y-8563800D02*
X15790545Y-8544753D01*
X15790545Y-8544753D02*
X15771498Y-8516181D01*
X15771498Y-8516181D02*
X15761974Y-8506657D01*
M02*
