%TF.GenerationSoftware,KiCad,Pcbnew,8.0.3*%
%TF.CreationDate,2025-03-25T09:51:50-05:00*%
%TF.ProjectId,HearingAid_ESP,48656172-696e-4674-9169-645f4553502e,rev?*%
%TF.SameCoordinates,Original*%
%TF.FileFunction,Legend,Bot*%
%TF.FilePolarity,Positive*%
%FSLAX46Y46*%
G04 Gerber Fmt 4.6, Leading zero omitted, Abs format (unit mm)*
G04 Created by KiCad (PCBNEW 8.0.3) date 2025-03-25 09:51:50*
%MOMM*%
%LPD*%
G01*
G04 APERTURE LIST*
%ADD10C,0.080000*%
%ADD11C,0.120000*%
%ADD12O,2.004000X1.104000*%
%ADD13R,1.270000X5.080000*%
%ADD14C,17.800000*%
G04 APERTURE END LIST*
D10*
X60910226Y-35517935D02*
X61148321Y-35517935D01*
X61148321Y-35517935D02*
X61148321Y-34717935D01*
X60553083Y-35479840D02*
X60600702Y-35517935D01*
X60600702Y-35517935D02*
X60695940Y-35517935D01*
X60695940Y-35517935D02*
X60743559Y-35479840D01*
X60743559Y-35479840D02*
X60767368Y-35403649D01*
X60767368Y-35403649D02*
X60767368Y-35098887D01*
X60767368Y-35098887D02*
X60743559Y-35022697D01*
X60743559Y-35022697D02*
X60695940Y-34984601D01*
X60695940Y-34984601D02*
X60600702Y-34984601D01*
X60600702Y-34984601D02*
X60553083Y-35022697D01*
X60553083Y-35022697D02*
X60529273Y-35098887D01*
X60529273Y-35098887D02*
X60529273Y-35175078D01*
X60529273Y-35175078D02*
X60767368Y-35251268D01*
X60386416Y-34984601D02*
X60195940Y-34984601D01*
X60314988Y-35517935D02*
X60314988Y-34832220D01*
X60314988Y-34832220D02*
X60291178Y-34756030D01*
X60291178Y-34756030D02*
X60243559Y-34717935D01*
X60243559Y-34717935D02*
X60195940Y-34717935D01*
X60100702Y-34984601D02*
X59910226Y-34984601D01*
X60029274Y-34717935D02*
X60029274Y-35403649D01*
X60029274Y-35403649D02*
X60005464Y-35479840D01*
X60005464Y-35479840D02*
X59957845Y-35517935D01*
X59957845Y-35517935D02*
X59910226Y-35517935D01*
X59362608Y-35517935D02*
X59362608Y-34717935D01*
X59362608Y-34717935D02*
X59172132Y-34717935D01*
X59172132Y-34717935D02*
X59124513Y-34756030D01*
X59124513Y-34756030D02*
X59100703Y-34794125D01*
X59100703Y-34794125D02*
X59076894Y-34870316D01*
X59076894Y-34870316D02*
X59076894Y-34984601D01*
X59076894Y-34984601D02*
X59100703Y-35060792D01*
X59100703Y-35060792D02*
X59124513Y-35098887D01*
X59124513Y-35098887D02*
X59172132Y-35136982D01*
X59172132Y-35136982D02*
X59362608Y-35136982D01*
X58576894Y-35441744D02*
X58600703Y-35479840D01*
X58600703Y-35479840D02*
X58672132Y-35517935D01*
X58672132Y-35517935D02*
X58719751Y-35517935D01*
X58719751Y-35517935D02*
X58791179Y-35479840D01*
X58791179Y-35479840D02*
X58838798Y-35403649D01*
X58838798Y-35403649D02*
X58862608Y-35327459D01*
X58862608Y-35327459D02*
X58886417Y-35175078D01*
X58886417Y-35175078D02*
X58886417Y-35060792D01*
X58886417Y-35060792D02*
X58862608Y-34908411D01*
X58862608Y-34908411D02*
X58838798Y-34832220D01*
X58838798Y-34832220D02*
X58791179Y-34756030D01*
X58791179Y-34756030D02*
X58719751Y-34717935D01*
X58719751Y-34717935D02*
X58672132Y-34717935D01*
X58672132Y-34717935D02*
X58600703Y-34756030D01*
X58600703Y-34756030D02*
X58576894Y-34794125D01*
X58195941Y-35098887D02*
X58124513Y-35136982D01*
X58124513Y-35136982D02*
X58100703Y-35175078D01*
X58100703Y-35175078D02*
X58076894Y-35251268D01*
X58076894Y-35251268D02*
X58076894Y-35365554D01*
X58076894Y-35365554D02*
X58100703Y-35441744D01*
X58100703Y-35441744D02*
X58124513Y-35479840D01*
X58124513Y-35479840D02*
X58172132Y-35517935D01*
X58172132Y-35517935D02*
X58362608Y-35517935D01*
X58362608Y-35517935D02*
X58362608Y-34717935D01*
X58362608Y-34717935D02*
X58195941Y-34717935D01*
X58195941Y-34717935D02*
X58148322Y-34756030D01*
X58148322Y-34756030D02*
X58124513Y-34794125D01*
X58124513Y-34794125D02*
X58100703Y-34870316D01*
X58100703Y-34870316D02*
X58100703Y-34946506D01*
X58100703Y-34946506D02*
X58124513Y-35022697D01*
X58124513Y-35022697D02*
X58148322Y-35060792D01*
X58148322Y-35060792D02*
X58195941Y-35098887D01*
X58195941Y-35098887D02*
X58362608Y-35098887D01*
D11*
%TO.C,BT2*%
X40105000Y-20870000D02*
X42185000Y-18790000D01*
X40105000Y-23330000D02*
X40105000Y-20870000D01*
X40105000Y-29960000D02*
X40105000Y-29330000D01*
X41545000Y-33910000D02*
X40105000Y-29960000D01*
X45685000Y-18790000D02*
X42185000Y-18790000D01*
X59585000Y-18790000D02*
X56085000Y-18790000D01*
X60225000Y-33910000D02*
X61665000Y-29960000D01*
X61665000Y-20870000D02*
X59585000Y-18790000D01*
X61665000Y-23330000D02*
X61665000Y-20870000D01*
X61665000Y-29960000D02*
X61665000Y-29330000D01*
X44885000Y-34880000D02*
G75*
G02*
X41559757Y-33918169I-1310000J1700000D01*
G01*
X60225000Y-33910000D02*
G75*
G02*
X56888354Y-34896530I-2030000J730001D01*
G01*
%TD*%
%LPC*%
D12*
%TO.C,J1*%
X61600000Y-31190000D03*
X61600000Y-22550000D03*
%TD*%
D13*
%TO.C,BT2*%
X61870000Y-26330000D03*
X39900000Y-26330000D03*
D14*
X50885000Y-26330000D03*
%TD*%
%LPD*%
M02*
