%TF.GenerationSoftware,KiCad,Pcbnew,8.0.3*%
%TF.CreationDate,2025-03-25T09:51:54-05:00*%
%TF.ProjectId,HearingAid_ESP,48656172-696e-4674-9169-645f4553502e,rev?*%
%TF.SameCoordinates,Original*%
%TF.FileFunction,Drillmap*%
%TF.FilePolarity,Positive*%
%FSLAX45Y45*%
G04 Gerber Fmt 4.5, Leading zero omitted, Abs format (unit mm)*
G04 Created by KiCad (PCBNEW 8.0.3) date 2025-03-25 09:51:54*
%MOMM*%
%LPD*%
G01*
G04 APERTURE LIST*
%ADD10C,0.100000*%
%ADD11C,0.200000*%
G04 APERTURE END LIST*
D10*
X6007927Y-1691691D02*
X6007927Y-1691691D01*
G75*
G02*
X6307927Y-1991691I3J-299999D01*
G01*
X6306927Y-3303427D01*
G75*
G02*
X6006927Y-3603427I-300000J0D01*
G01*
X4167393Y-3602893D01*
G75*
G02*
X3868059Y-3303559I-3J299333D01*
G01*
X3868191Y-1991691D01*
G75*
G02*
X4168191Y-1691691I299999J1D01*
G01*
X6007927Y-1691691D01*
D11*
X4123836Y-3919911D02*
X4123836Y-3719911D01*
X4123836Y-3719911D02*
X4171455Y-3719911D01*
X4171455Y-3719911D02*
X4200026Y-3729435D01*
X4200026Y-3729435D02*
X4219074Y-3748482D01*
X4219074Y-3748482D02*
X4228598Y-3767530D01*
X4228598Y-3767530D02*
X4238121Y-3805625D01*
X4238121Y-3805625D02*
X4238121Y-3834197D01*
X4238121Y-3834197D02*
X4228598Y-3872292D01*
X4228598Y-3872292D02*
X4219074Y-3891339D01*
X4219074Y-3891339D02*
X4200026Y-3910387D01*
X4200026Y-3910387D02*
X4171455Y-3919911D01*
X4171455Y-3919911D02*
X4123836Y-3919911D01*
X4323836Y-3919911D02*
X4323836Y-3786578D01*
X4323836Y-3824673D02*
X4333360Y-3805625D01*
X4333360Y-3805625D02*
X4342883Y-3796101D01*
X4342883Y-3796101D02*
X4361931Y-3786578D01*
X4361931Y-3786578D02*
X4380979Y-3786578D01*
X4447645Y-3919911D02*
X4447645Y-3786578D01*
X4447645Y-3719911D02*
X4438121Y-3729435D01*
X4438121Y-3729435D02*
X4447645Y-3738959D01*
X4447645Y-3738959D02*
X4457169Y-3729435D01*
X4457169Y-3729435D02*
X4447645Y-3719911D01*
X4447645Y-3719911D02*
X4447645Y-3738959D01*
X4571455Y-3919911D02*
X4552407Y-3910387D01*
X4552407Y-3910387D02*
X4542883Y-3891339D01*
X4542883Y-3891339D02*
X4542883Y-3719911D01*
X4676217Y-3919911D02*
X4657169Y-3910387D01*
X4657169Y-3910387D02*
X4647645Y-3891339D01*
X4647645Y-3891339D02*
X4647645Y-3719911D01*
X4904788Y-3919911D02*
X4904788Y-3719911D01*
X4904788Y-3719911D02*
X4971455Y-3862768D01*
X4971455Y-3862768D02*
X5038121Y-3719911D01*
X5038121Y-3719911D02*
X5038121Y-3919911D01*
X5219074Y-3919911D02*
X5219074Y-3815149D01*
X5219074Y-3815149D02*
X5209550Y-3796101D01*
X5209550Y-3796101D02*
X5190502Y-3786578D01*
X5190502Y-3786578D02*
X5152407Y-3786578D01*
X5152407Y-3786578D02*
X5133360Y-3796101D01*
X5219074Y-3910387D02*
X5200026Y-3919911D01*
X5200026Y-3919911D02*
X5152407Y-3919911D01*
X5152407Y-3919911D02*
X5133360Y-3910387D01*
X5133360Y-3910387D02*
X5123836Y-3891339D01*
X5123836Y-3891339D02*
X5123836Y-3872292D01*
X5123836Y-3872292D02*
X5133360Y-3853244D01*
X5133360Y-3853244D02*
X5152407Y-3843720D01*
X5152407Y-3843720D02*
X5200026Y-3843720D01*
X5200026Y-3843720D02*
X5219074Y-3834197D01*
X5314312Y-3786578D02*
X5314312Y-3986578D01*
X5314312Y-3796101D02*
X5333360Y-3786578D01*
X5333360Y-3786578D02*
X5371455Y-3786578D01*
X5371455Y-3786578D02*
X5390502Y-3796101D01*
X5390502Y-3796101D02*
X5400026Y-3805625D01*
X5400026Y-3805625D02*
X5409550Y-3824673D01*
X5409550Y-3824673D02*
X5409550Y-3881816D01*
X5409550Y-3881816D02*
X5400026Y-3900863D01*
X5400026Y-3900863D02*
X5390502Y-3910387D01*
X5390502Y-3910387D02*
X5371455Y-3919911D01*
X5371455Y-3919911D02*
X5333360Y-3919911D01*
X5333360Y-3919911D02*
X5314312Y-3910387D01*
X5495264Y-3900863D02*
X5504788Y-3910387D01*
X5504788Y-3910387D02*
X5495264Y-3919911D01*
X5495264Y-3919911D02*
X5485741Y-3910387D01*
X5485741Y-3910387D02*
X5495264Y-3900863D01*
X5495264Y-3900863D02*
X5495264Y-3919911D01*
X5495264Y-3796101D02*
X5504788Y-3805625D01*
X5504788Y-3805625D02*
X5495264Y-3815149D01*
X5495264Y-3815149D02*
X5485741Y-3805625D01*
X5485741Y-3805625D02*
X5495264Y-3796101D01*
X5495264Y-3796101D02*
X5495264Y-3815149D01*
M02*
