%TF.GenerationSoftware,KiCad,Pcbnew,8.0.3*%
%TF.CreationDate,2025-03-25T09:51:50-05:00*%
%TF.ProjectId,HearingAid_ESP,48656172-696e-4674-9169-645f4553502e,rev?*%
%TF.SameCoordinates,Original*%
%TF.FileFunction,Paste,Top*%
%TF.FilePolarity,Positive*%
%FSLAX46Y46*%
G04 Gerber Fmt 4.6, Leading zero omitted, Abs format (unit mm)*
G04 Created by KiCad (PCBNEW 8.0.3) date 2025-03-25 09:51:50*
%MOMM*%
%LPD*%
G01*
G04 APERTURE LIST*
G04 Aperture macros list*
%AMRoundRect*
0 Rectangle with rounded corners*
0 $1 Rounding radius*
0 $2 $3 $4 $5 $6 $7 $8 $9 X,Y pos of 4 corners*
0 Add a 4 corners polygon primitive as box body*
4,1,4,$2,$3,$4,$5,$6,$7,$8,$9,$2,$3,0*
0 Add four circle primitives for the rounded corners*
1,1,$1+$1,$2,$3*
1,1,$1+$1,$4,$5*
1,1,$1+$1,$6,$7*
1,1,$1+$1,$8,$9*
0 Add four rect primitives between the rounded corners*
20,1,$1+$1,$2,$3,$4,$5,0*
20,1,$1+$1,$4,$5,$6,$7,0*
20,1,$1+$1,$6,$7,$8,$9,0*
20,1,$1+$1,$8,$9,$2,$3,0*%
G04 Aperture macros list end*
%ADD10C,0.010000*%
%ADD11RoundRect,0.147500X0.172500X-0.147500X0.172500X0.147500X-0.172500X0.147500X-0.172500X-0.147500X0*%
%ADD12RoundRect,0.160000X0.160000X-0.197500X0.160000X0.197500X-0.160000X0.197500X-0.160000X-0.197500X0*%
%ADD13RoundRect,0.135000X-0.135000X-0.185000X0.135000X-0.185000X0.135000X0.185000X-0.135000X0.185000X0*%
%ADD14R,0.600000X1.800000*%
%ADD15R,0.500000X0.500000*%
%ADD16RoundRect,0.155000X-0.155000X0.212500X-0.155000X-0.212500X0.155000X-0.212500X0.155000X0.212500X0*%
%ADD17RoundRect,0.155000X0.155000X-0.212500X0.155000X0.212500X-0.155000X0.212500X-0.155000X-0.212500X0*%
%ADD18RoundRect,0.160000X-0.197500X-0.160000X0.197500X-0.160000X0.197500X0.160000X-0.197500X0.160000X0*%
%ADD19R,0.590000X1.210000*%
%ADD20C,0.650000*%
%ADD21R,1.140000X0.600000*%
%ADD22R,1.140000X0.300000*%
%ADD23O,2.100000X1.050000*%
%ADD24R,1.600200X0.863600*%
%ADD25RoundRect,0.150000X0.512500X0.150000X-0.512500X0.150000X-0.512500X-0.150000X0.512500X-0.150000X0*%
%ADD26RoundRect,0.125000X0.125000X-0.125000X0.125000X0.125000X-0.125000X0.125000X-0.125000X-0.125000X0*%
%ADD27RoundRect,0.062500X0.062500X-0.350000X0.062500X0.350000X-0.062500X0.350000X-0.062500X-0.350000X0*%
%ADD28RoundRect,0.062500X0.350000X-0.062500X0.350000X0.062500X-0.350000X0.062500X-0.350000X-0.062500X0*%
%ADD29RoundRect,0.155000X-0.212500X-0.155000X0.212500X-0.155000X0.212500X0.155000X-0.212500X0.155000X0*%
%ADD30RoundRect,0.160000X0.197500X0.160000X-0.197500X0.160000X-0.197500X-0.160000X0.197500X-0.160000X0*%
%ADD31RoundRect,0.150000X-0.512500X-0.150000X0.512500X-0.150000X0.512500X0.150000X-0.512500X0.150000X0*%
G04 APERTURE END LIST*
D10*
%TO.C,U3*%
X49460000Y-27433800D02*
X48060000Y-27433800D01*
X48060000Y-26433800D01*
X49460000Y-26433800D01*
X49460000Y-27433800D01*
G36*
X49460000Y-27433800D02*
G01*
X48060000Y-27433800D01*
X48060000Y-26433800D01*
X49460000Y-26433800D01*
X49460000Y-27433800D01*
G37*
X49460000Y-28833800D02*
X48060000Y-28833800D01*
X48060000Y-27833800D01*
X49460000Y-27833800D01*
X49460000Y-28833800D01*
G36*
X49460000Y-28833800D02*
G01*
X48060000Y-28833800D01*
X48060000Y-27833800D01*
X49460000Y-27833800D01*
X49460000Y-28833800D01*
G37*
X51260000Y-27433800D02*
X49860000Y-27433800D01*
X49860000Y-26433800D01*
X51260000Y-26433800D01*
X51260000Y-27433800D01*
G36*
X51260000Y-27433800D02*
G01*
X49860000Y-27433800D01*
X49860000Y-26433800D01*
X51260000Y-26433800D01*
X51260000Y-27433800D01*
G37*
X51260000Y-28833800D02*
X49860000Y-28833800D01*
X49860000Y-27833800D01*
X51260000Y-27833800D01*
X51260000Y-28833800D01*
G36*
X51260000Y-28833800D02*
G01*
X49860000Y-28833800D01*
X49860000Y-27833800D01*
X51260000Y-27833800D01*
X51260000Y-28833800D01*
G37*
%TD*%
D11*
%TO.C,D2*%
X53585000Y-30930000D03*
X53585000Y-29960000D03*
%TD*%
D12*
%TO.C,R9*%
X44020000Y-29477500D03*
X44020000Y-28282500D03*
%TD*%
D13*
%TO.C,R10*%
X47660000Y-22910000D03*
X48680000Y-22910000D03*
%TD*%
D14*
%TO.C,U3*%
X51565000Y-25017600D03*
X50295000Y-25017600D03*
X49025000Y-25017600D03*
X47755000Y-25017600D03*
X47755000Y-30250000D03*
X49025000Y-30250000D03*
X50295000Y-30250000D03*
X51565000Y-30250000D03*
%TD*%
D12*
%TO.C,R7*%
X40440000Y-34507500D03*
X40440000Y-33312500D03*
%TD*%
D15*
%TO.C,D5*%
X57810000Y-20980000D03*
X55610000Y-20980000D03*
%TD*%
D16*
%TO.C,C1*%
X56170000Y-18505000D03*
X56170000Y-19640000D03*
%TD*%
D17*
%TO.C,C9*%
X42910000Y-29437500D03*
X42910000Y-28302500D03*
%TD*%
D11*
%TO.C,D1*%
X45480000Y-30530000D03*
X45480000Y-29560000D03*
%TD*%
D18*
%TO.C,R1*%
X44695000Y-24320000D03*
X45890000Y-24320000D03*
%TD*%
D12*
%TO.C,R8*%
X57390000Y-19680000D03*
X57390000Y-18485000D03*
%TD*%
D19*
%TO.C,U4*%
X41970000Y-34220000D03*
X42920000Y-34220000D03*
X43870000Y-34220000D03*
X43870000Y-31710000D03*
X42920000Y-31710000D03*
X41970000Y-31710000D03*
%TD*%
D12*
%TO.C,R2*%
X54810000Y-29707500D03*
X54810000Y-28512500D03*
%TD*%
D20*
%TO.C,J1*%
X57920000Y-29760000D03*
X57920000Y-23980000D03*
D21*
X56850000Y-30070000D03*
X56850000Y-29270000D03*
D22*
X56850000Y-28120000D03*
X56850000Y-27120000D03*
X56850000Y-26620000D03*
X56850000Y-25620000D03*
D21*
X56850000Y-23670000D03*
X56850000Y-24470000D03*
D22*
X56850000Y-25120000D03*
X56850000Y-26120000D03*
X56850000Y-27620000D03*
X56850000Y-28620000D03*
D23*
X57420000Y-31190000D03*
X57420000Y-22550000D03*
%TD*%
D24*
%TO.C,Q1*%
X51910000Y-19810000D03*
X53921000Y-20760001D03*
X53921000Y-18859999D03*
%TD*%
D25*
%TO.C,Q2*%
X50570000Y-34860000D03*
X50570000Y-33910000D03*
X50570000Y-32960000D03*
X48295000Y-32960000D03*
X48295000Y-33910000D03*
X48295000Y-34860000D03*
%TD*%
D18*
%TO.C,R5*%
X45462500Y-31632500D03*
X46657500Y-31632500D03*
%TD*%
D26*
%TO.C,U2*%
X48172500Y-20380000D03*
X48792500Y-20380000D03*
X48172500Y-19760000D03*
X48792500Y-19760000D03*
D27*
X47732500Y-21507500D03*
X48232500Y-21507500D03*
X48732500Y-21507500D03*
X49232500Y-21507500D03*
D28*
X49920000Y-20820000D03*
X49920000Y-20320000D03*
X49920000Y-19820000D03*
X49920000Y-19320000D03*
D27*
X49232500Y-18632500D03*
X48732500Y-18632500D03*
X48232500Y-18632500D03*
X47732500Y-18632500D03*
D28*
X47045000Y-19320000D03*
X47045000Y-19820000D03*
X47045000Y-20320000D03*
X47045000Y-20820000D03*
%TD*%
D29*
%TO.C,C2*%
X44725000Y-25430000D03*
X45860000Y-25430000D03*
%TD*%
D30*
%TO.C,R4*%
X53600000Y-32040000D03*
X52405000Y-32040000D03*
%TD*%
D31*
%TO.C,U1*%
X59090000Y-18880000D03*
X59090000Y-19830000D03*
X59090000Y-20780000D03*
X61365000Y-20780000D03*
X61365000Y-18880000D03*
%TD*%
D12*
%TO.C,R3*%
X54790000Y-24895000D03*
X54790000Y-23700000D03*
%TD*%
D18*
%TO.C,R6*%
X49702500Y-22920000D03*
X50897500Y-22920000D03*
%TD*%
M02*
