%TF.GenerationSoftware,KiCad,Pcbnew,8.0.3*%
%TF.CreationDate,2025-02-28T01:09:01-06:00*%
%TF.ProjectId,HearingAid_Right,48656172-696e-4674-9169-645f52696768,rev?*%
%TF.SameCoordinates,Original*%
%TF.FileFunction,Copper,L2,Bot*%
%TF.FilePolarity,Positive*%
%FSLAX46Y46*%
G04 Gerber Fmt 4.6, Leading zero omitted, Abs format (unit mm)*
G04 Created by KiCad (PCBNEW 8.0.3) date 2025-02-28 01:09:01*
%MOMM*%
%LPD*%
G01*
G04 APERTURE LIST*
%TA.AperFunction,SMDPad,CuDef*%
%ADD10R,1.270000X5.080000*%
%TD*%
%TA.AperFunction,SMDPad,CuDef*%
%ADD11C,17.800000*%
%TD*%
%TA.AperFunction,ViaPad*%
%ADD12C,0.600000*%
%TD*%
%TA.AperFunction,Conductor*%
%ADD13C,0.127000*%
%TD*%
%TA.AperFunction,Conductor*%
%ADD14C,0.200000*%
%TD*%
G04 APERTURE END LIST*
D10*
%TO.P,BT1,1,+*%
%TO.N,B+*%
X133085000Y-70283630D03*
X111115000Y-70283630D03*
D11*
%TO.P,BT1,2,-*%
%TO.N,B-*%
X122100000Y-70283630D03*
%TD*%
D12*
%TO.N,B-*%
X127113413Y-62426587D03*
X114350000Y-62213500D03*
%TO.N,B+*%
X130670000Y-76540000D03*
X111115000Y-73595000D03*
X126720001Y-79186119D03*
%TD*%
D13*
%TO.N,B-*%
X122100000Y-66720000D02*
X122100000Y-70283630D01*
X122100000Y-69963500D02*
X114350000Y-62213500D01*
X122100000Y-70283630D02*
X122100000Y-69963500D01*
D14*
X127113413Y-65270217D02*
X122100000Y-70283630D01*
X127113413Y-62426587D02*
X127113413Y-65270217D01*
D13*
%TO.N,B+*%
X130670000Y-76540000D02*
X133085000Y-74125000D01*
X111115000Y-73595000D02*
X111115000Y-70283630D01*
X126720001Y-79186119D02*
X128023881Y-79186119D01*
X133085000Y-74125000D02*
X133085000Y-70283630D01*
X128023881Y-79186119D02*
X130670000Y-76540000D01*
%TD*%
%TA.AperFunction,Conductor*%
%TO.N,B-*%
G36*
X115320468Y-63089223D02*
G01*
X116711101Y-63199452D01*
X116719077Y-63203521D01*
X116719491Y-63204035D01*
X122038158Y-70202038D01*
X122040436Y-70210699D01*
X122035923Y-70218433D01*
X122027262Y-70220711D01*
X122021346Y-70218100D01*
X115283686Y-64594704D01*
X115279530Y-64586772D01*
X115279494Y-64586205D01*
X115225494Y-63183707D01*
X115228600Y-63175310D01*
X115228886Y-63175013D01*
X115311285Y-63092613D01*
X115319557Y-63089187D01*
X115320468Y-63089223D01*
G37*
%TD.AperFunction*%
%TD*%
%TA.AperFunction,Conductor*%
%TO.N,B-*%
G36*
X114625087Y-62103251D02*
G01*
X114631399Y-62109603D01*
X114631482Y-62109810D01*
X114816401Y-62585748D01*
X114816203Y-62594700D01*
X114813768Y-62598258D01*
X114734758Y-62677268D01*
X114726485Y-62680695D01*
X114722248Y-62679901D01*
X114246310Y-62494982D01*
X114239839Y-62488791D01*
X114239641Y-62479839D01*
X114239686Y-62479725D01*
X114347436Y-62217314D01*
X114353746Y-62210964D01*
X114616134Y-62103224D01*
X114625087Y-62103251D01*
G37*
%TD.AperFunction*%
%TD*%
%TA.AperFunction,Conductor*%
%TO.N,B-*%
G36*
X126379506Y-62351270D02*
G01*
X127013411Y-62426587D01*
X127013413Y-62426587D01*
X127206216Y-62426587D01*
X127214489Y-62430014D01*
X127216659Y-62433011D01*
X127690035Y-63369913D01*
X127690707Y-63378842D01*
X127688685Y-63382552D01*
X122165002Y-70204351D01*
X122157132Y-70208624D01*
X122148546Y-70206081D01*
X122144273Y-70198211D01*
X122145399Y-70191848D01*
X126000111Y-62314081D01*
X126006825Y-62308157D01*
X126011999Y-62307606D01*
X126379506Y-62351270D01*
G37*
%TD.AperFunction*%
%TD*%
%TA.AperFunction,Conductor*%
%TO.N,B-*%
G36*
X127380264Y-62537083D02*
G01*
X127386576Y-62543435D01*
X127386743Y-62551892D01*
X127216220Y-63018900D01*
X127210164Y-63025496D01*
X127205230Y-63026587D01*
X127021596Y-63026587D01*
X127013323Y-63023160D01*
X127010606Y-63018900D01*
X126840082Y-62551889D01*
X126840463Y-62542945D01*
X126846560Y-62537083D01*
X127108903Y-62427470D01*
X127117857Y-62427444D01*
X127380264Y-62537083D01*
G37*
%TD.AperFunction*%
%TD*%
%TA.AperFunction,Conductor*%
%TO.N,B+*%
G36*
X131051200Y-76073796D02*
G01*
X131054758Y-76076231D01*
X131133768Y-76155241D01*
X131137195Y-76163514D01*
X131136401Y-76167751D01*
X130951482Y-76643689D01*
X130945291Y-76650160D01*
X130936339Y-76650358D01*
X130936132Y-76650275D01*
X130673815Y-76542563D01*
X130667463Y-76536251D01*
X130667436Y-76536184D01*
X130559724Y-76273867D01*
X130559751Y-76264912D01*
X130566103Y-76258600D01*
X130566274Y-76258531D01*
X131042250Y-76073598D01*
X131051200Y-76073796D01*
G37*
%TD.AperFunction*%
%TD*%
%TA.AperFunction,Conductor*%
%TO.N,B+*%
G36*
X111125032Y-70324867D02*
G01*
X111126351Y-70328051D01*
X111748490Y-72817591D01*
X111747171Y-72826449D01*
X111745836Y-72828255D01*
X111181986Y-73454757D01*
X111173904Y-73458614D01*
X111173289Y-73458630D01*
X111056711Y-73458630D01*
X111048438Y-73455203D01*
X111048014Y-73454757D01*
X110484163Y-72828255D01*
X110481176Y-72819813D01*
X110481509Y-72817591D01*
X111103649Y-70328051D01*
X111108979Y-70320856D01*
X111117837Y-70319537D01*
X111125032Y-70324867D01*
G37*
%TD.AperFunction*%
%TD*%
%TA.AperFunction,Conductor*%
%TO.N,B+*%
G36*
X111179141Y-72998427D02*
G01*
X111181576Y-73001985D01*
X111387357Y-73469281D01*
X111387555Y-73478233D01*
X111381364Y-73484704D01*
X111381160Y-73484792D01*
X111119511Y-73594115D01*
X111110556Y-73594142D01*
X111110489Y-73594115D01*
X110848839Y-73484792D01*
X110842527Y-73478440D01*
X110842554Y-73469485D01*
X110842642Y-73469281D01*
X111048424Y-73001985D01*
X111054895Y-72995794D01*
X111059132Y-72995000D01*
X111170868Y-72995000D01*
X111179141Y-72998427D01*
G37*
%TD.AperFunction*%
%TD*%
%TA.AperFunction,Conductor*%
%TO.N,B+*%
G36*
X126845515Y-78913673D02*
G01*
X126845719Y-78913761D01*
X127313016Y-79119543D01*
X127319207Y-79126014D01*
X127320001Y-79130251D01*
X127320001Y-79241986D01*
X127316574Y-79250259D01*
X127313016Y-79252694D01*
X126845719Y-79458476D01*
X126836767Y-79458674D01*
X126830296Y-79452483D01*
X126830208Y-79452279D01*
X126746817Y-79252694D01*
X126720884Y-79190628D01*
X126720858Y-79181675D01*
X126720863Y-79181661D01*
X126830209Y-78919956D01*
X126836560Y-78913646D01*
X126845515Y-78913673D01*
G37*
%TD.AperFunction*%
%TD*%
%TA.AperFunction,Conductor*%
%TO.N,B+*%
G36*
X133095032Y-70324867D02*
G01*
X133096351Y-70328051D01*
X133718490Y-72817591D01*
X133717171Y-72826449D01*
X133715836Y-72828255D01*
X133151986Y-73454757D01*
X133143904Y-73458614D01*
X133143289Y-73458630D01*
X133026711Y-73458630D01*
X133018438Y-73455203D01*
X133018014Y-73454757D01*
X132454163Y-72828255D01*
X132451176Y-72819813D01*
X132451509Y-72817591D01*
X133073649Y-70328051D01*
X133078979Y-70320856D01*
X133087837Y-70319537D01*
X133095032Y-70324867D01*
G37*
%TD.AperFunction*%
%TD*%
%TA.AperFunction,Conductor*%
%TO.N,B+*%
G36*
X130403815Y-76429703D02*
G01*
X130587514Y-76505132D01*
X130666184Y-76537436D01*
X130672536Y-76543748D01*
X130672563Y-76543815D01*
X130780275Y-76806132D01*
X130780248Y-76815087D01*
X130773896Y-76821399D01*
X130773689Y-76821482D01*
X130297751Y-77006401D01*
X130288799Y-77006203D01*
X130285241Y-77003768D01*
X130206231Y-76924758D01*
X130202804Y-76916485D01*
X130203597Y-76912253D01*
X130388517Y-76436309D01*
X130394708Y-76429839D01*
X130403660Y-76429641D01*
X130403815Y-76429703D01*
G37*
%TD.AperFunction*%
%TD*%
M02*
