%TF.GenerationSoftware,KiCad,Pcbnew,8.0.3*%
%TF.CreationDate,2025-02-28T01:09:01-06:00*%
%TF.ProjectId,HearingAid_Right,48656172-696e-4674-9169-645f52696768,rev?*%
%TF.SameCoordinates,Original*%
%TF.FileFunction,Legend,Top*%
%TF.FilePolarity,Positive*%
%FSLAX46Y46*%
G04 Gerber Fmt 4.6, Leading zero omitted, Abs format (unit mm)*
G04 Created by KiCad (PCBNEW 8.0.3) date 2025-02-28 01:09:01*
%MOMM*%
%LPD*%
G01*
G04 APERTURE LIST*
G04 Aperture macros list*
%AMRoundRect*
0 Rectangle with rounded corners*
0 $1 Rounding radius*
0 $2 $3 $4 $5 $6 $7 $8 $9 X,Y pos of 4 corners*
0 Add a 4 corners polygon primitive as box body*
4,1,4,$2,$3,$4,$5,$6,$7,$8,$9,$2,$3,0*
0 Add four circle primitives for the rounded corners*
1,1,$1+$1,$2,$3*
1,1,$1+$1,$4,$5*
1,1,$1+$1,$6,$7*
1,1,$1+$1,$8,$9*
0 Add four rect primitives between the rounded corners*
20,1,$1+$1,$2,$3,$4,$5,0*
20,1,$1+$1,$4,$5,$6,$7,0*
20,1,$1+$1,$6,$7,$8,$9,0*
20,1,$1+$1,$8,$9,$2,$3,0*%
G04 Aperture macros list end*
%ADD10C,0.080000*%
%ADD11C,0.150000*%
%ADD12C,0.125000*%
%ADD13C,0.100000*%
%ADD14C,0.120000*%
%ADD15C,0.200000*%
%ADD16C,0.000000*%
%ADD17C,0.127000*%
%ADD18RoundRect,0.147500X0.147500X0.172500X-0.147500X0.172500X-0.147500X-0.172500X0.147500X-0.172500X0*%
%ADD19RoundRect,0.147500X-0.147500X-0.172500X0.147500X-0.172500X0.147500X0.172500X-0.147500X0.172500X0*%
%ADD20RoundRect,0.155000X-0.212500X-0.155000X0.212500X-0.155000X0.212500X0.155000X-0.212500X0.155000X0*%
%ADD21R,1.000000X1.000000*%
%ADD22RoundRect,0.135000X-0.135000X-0.185000X0.135000X-0.185000X0.135000X0.185000X-0.135000X0.185000X0*%
%ADD23RoundRect,0.135000X0.135000X0.185000X-0.135000X0.185000X-0.135000X-0.185000X0.135000X-0.185000X0*%
%ADD24RoundRect,0.102000X0.350000X0.550000X-0.350000X0.550000X-0.350000X-0.550000X0.350000X-0.550000X0*%
%ADD25RoundRect,0.102000X0.500000X0.400000X-0.500000X0.400000X-0.500000X-0.400000X0.500000X-0.400000X0*%
%ADD26RoundRect,0.102000X0.400000X0.850000X-0.400000X0.850000X-0.400000X-0.850000X0.400000X-0.850000X0*%
%ADD27RoundRect,0.050000X-0.350000X-0.050000X0.350000X-0.050000X0.350000X0.050000X-0.350000X0.050000X0*%
%ADD28RoundRect,0.050000X-0.050000X-0.350000X0.050000X-0.350000X0.050000X0.350000X-0.050000X0.350000X0*%
%ADD29R,4.000000X4.000000*%
%ADD30RoundRect,0.062500X-0.062500X0.350000X-0.062500X-0.350000X0.062500X-0.350000X0.062500X0.350000X0*%
%ADD31RoundRect,0.062500X-0.350000X0.062500X-0.350000X-0.062500X0.350000X-0.062500X0.350000X0.062500X0*%
%ADD32R,1.230000X1.230000*%
%ADD33RoundRect,0.160000X-0.197500X-0.160000X0.197500X-0.160000X0.197500X0.160000X-0.197500X0.160000X0*%
%ADD34RoundRect,0.102000X-0.400000X-0.850000X0.400000X-0.850000X0.400000X0.850000X-0.400000X0.850000X0*%
%ADD35RoundRect,0.160000X0.197500X0.160000X-0.197500X0.160000X-0.197500X-0.160000X0.197500X-0.160000X0*%
G04 APERTURE END LIST*
D10*
X114457869Y-78091408D02*
X114695964Y-78091408D01*
X114410250Y-78319980D02*
X114576916Y-77519980D01*
X114576916Y-77519980D02*
X114743583Y-78319980D01*
X114862630Y-77786646D02*
X114981678Y-78319980D01*
X114981678Y-78319980D02*
X115100725Y-77786646D01*
X115481677Y-78281885D02*
X115434058Y-78319980D01*
X115434058Y-78319980D02*
X115338820Y-78319980D01*
X115338820Y-78319980D02*
X115291201Y-78281885D01*
X115291201Y-78281885D02*
X115267392Y-78205694D01*
X115267392Y-78205694D02*
X115267392Y-77900932D01*
X115267392Y-77900932D02*
X115291201Y-77824742D01*
X115291201Y-77824742D02*
X115338820Y-77786646D01*
X115338820Y-77786646D02*
X115434058Y-77786646D01*
X115434058Y-77786646D02*
X115481677Y-77824742D01*
X115481677Y-77824742D02*
X115505487Y-77900932D01*
X115505487Y-77900932D02*
X115505487Y-77977123D01*
X115505487Y-77977123D02*
X115267392Y-78053313D01*
X115719772Y-78319980D02*
X115719772Y-77786646D01*
X115719772Y-77939027D02*
X115743582Y-77862837D01*
X115743582Y-77862837D02*
X115767391Y-77824742D01*
X115767391Y-77824742D02*
X115815010Y-77786646D01*
X115815010Y-77786646D02*
X115862629Y-77786646D01*
X115981677Y-77786646D02*
X116100725Y-78319980D01*
X116219772Y-77786646D02*
X116100725Y-78319980D01*
X116100725Y-78319980D02*
X116053106Y-78510456D01*
X116053106Y-78510456D02*
X116029296Y-78548551D01*
X116029296Y-78548551D02*
X115981677Y-78586646D01*
X116767391Y-78091408D02*
X117005486Y-78091408D01*
X116719772Y-78319980D02*
X116886438Y-77519980D01*
X116886438Y-77519980D02*
X117053105Y-78319980D01*
X117148343Y-77786646D02*
X117338819Y-77786646D01*
X117219771Y-77519980D02*
X117219771Y-78205694D01*
X117219771Y-78205694D02*
X117243581Y-78281885D01*
X117243581Y-78281885D02*
X117291200Y-78319980D01*
X117291200Y-78319980D02*
X117338819Y-78319980D01*
X117719771Y-78281885D02*
X117672152Y-78319980D01*
X117672152Y-78319980D02*
X117576914Y-78319980D01*
X117576914Y-78319980D02*
X117529295Y-78281885D01*
X117529295Y-78281885D02*
X117505485Y-78243789D01*
X117505485Y-78243789D02*
X117481676Y-78167599D01*
X117481676Y-78167599D02*
X117481676Y-77939027D01*
X117481676Y-77939027D02*
X117505485Y-77862837D01*
X117505485Y-77862837D02*
X117529295Y-77824742D01*
X117529295Y-77824742D02*
X117576914Y-77786646D01*
X117576914Y-77786646D02*
X117672152Y-77786646D01*
X117672152Y-77786646D02*
X117719771Y-77824742D01*
X117934056Y-78319980D02*
X117934056Y-77519980D01*
X118148342Y-78319980D02*
X118148342Y-77900932D01*
X118148342Y-77900932D02*
X118124532Y-77824742D01*
X118124532Y-77824742D02*
X118076913Y-77786646D01*
X118076913Y-77786646D02*
X118005485Y-77786646D01*
X118005485Y-77786646D02*
X117957866Y-77824742D01*
X117957866Y-77824742D02*
X117934056Y-77862837D01*
X118457866Y-78319980D02*
X118410247Y-78281885D01*
X118410247Y-78281885D02*
X118386437Y-78205694D01*
X118386437Y-78205694D02*
X118386437Y-77519980D01*
X118838818Y-78281885D02*
X118791199Y-78319980D01*
X118791199Y-78319980D02*
X118695961Y-78319980D01*
X118695961Y-78319980D02*
X118648342Y-78281885D01*
X118648342Y-78281885D02*
X118624533Y-78205694D01*
X118624533Y-78205694D02*
X118624533Y-77900932D01*
X118624533Y-77900932D02*
X118648342Y-77824742D01*
X118648342Y-77824742D02*
X118695961Y-77786646D01*
X118695961Y-77786646D02*
X118791199Y-77786646D01*
X118791199Y-77786646D02*
X118838818Y-77824742D01*
X118838818Y-77824742D02*
X118862628Y-77900932D01*
X118862628Y-77900932D02*
X118862628Y-77977123D01*
X118862628Y-77977123D02*
X118624533Y-78053313D01*
X119029294Y-77786646D02*
X119148342Y-78319980D01*
X119267389Y-77786646D02*
X119148342Y-78319980D01*
X119148342Y-78319980D02*
X119100723Y-78510456D01*
X119100723Y-78510456D02*
X119076913Y-78548551D01*
X119076913Y-78548551D02*
X119029294Y-78586646D01*
X114481678Y-79607935D02*
X114481678Y-78807935D01*
X114481678Y-78807935D02*
X114672154Y-78807935D01*
X114672154Y-78807935D02*
X114719773Y-78846030D01*
X114719773Y-78846030D02*
X114743583Y-78884125D01*
X114743583Y-78884125D02*
X114767392Y-78960316D01*
X114767392Y-78960316D02*
X114767392Y-79074601D01*
X114767392Y-79074601D02*
X114743583Y-79150792D01*
X114743583Y-79150792D02*
X114719773Y-79188887D01*
X114719773Y-79188887D02*
X114672154Y-79226982D01*
X114672154Y-79226982D02*
X114481678Y-79226982D01*
X115053107Y-79607935D02*
X115005488Y-79569840D01*
X115005488Y-79569840D02*
X114981678Y-79493649D01*
X114981678Y-79493649D02*
X114981678Y-78807935D01*
X115457869Y-79607935D02*
X115457869Y-79188887D01*
X115457869Y-79188887D02*
X115434059Y-79112697D01*
X115434059Y-79112697D02*
X115386440Y-79074601D01*
X115386440Y-79074601D02*
X115291202Y-79074601D01*
X115291202Y-79074601D02*
X115243583Y-79112697D01*
X115457869Y-79569840D02*
X115410250Y-79607935D01*
X115410250Y-79607935D02*
X115291202Y-79607935D01*
X115291202Y-79607935D02*
X115243583Y-79569840D01*
X115243583Y-79569840D02*
X115219774Y-79493649D01*
X115219774Y-79493649D02*
X115219774Y-79417459D01*
X115219774Y-79417459D02*
X115243583Y-79341268D01*
X115243583Y-79341268D02*
X115291202Y-79303173D01*
X115291202Y-79303173D02*
X115410250Y-79303173D01*
X115410250Y-79303173D02*
X115457869Y-79265078D01*
X115695964Y-79074601D02*
X115695964Y-79607935D01*
X115695964Y-79150792D02*
X115719774Y-79112697D01*
X115719774Y-79112697D02*
X115767393Y-79074601D01*
X115767393Y-79074601D02*
X115838821Y-79074601D01*
X115838821Y-79074601D02*
X115886440Y-79112697D01*
X115886440Y-79112697D02*
X115910250Y-79188887D01*
X115910250Y-79188887D02*
X115910250Y-79607935D01*
X116529297Y-79607935D02*
X116529297Y-78807935D01*
X116767392Y-79607935D02*
X116767392Y-78807935D01*
X117315011Y-78807935D02*
X117600725Y-78807935D01*
X117457868Y-79607935D02*
X117457868Y-78807935D01*
X117767391Y-79607935D02*
X117767391Y-78807935D01*
X117981677Y-79607935D02*
X117981677Y-79188887D01*
X117981677Y-79188887D02*
X117957867Y-79112697D01*
X117957867Y-79112697D02*
X117910248Y-79074601D01*
X117910248Y-79074601D02*
X117838820Y-79074601D01*
X117838820Y-79074601D02*
X117791201Y-79112697D01*
X117791201Y-79112697D02*
X117767391Y-79150792D01*
X118410248Y-79569840D02*
X118362629Y-79607935D01*
X118362629Y-79607935D02*
X118267391Y-79607935D01*
X118267391Y-79607935D02*
X118219772Y-79569840D01*
X118219772Y-79569840D02*
X118195963Y-79493649D01*
X118195963Y-79493649D02*
X118195963Y-79188887D01*
X118195963Y-79188887D02*
X118219772Y-79112697D01*
X118219772Y-79112697D02*
X118267391Y-79074601D01*
X118267391Y-79074601D02*
X118362629Y-79074601D01*
X118362629Y-79074601D02*
X118410248Y-79112697D01*
X118410248Y-79112697D02*
X118434058Y-79188887D01*
X118434058Y-79188887D02*
X118434058Y-79265078D01*
X118434058Y-79265078D02*
X118195963Y-79341268D01*
X118624534Y-79569840D02*
X118672153Y-79607935D01*
X118672153Y-79607935D02*
X118767391Y-79607935D01*
X118767391Y-79607935D02*
X118815010Y-79569840D01*
X118815010Y-79569840D02*
X118838819Y-79493649D01*
X118838819Y-79493649D02*
X118838819Y-79455554D01*
X118838819Y-79455554D02*
X118815010Y-79379363D01*
X118815010Y-79379363D02*
X118767391Y-79341268D01*
X118767391Y-79341268D02*
X118695962Y-79341268D01*
X118695962Y-79341268D02*
X118648343Y-79303173D01*
X118648343Y-79303173D02*
X118624534Y-79226982D01*
X118624534Y-79226982D02*
X118624534Y-79188887D01*
X118624534Y-79188887D02*
X118648343Y-79112697D01*
X118648343Y-79112697D02*
X118695962Y-79074601D01*
X118695962Y-79074601D02*
X118767391Y-79074601D01*
X118767391Y-79074601D02*
X118815010Y-79112697D01*
X119053105Y-79607935D02*
X119053105Y-79074601D01*
X119053105Y-78807935D02*
X119029296Y-78846030D01*
X119029296Y-78846030D02*
X119053105Y-78884125D01*
X119053105Y-78884125D02*
X119076915Y-78846030D01*
X119076915Y-78846030D02*
X119053105Y-78807935D01*
X119053105Y-78807935D02*
X119053105Y-78884125D01*
X119267391Y-79569840D02*
X119315010Y-79607935D01*
X119315010Y-79607935D02*
X119410248Y-79607935D01*
X119410248Y-79607935D02*
X119457867Y-79569840D01*
X119457867Y-79569840D02*
X119481676Y-79493649D01*
X119481676Y-79493649D02*
X119481676Y-79455554D01*
X119481676Y-79455554D02*
X119457867Y-79379363D01*
X119457867Y-79379363D02*
X119410248Y-79341268D01*
X119410248Y-79341268D02*
X119338819Y-79341268D01*
X119338819Y-79341268D02*
X119291200Y-79303173D01*
X119291200Y-79303173D02*
X119267391Y-79226982D01*
X119267391Y-79226982D02*
X119267391Y-79188887D01*
X119267391Y-79188887D02*
X119291200Y-79112697D01*
X119291200Y-79112697D02*
X119338819Y-79074601D01*
X119338819Y-79074601D02*
X119410248Y-79074601D01*
X119410248Y-79074601D02*
X119457867Y-79112697D01*
D11*
X126840475Y-81262200D02*
X126954761Y-81300295D01*
X126954761Y-81300295D02*
X127145237Y-81300295D01*
X127145237Y-81300295D02*
X127221428Y-81262200D01*
X127221428Y-81262200D02*
X127259523Y-81224104D01*
X127259523Y-81224104D02*
X127297618Y-81147914D01*
X127297618Y-81147914D02*
X127297618Y-81071723D01*
X127297618Y-81071723D02*
X127259523Y-80995533D01*
X127259523Y-80995533D02*
X127221428Y-80957438D01*
X127221428Y-80957438D02*
X127145237Y-80919342D01*
X127145237Y-80919342D02*
X126992856Y-80881247D01*
X126992856Y-80881247D02*
X126916666Y-80843152D01*
X126916666Y-80843152D02*
X126878571Y-80805057D01*
X126878571Y-80805057D02*
X126840475Y-80728866D01*
X126840475Y-80728866D02*
X126840475Y-80652676D01*
X126840475Y-80652676D02*
X126878571Y-80576485D01*
X126878571Y-80576485D02*
X126916666Y-80538390D01*
X126916666Y-80538390D02*
X126992856Y-80500295D01*
X126992856Y-80500295D02*
X127183333Y-80500295D01*
X127183333Y-80500295D02*
X127297618Y-80538390D01*
X128059523Y-81300295D02*
X127602380Y-81300295D01*
X127830952Y-81300295D02*
X127830952Y-80500295D01*
X127830952Y-80500295D02*
X127754761Y-80614580D01*
X127754761Y-80614580D02*
X127678571Y-80690771D01*
X127678571Y-80690771D02*
X127602380Y-80728866D01*
D12*
X127223595Y-63823809D02*
X126842642Y-63990475D01*
X127223595Y-64109523D02*
X126423595Y-64109523D01*
X126423595Y-64109523D02*
X126423595Y-63919047D01*
X126423595Y-63919047D02*
X126461690Y-63871428D01*
X126461690Y-63871428D02*
X126499785Y-63847618D01*
X126499785Y-63847618D02*
X126575976Y-63823809D01*
X126575976Y-63823809D02*
X126690261Y-63823809D01*
X126690261Y-63823809D02*
X126766452Y-63847618D01*
X126766452Y-63847618D02*
X126804547Y-63871428D01*
X126804547Y-63871428D02*
X126842642Y-63919047D01*
X126842642Y-63919047D02*
X126842642Y-64109523D01*
X127185500Y-63633332D02*
X127223595Y-63561904D01*
X127223595Y-63561904D02*
X127223595Y-63442856D01*
X127223595Y-63442856D02*
X127185500Y-63395237D01*
X127185500Y-63395237D02*
X127147404Y-63371428D01*
X127147404Y-63371428D02*
X127071214Y-63347618D01*
X127071214Y-63347618D02*
X126995023Y-63347618D01*
X126995023Y-63347618D02*
X126918833Y-63371428D01*
X126918833Y-63371428D02*
X126880738Y-63395237D01*
X126880738Y-63395237D02*
X126842642Y-63442856D01*
X126842642Y-63442856D02*
X126804547Y-63538094D01*
X126804547Y-63538094D02*
X126766452Y-63585713D01*
X126766452Y-63585713D02*
X126728357Y-63609523D01*
X126728357Y-63609523D02*
X126652166Y-63633332D01*
X126652166Y-63633332D02*
X126575976Y-63633332D01*
X126575976Y-63633332D02*
X126499785Y-63609523D01*
X126499785Y-63609523D02*
X126461690Y-63585713D01*
X126461690Y-63585713D02*
X126423595Y-63538094D01*
X126423595Y-63538094D02*
X126423595Y-63419047D01*
X126423595Y-63419047D02*
X126461690Y-63347618D01*
X126423595Y-63204761D02*
X126423595Y-62919047D01*
X127223595Y-63061904D02*
X126423595Y-63061904D01*
X120864547Y-64838571D02*
X120902642Y-64767143D01*
X120902642Y-64767143D02*
X120940738Y-64743333D01*
X120940738Y-64743333D02*
X121016928Y-64719524D01*
X121016928Y-64719524D02*
X121131214Y-64719524D01*
X121131214Y-64719524D02*
X121207404Y-64743333D01*
X121207404Y-64743333D02*
X121245500Y-64767143D01*
X121245500Y-64767143D02*
X121283595Y-64814762D01*
X121283595Y-64814762D02*
X121283595Y-65005238D01*
X121283595Y-65005238D02*
X120483595Y-65005238D01*
X120483595Y-65005238D02*
X120483595Y-64838571D01*
X120483595Y-64838571D02*
X120521690Y-64790952D01*
X120521690Y-64790952D02*
X120559785Y-64767143D01*
X120559785Y-64767143D02*
X120635976Y-64743333D01*
X120635976Y-64743333D02*
X120712166Y-64743333D01*
X120712166Y-64743333D02*
X120788357Y-64767143D01*
X120788357Y-64767143D02*
X120826452Y-64790952D01*
X120826452Y-64790952D02*
X120864547Y-64838571D01*
X120864547Y-64838571D02*
X120864547Y-65005238D01*
X120483595Y-64410000D02*
X120483595Y-64314762D01*
X120483595Y-64314762D02*
X120521690Y-64267143D01*
X120521690Y-64267143D02*
X120597880Y-64219524D01*
X120597880Y-64219524D02*
X120750261Y-64195714D01*
X120750261Y-64195714D02*
X121016928Y-64195714D01*
X121016928Y-64195714D02*
X121169309Y-64219524D01*
X121169309Y-64219524D02*
X121245500Y-64267143D01*
X121245500Y-64267143D02*
X121283595Y-64314762D01*
X121283595Y-64314762D02*
X121283595Y-64410000D01*
X121283595Y-64410000D02*
X121245500Y-64457619D01*
X121245500Y-64457619D02*
X121169309Y-64505238D01*
X121169309Y-64505238D02*
X121016928Y-64529047D01*
X121016928Y-64529047D02*
X120750261Y-64529047D01*
X120750261Y-64529047D02*
X120597880Y-64505238D01*
X120597880Y-64505238D02*
X120521690Y-64457619D01*
X120521690Y-64457619D02*
X120483595Y-64410000D01*
X120483595Y-63886190D02*
X120483595Y-63790952D01*
X120483595Y-63790952D02*
X120521690Y-63743333D01*
X120521690Y-63743333D02*
X120597880Y-63695714D01*
X120597880Y-63695714D02*
X120750261Y-63671904D01*
X120750261Y-63671904D02*
X121016928Y-63671904D01*
X121016928Y-63671904D02*
X121169309Y-63695714D01*
X121169309Y-63695714D02*
X121245500Y-63743333D01*
X121245500Y-63743333D02*
X121283595Y-63790952D01*
X121283595Y-63790952D02*
X121283595Y-63886190D01*
X121283595Y-63886190D02*
X121245500Y-63933809D01*
X121245500Y-63933809D02*
X121169309Y-63981428D01*
X121169309Y-63981428D02*
X121016928Y-64005237D01*
X121016928Y-64005237D02*
X120750261Y-64005237D01*
X120750261Y-64005237D02*
X120597880Y-63981428D01*
X120597880Y-63981428D02*
X120521690Y-63933809D01*
X120521690Y-63933809D02*
X120483595Y-63886190D01*
X120483595Y-63529046D02*
X120483595Y-63243332D01*
X121283595Y-63386189D02*
X120483595Y-63386189D01*
D13*
%TO.C,D4*%
X121425000Y-75530000D02*
G75*
G02*
X121325000Y-75530000I-50000J0D01*
G01*
X121325000Y-75530000D02*
G75*
G02*
X121425000Y-75530000I50000J0D01*
G01*
%TO.C,D3*%
X129535000Y-73770000D02*
G75*
G02*
X129435000Y-73770000I-50000J0D01*
G01*
X129435000Y-73770000D02*
G75*
G02*
X129535000Y-73770000I50000J0D01*
G01*
D14*
%TO.C,C3*%
X128364165Y-63920000D02*
X128595835Y-63920000D01*
X128364165Y-64640000D02*
X128595835Y-64640000D01*
%TO.C,TP20*%
D13*
X111140000Y-63850000D02*
X112640000Y-63850000D01*
X112640000Y-65350000D01*
X111140000Y-65350000D01*
X111140000Y-63850000D01*
D14*
%TO.C,R11*%
X130416359Y-72240000D02*
X130723641Y-72240000D01*
X130416359Y-73000000D02*
X130723641Y-73000000D01*
%TO.C,C5*%
X125674165Y-61890000D02*
X125905835Y-61890000D01*
X125674165Y-62610000D02*
X125905835Y-62610000D01*
%TO.C,TP4*%
D13*
X114750000Y-73250000D02*
X116250000Y-73250000D01*
X116250000Y-74750000D01*
X114750000Y-74750000D01*
X114750000Y-73250000D01*
%TO.C,TP22*%
X127530000Y-74430000D02*
X129030000Y-74430000D01*
X129030000Y-75930000D01*
X127530000Y-75930000D01*
X127530000Y-74430000D01*
D14*
%TO.C,R13*%
X114433641Y-67630000D02*
X114126359Y-67630000D01*
X114433641Y-68390000D02*
X114126359Y-68390000D01*
D15*
%TO.C,S1*%
X120900000Y-77530000D02*
X120900000Y-78330000D01*
X122860000Y-79380000D02*
X121450000Y-79380000D01*
X122860000Y-80880000D02*
X122860000Y-79380000D01*
X124360000Y-79380000D02*
X124360000Y-80880000D01*
X124360000Y-80880000D02*
X122860000Y-80880000D01*
X124450000Y-76480000D02*
X122750000Y-76480000D01*
X127250000Y-79380000D02*
X124360000Y-79380000D01*
X127800000Y-78330000D02*
X127800000Y-77530000D01*
X122750000Y-77030000D02*
G75*
G02*
X122550000Y-77030000I-100000J0D01*
G01*
X122550000Y-77030000D02*
G75*
G02*
X122750000Y-77030000I100000J0D01*
G01*
%TO.C,TP6*%
D13*
X113070000Y-63850000D02*
X114570000Y-63850000D01*
X114570000Y-65350000D01*
X113070000Y-65350000D01*
X113070000Y-63850000D01*
D16*
%TO.C,G\u002A\u002A\u002A*%
G36*
X114086822Y-77950530D02*
G01*
X114078909Y-77958442D01*
X114070997Y-77950530D01*
X114078909Y-77942617D01*
X114086822Y-77950530D01*
G37*
G36*
X114134299Y-77918879D02*
G01*
X114126386Y-77926791D01*
X114118473Y-77918879D01*
X114126386Y-77910966D01*
X114134299Y-77918879D01*
G37*
G36*
X114134299Y-77950530D02*
G01*
X114126386Y-77958442D01*
X114118473Y-77950530D01*
X114126386Y-77942617D01*
X114134299Y-77950530D01*
G37*
G36*
X114165950Y-77934704D02*
G01*
X114158037Y-77942617D01*
X114150124Y-77934704D01*
X114158037Y-77926791D01*
X114165950Y-77934704D01*
G37*
G36*
X114034331Y-77876347D02*
G01*
X114036217Y-77901081D01*
X114033081Y-77906680D01*
X114025888Y-77901960D01*
X114024769Y-77885909D01*
X114028634Y-77869022D01*
X114034331Y-77876347D01*
G37*
G36*
X114113198Y-77805462D02*
G01*
X114111026Y-77814870D01*
X114102648Y-77816013D01*
X114089621Y-77810222D01*
X114092097Y-77805462D01*
X114110878Y-77803568D01*
X114113198Y-77805462D01*
G37*
G36*
X114066031Y-77826235D02*
G01*
X114063084Y-77831838D01*
X114048173Y-77846952D01*
X114045390Y-77847664D01*
X114044311Y-77837441D01*
X114047258Y-77831838D01*
X114062169Y-77816725D01*
X114064952Y-77816013D01*
X114066031Y-77826235D01*
G37*
G36*
X114159614Y-77837824D02*
G01*
X114177020Y-77868504D01*
X114177219Y-77889313D01*
X114171169Y-77908561D01*
X114168488Y-77897437D01*
X114167786Y-77886436D01*
X114158878Y-77850145D01*
X114150181Y-77834947D01*
X114147036Y-77828172D01*
X114159614Y-77837824D01*
G37*
G36*
X114134056Y-77856016D02*
G01*
X114123338Y-77877606D01*
X114102648Y-77899381D01*
X114079899Y-77916519D01*
X114072016Y-77909194D01*
X114071239Y-77883116D01*
X114073592Y-77855515D01*
X114081826Y-77856306D01*
X114087064Y-77863489D01*
X114101961Y-77879271D01*
X114116120Y-77866656D01*
X114118231Y-77863489D01*
X114131047Y-77851010D01*
X114134056Y-77856016D01*
G37*
G36*
X110519398Y-76926496D02*
G01*
X110619893Y-76938559D01*
X110725209Y-76959250D01*
X110831637Y-76988758D01*
X110846337Y-76993577D01*
X110908559Y-77015071D01*
X110964957Y-77036534D01*
X111020218Y-77060359D01*
X111079028Y-77088941D01*
X111146077Y-77124672D01*
X111226051Y-77169944D01*
X111323637Y-77227153D01*
X111441076Y-77297222D01*
X111532997Y-77351323D01*
X111621447Y-77401548D01*
X111700854Y-77444871D01*
X111765644Y-77478267D01*
X111810243Y-77498709D01*
X111816537Y-77501078D01*
X111911109Y-77523915D01*
X112015973Y-77532345D01*
X112119789Y-77526550D01*
X112211214Y-77506710D01*
X112243146Y-77494253D01*
X112269083Y-77482841D01*
X112294248Y-77474110D01*
X112323129Y-77467723D01*
X112360215Y-77463347D01*
X112409996Y-77460644D01*
X112476959Y-77459279D01*
X112565594Y-77458918D01*
X112680390Y-77459223D01*
X112710000Y-77459348D01*
X112833331Y-77460110D01*
X112929335Y-77461393D01*
X113002334Y-77463499D01*
X113056651Y-77466728D01*
X113096607Y-77471380D01*
X113126526Y-77477757D01*
X113150730Y-77486160D01*
X113161028Y-77490738D01*
X113222845Y-77510296D01*
X113304249Y-77523241D01*
X113393724Y-77528811D01*
X113479751Y-77526245D01*
X113545480Y-77516160D01*
X113584513Y-77504974D01*
X113626781Y-77489229D01*
X113676015Y-77466987D01*
X113735951Y-77436306D01*
X113810319Y-77395249D01*
X113902853Y-77341876D01*
X114017286Y-77274247D01*
X114058837Y-77249459D01*
X114224088Y-77154124D01*
X114369984Y-77077898D01*
X114501074Y-77019145D01*
X114621908Y-76976229D01*
X114737035Y-76947511D01*
X114851004Y-76931356D01*
X114957227Y-76926195D01*
X115053928Y-76927819D01*
X115122549Y-76935600D01*
X115166248Y-76950600D01*
X115188185Y-76973878D01*
X115191704Y-77004961D01*
X115186697Y-77048474D01*
X115012616Y-77058416D01*
X114916052Y-77066720D01*
X114827729Y-77081333D01*
X114743194Y-77104306D01*
X114657994Y-77137692D01*
X114567673Y-77183545D01*
X114467779Y-77243916D01*
X114353858Y-77320860D01*
X114221456Y-77416429D01*
X114197601Y-77434073D01*
X114061969Y-77532481D01*
X113946320Y-77611457D01*
X113847395Y-77673056D01*
X113761934Y-77719334D01*
X113703112Y-77745878D01*
X113660461Y-77765387D01*
X113633218Y-77781976D01*
X113627941Y-77788550D01*
X113641249Y-77806309D01*
X113674809Y-77828844D01*
X113718872Y-77850840D01*
X113763690Y-77866984D01*
X113777918Y-77870300D01*
X113822924Y-77886339D01*
X113856605Y-77910141D01*
X113876610Y-77946953D01*
X113867705Y-77982809D01*
X113829011Y-78019098D01*
X113764849Y-78054767D01*
X113664541Y-78090849D01*
X113568752Y-78099514D01*
X113469128Y-78080911D01*
X113414236Y-78061006D01*
X113348984Y-78035186D01*
X113306693Y-78024493D01*
X113281181Y-78031700D01*
X113266266Y-78059584D01*
X113255769Y-78110919D01*
X113252177Y-78133762D01*
X113235432Y-78208591D01*
X113205635Y-78296058D01*
X113160742Y-78401858D01*
X113140122Y-78446316D01*
X113103937Y-78524137D01*
X113071429Y-78596276D01*
X113045717Y-78655654D01*
X113029919Y-78695194D01*
X113028045Y-78700648D01*
X113012203Y-78793294D01*
X113017520Y-78901973D01*
X113043458Y-79018871D01*
X113060144Y-79076765D01*
X113067243Y-79114448D01*
X113065252Y-79141714D01*
X113054667Y-79168354D01*
X113051370Y-79174841D01*
X113033897Y-79218589D01*
X113026512Y-79256859D01*
X113026511Y-79257213D01*
X113012544Y-79299370D01*
X112975569Y-79344121D01*
X112922971Y-79385237D01*
X112862139Y-79416486D01*
X112823956Y-79428081D01*
X112746191Y-79441516D01*
X112681936Y-79443134D01*
X112615220Y-79432638D01*
X112578708Y-79423498D01*
X112502624Y-79392577D01*
X112444924Y-79343287D01*
X112401090Y-79270835D01*
X112378544Y-79211086D01*
X112344790Y-79105795D01*
X112377052Y-79012320D01*
X112401660Y-78911016D01*
X112408364Y-78808470D01*
X112396589Y-78716692D01*
X112391954Y-78700648D01*
X112378826Y-78666566D01*
X112355080Y-78611048D01*
X112323833Y-78541171D01*
X112288206Y-78464014D01*
X112279878Y-78446316D01*
X112229547Y-78333881D01*
X112194745Y-78241594D01*
X112173294Y-78163368D01*
X112167626Y-78132492D01*
X112159026Y-78077981D01*
X112149541Y-78044229D01*
X112133169Y-78028986D01*
X112103906Y-78030006D01*
X112055747Y-78045041D01*
X111994289Y-78067594D01*
X111930715Y-78086328D01*
X111865617Y-78098399D01*
X111831730Y-78100872D01*
X111774608Y-78093950D01*
X111710039Y-78075678D01*
X111646484Y-78049802D01*
X111592403Y-78020066D01*
X111556258Y-77990215D01*
X111547009Y-77974858D01*
X111548751Y-77934015D01*
X111576702Y-77898488D01*
X111625428Y-77874253D01*
X111642081Y-77870300D01*
X111686589Y-77856966D01*
X111732655Y-77835752D01*
X111770644Y-77812038D01*
X111790924Y-77791201D01*
X111792118Y-77786524D01*
X111778469Y-77774125D01*
X111742849Y-77755701D01*
X111697697Y-77737084D01*
X111629730Y-77705569D01*
X111541014Y-77654602D01*
X111434282Y-77585954D01*
X111312264Y-77501396D01*
X111177694Y-77402700D01*
X111151183Y-77382686D01*
X111014859Y-77283546D01*
X110894165Y-77205851D01*
X110783808Y-77147295D01*
X110678495Y-77105572D01*
X110572935Y-77078376D01*
X110461836Y-77063402D01*
X110410796Y-77060135D01*
X110332411Y-77055695D01*
X110280018Y-77050248D01*
X110247958Y-77042715D01*
X110230572Y-77032022D01*
X110225459Y-77024866D01*
X110219109Y-76989080D01*
X110239842Y-76960800D01*
X110283948Y-76940215D01*
X110347716Y-76927512D01*
X110427436Y-76922877D01*
X110519398Y-76926496D01*
G37*
D17*
%TO.C,RST*%
X125470000Y-63050000D02*
X122470000Y-63050000D01*
X125470000Y-65550000D02*
X122470000Y-65550000D01*
D15*
X126770000Y-64500000D02*
G75*
G02*
X126570000Y-64500000I-100000J0D01*
G01*
X126570000Y-64500000D02*
G75*
G02*
X126770000Y-64500000I100000J0D01*
G01*
D14*
%TO.C,U8*%
X121830000Y-67070000D02*
X121830000Y-66660000D01*
X121830000Y-73640000D02*
X121830000Y-72990000D01*
X122480000Y-66420000D02*
X122130000Y-66420000D01*
X122480000Y-73640000D02*
X121830000Y-73640000D01*
X128400000Y-66420000D02*
X129050000Y-66420000D01*
X128400000Y-73640000D02*
X129050000Y-73640000D01*
X129050000Y-66420000D02*
X129050000Y-67070000D01*
X129050000Y-73640000D02*
X129050000Y-72990000D01*
X121830000Y-66420000D02*
X121590000Y-66090000D01*
X122070000Y-66090000D01*
X121830000Y-66420000D01*
G36*
X121830000Y-66420000D02*
G01*
X121590000Y-66090000D01*
X122070000Y-66090000D01*
X121830000Y-66420000D01*
G37*
%TO.C,TP13*%
D13*
X119450000Y-72290000D02*
X120950000Y-72290000D01*
X120950000Y-73790000D01*
X119450000Y-73790000D01*
X119450000Y-72290000D01*
D14*
%TO.C,U5*%
X112922500Y-69070000D02*
X113397500Y-69070000D01*
X112922500Y-69545000D02*
X112922500Y-69070000D01*
X112922500Y-71815000D02*
X112922500Y-72290000D01*
X112922500Y-72290000D02*
X113397500Y-72290000D01*
X115667500Y-69070000D02*
X115902500Y-69070000D01*
X116142500Y-69545000D02*
X116142500Y-69370000D01*
X116142500Y-71815000D02*
X116142500Y-72290000D01*
X116142500Y-72290000D02*
X115667500Y-72290000D01*
X116472500Y-69310000D02*
X116142500Y-69070000D01*
X116472500Y-68830000D01*
X116472500Y-69310000D01*
G36*
X116472500Y-69310000D02*
G01*
X116142500Y-69070000D01*
X116472500Y-68830000D01*
X116472500Y-69310000D01*
G37*
%TO.C,TP17*%
D13*
X118890000Y-65710000D02*
X120390000Y-65710000D01*
X120390000Y-67210000D01*
X118890000Y-67210000D01*
X118890000Y-65710000D01*
D14*
%TO.C,C8*%
X128376665Y-64990000D02*
X128608335Y-64990000D01*
X128376665Y-65710000D02*
X128608335Y-65710000D01*
%TO.C,R12*%
X120126359Y-74030000D02*
X120433641Y-74030000D01*
X120126359Y-74790000D02*
X120433641Y-74790000D01*
%TO.C,C4*%
X128366665Y-62840000D02*
X128598335Y-62840000D01*
X128366665Y-63560000D02*
X128598335Y-63560000D01*
%TO.C,TP16*%
D13*
X117070000Y-65750000D02*
X118570000Y-65750000D01*
X118570000Y-67250000D01*
X117070000Y-67250000D01*
X117070000Y-65750000D01*
D14*
%TO.C,R14*%
X121602379Y-61880000D02*
X121937621Y-61880000D01*
X121602379Y-62640000D02*
X121937621Y-62640000D01*
D17*
%TO.C,BOOT*%
X116550000Y-65380000D02*
X119550000Y-65380000D01*
X116550000Y-62880000D02*
X119550000Y-62880000D01*
D15*
X115450000Y-63930000D02*
G75*
G02*
X115250000Y-63930000I-100000J0D01*
G01*
X115250000Y-63930000D02*
G75*
G02*
X115450000Y-63930000I100000J0D01*
G01*
%TO.C,TP24*%
D13*
X112610000Y-75090000D02*
X114110000Y-75090000D01*
X114110000Y-76590000D01*
X112610000Y-76590000D01*
X112610000Y-75090000D01*
%TO.C,TP18*%
X113190000Y-65780000D02*
X114690000Y-65780000D01*
X114690000Y-67280000D01*
X113190000Y-67280000D01*
X113190000Y-65780000D01*
%TO.C,TP3*%
X112625000Y-73245000D02*
X114125000Y-73245000D01*
X114125000Y-74745000D01*
X112625000Y-74745000D01*
X112625000Y-73245000D01*
%TO.C,TP8*%
X117120000Y-70100000D02*
X118620000Y-70100000D01*
X118620000Y-71600000D01*
X117120000Y-71600000D01*
X117120000Y-70100000D01*
%TO.C,TP15*%
X115160000Y-65760000D02*
X116660000Y-65760000D01*
X116660000Y-67260000D01*
X115160000Y-67260000D01*
X115160000Y-65760000D01*
%TO.C,TP7*%
X117130000Y-71820000D02*
X118630000Y-71820000D01*
X118630000Y-73320000D01*
X117130000Y-73320000D01*
X117130000Y-71820000D01*
D14*
%TO.C,R15*%
X119360121Y-61730000D02*
X119024879Y-61730000D01*
X119360121Y-62490000D02*
X119024879Y-62490000D01*
%TO.C,TP9*%
D13*
X117110000Y-68280000D02*
X118610000Y-68280000D01*
X118610000Y-69780000D01*
X117110000Y-69780000D01*
X117110000Y-68280000D01*
%TO.C,TP21*%
X129210000Y-77240000D02*
X130710000Y-77240000D01*
X130710000Y-78740000D01*
X129210000Y-78740000D01*
X129210000Y-77240000D01*
%TO.C,TP23*%
X129270000Y-74440000D02*
X130770000Y-74440000D01*
X130770000Y-75940000D01*
X129270000Y-75940000D01*
X129270000Y-74440000D01*
%TD*%
%LPC*%
D18*
%TO.C,D4*%
X120770000Y-75530000D03*
X119800000Y-75530000D03*
%TD*%
D19*
%TO.C,D3*%
X130090000Y-73770000D03*
X131060000Y-73770000D03*
%TD*%
D20*
%TO.C,C3*%
X127912500Y-64280000D03*
X129047500Y-64280000D03*
%TD*%
D21*
%TO.C,TP20*%
X111890000Y-64600000D03*
%TD*%
D22*
%TO.C,R11*%
X130060000Y-72620000D03*
X131080000Y-72620000D03*
%TD*%
D20*
%TO.C,C5*%
X125222500Y-62250000D03*
X126357500Y-62250000D03*
%TD*%
D21*
%TO.C,TP4*%
X115500000Y-74000000D03*
%TD*%
%TO.C,TP22*%
X128280000Y-75180000D03*
%TD*%
D23*
%TO.C,R13*%
X114790000Y-68010000D03*
X113770000Y-68010000D03*
%TD*%
D24*
%TO.C,S1*%
X122100000Y-75880000D03*
X125100000Y-75880000D03*
X126600000Y-75880000D03*
D25*
X128100000Y-79080000D03*
X120600000Y-79080000D03*
X120600000Y-76780000D03*
X128100000Y-76780000D03*
%TD*%
D21*
%TO.C,TP6*%
X113820000Y-64600000D03*
%TD*%
D26*
%TO.C,RST*%
X125670000Y-64300000D03*
X122270000Y-64300000D03*
%TD*%
D27*
%TO.C,U8*%
X121990000Y-67430000D03*
X121990000Y-67830000D03*
X121990000Y-68230000D03*
X121990000Y-68630000D03*
X121990000Y-69030000D03*
X121990000Y-69430000D03*
X121990000Y-69830000D03*
X121990000Y-70230000D03*
X121990000Y-70630000D03*
X121990000Y-71030000D03*
X121990000Y-71430000D03*
X121990000Y-71830000D03*
X121990000Y-72230000D03*
X121990000Y-72630000D03*
D28*
X122840000Y-73480000D03*
X123240000Y-73480000D03*
X123640000Y-73480000D03*
X124040000Y-73480000D03*
X124440000Y-73480000D03*
X124840000Y-73480000D03*
X125240000Y-73480000D03*
X125640000Y-73480000D03*
X126040000Y-73480000D03*
X126440000Y-73480000D03*
X126840000Y-73480000D03*
X127240000Y-73480000D03*
X127640000Y-73480000D03*
X128040000Y-73480000D03*
D27*
X128890000Y-72630000D03*
X128890000Y-72230000D03*
X128890000Y-71830000D03*
X128890000Y-71430000D03*
X128890000Y-71030000D03*
X128890000Y-70630000D03*
X128890000Y-70230000D03*
X128890000Y-69830000D03*
X128890000Y-69430000D03*
X128890000Y-69030000D03*
X128890000Y-68630000D03*
X128890000Y-68230000D03*
X128890000Y-67830000D03*
X128890000Y-67430000D03*
D28*
X128040000Y-66580000D03*
X127640000Y-66580000D03*
X127240000Y-66580000D03*
X126840000Y-66580000D03*
X126440000Y-66580000D03*
X126040000Y-66580000D03*
X125640000Y-66580000D03*
X125240000Y-66580000D03*
X124840000Y-66580000D03*
X124440000Y-66580000D03*
X124040000Y-66580000D03*
X123640000Y-66580000D03*
X123240000Y-66580000D03*
X122840000Y-66580000D03*
D29*
X125440000Y-70030000D03*
%TD*%
D21*
%TO.C,TP13*%
X120200000Y-73040000D03*
%TD*%
D30*
%TO.C,U5*%
X115282500Y-69242500D03*
X114782500Y-69242500D03*
X114282500Y-69242500D03*
X113782500Y-69242500D03*
D31*
X113095000Y-69930000D03*
X113095000Y-70430000D03*
X113095000Y-70930000D03*
X113095000Y-71430000D03*
D30*
X113782500Y-72117500D03*
X114282500Y-72117500D03*
X114782500Y-72117500D03*
X115282500Y-72117500D03*
D31*
X115970000Y-71430000D03*
X115970000Y-70930000D03*
X115970000Y-70430000D03*
X115970000Y-69930000D03*
D32*
X114532500Y-70680000D03*
%TD*%
D21*
%TO.C,TP17*%
X119640000Y-66460000D03*
%TD*%
D20*
%TO.C,C8*%
X127925000Y-65350000D03*
X129060000Y-65350000D03*
%TD*%
D22*
%TO.C,R12*%
X119770000Y-74410000D03*
X120790000Y-74410000D03*
%TD*%
D20*
%TO.C,C4*%
X127915000Y-63200000D03*
X129050000Y-63200000D03*
%TD*%
D21*
%TO.C,TP16*%
X117820000Y-66500000D03*
%TD*%
D33*
%TO.C,R14*%
X121172500Y-62260000D03*
X122367500Y-62260000D03*
%TD*%
D34*
%TO.C,BOOT*%
X116350000Y-64130000D03*
X119750000Y-64130000D03*
%TD*%
D21*
%TO.C,TP24*%
X113360000Y-75840000D03*
%TD*%
%TO.C,TP18*%
X113940000Y-66530000D03*
%TD*%
%TO.C,TP3*%
X113375000Y-73995000D03*
%TD*%
%TO.C,TP8*%
X117870000Y-70850000D03*
%TD*%
%TO.C,TP15*%
X115910000Y-66510000D03*
%TD*%
%TO.C,TP7*%
X117880000Y-72570000D03*
%TD*%
D35*
%TO.C,R15*%
X119790000Y-62110000D03*
X118595000Y-62110000D03*
%TD*%
D21*
%TO.C,TP9*%
X117860000Y-69030000D03*
%TD*%
%TO.C,TP21*%
X129960000Y-77990000D03*
%TD*%
%TO.C,TP23*%
X130020000Y-75190000D03*
%TD*%
%LPD*%
M02*
