%TF.GenerationSoftware,KiCad,Pcbnew,8.0.3*%
%TF.CreationDate,2025-02-28T01:09:01-06:00*%
%TF.ProjectId,HearingAid_Right,48656172-696e-4674-9169-645f52696768,rev?*%
%TF.SameCoordinates,Original*%
%TF.FileFunction,Paste,Top*%
%TF.FilePolarity,Positive*%
%FSLAX46Y46*%
G04 Gerber Fmt 4.6, Leading zero omitted, Abs format (unit mm)*
G04 Created by KiCad (PCBNEW 8.0.3) date 2025-02-28 01:09:01*
%MOMM*%
%LPD*%
G01*
G04 APERTURE LIST*
G04 Aperture macros list*
%AMRoundRect*
0 Rectangle with rounded corners*
0 $1 Rounding radius*
0 $2 $3 $4 $5 $6 $7 $8 $9 X,Y pos of 4 corners*
0 Add a 4 corners polygon primitive as box body*
4,1,4,$2,$3,$4,$5,$6,$7,$8,$9,$2,$3,0*
0 Add four circle primitives for the rounded corners*
1,1,$1+$1,$2,$3*
1,1,$1+$1,$4,$5*
1,1,$1+$1,$6,$7*
1,1,$1+$1,$8,$9*
0 Add four rect primitives between the rounded corners*
20,1,$1+$1,$2,$3,$4,$5,0*
20,1,$1+$1,$4,$5,$6,$7,0*
20,1,$1+$1,$6,$7,$8,$9,0*
20,1,$1+$1,$8,$9,$2,$3,0*%
G04 Aperture macros list end*
%ADD10RoundRect,0.147500X0.147500X0.172500X-0.147500X0.172500X-0.147500X-0.172500X0.147500X-0.172500X0*%
%ADD11RoundRect,0.147500X-0.147500X-0.172500X0.147500X-0.172500X0.147500X0.172500X-0.147500X0.172500X0*%
%ADD12RoundRect,0.155000X-0.212500X-0.155000X0.212500X-0.155000X0.212500X0.155000X-0.212500X0.155000X0*%
%ADD13RoundRect,0.135000X-0.135000X-0.185000X0.135000X-0.185000X0.135000X0.185000X-0.135000X0.185000X0*%
%ADD14RoundRect,0.135000X0.135000X0.185000X-0.135000X0.185000X-0.135000X-0.185000X0.135000X-0.185000X0*%
%ADD15C,0.900000*%
%ADD16R,0.700000X1.100000*%
%ADD17R,1.000000X0.800000*%
%ADD18R,0.800000X1.700000*%
%ADD19RoundRect,0.250000X-0.285000X-0.285000X0.285000X-0.285000X0.285000X0.285000X-0.285000X0.285000X0*%
%ADD20RoundRect,0.050000X-0.350000X-0.050000X0.350000X-0.050000X0.350000X0.050000X-0.350000X0.050000X0*%
%ADD21RoundRect,0.050000X-0.050000X-0.350000X0.050000X-0.350000X0.050000X0.350000X-0.050000X0.350000X0*%
%ADD22RoundRect,0.125000X-0.125000X0.125000X-0.125000X-0.125000X0.125000X-0.125000X0.125000X0.125000X0*%
%ADD23RoundRect,0.062500X-0.062500X0.350000X-0.062500X-0.350000X0.062500X-0.350000X0.062500X0.350000X0*%
%ADD24RoundRect,0.062500X-0.350000X0.062500X-0.350000X-0.062500X0.350000X-0.062500X0.350000X0.062500X0*%
%ADD25RoundRect,0.160000X-0.197500X-0.160000X0.197500X-0.160000X0.197500X0.160000X-0.197500X0.160000X0*%
%ADD26RoundRect,0.160000X0.197500X0.160000X-0.197500X0.160000X-0.197500X-0.160000X0.197500X-0.160000X0*%
G04 APERTURE END LIST*
D10*
%TO.C,D4*%
X120770000Y-75530000D03*
X119800000Y-75530000D03*
%TD*%
D11*
%TO.C,D3*%
X130090000Y-73770000D03*
X131060000Y-73770000D03*
%TD*%
D12*
%TO.C,C3*%
X127912500Y-64280000D03*
X129047500Y-64280000D03*
%TD*%
D13*
%TO.C,R11*%
X130060000Y-72620000D03*
X131080000Y-72620000D03*
%TD*%
D12*
%TO.C,C5*%
X125222500Y-62250000D03*
X126357500Y-62250000D03*
%TD*%
D14*
%TO.C,R13*%
X114790000Y-68010000D03*
X113770000Y-68010000D03*
%TD*%
D15*
%TO.C,S1*%
X125850000Y-77930000D03*
X122850000Y-77930000D03*
D16*
X122100000Y-75880000D03*
X125100000Y-75880000D03*
X126600000Y-75880000D03*
D17*
X128100000Y-79080000D03*
X120600000Y-79080000D03*
X120600000Y-76780000D03*
X128100000Y-76780000D03*
%TD*%
D18*
%TO.C,RST*%
X125670000Y-64300000D03*
X122270000Y-64300000D03*
%TD*%
D19*
%TO.C,U8*%
X124110000Y-68700000D03*
X124110000Y-70030000D03*
X124110000Y-71360000D03*
X125440000Y-68700000D03*
X125440000Y-70030000D03*
X125440000Y-71360000D03*
X126770000Y-68700000D03*
X126770000Y-70030000D03*
X126770000Y-71360000D03*
D20*
X121990000Y-67430000D03*
X121990000Y-67830000D03*
X121990000Y-68230000D03*
X121990000Y-68630000D03*
X121990000Y-69030000D03*
X121990000Y-69430000D03*
X121990000Y-69830000D03*
X121990000Y-70230000D03*
X121990000Y-70630000D03*
X121990000Y-71030000D03*
X121990000Y-71430000D03*
X121990000Y-71830000D03*
X121990000Y-72230000D03*
X121990000Y-72630000D03*
D21*
X122840000Y-73480000D03*
X123240000Y-73480000D03*
X123640000Y-73480000D03*
X124040000Y-73480000D03*
X124440000Y-73480000D03*
X124840000Y-73480000D03*
X125240000Y-73480000D03*
X125640000Y-73480000D03*
X126040000Y-73480000D03*
X126440000Y-73480000D03*
X126840000Y-73480000D03*
X127240000Y-73480000D03*
X127640000Y-73480000D03*
X128040000Y-73480000D03*
D20*
X128890000Y-72630000D03*
X128890000Y-72230000D03*
X128890000Y-71830000D03*
X128890000Y-71430000D03*
X128890000Y-71030000D03*
X128890000Y-70630000D03*
X128890000Y-70230000D03*
X128890000Y-69830000D03*
X128890000Y-69430000D03*
X128890000Y-69030000D03*
X128890000Y-68630000D03*
X128890000Y-68230000D03*
X128890000Y-67830000D03*
X128890000Y-67430000D03*
D21*
X128040000Y-66580000D03*
X127640000Y-66580000D03*
X127240000Y-66580000D03*
X126840000Y-66580000D03*
X126440000Y-66580000D03*
X126040000Y-66580000D03*
X125640000Y-66580000D03*
X125240000Y-66580000D03*
X124840000Y-66580000D03*
X124440000Y-66580000D03*
X124040000Y-66580000D03*
X123640000Y-66580000D03*
X123240000Y-66580000D03*
X122840000Y-66580000D03*
%TD*%
D22*
%TO.C,U5*%
X114842500Y-70370000D03*
X114222500Y-70370000D03*
X114842500Y-70990000D03*
X114222500Y-70990000D03*
D23*
X115282500Y-69242500D03*
X114782500Y-69242500D03*
X114282500Y-69242500D03*
X113782500Y-69242500D03*
D24*
X113095000Y-69930000D03*
X113095000Y-70430000D03*
X113095000Y-70930000D03*
X113095000Y-71430000D03*
D23*
X113782500Y-72117500D03*
X114282500Y-72117500D03*
X114782500Y-72117500D03*
X115282500Y-72117500D03*
D24*
X115970000Y-71430000D03*
X115970000Y-70930000D03*
X115970000Y-70430000D03*
X115970000Y-69930000D03*
%TD*%
D12*
%TO.C,C8*%
X127925000Y-65350000D03*
X129060000Y-65350000D03*
%TD*%
D13*
%TO.C,R12*%
X119770000Y-74410000D03*
X120790000Y-74410000D03*
%TD*%
D12*
%TO.C,C4*%
X127915000Y-63200000D03*
X129050000Y-63200000D03*
%TD*%
D25*
%TO.C,R14*%
X121172500Y-62260000D03*
X122367500Y-62260000D03*
%TD*%
D18*
%TO.C,BOOT*%
X116350000Y-64130000D03*
X119750000Y-64130000D03*
%TD*%
D26*
%TO.C,R15*%
X119790000Y-62110000D03*
X118595000Y-62110000D03*
%TD*%
M02*
