%TF.GenerationSoftware,KiCad,Pcbnew,8.0.3*%
%TF.CreationDate,2025-03-09T13:34:34-05:00*%
%TF.ProjectId,HearingAid_RightV3,48656172-696e-4674-9169-645f52696768,rev?*%
%TF.SameCoordinates,Original*%
%TF.FileFunction,Copper,L1,Top*%
%TF.FilePolarity,Positive*%
%FSLAX46Y46*%
G04 Gerber Fmt 4.6, Leading zero omitted, Abs format (unit mm)*
G04 Created by KiCad (PCBNEW 8.0.3) date 2025-03-09 13:34:34*
%MOMM*%
%LPD*%
G01*
G04 APERTURE LIST*
G04 Aperture macros list*
%AMRoundRect*
0 Rectangle with rounded corners*
0 $1 Rounding radius*
0 $2 $3 $4 $5 $6 $7 $8 $9 X,Y pos of 4 corners*
0 Add a 4 corners polygon primitive as box body*
4,1,4,$2,$3,$4,$5,$6,$7,$8,$9,$2,$3,0*
0 Add four circle primitives for the rounded corners*
1,1,$1+$1,$2,$3*
1,1,$1+$1,$4,$5*
1,1,$1+$1,$6,$7*
1,1,$1+$1,$8,$9*
0 Add four rect primitives between the rounded corners*
20,1,$1+$1,$2,$3,$4,$5,0*
20,1,$1+$1,$4,$5,$6,$7,0*
20,1,$1+$1,$6,$7,$8,$9,0*
20,1,$1+$1,$8,$9,$2,$3,0*%
%AMRotRect*
0 Rectangle, with rotation*
0 The origin of the aperture is its center*
0 $1 length*
0 $2 width*
0 $3 Rotation angle, in degrees counterclockwise*
0 Add horizontal line*
21,1,$1,$2,0,0,$3*%
G04 Aperture macros list end*
%TA.AperFunction,SMDPad,CuDef*%
%ADD10R,1.000000X1.000000*%
%TD*%
%TA.AperFunction,SMDPad,CuDef*%
%ADD11RoundRect,0.135000X-0.135000X-0.185000X0.135000X-0.185000X0.135000X0.185000X-0.135000X0.185000X0*%
%TD*%
%TA.AperFunction,SMDPad,CuDef*%
%ADD12RoundRect,0.062500X-0.062500X0.350000X-0.062500X-0.350000X0.062500X-0.350000X0.062500X0.350000X0*%
%TD*%
%TA.AperFunction,SMDPad,CuDef*%
%ADD13RoundRect,0.062500X-0.350000X0.062500X-0.350000X-0.062500X0.350000X-0.062500X0.350000X0.062500X0*%
%TD*%
%TA.AperFunction,HeatsinkPad*%
%ADD14R,1.230000X1.230000*%
%TD*%
%TA.AperFunction,SMDPad,CuDef*%
%ADD15R,0.800000X1.700000*%
%TD*%
%TA.AperFunction,SMDPad,CuDef*%
%ADD16RoundRect,0.155000X0.023164X0.262001X-0.256555X-0.057970X-0.023164X-0.262001X0.256555X0.057970X0*%
%TD*%
%TA.AperFunction,SMDPad,CuDef*%
%ADD17RoundRect,0.160000X0.197500X0.160000X-0.197500X0.160000X-0.197500X-0.160000X0.197500X-0.160000X0*%
%TD*%
%TA.AperFunction,SMDPad,CuDef*%
%ADD18RoundRect,0.147500X0.147500X0.172500X-0.147500X0.172500X-0.147500X-0.172500X0.147500X-0.172500X0*%
%TD*%
%TA.AperFunction,SMDPad,CuDef*%
%ADD19R,0.700000X1.100000*%
%TD*%
%TA.AperFunction,SMDPad,CuDef*%
%ADD20R,1.000000X0.800000*%
%TD*%
%TA.AperFunction,SMDPad,CuDef*%
%ADD21RoundRect,0.155000X0.212500X0.155000X-0.212500X0.155000X-0.212500X-0.155000X0.212500X-0.155000X0*%
%TD*%
%TA.AperFunction,SMDPad,CuDef*%
%ADD22RoundRect,0.050000X-0.350000X-0.050000X0.350000X-0.050000X0.350000X0.050000X-0.350000X0.050000X0*%
%TD*%
%TA.AperFunction,SMDPad,CuDef*%
%ADD23RoundRect,0.050000X-0.050000X-0.350000X0.050000X-0.350000X0.050000X0.350000X-0.050000X0.350000X0*%
%TD*%
%TA.AperFunction,HeatsinkPad*%
%ADD24R,4.000000X4.000000*%
%TD*%
%TA.AperFunction,SMDPad,CuDef*%
%ADD25RoundRect,0.155000X-0.212500X-0.155000X0.212500X-0.155000X0.212500X0.155000X-0.212500X0.155000X0*%
%TD*%
%TA.AperFunction,SMDPad,CuDef*%
%ADD26RoundRect,0.135000X0.135000X0.185000X-0.135000X0.185000X-0.135000X-0.185000X0.135000X-0.185000X0*%
%TD*%
%TA.AperFunction,SMDPad,CuDef*%
%ADD27RoundRect,0.160000X-0.197500X-0.160000X0.197500X-0.160000X0.197500X0.160000X-0.197500X0.160000X0*%
%TD*%
%TA.AperFunction,SMDPad,CuDef*%
%ADD28RoundRect,0.147500X-0.172500X0.147500X-0.172500X-0.147500X0.172500X-0.147500X0.172500X0.147500X0*%
%TD*%
%TA.AperFunction,SMDPad,CuDef*%
%ADD29RoundRect,0.135000X0.185000X-0.135000X0.185000X0.135000X-0.185000X0.135000X-0.185000X-0.135000X0*%
%TD*%
%TA.AperFunction,SMDPad,CuDef*%
%ADD30RotRect,0.700000X0.750000X229.920000*%
%TD*%
%TA.AperFunction,SMDPad,CuDef*%
%ADD31RoundRect,0.155000X-0.262417X0.017855X0.063152X-0.255329X0.262417X-0.017855X-0.063152X0.255329X0*%
%TD*%
%TA.AperFunction,ViaPad*%
%ADD32C,0.600000*%
%TD*%
%TA.AperFunction,Conductor*%
%ADD33C,0.127000*%
%TD*%
%TA.AperFunction,Conductor*%
%ADD34C,0.200000*%
%TD*%
G04 APERTURE END LIST*
D10*
%TO.P,TP23,1,1*%
%TO.N,D+*%
X124380000Y-75360000D03*
%TD*%
%TO.P,TP24,1,1*%
%TO.N,B+*%
X106130000Y-75350000D03*
%TD*%
D11*
%TO.P,R11,1*%
%TO.N,VDD_ESP*%
X123630000Y-72730000D03*
%TO.P,R11,2*%
%TO.N,Net-(D3-A)*%
X124650000Y-72730000D03*
%TD*%
D10*
%TO.P,TP16,1,1*%
%TO.N,CLK1*%
X110140000Y-66730000D03*
%TD*%
D12*
%TO.P,U5,1,DIN*%
%TO.N,SPK2_DATA*%
X108142500Y-68922500D03*
%TO.P,U5,2,GAIN_SLOT*%
%TO.N,Net-(U5-GAIN_SLOT)*%
X107642500Y-68922500D03*
%TO.P,U5,3,GND*%
%TO.N,B-*%
X107142500Y-68922500D03*
%TO.P,U5,4,~{SD_MODE}*%
%TO.N,VDD_ESP*%
X106642500Y-68922500D03*
D13*
%TO.P,U5,5,NC*%
%TO.N,unconnected-(U5-NC-Pad5)*%
X105955000Y-69610000D03*
%TO.P,U5,6,NC*%
%TO.N,unconnected-(U5-NC-Pad6)*%
X105955000Y-70110000D03*
%TO.P,U5,7,VDD*%
%TO.N,VDD_ESP*%
X105955000Y-70610000D03*
%TO.P,U5,8,VDD*%
X105955000Y-71110000D03*
D12*
%TO.P,U5,9,OUTP*%
%TO.N,SPK2_P*%
X106642500Y-71797500D03*
%TO.P,U5,10,OUTN*%
%TO.N,SPK2_N*%
X107142500Y-71797500D03*
%TO.P,U5,11,GND*%
%TO.N,B-*%
X107642500Y-71797500D03*
%TO.P,U5,12,NC*%
%TO.N,unconnected-(U5-NC-Pad12)*%
X108142500Y-71797500D03*
D13*
%TO.P,U5,13,NC*%
%TO.N,unconnected-(U5-NC-Pad13)*%
X108830000Y-71110000D03*
%TO.P,U5,14,LRCLK*%
%TO.N,SEL2*%
X108830000Y-70610000D03*
%TO.P,U5,15,GND*%
%TO.N,B-*%
X108830000Y-70110000D03*
%TO.P,U5,16,BCLK*%
%TO.N,CLK2*%
X108830000Y-69610000D03*
D14*
%TO.P,U5,17,PAD*%
%TO.N,B-*%
X107392500Y-70360000D03*
%TD*%
D15*
%TO.P,SW2,1,1*%
%TO.N,B-*%
X109150000Y-64180000D03*
%TO.P,SW2,2,2*%
%TO.N,BOOT*%
X112550000Y-64180000D03*
%TD*%
D16*
%TO.P,C7,1*%
%TO.N,B-*%
X118417020Y-64165486D03*
%TO.P,C7,2*%
%TO.N,Net-(U8-XTAL_N)*%
X117670000Y-65020000D03*
%TD*%
D10*
%TO.P,TP22,1,1*%
%TO.N,D-*%
X124370000Y-77070000D03*
%TD*%
D17*
%TO.P,R14,1*%
%TO.N,VDD_ESP*%
X123460000Y-62140000D03*
%TO.P,R14,2*%
%TO.N,RESET*%
X122265000Y-62140000D03*
%TD*%
D10*
%TO.P,TP20,1,1*%
%TO.N,VDD_ESP*%
X108030000Y-75370000D03*
%TD*%
D18*
%TO.P,D3,1,K*%
%TO.N,B-*%
X124610000Y-71620000D03*
%TO.P,D3,2,A*%
%TO.N,Net-(D3-A)*%
X123640000Y-71620000D03*
%TD*%
D19*
%TO.P,S1,1*%
%TO.N,unconnected-(S1-Pad1)*%
X115970000Y-75935000D03*
%TO.P,S1,2*%
%TO.N,B+*%
X118970000Y-75935000D03*
%TO.P,S1,3*%
%TO.N,Net-(Q1-D)*%
X120470000Y-75935000D03*
D20*
%TO.P,S1,Z1*%
%TO.N,N/C*%
X121970000Y-79135000D03*
%TO.P,S1,Z2*%
X114470000Y-79135000D03*
%TO.P,S1,Z3*%
X114470000Y-76835000D03*
%TO.P,S1,Z4*%
X121970000Y-76835000D03*
%TD*%
D10*
%TO.P,TP21,1,1*%
%TO.N,Net-(Q1-D)*%
X110810000Y-76250000D03*
%TD*%
%TO.P,TP15,1,1*%
%TO.N,SEL1*%
X108340000Y-66720000D03*
%TD*%
%TO.P,TP7,1,1*%
%TO.N,SEL2*%
X110790000Y-72600000D03*
%TD*%
%TO.P,TP3,1,1*%
%TO.N,SPK2_P*%
X106120000Y-73600000D03*
%TD*%
%TO.P,TP18,1,1*%
%TO.N,MIC_DATA1*%
X106540000Y-66120000D03*
%TD*%
D21*
%TO.P,C5,1*%
%TO.N,RESET*%
X121085000Y-62130000D03*
%TO.P,C5,2*%
%TO.N,B-*%
X119950000Y-62130000D03*
%TD*%
D22*
%TO.P,U8,1,LNA_IN*%
%TO.N,unconnected-(U8-LNA_IN-Pad1)*%
X114690000Y-67550000D03*
%TO.P,U8,2,VDD3P3*%
%TO.N,VDD_ESP*%
X114690000Y-67950000D03*
%TO.P,U8,3,VDD3P3*%
X114690000Y-68350000D03*
%TO.P,U8,4,CHIP_PU*%
%TO.N,RESET*%
X114690000Y-68750000D03*
%TO.P,U8,5,GPIO0*%
%TO.N,BOOT*%
X114690000Y-69150000D03*
%TO.P,U8,6,GPIO1*%
%TO.N,SPK_DATA1*%
X114690000Y-69550000D03*
%TO.P,U8,7,GPIO2*%
%TO.N,CLK1*%
X114690000Y-69950000D03*
%TO.P,U8,8,GPIO3*%
%TO.N,SEL1*%
X114690000Y-70350000D03*
%TO.P,U8,9,GPIO4*%
%TO.N,MIC_DATA1*%
X114690000Y-70750000D03*
%TO.P,U8,10,GPIO5*%
%TO.N,SPK2_DATA*%
X114690000Y-71150000D03*
%TO.P,U8,11,GPIO6*%
%TO.N,CLK2*%
X114690000Y-71550000D03*
%TO.P,U8,12,GPIO7*%
%TO.N,SEL2*%
X114690000Y-71950000D03*
%TO.P,U8,13,GPIO8*%
%TO.N,MIC_DATA2*%
X114690000Y-72350000D03*
%TO.P,U8,14,GPIO9*%
%TO.N,Net-(U8-GPIO9)*%
X114690000Y-72750000D03*
D23*
%TO.P,U8,15,GPIO10*%
%TO.N,unconnected-(U8-GPIO10-Pad15)*%
X115540000Y-73600000D03*
%TO.P,U8,16,GPIO11*%
%TO.N,unconnected-(U8-GPIO11-Pad16)*%
X115940000Y-73600000D03*
%TO.P,U8,17,GPIO12*%
%TO.N,unconnected-(U8-GPIO12-Pad17)*%
X116340000Y-73600000D03*
%TO.P,U8,18,GPIO13*%
%TO.N,unconnected-(U8-GPIO13-Pad18)*%
X116740000Y-73600000D03*
%TO.P,U8,19,GPIO14*%
%TO.N,unconnected-(U8-GPIO14-Pad19)*%
X117140000Y-73600000D03*
%TO.P,U8,20,VDD3P3_RTC*%
%TO.N,VDD_ESP*%
X117540000Y-73600000D03*
%TO.P,U8,21,XTAL_32K_P*%
%TO.N,unconnected-(U8-XTAL_32K_P-Pad21)*%
X117940000Y-73600000D03*
%TO.P,U8,22,XTAL_32K_N*%
%TO.N,unconnected-(U8-XTAL_32K_N-Pad22)*%
X118340000Y-73600000D03*
%TO.P,U8,23,GPIO17*%
%TO.N,unconnected-(U8-GPIO17-Pad23)*%
X118740000Y-73600000D03*
%TO.P,U8,24,GPIO18*%
%TO.N,unconnected-(U8-GPIO18-Pad24)*%
X119140000Y-73600000D03*
%TO.P,U8,25,GPIO19/USB_D-*%
%TO.N,D-*%
X119540000Y-73600000D03*
%TO.P,U8,26,GPIO20/USB_D+*%
%TO.N,D+*%
X119940000Y-73600000D03*
%TO.P,U8,27,GPIO21*%
%TO.N,unconnected-(U8-GPIO21-Pad27)*%
X120340000Y-73600000D03*
%TO.P,U8,28,SPICS1*%
%TO.N,unconnected-(U8-SPICS1-Pad28)*%
X120740000Y-73600000D03*
D22*
%TO.P,U8,29,VDD_SPI*%
%TO.N,VDD_ESP*%
X121590000Y-72750000D03*
%TO.P,U8,30,SPIHD*%
%TO.N,unconnected-(U8-SPIHD-Pad30)*%
X121590000Y-72350000D03*
%TO.P,U8,31,SPIWP*%
%TO.N,unconnected-(U8-SPIWP-Pad31)*%
X121590000Y-71950000D03*
%TO.P,U8,32,SPICS0*%
%TO.N,unconnected-(U8-SPICS0-Pad32)*%
X121590000Y-71550000D03*
%TO.P,U8,33,SPICLK*%
%TO.N,unconnected-(U8-SPICLK-Pad33)*%
X121590000Y-71150000D03*
%TO.P,U8,34,SPIQ*%
%TO.N,unconnected-(U8-SPIQ-Pad34)*%
X121590000Y-70750000D03*
%TO.P,U8,35,SPID*%
%TO.N,unconnected-(U8-SPID-Pad35)*%
X121590000Y-70350000D03*
%TO.P,U8,36,SPICLK_N*%
%TO.N,unconnected-(U8-SPICLK_N-Pad36)*%
X121590000Y-69950000D03*
%TO.P,U8,37,SPICLK_P*%
%TO.N,unconnected-(U8-SPICLK_P-Pad37)*%
X121590000Y-69550000D03*
%TO.P,U8,38,GPIO33*%
%TO.N,unconnected-(U8-GPIO33-Pad38)*%
X121590000Y-69150000D03*
%TO.P,U8,39,GPIO34*%
%TO.N,unconnected-(U8-GPIO34-Pad39)*%
X121590000Y-68750000D03*
%TO.P,U8,40,GPIO35*%
%TO.N,unconnected-(U8-GPIO35-Pad40)*%
X121590000Y-68350000D03*
%TO.P,U8,41,GPIO36*%
%TO.N,unconnected-(U8-GPIO36-Pad41)*%
X121590000Y-67950000D03*
%TO.P,U8,42,GPIO37*%
%TO.N,unconnected-(U8-GPIO37-Pad42)*%
X121590000Y-67550000D03*
D23*
%TO.P,U8,43,GPIO38*%
%TO.N,unconnected-(U8-GPIO38-Pad43)*%
X120740000Y-66700000D03*
%TO.P,U8,44,MTCK*%
%TO.N,unconnected-(U8-MTCK-Pad44)*%
X120340000Y-66700000D03*
%TO.P,U8,45,MTDO*%
%TO.N,unconnected-(U8-MTDO-Pad45)*%
X119940000Y-66700000D03*
%TO.P,U8,46,VDD3P3_CPU*%
%TO.N,VDD_ESP*%
X119540000Y-66700000D03*
%TO.P,U8,47,MTDI*%
%TO.N,unconnected-(U8-MTDI-Pad47)*%
X119140000Y-66700000D03*
%TO.P,U8,48,MTMS*%
%TO.N,unconnected-(U8-MTMS-Pad48)*%
X118740000Y-66700000D03*
%TO.P,U8,49,U0TXD*%
%TO.N,unconnected-(U8-U0TXD-Pad49)*%
X118340000Y-66700000D03*
%TO.P,U8,50,U0RXD*%
%TO.N,unconnected-(U8-U0RXD-Pad50)*%
X117940000Y-66700000D03*
%TO.P,U8,51,GPIO45*%
%TO.N,unconnected-(U8-GPIO45-Pad51)*%
X117540000Y-66700000D03*
%TO.P,U8,52,GPIO46*%
%TO.N,B-*%
X117140000Y-66700000D03*
%TO.P,U8,53,XTAL_N*%
%TO.N,Net-(U8-XTAL_N)*%
X116740000Y-66700000D03*
%TO.P,U8,54,XTAL_P*%
%TO.N,Net-(U8-XTAL_P)*%
X116340000Y-66700000D03*
%TO.P,U8,55,VDDA*%
%TO.N,VDD_ESP*%
X115940000Y-66700000D03*
%TO.P,U8,56,VDDA*%
X115540000Y-66700000D03*
D24*
%TO.P,U8,57,GND*%
%TO.N,B-*%
X118140000Y-70150000D03*
%TD*%
D10*
%TO.P,TP13,1,1*%
%TO.N,MIC_DATA2*%
X110780000Y-74380000D03*
%TD*%
%TO.P,TP6,1,1*%
%TO.N,B-*%
X106540000Y-64280000D03*
%TD*%
%TO.P,TP17,1,1*%
%TO.N,SPK_DATA1*%
X111960000Y-66730000D03*
%TD*%
D25*
%TO.P,C8,1*%
%TO.N,VDD_ESP*%
X122972500Y-68760000D03*
%TO.P,C8,2*%
%TO.N,B-*%
X124107500Y-68760000D03*
%TD*%
D10*
%TO.P,TP8,1,1*%
%TO.N,CLK2*%
X110800000Y-70820000D03*
%TD*%
D15*
%TO.P,RST,1,1*%
%TO.N,B-*%
X123597500Y-64200000D03*
%TO.P,RST,2,2*%
%TO.N,RESET*%
X120197500Y-64200000D03*
%TD*%
D10*
%TO.P,TP4,1,1*%
%TO.N,SPK2_N*%
X107860000Y-73600000D03*
%TD*%
%TO.P,TP9,1,1*%
%TO.N,SPK2_DATA*%
X110810000Y-68990000D03*
%TD*%
D26*
%TO.P,R13,1*%
%TO.N,Net-(U5-GAIN_SLOT)*%
X106880000Y-67630000D03*
%TO.P,R13,2*%
%TO.N,B-*%
X105860000Y-67630000D03*
%TD*%
D25*
%TO.P,C3,1*%
%TO.N,VDD_ESP*%
X122972500Y-66540000D03*
%TO.P,C3,2*%
%TO.N,B-*%
X124107500Y-66540000D03*
%TD*%
%TO.P,C4,1*%
%TO.N,VDD_ESP*%
X122982500Y-67650000D03*
%TO.P,C4,2*%
%TO.N,B-*%
X124117500Y-67650000D03*
%TD*%
D27*
%TO.P,R15,1*%
%TO.N,VDD_ESP*%
X110875000Y-62120000D03*
%TO.P,R15,2*%
%TO.N,BOOT*%
X112070000Y-62120000D03*
%TD*%
D28*
%TO.P,D4,1,K*%
%TO.N,B-*%
X113400000Y-74125000D03*
%TO.P,D4,2,A*%
%TO.N,Net-(D4-A)*%
X113400000Y-75095000D03*
%TD*%
D29*
%TO.P,R12,1*%
%TO.N,Net-(D4-A)*%
X112310000Y-75120000D03*
%TO.P,R12,2*%
%TO.N,Net-(U8-GPIO9)*%
X112310000Y-74100000D03*
%TD*%
D30*
%TO.P,Y1,1*%
%TO.N,Net-(U8-XTAL_N)*%
X117413856Y-63444857D03*
%TO.P,Y1,2*%
%TO.N,N/C*%
X116380908Y-62575648D03*
%TO.P,Y1,3*%
%TO.N,Net-(U8-XTAL_P)*%
X115737052Y-63340791D03*
%TO.P,Y1,4*%
%TO.N,N/C*%
X116770000Y-64210000D03*
%TD*%
D31*
%TO.P,C6,1*%
%TO.N,Net-(U8-XTAL_P)*%
X115135270Y-64365218D03*
%TO.P,C6,2*%
%TO.N,B-*%
X116004730Y-65094782D03*
%TD*%
D32*
%TO.N,B-*%
X107700000Y-64180000D03*
X122220000Y-63380000D03*
X125150000Y-65570000D03*
%TO.N,B+*%
X104950000Y-76350000D03*
X123480000Y-78930000D03*
%TD*%
D33*
%TO.N,B-*%
X105860000Y-67630000D02*
X105776500Y-67546500D01*
X117140000Y-66700000D02*
X117140000Y-66160000D01*
X118140000Y-70155258D02*
X118140000Y-70150000D01*
X115994220Y-65084272D02*
X115994220Y-64027096D01*
X116004730Y-65094782D02*
X115994220Y-65084272D01*
X107142500Y-70110000D02*
X107392500Y-70360000D01*
X122341500Y-69092644D02*
X122582356Y-69333500D01*
X122076500Y-67186500D02*
X122341500Y-67451500D01*
D34*
X118417020Y-62822980D02*
X119110000Y-62130000D01*
D33*
X123534000Y-69333500D02*
X124107500Y-68760000D01*
X124610000Y-69262500D02*
X124107500Y-68760000D01*
X107600000Y-64180000D02*
X107500000Y-64280000D01*
X117596817Y-65703183D02*
X117846817Y-65703183D01*
X123780000Y-64200000D02*
X125150000Y-65570000D01*
X122341500Y-67451500D02*
X122341500Y-69092644D01*
X116512832Y-63402408D02*
X117785240Y-62130000D01*
D34*
X118417020Y-64165486D02*
X118417020Y-62822980D01*
D33*
X107700000Y-64180000D02*
X107600000Y-64180000D01*
X106476500Y-68246500D02*
X106841766Y-68246500D01*
X122220000Y-63954500D02*
X122220000Y-63380000D01*
X114159742Y-74125000D02*
X118134742Y-70150000D01*
X107642500Y-70610000D02*
X107392500Y-70360000D01*
X124107500Y-64710000D02*
X123597500Y-64200000D01*
X107642500Y-71797500D02*
X107642500Y-70610000D01*
X107500000Y-64280000D02*
X106540000Y-64280000D01*
X106841766Y-68246500D02*
X107142500Y-68547234D01*
X124610000Y-71620000D02*
X124610000Y-69262500D01*
X118140000Y-70150000D02*
X121103500Y-67186500D01*
X105776500Y-65043500D02*
X106540000Y-64280000D01*
X107142500Y-68922500D02*
X107142500Y-70110000D01*
X118134742Y-70150000D02*
X118140000Y-70150000D01*
X118417020Y-64165486D02*
X119565034Y-65313500D01*
X105860000Y-67630000D02*
X106476500Y-68246500D01*
X117785240Y-62130000D02*
X119950000Y-62130000D01*
X120861000Y-65313500D02*
X122220000Y-63954500D01*
X124107500Y-66540000D02*
X124107500Y-64710000D01*
X107392500Y-70360000D02*
X107642500Y-70110000D01*
X124107500Y-66540000D02*
X124107500Y-68760000D01*
X107642500Y-70110000D02*
X108830000Y-70110000D01*
X109150000Y-64180000D02*
X107700000Y-64180000D01*
X118417020Y-65132980D02*
X118417020Y-64165486D01*
X105776500Y-67546500D02*
X105776500Y-65043500D01*
X107142500Y-68547234D02*
X107142500Y-68922500D01*
X123597500Y-64200000D02*
X123780000Y-64200000D01*
X119565034Y-65313500D02*
X120861000Y-65313500D01*
X122582356Y-69333500D02*
X123534000Y-69333500D01*
X116512832Y-63508484D02*
X116512832Y-63402408D01*
X121103500Y-67186500D02*
X122076500Y-67186500D01*
X117846817Y-65703183D02*
X118417020Y-65132980D01*
D34*
X119110000Y-62130000D02*
X119950000Y-62130000D01*
D33*
X115994220Y-64027096D02*
X116512832Y-63508484D01*
X117140000Y-66160000D02*
X117596817Y-65703183D01*
X113400000Y-74125000D02*
X114159742Y-74125000D01*
%TO.N,B+*%
X118970000Y-75935000D02*
X119783500Y-75121500D01*
X123021500Y-78471500D02*
X109251500Y-78471500D01*
X109251500Y-78471500D02*
X106130000Y-75350000D01*
X105130000Y-76350000D02*
X104950000Y-76350000D01*
X123480000Y-77010000D02*
X123480000Y-78930000D01*
X123480000Y-78930000D02*
X123021500Y-78471500D01*
X119783500Y-75121500D02*
X121591500Y-75121500D01*
X121591500Y-75121500D02*
X123480000Y-77010000D01*
X106130000Y-75350000D02*
X105130000Y-76350000D01*
%TO.N,VDD_ESP*%
X114690000Y-67950000D02*
X115134742Y-67950000D01*
X123630000Y-72730000D02*
X124213500Y-73313500D01*
X105356500Y-71708500D02*
X105955000Y-71110000D01*
X115940000Y-66700000D02*
X115940000Y-67144742D01*
X114690000Y-68350000D02*
X114690000Y-67950000D01*
X122934000Y-66501500D02*
X122972500Y-66540000D01*
X117540000Y-74044742D02*
X116463242Y-75121500D01*
X121590000Y-72750000D02*
X117945258Y-72750000D01*
X111457000Y-75370000D02*
X108030000Y-75370000D01*
X105279000Y-70346499D02*
X105542501Y-70610000D01*
X122469000Y-66036500D02*
X122972500Y-66540000D01*
X107620000Y-75370000D02*
X106613500Y-74363500D01*
X105955000Y-70610000D02*
X105955000Y-71110000D01*
X119540000Y-66700000D02*
X119540000Y-66255258D01*
X106680000Y-62120000D02*
X110875000Y-62120000D01*
X119758758Y-66036500D02*
X122469000Y-66036500D01*
X119321242Y-67363500D02*
X119540000Y-67144742D01*
X125850000Y-72860000D02*
X125850000Y-64530000D01*
X115540000Y-67544742D02*
X115540000Y-66700000D01*
X125396500Y-73313500D02*
X125850000Y-72860000D01*
X105356500Y-74216500D02*
X105356500Y-71708500D01*
X119540000Y-66255258D02*
X119758758Y-66036500D01*
X119540000Y-67144742D02*
X119540000Y-66700000D01*
X122972500Y-66540000D02*
X122972500Y-68760000D01*
X124213500Y-73313500D02*
X125396500Y-73313500D01*
X114768000Y-75710000D02*
X111797000Y-75710000D01*
X116463242Y-75121500D02*
X115356500Y-75121500D01*
X121590000Y-72750000D02*
X121610000Y-72730000D01*
X106613500Y-74363500D02*
X105503500Y-74363500D01*
X105542501Y-70610000D02*
X105955000Y-70610000D01*
X117540000Y-73155258D02*
X117540000Y-73600000D01*
X125850000Y-64530000D02*
X123460000Y-62140000D01*
X117540000Y-73600000D02*
X117540000Y-74044742D01*
X108030000Y-75370000D02*
X107620000Y-75370000D01*
X105326500Y-68506500D02*
X105326500Y-63473500D01*
X123460000Y-62140000D02*
X122934000Y-62666000D01*
X105279000Y-69410734D02*
X105279000Y-70346499D01*
X105742500Y-68922500D02*
X105326500Y-68506500D01*
X117945258Y-72750000D02*
X117540000Y-73155258D01*
X106642500Y-68922500D02*
X105767234Y-68922500D01*
X105503500Y-74363500D02*
X105356500Y-74216500D01*
X111797000Y-75710000D02*
X111457000Y-75370000D01*
X105326500Y-63473500D02*
X106680000Y-62120000D01*
X115134742Y-67950000D02*
X115540000Y-67544742D01*
X116158758Y-67363500D02*
X119321242Y-67363500D01*
X105767234Y-68922500D02*
X105279000Y-69410734D01*
X122934000Y-62666000D02*
X122934000Y-66501500D01*
X115940000Y-67144742D02*
X116158758Y-67363500D01*
X106642500Y-68922500D02*
X105742500Y-68922500D01*
X115356500Y-75121500D02*
X114768000Y-75710000D01*
X121610000Y-72730000D02*
X123630000Y-72730000D01*
X115940000Y-66700000D02*
X115540000Y-66700000D01*
%TO.N,D-*%
X123380000Y-76080000D02*
X123380000Y-75680000D01*
X119540000Y-74107190D02*
X119540000Y-73600000D01*
X124370000Y-77070000D02*
X123380000Y-76080000D01*
X120023310Y-74590500D02*
X119540000Y-74107190D01*
X123380000Y-75680000D02*
X122290500Y-74590500D01*
X122290500Y-74590500D02*
X120023310Y-74590500D01*
%TO.N,D+*%
X123630000Y-75360000D02*
X122533500Y-74263500D01*
X119940000Y-74044742D02*
X119940000Y-73600000D01*
X124380000Y-75360000D02*
X123630000Y-75360000D01*
X120158758Y-74263500D02*
X119940000Y-74044742D01*
X122533500Y-74263500D02*
X120158758Y-74263500D01*
%TO.N,CLK1*%
X114690000Y-69950000D02*
X114057914Y-69950000D01*
X111223000Y-67520000D02*
X110433000Y-66730000D01*
X113039000Y-68931086D02*
X113039000Y-68069000D01*
X113039000Y-68069000D02*
X112490000Y-67520000D01*
X110433000Y-66730000D02*
X110140000Y-66730000D01*
X114057914Y-69950000D02*
X113039000Y-68931086D01*
X112490000Y-67520000D02*
X111223000Y-67520000D01*
%TO.N,SEL1*%
X114690000Y-70350000D02*
X113995466Y-70350000D01*
X109230000Y-67610000D02*
X108340000Y-66720000D01*
X112229448Y-67847000D02*
X111087552Y-67847000D01*
X110850552Y-67610000D02*
X109230000Y-67610000D01*
X113995466Y-70350000D02*
X112712000Y-69066534D01*
X111087552Y-67847000D02*
X110850552Y-67610000D01*
X112712000Y-68329552D02*
X112229448Y-67847000D01*
X112712000Y-69066534D02*
X112712000Y-68329552D01*
%TO.N,MIC_DATA1*%
X112094000Y-68174000D02*
X110952104Y-68174000D01*
X107576500Y-67156500D02*
X106540000Y-66120000D01*
X113933018Y-70750000D02*
X112385000Y-69201982D01*
X114690000Y-70750000D02*
X113933018Y-70750000D01*
X107576500Y-67483500D02*
X107576500Y-67156500D01*
X110715104Y-67937000D02*
X108030000Y-67937000D01*
X112385000Y-68465000D02*
X112094000Y-68174000D01*
X112385000Y-69201982D02*
X112385000Y-68465000D01*
X110952104Y-68174000D02*
X110715104Y-67937000D01*
X108030000Y-67937000D02*
X107576500Y-67483500D01*
%TO.N,Net-(Q1-D)*%
X118906500Y-77498500D02*
X120470000Y-75935000D01*
X112058500Y-77498500D02*
X118906500Y-77498500D01*
X110810000Y-76250000D02*
X112058500Y-77498500D01*
%TO.N,SPK_DATA1*%
X111960000Y-66730000D02*
X112587000Y-66730000D01*
X112587000Y-66730000D02*
X113366000Y-67509000D01*
X113366000Y-68795638D02*
X114120362Y-69550000D01*
X114120362Y-69550000D02*
X114690000Y-69550000D01*
X113366000Y-67509000D02*
X113366000Y-68795638D01*
%TO.N,Net-(D3-A)*%
X123640000Y-71620000D02*
X123640000Y-71720000D01*
X123640000Y-71720000D02*
X124650000Y-72730000D01*
%TO.N,Net-(D4-A)*%
X113375000Y-75120000D02*
X113400000Y-75095000D01*
X112310000Y-75120000D02*
X113375000Y-75120000D01*
%TO.N,SEL2*%
X110790000Y-72600000D02*
X110790000Y-72194734D01*
X109205266Y-70610000D02*
X108830000Y-70610000D01*
X114690000Y-71950000D02*
X111440000Y-71950000D01*
X110790000Y-72194734D02*
X109205266Y-70610000D01*
X111440000Y-71950000D02*
X110790000Y-72600000D01*
%TO.N,MIC_DATA2*%
X111620000Y-73540000D02*
X110780000Y-74380000D01*
X111620000Y-72600000D02*
X111620000Y-73540000D01*
X111870000Y-72350000D02*
X111620000Y-72600000D01*
X114690000Y-72350000D02*
X111870000Y-72350000D01*
%TO.N,CLK2*%
X114690000Y-71550000D02*
X111530000Y-71550000D01*
X108830000Y-69610000D02*
X109205266Y-69610000D01*
X109205266Y-69610000D02*
X110415266Y-70820000D01*
X111530000Y-71550000D02*
X110800000Y-70820000D01*
X110415266Y-70820000D02*
X110800000Y-70820000D01*
%TO.N,Net-(U8-GPIO9)*%
X114690000Y-72750000D02*
X112860000Y-72750000D01*
X112860000Y-72750000D02*
X112310000Y-73300000D01*
X112310000Y-73300000D02*
X112310000Y-74100000D01*
%TO.N,Net-(U5-GAIN_SLOT)*%
X107642500Y-68392500D02*
X107642500Y-68922500D01*
X106880000Y-67630000D02*
X107642500Y-68392500D01*
%TO.N,SPK2_P*%
X106642500Y-71797500D02*
X106642500Y-73077500D01*
X106642500Y-73077500D02*
X106120000Y-73600000D01*
%TO.N,SPK2_N*%
X107142500Y-72882500D02*
X107860000Y-73600000D01*
X107142500Y-71797500D02*
X107142500Y-72882500D01*
%TO.N,RESET*%
X114020000Y-63720000D02*
X116183500Y-61556500D01*
X121085000Y-63312500D02*
X120197500Y-64200000D01*
X114245258Y-68750000D02*
X114020000Y-68524742D01*
X114690000Y-68750000D02*
X114245258Y-68750000D01*
X120511500Y-61556500D02*
X121085000Y-62130000D01*
X121085000Y-62130000D02*
X121085000Y-63312500D01*
X122255000Y-62130000D02*
X122265000Y-62140000D01*
X116183500Y-61556500D02*
X120511500Y-61556500D01*
X121085000Y-62130000D02*
X122255000Y-62130000D01*
X114020000Y-68524742D02*
X114020000Y-63720000D01*
%TO.N,SPK2_DATA*%
X110742500Y-68922500D02*
X110810000Y-68990000D01*
X111710570Y-68990000D02*
X110810000Y-68990000D01*
X108142500Y-68922500D02*
X110742500Y-68922500D01*
X113870570Y-71150000D02*
X111710570Y-68990000D01*
X114690000Y-71150000D02*
X113870570Y-71150000D01*
%TO.N,BOOT*%
X113693000Y-68660190D02*
X113693000Y-64800000D01*
X112070000Y-63700000D02*
X112550000Y-64180000D01*
X114690000Y-69150000D02*
X114182810Y-69150000D01*
X113193000Y-64300000D02*
X112670000Y-64300000D01*
X113693000Y-64800000D02*
X113193000Y-64300000D01*
X112670000Y-64300000D02*
X112550000Y-64180000D01*
X114182810Y-69150000D02*
X113693000Y-68660190D01*
X112070000Y-62120000D02*
X112070000Y-63700000D01*
D34*
%TO.N,Net-(U8-XTAL_P)*%
X116340000Y-66203640D02*
X116116360Y-65980000D01*
X116340000Y-66700000D02*
X116340000Y-66203640D01*
X115135270Y-64365218D02*
X115135270Y-63942573D01*
X116116360Y-65980000D02*
X116000871Y-65980000D01*
X116000871Y-65980000D02*
X115135270Y-65114399D01*
X115135270Y-65114399D02*
X115135270Y-64365218D01*
X115135270Y-63942573D02*
X115737052Y-63340791D01*
%TO.N,Net-(U8-XTAL_N)*%
X117413856Y-63444857D02*
X117670000Y-63701001D01*
X116740000Y-65950000D02*
X117670000Y-65020000D01*
X117670000Y-63701001D02*
X117670000Y-65020000D01*
X116740000Y-66700000D02*
X116740000Y-65950000D01*
%TD*%
%TA.AperFunction,Conductor*%
%TO.N,VDD_ESP*%
G36*
X105503883Y-70476797D02*
G01*
X105950593Y-70484782D01*
X105958803Y-70488356D01*
X105962081Y-70496689D01*
X105962065Y-70497134D01*
X105956250Y-70601006D01*
X105952366Y-70609075D01*
X105946072Y-70611955D01*
X105547145Y-70663664D01*
X105538722Y-70661496D01*
X105504174Y-70636158D01*
X105420206Y-70574576D01*
X105415562Y-70566921D01*
X105417691Y-70558223D01*
X105418846Y-70556876D01*
X105495500Y-70480222D01*
X105503772Y-70476796D01*
X105503883Y-70476797D01*
G37*
%TD.AperFunction*%
%TD*%
%TA.AperFunction,Conductor*%
%TO.N,D+*%
G36*
X119951748Y-73645049D02*
G01*
X119953447Y-73648584D01*
X120039046Y-73946679D01*
X120039500Y-73949905D01*
X120039500Y-73951730D01*
X120039314Y-73953805D01*
X120024624Y-74035307D01*
X120021383Y-74041505D01*
X119945919Y-74116968D01*
X119937646Y-74120395D01*
X119929373Y-74116968D01*
X119927069Y-74113698D01*
X119873129Y-73999661D01*
X119872174Y-73992694D01*
X119930668Y-73649844D01*
X119935437Y-73642266D01*
X119944169Y-73640280D01*
X119951748Y-73645049D01*
G37*
%TD.AperFunction*%
%TD*%
%TA.AperFunction,Conductor*%
%TO.N,Net-(D3-A)*%
G36*
X124260492Y-72246231D02*
G01*
X124702468Y-72406600D01*
X124709076Y-72412643D01*
X124709970Y-72419789D01*
X124651893Y-72724482D01*
X124646978Y-72731967D01*
X124644843Y-72733114D01*
X124390686Y-72837450D01*
X124381731Y-72837422D01*
X124375477Y-72831208D01*
X124166784Y-72340762D01*
X124166699Y-72331810D01*
X124169276Y-72327912D01*
X124248232Y-72248956D01*
X124256504Y-72245530D01*
X124260492Y-72246231D01*
G37*
%TD.AperFunction*%
%TD*%
%TA.AperFunction,Conductor*%
%TO.N,B+*%
G36*
X105641004Y-75147430D02*
G01*
X106126204Y-75347437D01*
X106132547Y-75353758D01*
X106132562Y-75353795D01*
X106332569Y-75838995D01*
X106332554Y-75847950D01*
X106326211Y-75854271D01*
X106326025Y-75854346D01*
X105328478Y-76245657D01*
X105319524Y-76245488D01*
X105315932Y-76243038D01*
X105236961Y-76164067D01*
X105233534Y-76155794D01*
X105234340Y-76151527D01*
X105625654Y-75153972D01*
X105631864Y-75147524D01*
X105640818Y-75147355D01*
X105641004Y-75147430D01*
G37*
%TD.AperFunction*%
%TD*%
%TA.AperFunction,Conductor*%
%TO.N,VDD_ESP*%
G36*
X123898267Y-72622576D02*
G01*
X123904522Y-72628790D01*
X124113214Y-73119235D01*
X124113300Y-73128189D01*
X124110721Y-73132089D01*
X124031768Y-73211042D01*
X124023495Y-73214469D01*
X124019504Y-73213767D01*
X123577530Y-73053399D01*
X123570922Y-73047356D01*
X123570028Y-73040210D01*
X123628106Y-72735515D01*
X123633021Y-72728032D01*
X123635147Y-72726889D01*
X123889316Y-72622548D01*
X123898267Y-72622576D01*
G37*
%TD.AperFunction*%
%TD*%
%TA.AperFunction,Conductor*%
%TO.N,CLK1*%
G36*
X114323747Y-69854554D02*
G01*
X114588988Y-69923488D01*
X114647427Y-69938676D01*
X114654572Y-69944074D01*
X114655808Y-69952943D01*
X114650410Y-69960088D01*
X114647427Y-69961324D01*
X114323751Y-70045444D01*
X114317972Y-70045471D01*
X114198864Y-70015714D01*
X114191668Y-70010384D01*
X114190000Y-70004363D01*
X114190000Y-69895636D01*
X114193427Y-69887363D01*
X114198862Y-69884285D01*
X114317975Y-69854528D01*
X114323747Y-69854554D01*
G37*
%TD.AperFunction*%
%TD*%
%TA.AperFunction,Conductor*%
%TO.N,VDD_ESP*%
G36*
X115951748Y-66745049D02*
G01*
X115953447Y-66748584D01*
X116039046Y-67046679D01*
X116039500Y-67049905D01*
X116039500Y-67051730D01*
X116039314Y-67053805D01*
X116024624Y-67135307D01*
X116021383Y-67141505D01*
X115945919Y-67216969D01*
X115937646Y-67220396D01*
X115929373Y-67216969D01*
X115927071Y-67213702D01*
X115873129Y-67099661D01*
X115872174Y-67092694D01*
X115930668Y-66749844D01*
X115935437Y-66742266D01*
X115944169Y-66740280D01*
X115951748Y-66745049D01*
G37*
%TD.AperFunction*%
%TD*%
%TA.AperFunction,Conductor*%
%TO.N,VDD_ESP*%
G36*
X115550088Y-66739589D02*
G01*
X115551324Y-66742572D01*
X115635444Y-67066248D01*
X115635471Y-67072027D01*
X115605714Y-67191136D01*
X115600384Y-67198332D01*
X115594363Y-67200000D01*
X115485637Y-67200000D01*
X115477364Y-67196573D01*
X115474286Y-67191136D01*
X115462756Y-67144989D01*
X115444528Y-67072024D01*
X115444554Y-67066252D01*
X115528676Y-66742571D01*
X115534074Y-66735427D01*
X115542943Y-66734191D01*
X115550088Y-66739589D01*
G37*
%TD.AperFunction*%
%TD*%
%TA.AperFunction,Conductor*%
%TO.N,RESET*%
G36*
X121364956Y-61836508D02*
G01*
X121756660Y-62063121D01*
X121762104Y-62070229D01*
X121762500Y-62073247D01*
X121762500Y-62186752D01*
X121759073Y-62195025D01*
X121756659Y-62196879D01*
X121364958Y-62423490D01*
X121356081Y-62424667D01*
X121350467Y-62421261D01*
X121286608Y-62351460D01*
X121091224Y-62137896D01*
X121088169Y-62129480D01*
X121091224Y-62122103D01*
X121350468Y-61838737D01*
X121358579Y-61834948D01*
X121364956Y-61836508D01*
G37*
%TD.AperFunction*%
%TD*%
%TA.AperFunction,Conductor*%
%TO.N,VDD_ESP*%
G36*
X123038230Y-68143427D02*
G01*
X123039498Y-68144928D01*
X123276410Y-68478730D01*
X123278404Y-68487460D01*
X123274613Y-68494273D01*
X122980244Y-68754163D01*
X122971774Y-68757069D01*
X122964756Y-68754163D01*
X122670386Y-68494273D01*
X122666453Y-68486228D01*
X122668588Y-68478732D01*
X122905502Y-68144927D01*
X122913085Y-68140165D01*
X122915043Y-68140000D01*
X123029957Y-68140000D01*
X123038230Y-68143427D01*
G37*
%TD.AperFunction*%
%TD*%
%TA.AperFunction,Conductor*%
%TO.N,VDD_ESP*%
G36*
X106523421Y-68803374D02*
G01*
X106635127Y-68914194D01*
X106638587Y-68922453D01*
X106635193Y-68930740D01*
X106635127Y-68930806D01*
X106523421Y-69041625D01*
X106515134Y-69045019D01*
X106510016Y-69043817D01*
X106399035Y-68989215D01*
X106393124Y-68982488D01*
X106392500Y-68978717D01*
X106392500Y-68866282D01*
X106395927Y-68858009D01*
X106399031Y-68855786D01*
X106510016Y-68801181D01*
X106518952Y-68800604D01*
X106523421Y-68803374D01*
G37*
%TD.AperFunction*%
%TD*%
%TA.AperFunction,Conductor*%
%TO.N,B+*%
G36*
X105400267Y-75995955D02*
G01*
X105401381Y-75996936D01*
X105480287Y-76075842D01*
X105483714Y-76084115D01*
X105481699Y-76090680D01*
X105170050Y-76550450D01*
X105162571Y-76555375D01*
X105153800Y-76553570D01*
X105152119Y-76552186D01*
X105150371Y-76550450D01*
X104952757Y-76354148D01*
X104949304Y-76345887D01*
X104949304Y-76345821D01*
X104949904Y-76090680D01*
X104949975Y-76060274D01*
X104953421Y-76052011D01*
X104960192Y-76048698D01*
X105391626Y-75993603D01*
X105400267Y-75995955D01*
G37*
%TD.AperFunction*%
%TD*%
%TA.AperFunction,Conductor*%
%TO.N,B-*%
G36*
X107048268Y-63787959D02*
G01*
X107483302Y-64206737D01*
X107483461Y-64206893D01*
X107564370Y-64287802D01*
X107567797Y-64296075D01*
X107564370Y-64304348D01*
X107563830Y-64304855D01*
X107048114Y-64759095D01*
X107039641Y-64761992D01*
X107032236Y-64758714D01*
X106547822Y-64288977D01*
X106544268Y-64280758D01*
X106547568Y-64272433D01*
X106547631Y-64272369D01*
X107031884Y-63788115D01*
X107040156Y-63784689D01*
X107048268Y-63787959D01*
G37*
%TD.AperFunction*%
%TD*%
%TA.AperFunction,Conductor*%
%TO.N,SEL2*%
G36*
X109246012Y-70587257D02*
G01*
X109365551Y-70682559D01*
X109369883Y-70690394D01*
X109367405Y-70699000D01*
X109366530Y-70699979D01*
X109289892Y-70776617D01*
X109281619Y-70780044D01*
X109280490Y-70779989D01*
X108828292Y-70736133D01*
X108820388Y-70731924D01*
X108817776Y-70723359D01*
X108828293Y-70619197D01*
X108832533Y-70611312D01*
X108839228Y-70608695D01*
X109238017Y-70584726D01*
X109246012Y-70587257D01*
G37*
%TD.AperFunction*%
%TD*%
%TA.AperFunction,Conductor*%
%TO.N,VDD_ESP*%
G36*
X110622613Y-61819696D02*
G01*
X110869633Y-62112455D01*
X110872349Y-62120988D01*
X110869633Y-62127545D01*
X110622613Y-62420303D01*
X110614659Y-62424416D01*
X110607775Y-62422864D01*
X110203304Y-62186886D01*
X110197885Y-62179757D01*
X110197500Y-62176780D01*
X110197500Y-62063219D01*
X110200927Y-62054946D01*
X110203299Y-62053116D01*
X110607776Y-61817134D01*
X110616648Y-61815926D01*
X110622613Y-61819696D01*
G37*
%TD.AperFunction*%
%TD*%
%TA.AperFunction,Conductor*%
%TO.N,RESET*%
G36*
X122012498Y-61839559D02*
G01*
X122259633Y-62132455D01*
X122262349Y-62140988D01*
X122259633Y-62147545D01*
X122012727Y-62440168D01*
X122004773Y-62444281D01*
X121997712Y-62442623D01*
X121593127Y-62196917D01*
X121587834Y-62189694D01*
X121587500Y-62186917D01*
X121587500Y-62073360D01*
X121590927Y-62065087D01*
X121593487Y-62063150D01*
X121997844Y-61836893D01*
X122006736Y-61835844D01*
X122012498Y-61839559D01*
G37*
%TD.AperFunction*%
%TD*%
%TA.AperFunction,Conductor*%
%TO.N,B-*%
G36*
X107152904Y-68954459D02*
G01*
X107153641Y-68956237D01*
X107261549Y-69292699D01*
X107261462Y-69300106D01*
X107208728Y-69452134D01*
X107202779Y-69458828D01*
X107197674Y-69460000D01*
X107087326Y-69460000D01*
X107079053Y-69456573D01*
X107076272Y-69452134D01*
X107023537Y-69300106D01*
X107023450Y-69292701D01*
X107131359Y-68956236D01*
X107137149Y-68949406D01*
X107146073Y-68948669D01*
X107152904Y-68954459D01*
G37*
%TD.AperFunction*%
%TD*%
%TA.AperFunction,Conductor*%
%TO.N,B-*%
G36*
X108658963Y-70054825D02*
G01*
X108796262Y-70098859D01*
X108803093Y-70104649D01*
X108803830Y-70113573D01*
X108798040Y-70120404D01*
X108796262Y-70121141D01*
X108459800Y-70229049D01*
X108452393Y-70228962D01*
X108300366Y-70176228D01*
X108293672Y-70170279D01*
X108292500Y-70165174D01*
X108292500Y-70054825D01*
X108295927Y-70046552D01*
X108300364Y-70043772D01*
X108452394Y-69991036D01*
X108459798Y-69990950D01*
X108658963Y-70054825D01*
G37*
%TD.AperFunction*%
%TD*%
%TA.AperFunction,Conductor*%
%TO.N,B-*%
G36*
X124473823Y-68693894D02*
G01*
X124478281Y-68699750D01*
X124500624Y-68764858D01*
X124601413Y-69058567D01*
X124668182Y-69253135D01*
X124667626Y-69262073D01*
X124660913Y-69268000D01*
X124657115Y-69268633D01*
X124548489Y-69268633D01*
X124544625Y-69267977D01*
X123990475Y-69074085D01*
X123983798Y-69068118D01*
X123983295Y-69059177D01*
X123983511Y-69058609D01*
X124105076Y-68764856D01*
X124111405Y-68758524D01*
X124113724Y-68757834D01*
X124465063Y-68692048D01*
X124473823Y-68693894D01*
G37*
%TD.AperFunction*%
%TD*%
%TA.AperFunction,Conductor*%
%TO.N,BOOT*%
G36*
X114323747Y-69054554D02*
G01*
X114588988Y-69123488D01*
X114647427Y-69138676D01*
X114654572Y-69144074D01*
X114655808Y-69152943D01*
X114650410Y-69160088D01*
X114647427Y-69161324D01*
X114323751Y-69245444D01*
X114317972Y-69245471D01*
X114198864Y-69215714D01*
X114191668Y-69210384D01*
X114190000Y-69204363D01*
X114190000Y-69095636D01*
X114193427Y-69087363D01*
X114198862Y-69084285D01*
X114317975Y-69054528D01*
X114323747Y-69054554D01*
G37*
%TD.AperFunction*%
%TD*%
%TA.AperFunction,Conductor*%
%TO.N,B-*%
G36*
X123994025Y-64081264D02*
G01*
X123999722Y-64088173D01*
X124000012Y-64089327D01*
X124168239Y-64940468D01*
X124166481Y-64949249D01*
X124159030Y-64954215D01*
X124156761Y-64954437D01*
X124044000Y-64954437D01*
X123978108Y-65035110D01*
X123970220Y-65039350D01*
X123961645Y-65036771D01*
X123958309Y-65032358D01*
X123602699Y-64211008D01*
X123602557Y-64202054D01*
X123608787Y-64195622D01*
X123610003Y-64195174D01*
X123985112Y-64080408D01*
X123994025Y-64081264D01*
G37*
%TD.AperFunction*%
%TD*%
%TA.AperFunction,Conductor*%
%TO.N,B-*%
G36*
X118129062Y-70156261D02*
G01*
X118134669Y-70163243D01*
X118134662Y-70169825D01*
X117553374Y-72144306D01*
X117547750Y-72151275D01*
X117546114Y-72152010D01*
X115484781Y-72894234D01*
X115475836Y-72893813D01*
X115472544Y-72891499D01*
X115393255Y-72812210D01*
X115389828Y-72803937D01*
X115390527Y-72799954D01*
X116137977Y-70738849D01*
X116144018Y-70732243D01*
X116145683Y-70731614D01*
X118120161Y-70155290D01*
X118129062Y-70156261D01*
G37*
%TD.AperFunction*%
%TD*%
%TA.AperFunction,Conductor*%
%TO.N,RESET*%
G36*
X114343322Y-68650954D02*
G01*
X114641416Y-68736552D01*
X114648421Y-68742130D01*
X114649432Y-68751027D01*
X114643854Y-68758033D01*
X114640154Y-68759331D01*
X114297305Y-68817825D01*
X114290334Y-68816868D01*
X114176300Y-68762929D01*
X114170287Y-68756294D01*
X114170727Y-68747350D01*
X114173027Y-68744083D01*
X114248496Y-68668614D01*
X114254689Y-68665376D01*
X114336194Y-68650686D01*
X114338269Y-68650500D01*
X114340093Y-68650500D01*
X114343322Y-68650954D01*
G37*
%TD.AperFunction*%
%TD*%
%TA.AperFunction,Conductor*%
%TO.N,VDD_ESP*%
G36*
X115043806Y-67850686D02*
G01*
X115125309Y-67865376D01*
X115131505Y-67868616D01*
X115206969Y-67944080D01*
X115210396Y-67952353D01*
X115206969Y-67960626D01*
X115203699Y-67962930D01*
X115089663Y-68016869D01*
X115082692Y-68017825D01*
X114739845Y-67959331D01*
X114732266Y-67954562D01*
X114730280Y-67945830D01*
X114735049Y-67938251D01*
X114738579Y-67936554D01*
X115036678Y-67850954D01*
X115039907Y-67850500D01*
X115041731Y-67850500D01*
X115043806Y-67850686D01*
G37*
%TD.AperFunction*%
%TD*%
%TA.AperFunction,Conductor*%
%TO.N,B-*%
G36*
X118517480Y-63445706D02*
G01*
X118520014Y-63449495D01*
X118723427Y-63939700D01*
X118723432Y-63948655D01*
X118719353Y-63953753D01*
X118422094Y-64162915D01*
X118413356Y-64164873D01*
X118411217Y-64164288D01*
X118117650Y-64053113D01*
X118111127Y-64046978D01*
X118110737Y-64038347D01*
X118314295Y-63450152D01*
X118320239Y-63443455D01*
X118325352Y-63442279D01*
X118509207Y-63442279D01*
X118517480Y-63445706D01*
G37*
%TD.AperFunction*%
%TD*%
%TA.AperFunction,Conductor*%
%TO.N,Net-(Q1-D)*%
G36*
X111307950Y-76047445D02*
G01*
X111314271Y-76053788D01*
X111314346Y-76053974D01*
X111705657Y-77051521D01*
X111705488Y-77060475D01*
X111703038Y-77064067D01*
X111624067Y-77143038D01*
X111615794Y-77146465D01*
X111611522Y-77145657D01*
X111175024Y-76974431D01*
X110613974Y-76754346D01*
X110607524Y-76748135D01*
X110607355Y-76739181D01*
X110607430Y-76738995D01*
X110807437Y-76253795D01*
X110813757Y-76247452D01*
X111298996Y-76047430D01*
X111307950Y-76047445D01*
G37*
%TD.AperFunction*%
%TD*%
%TA.AperFunction,Conductor*%
%TO.N,SEL2*%
G36*
X111722705Y-71890998D02*
G01*
X111727652Y-71898462D01*
X111727868Y-71900701D01*
X111727868Y-72010657D01*
X111726563Y-72016026D01*
X111616243Y-72229621D01*
X111614121Y-72232525D01*
X111470456Y-72376192D01*
X111396191Y-72450457D01*
X111356000Y-72547484D01*
X111356000Y-72730651D01*
X111354695Y-72736020D01*
X111295390Y-72850844D01*
X111288549Y-72856622D01*
X111279626Y-72855870D01*
X111279585Y-72855849D01*
X110793309Y-72602247D01*
X110787558Y-72595383D01*
X110787551Y-72595362D01*
X110636705Y-72112472D01*
X110637509Y-72103553D01*
X110644384Y-72097815D01*
X110645624Y-72097501D01*
X111713930Y-71889217D01*
X111722705Y-71890998D01*
G37*
%TD.AperFunction*%
%TD*%
%TA.AperFunction,Conductor*%
%TO.N,VDD_ESP*%
G36*
X115646969Y-66602543D02*
G01*
X115732313Y-66633694D01*
X115738908Y-66639749D01*
X115740000Y-66644684D01*
X115740000Y-66755315D01*
X115736573Y-66763588D01*
X115732312Y-66766306D01*
X115646970Y-66797455D01*
X115638023Y-66797072D01*
X115634726Y-66794778D01*
X115547397Y-66708314D01*
X115543929Y-66700058D01*
X115547315Y-66691768D01*
X115547397Y-66691686D01*
X115594869Y-66644684D01*
X115634727Y-66605220D01*
X115643016Y-66601835D01*
X115646969Y-66602543D01*
G37*
%TD.AperFunction*%
%TD*%
%TA.AperFunction,Conductor*%
%TO.N,B-*%
G36*
X113637575Y-73846151D02*
G01*
X114009098Y-74058132D01*
X114014586Y-74065208D01*
X114015000Y-74068294D01*
X114015000Y-74181705D01*
X114011573Y-74189978D01*
X114009098Y-74191867D01*
X113637577Y-74403847D01*
X113628693Y-74404971D01*
X113622690Y-74401051D01*
X113404967Y-74132364D01*
X113402422Y-74123781D01*
X113404967Y-74117636D01*
X113622691Y-73848946D01*
X113630560Y-73844678D01*
X113637575Y-73846151D01*
G37*
%TD.AperFunction*%
%TD*%
%TA.AperFunction,Conductor*%
%TO.N,MIC_DATA1*%
G36*
X114323747Y-70654554D02*
G01*
X114588988Y-70723488D01*
X114647427Y-70738676D01*
X114654572Y-70744074D01*
X114655808Y-70752943D01*
X114650410Y-70760088D01*
X114647427Y-70761324D01*
X114323751Y-70845444D01*
X114317972Y-70845471D01*
X114198864Y-70815714D01*
X114191668Y-70810384D01*
X114190000Y-70804363D01*
X114190000Y-70695636D01*
X114193427Y-70687363D01*
X114198862Y-70684285D01*
X114317975Y-70654528D01*
X114323747Y-70654554D01*
G37*
%TD.AperFunction*%
%TD*%
%TA.AperFunction,Conductor*%
%TO.N,B-*%
G36*
X116058444Y-64388364D02*
G01*
X116060831Y-64391815D01*
X116307866Y-64937994D01*
X116308153Y-64946945D01*
X116302257Y-64953369D01*
X116010594Y-65092974D01*
X116001653Y-65093455D01*
X115999249Y-65092284D01*
X115700395Y-64901577D01*
X115695264Y-64894238D01*
X115696090Y-64886758D01*
X115927567Y-64391681D01*
X115934176Y-64385638D01*
X115938166Y-64384937D01*
X116050171Y-64384937D01*
X116058444Y-64388364D01*
G37*
%TD.AperFunction*%
%TD*%
%TA.AperFunction,Conductor*%
%TO.N,CLK1*%
G36*
X110645290Y-66470442D02*
G01*
X110645421Y-66470692D01*
X111034616Y-67238086D01*
X111035302Y-67247014D01*
X111032454Y-67251651D01*
X110952623Y-67331482D01*
X110944350Y-67334909D01*
X110943070Y-67334839D01*
X110004728Y-67231532D01*
X109996879Y-67227220D01*
X109994378Y-67218622D01*
X109994789Y-67216584D01*
X110137908Y-66733960D01*
X110143541Y-66727008D01*
X110629444Y-66465679D01*
X110638354Y-66464779D01*
X110645290Y-66470442D01*
G37*
%TD.AperFunction*%
%TD*%
%TA.AperFunction,Conductor*%
%TO.N,VDD_ESP*%
G36*
X105963240Y-70617306D02*
G01*
X105963306Y-70617372D01*
X106074125Y-70729078D01*
X106077519Y-70737365D01*
X106076317Y-70742483D01*
X106021715Y-70853465D01*
X106014988Y-70859376D01*
X106011217Y-70860000D01*
X105898783Y-70860000D01*
X105890510Y-70856573D01*
X105888285Y-70853465D01*
X105833682Y-70742483D01*
X105833104Y-70733547D01*
X105835872Y-70729080D01*
X105946694Y-70617371D01*
X105954953Y-70613912D01*
X105963240Y-70617306D01*
G37*
%TD.AperFunction*%
%TD*%
%TA.AperFunction,Conductor*%
%TO.N,Net-(U8-XTAL_N)*%
G36*
X117668049Y-65022780D02*
G01*
X117671623Y-65030263D01*
X117703734Y-65414711D01*
X117701008Y-65423241D01*
X117695744Y-65426795D01*
X117660023Y-65438593D01*
X117656354Y-65439183D01*
X117544301Y-65439183D01*
X117515884Y-65450954D01*
X117447274Y-65479373D01*
X117447271Y-65479375D01*
X117405212Y-65521433D01*
X117400608Y-65524270D01*
X117267905Y-65568099D01*
X117258975Y-65567439D01*
X117255963Y-65565262D01*
X117124925Y-65434224D01*
X117121498Y-65425951D01*
X117122213Y-65421924D01*
X117263847Y-65035862D01*
X117269911Y-65029279D01*
X117274562Y-65028198D01*
X117659702Y-65019540D01*
X117668049Y-65022780D01*
G37*
%TD.AperFunction*%
%TD*%
%TA.AperFunction,Conductor*%
%TO.N,B+*%
G36*
X119525291Y-75295595D02*
G01*
X119526940Y-75296966D01*
X119606835Y-75376861D01*
X119610262Y-75385134D01*
X119609352Y-75389657D01*
X119324492Y-76069255D01*
X119318134Y-76075560D01*
X119309251Y-76075552D01*
X118977361Y-75939025D01*
X118971014Y-75932709D01*
X118970171Y-75927027D01*
X119024143Y-75393724D01*
X119028386Y-75385838D01*
X119033648Y-75383399D01*
X119068859Y-75376861D01*
X119516531Y-75293736D01*
X119525291Y-75295595D01*
G37*
%TD.AperFunction*%
%TD*%
%TA.AperFunction,Conductor*%
%TO.N,SEL1*%
G36*
X114323747Y-70254554D02*
G01*
X114588988Y-70323488D01*
X114647427Y-70338676D01*
X114654572Y-70344074D01*
X114655808Y-70352943D01*
X114650410Y-70360088D01*
X114647427Y-70361324D01*
X114323751Y-70445444D01*
X114317972Y-70445471D01*
X114198864Y-70415714D01*
X114191668Y-70410384D01*
X114190000Y-70404363D01*
X114190000Y-70295636D01*
X114193427Y-70287363D01*
X114198862Y-70284285D01*
X114317975Y-70254528D01*
X114323747Y-70254554D01*
G37*
%TD.AperFunction*%
%TD*%
%TA.AperFunction,Conductor*%
%TO.N,VDD_ESP*%
G36*
X123000139Y-65923427D02*
G01*
X123001010Y-65924400D01*
X123174433Y-66141827D01*
X123258809Y-66247612D01*
X123261289Y-66256217D01*
X123257822Y-66263292D01*
X122979867Y-66533828D01*
X122971549Y-66537143D01*
X122964441Y-66534614D01*
X122654031Y-66288665D01*
X122649675Y-66280842D01*
X122651353Y-66273331D01*
X122867068Y-65925532D01*
X122874341Y-65920309D01*
X122877011Y-65920000D01*
X122991866Y-65920000D01*
X123000139Y-65923427D01*
G37*
%TD.AperFunction*%
%TD*%
%TA.AperFunction,Conductor*%
%TO.N,B-*%
G36*
X122485806Y-63490059D02*
G01*
X122492117Y-63496410D01*
X122492090Y-63505365D01*
X122491846Y-63505908D01*
X122254008Y-64002526D01*
X122247344Y-64008507D01*
X122238402Y-64008024D01*
X122235183Y-64005745D01*
X122158428Y-63928990D01*
X122156215Y-63925907D01*
X121948378Y-63506002D01*
X121947779Y-63497067D01*
X121953674Y-63490326D01*
X121954346Y-63490019D01*
X122216206Y-63381163D01*
X122225159Y-63381153D01*
X122485806Y-63490059D01*
G37*
%TD.AperFunction*%
%TD*%
%TA.AperFunction,Conductor*%
%TO.N,Net-(U8-XTAL_P)*%
G36*
X115734384Y-63343694D02*
G01*
X115738242Y-63351775D01*
X115738248Y-63351907D01*
X115757028Y-63805444D01*
X115753946Y-63813852D01*
X115747704Y-63817386D01*
X115318051Y-63906116D01*
X115309256Y-63904433D01*
X115307412Y-63902931D01*
X115174554Y-63770073D01*
X115171127Y-63761800D01*
X115171234Y-63760221D01*
X115223465Y-63376740D01*
X115227977Y-63369005D01*
X115234439Y-63366636D01*
X115725942Y-63340707D01*
X115734384Y-63343694D01*
G37*
%TD.AperFunction*%
%TD*%
%TA.AperFunction,Conductor*%
%TO.N,VDD_ESP*%
G36*
X122980243Y-66545836D02*
G01*
X123274612Y-66805724D01*
X123278546Y-66813769D01*
X123276410Y-66821267D01*
X123039498Y-67155072D01*
X123031915Y-67159835D01*
X123029957Y-67160000D01*
X122915043Y-67160000D01*
X122906770Y-67156573D01*
X122905502Y-67155072D01*
X122668589Y-66821267D01*
X122666595Y-66812537D01*
X122670386Y-66805725D01*
X122964757Y-66545835D01*
X122973226Y-66542930D01*
X122980243Y-66545836D01*
G37*
%TD.AperFunction*%
%TD*%
%TA.AperFunction,Conductor*%
%TO.N,Net-(D4-A)*%
G36*
X113177617Y-74819328D02*
G01*
X113395031Y-75087634D01*
X113397577Y-75096219D01*
X113395031Y-75102366D01*
X113176998Y-75371435D01*
X113169127Y-75375705D01*
X113162627Y-75374509D01*
X112791419Y-75186746D01*
X112785583Y-75179954D01*
X112785000Y-75176306D01*
X112785000Y-75062927D01*
X112788427Y-75054654D01*
X112790421Y-75053055D01*
X113162254Y-74816818D01*
X113171073Y-74815274D01*
X113177617Y-74819328D01*
G37*
%TD.AperFunction*%
%TD*%
%TA.AperFunction,Conductor*%
%TO.N,Net-(U8-XTAL_N)*%
G36*
X117770460Y-64300220D02*
G01*
X117772994Y-64304009D01*
X117976407Y-64794214D01*
X117976412Y-64803169D01*
X117972333Y-64808267D01*
X117675074Y-65017429D01*
X117666336Y-65019387D01*
X117664197Y-65018802D01*
X117370630Y-64907627D01*
X117364107Y-64901492D01*
X117363717Y-64892861D01*
X117567275Y-64304666D01*
X117573219Y-64297969D01*
X117578332Y-64296793D01*
X117762187Y-64296793D01*
X117770460Y-64300220D01*
G37*
%TD.AperFunction*%
%TD*%
%TA.AperFunction,Conductor*%
%TO.N,BOOT*%
G36*
X112207006Y-63343444D02*
G01*
X112210336Y-63348003D01*
X112545078Y-64168929D01*
X112545029Y-64177884D01*
X112538662Y-64184181D01*
X112537470Y-64184593D01*
X112162660Y-64292103D01*
X112153763Y-64291091D01*
X112148188Y-64284083D01*
X112147886Y-64282735D01*
X112131929Y-64184593D01*
X112008708Y-63426715D01*
X112010762Y-63417999D01*
X112018378Y-63413289D01*
X112020256Y-63413137D01*
X112133499Y-63413137D01*
X112133500Y-63413137D01*
X112190526Y-63344916D01*
X112198460Y-63340767D01*
X112207006Y-63343444D01*
G37*
%TD.AperFunction*%
%TD*%
%TA.AperFunction,Conductor*%
%TO.N,VDD_ESP*%
G36*
X117542649Y-73080726D02*
G01*
X117545919Y-73083030D01*
X117621383Y-73158494D01*
X117624624Y-73164692D01*
X117639314Y-73246193D01*
X117639500Y-73248268D01*
X117639500Y-73250093D01*
X117639046Y-73253322D01*
X117553447Y-73551415D01*
X117547869Y-73558421D01*
X117538972Y-73559432D01*
X117531966Y-73553854D01*
X117530668Y-73550154D01*
X117479474Y-73250093D01*
X117472174Y-73207304D01*
X117473129Y-73200337D01*
X117527071Y-73086297D01*
X117533705Y-73080287D01*
X117542649Y-73080726D01*
G37*
%TD.AperFunction*%
%TD*%
%TA.AperFunction,Conductor*%
%TO.N,B-*%
G36*
X107705947Y-71263427D02*
G01*
X107708728Y-71267866D01*
X107761462Y-71419893D01*
X107761549Y-71427300D01*
X107653641Y-71763762D01*
X107647851Y-71770593D01*
X107638927Y-71771330D01*
X107632096Y-71765540D01*
X107631359Y-71763762D01*
X107523450Y-71427300D01*
X107523536Y-71419894D01*
X107576272Y-71267866D01*
X107582221Y-71261172D01*
X107587326Y-71260000D01*
X107697674Y-71260000D01*
X107705947Y-71263427D01*
G37*
%TD.AperFunction*%
%TD*%
%TA.AperFunction,Conductor*%
%TO.N,SPK2_DATA*%
G36*
X111317965Y-68532136D02*
G01*
X111817090Y-69007138D01*
X111820720Y-69015323D01*
X111817499Y-69023679D01*
X111817297Y-69023886D01*
X111736188Y-69104995D01*
X111735758Y-69105404D01*
X111318252Y-69482545D01*
X111309815Y-69485548D01*
X111302136Y-69482136D01*
X110817879Y-68997879D01*
X110814452Y-68989606D01*
X110817879Y-68981333D01*
X110818152Y-68981069D01*
X111301941Y-68532035D01*
X111310335Y-68528919D01*
X111317965Y-68532136D01*
G37*
%TD.AperFunction*%
%TD*%
%TA.AperFunction,Conductor*%
%TO.N,CLK2*%
G36*
X109246012Y-69587257D02*
G01*
X109365551Y-69682559D01*
X109369883Y-69690394D01*
X109367405Y-69699000D01*
X109366530Y-69699979D01*
X109289892Y-69776617D01*
X109281619Y-69780044D01*
X109280490Y-69779989D01*
X108828292Y-69736133D01*
X108820388Y-69731924D01*
X108817776Y-69723359D01*
X108828293Y-69619197D01*
X108832533Y-69611312D01*
X108839228Y-69608695D01*
X109238017Y-69584726D01*
X109246012Y-69587257D01*
G37*
%TD.AperFunction*%
%TD*%
%TA.AperFunction,Conductor*%
%TO.N,Net-(U8-GPIO9)*%
G36*
X114323747Y-72654554D02*
G01*
X114588988Y-72723488D01*
X114647427Y-72738676D01*
X114654572Y-72744074D01*
X114655808Y-72752943D01*
X114650410Y-72760088D01*
X114647427Y-72761324D01*
X114323751Y-72845444D01*
X114317972Y-72845471D01*
X114198864Y-72815714D01*
X114191668Y-72810384D01*
X114190000Y-72804363D01*
X114190000Y-72695636D01*
X114193427Y-72687363D01*
X114198862Y-72684285D01*
X114317975Y-72654528D01*
X114323747Y-72654554D01*
G37*
%TD.AperFunction*%
%TD*%
%TA.AperFunction,Conductor*%
%TO.N,MIC_DATA2*%
G36*
X111674822Y-73524259D02*
G01*
X111678249Y-73532532D01*
X111677489Y-73536678D01*
X111542978Y-73891312D01*
X111284251Y-74573431D01*
X111278112Y-74579951D01*
X111269162Y-74580222D01*
X111268898Y-74580118D01*
X110784503Y-74382834D01*
X110778133Y-74376539D01*
X110575118Y-73891310D01*
X110575087Y-73882357D01*
X110581396Y-73876003D01*
X110581846Y-73875826D01*
X111554564Y-73521537D01*
X111558563Y-73520832D01*
X111666549Y-73520832D01*
X111674822Y-73524259D01*
G37*
%TD.AperFunction*%
%TD*%
%TA.AperFunction,Conductor*%
%TO.N,B-*%
G36*
X107069066Y-68385969D02*
G01*
X107069935Y-68386941D01*
X107130259Y-68462607D01*
X107165242Y-68506487D01*
X107167773Y-68514483D01*
X107143804Y-68913268D01*
X107139887Y-68921321D01*
X107133300Y-68924207D01*
X107029186Y-68934719D01*
X107020611Y-68932140D01*
X107016370Y-68924254D01*
X106972510Y-68472008D01*
X106975122Y-68463444D01*
X106975872Y-68462617D01*
X107052521Y-68385968D01*
X107060793Y-68382542D01*
X107069066Y-68385969D01*
G37*
%TD.AperFunction*%
%TD*%
%TA.AperFunction,Conductor*%
%TO.N,SPK2_P*%
G36*
X106652904Y-71829459D02*
G01*
X106653641Y-71831237D01*
X106761549Y-72167699D01*
X106761462Y-72175106D01*
X106708728Y-72327134D01*
X106702779Y-72333828D01*
X106697674Y-72335000D01*
X106587326Y-72335000D01*
X106579053Y-72331573D01*
X106576272Y-72327134D01*
X106523537Y-72175106D01*
X106523450Y-72167701D01*
X106631359Y-71831236D01*
X106637149Y-71824406D01*
X106646073Y-71823669D01*
X106652904Y-71829459D01*
G37*
%TD.AperFunction*%
%TD*%
%TA.AperFunction,Conductor*%
%TO.N,B-*%
G36*
X118821480Y-64137140D02*
G01*
X118825376Y-64143932D01*
X118899725Y-64553453D01*
X118897831Y-64562205D01*
X118896486Y-64563816D01*
X118815261Y-64645041D01*
X118806988Y-64648468D01*
X118805092Y-64648313D01*
X118404276Y-64582497D01*
X118396668Y-64577775D01*
X118394489Y-64570324D01*
X118415761Y-64175029D01*
X118419627Y-64166953D01*
X118426546Y-64163994D01*
X118812971Y-64134356D01*
X118821480Y-64137140D01*
G37*
%TD.AperFunction*%
%TD*%
%TA.AperFunction,Conductor*%
%TO.N,B-*%
G36*
X124002713Y-64007537D02*
G01*
X124002742Y-64007594D01*
X124321492Y-64647905D01*
X124322111Y-64656838D01*
X124319291Y-64661392D01*
X124235448Y-64745235D01*
X124008912Y-64977277D01*
X124000680Y-64980803D01*
X123992367Y-64977476D01*
X123990108Y-64974401D01*
X123602097Y-64209747D01*
X123601411Y-64200820D01*
X123607235Y-64194022D01*
X123986998Y-64002362D01*
X123995926Y-64001695D01*
X124002713Y-64007537D01*
G37*
%TD.AperFunction*%
%TD*%
%TA.AperFunction,Conductor*%
%TO.N,B-*%
G36*
X106051643Y-64098514D02*
G01*
X106535439Y-64277314D01*
X106542011Y-64283396D01*
X106542022Y-64283419D01*
X106764274Y-64769025D01*
X106764601Y-64777974D01*
X106758504Y-64784533D01*
X106758171Y-64784679D01*
X106108702Y-65057840D01*
X105848149Y-65167428D01*
X105842176Y-65169940D01*
X105837640Y-65170855D01*
X105728781Y-65170855D01*
X105720508Y-65167428D01*
X105717081Y-65159155D01*
X105717586Y-65155755D01*
X105982540Y-64283396D01*
X106036393Y-64106086D01*
X106042075Y-64099168D01*
X106050987Y-64098293D01*
X106051643Y-64098514D01*
G37*
%TD.AperFunction*%
%TD*%
%TA.AperFunction,Conductor*%
%TO.N,RESET*%
G36*
X121092743Y-62135836D02*
G01*
X121387112Y-62395724D01*
X121391046Y-62403769D01*
X121388910Y-62411267D01*
X121151998Y-62745072D01*
X121144415Y-62749835D01*
X121142457Y-62750000D01*
X121027543Y-62750000D01*
X121019270Y-62746573D01*
X121018002Y-62745072D01*
X120781089Y-62411267D01*
X120779095Y-62402537D01*
X120782886Y-62395725D01*
X121077257Y-62135835D01*
X121085726Y-62132930D01*
X121092743Y-62135836D01*
G37*
%TD.AperFunction*%
%TD*%
%TA.AperFunction,Conductor*%
%TO.N,VDD_ESP*%
G36*
X106019490Y-70863427D02*
G01*
X106021715Y-70866535D01*
X106076317Y-70977516D01*
X106076895Y-70986452D01*
X106074125Y-70990921D01*
X105963306Y-71102627D01*
X105955047Y-71106087D01*
X105946760Y-71102693D01*
X105946694Y-71102627D01*
X105835874Y-70990921D01*
X105832480Y-70982634D01*
X105833682Y-70977516D01*
X105888285Y-70866535D01*
X105895012Y-70860624D01*
X105898783Y-70860000D01*
X106011217Y-70860000D01*
X106019490Y-70863427D01*
G37*
%TD.AperFunction*%
%TD*%
%TA.AperFunction,Conductor*%
%TO.N,SEL1*%
G36*
X108837950Y-66517445D02*
G01*
X108844271Y-66523788D01*
X108844346Y-66523974D01*
X109235657Y-67521521D01*
X109235488Y-67530475D01*
X109233038Y-67534067D01*
X109154067Y-67613038D01*
X109145794Y-67616465D01*
X109141522Y-67615657D01*
X108705024Y-67444431D01*
X108143974Y-67224346D01*
X108137524Y-67218135D01*
X108137355Y-67209181D01*
X108137430Y-67208995D01*
X108337437Y-66723795D01*
X108343757Y-66717452D01*
X108828996Y-66517430D01*
X108837950Y-66517445D01*
G37*
%TD.AperFunction*%
%TD*%
%TA.AperFunction,Conductor*%
%TO.N,Net-(U8-GPIO9)*%
G36*
X112375593Y-73563427D02*
G01*
X112376984Y-73565104D01*
X112574178Y-73854022D01*
X112576011Y-73862787D01*
X112572259Y-73869388D01*
X112317745Y-74094160D01*
X112309275Y-74097068D01*
X112302255Y-74094160D01*
X112268524Y-74064370D01*
X112047739Y-73869387D01*
X112043807Y-73861343D01*
X112045820Y-73854024D01*
X112243016Y-73565103D01*
X112250511Y-73560203D01*
X112252680Y-73560000D01*
X112367320Y-73560000D01*
X112375593Y-73563427D01*
G37*
%TD.AperFunction*%
%TD*%
%TA.AperFunction,Conductor*%
%TO.N,B+*%
G36*
X123544141Y-78333427D02*
G01*
X123546576Y-78336985D01*
X123752357Y-78804281D01*
X123752555Y-78813233D01*
X123746364Y-78819704D01*
X123746160Y-78819792D01*
X123484511Y-78929115D01*
X123475556Y-78929142D01*
X123475489Y-78929115D01*
X123213839Y-78819792D01*
X123207527Y-78813440D01*
X123207554Y-78804485D01*
X123207642Y-78804281D01*
X123413424Y-78336985D01*
X123419895Y-78330794D01*
X123424132Y-78330000D01*
X123535868Y-78330000D01*
X123544141Y-78333427D01*
G37*
%TD.AperFunction*%
%TD*%
%TA.AperFunction,Conductor*%
%TO.N,BOOT*%
G36*
X112957052Y-63892417D02*
G01*
X113342131Y-64357911D01*
X113344764Y-64366469D01*
X113341389Y-64373641D01*
X113259432Y-64455598D01*
X113258771Y-64456210D01*
X112959542Y-64712575D01*
X112951030Y-64715355D01*
X112943045Y-64711302D01*
X112942525Y-64710650D01*
X112556266Y-64188715D01*
X112554099Y-64180026D01*
X112558711Y-64172350D01*
X112941095Y-63890456D01*
X112949787Y-63888307D01*
X112957052Y-63892417D01*
G37*
%TD.AperFunction*%
%TD*%
%TA.AperFunction,Conductor*%
%TO.N,SPK_DATA1*%
G36*
X112466930Y-66365719D02*
G01*
X112466974Y-66365779D01*
X112889699Y-66940752D01*
X112891838Y-66949447D01*
X112888545Y-66955955D01*
X112807016Y-67037484D01*
X112804407Y-67039449D01*
X112467707Y-67225735D01*
X112458809Y-67226741D01*
X112453770Y-67223770D01*
X111968863Y-66738863D01*
X111965436Y-66730590D01*
X111968863Y-66722317D01*
X111970136Y-66721214D01*
X112450560Y-66363325D01*
X112459239Y-66361132D01*
X112466930Y-66365719D01*
G37*
%TD.AperFunction*%
%TD*%
%TA.AperFunction,Conductor*%
%TO.N,B-*%
G36*
X124777747Y-65103597D02*
G01*
X125253689Y-65288517D01*
X125260160Y-65294708D01*
X125260358Y-65303660D01*
X125260275Y-65303867D01*
X125152563Y-65566184D01*
X125146251Y-65572536D01*
X125146184Y-65572563D01*
X124883867Y-65680275D01*
X124874912Y-65680248D01*
X124868600Y-65673896D01*
X124868517Y-65673689D01*
X124829226Y-65572563D01*
X124683598Y-65197749D01*
X124683796Y-65188799D01*
X124686228Y-65185244D01*
X124765242Y-65106230D01*
X124773514Y-65102804D01*
X124777747Y-65103597D01*
G37*
%TD.AperFunction*%
%TD*%
%TA.AperFunction,Conductor*%
%TO.N,B-*%
G36*
X108015001Y-69748677D02*
G01*
X108615951Y-70043289D01*
X108621870Y-70050006D01*
X108622500Y-70053793D01*
X108622500Y-70169038D01*
X108619528Y-70176829D01*
X108526903Y-70280591D01*
X108518837Y-70284481D01*
X108518175Y-70284500D01*
X108454099Y-70284500D01*
X108377383Y-70299759D01*
X108377382Y-70299760D01*
X108290388Y-70357887D01*
X108290387Y-70357888D01*
X108232260Y-70444882D01*
X108217000Y-70521599D01*
X108217000Y-70623298D01*
X108214028Y-70631089D01*
X108014951Y-70854105D01*
X108006886Y-70857995D01*
X107998829Y-70855380D01*
X107401541Y-70368190D01*
X107397296Y-70360306D01*
X107399870Y-70351729D01*
X107400661Y-70350853D01*
X108001587Y-69750902D01*
X108009863Y-69747483D01*
X108015001Y-69748677D01*
G37*
%TD.AperFunction*%
%TD*%
%TA.AperFunction,Conductor*%
%TO.N,VDD_ESP*%
G36*
X117548033Y-73646145D02*
G01*
X117549331Y-73649845D01*
X117607825Y-73992692D01*
X117606869Y-73999663D01*
X117552930Y-74113699D01*
X117546294Y-74119712D01*
X117537350Y-74119273D01*
X117534080Y-74116969D01*
X117458616Y-74041505D01*
X117455376Y-74035309D01*
X117440686Y-73953805D01*
X117440500Y-73951730D01*
X117440500Y-73949905D01*
X117440953Y-73946679D01*
X117526553Y-73648582D01*
X117532130Y-73641578D01*
X117541027Y-73640567D01*
X117548033Y-73646145D01*
G37*
%TD.AperFunction*%
%TD*%
%TA.AperFunction,Conductor*%
%TO.N,SPK2_DATA*%
G36*
X114323747Y-71054554D02*
G01*
X114588988Y-71123488D01*
X114647427Y-71138676D01*
X114654572Y-71144074D01*
X114655808Y-71152943D01*
X114650410Y-71160088D01*
X114647427Y-71161324D01*
X114323751Y-71245444D01*
X114317972Y-71245471D01*
X114198864Y-71215714D01*
X114191668Y-71210384D01*
X114190000Y-71204363D01*
X114190000Y-71095636D01*
X114193427Y-71087363D01*
X114198862Y-71084285D01*
X114317975Y-71054528D01*
X114323747Y-71054554D01*
G37*
%TD.AperFunction*%
%TD*%
%TA.AperFunction,Conductor*%
%TO.N,Net-(Q1-D)*%
G36*
X120130747Y-75794446D02*
G01*
X120306800Y-75866868D01*
X120462638Y-75930974D01*
X120468985Y-75937290D01*
X120469828Y-75942972D01*
X120415856Y-76476275D01*
X120411613Y-76484161D01*
X120406351Y-76486600D01*
X119923468Y-76576263D01*
X119914708Y-76574404D01*
X119913059Y-76573033D01*
X119833164Y-76493138D01*
X119829737Y-76484865D01*
X119830645Y-76480348D01*
X120115507Y-75800743D01*
X120121865Y-75794439D01*
X120130747Y-75794446D01*
G37*
%TD.AperFunction*%
%TD*%
%TA.AperFunction,Conductor*%
%TO.N,SPK2_P*%
G36*
X106701637Y-72612746D02*
G01*
X106705064Y-72621019D01*
X106705029Y-72621905D01*
X106667417Y-73109712D01*
X106621062Y-73710887D01*
X106617010Y-73718873D01*
X106608498Y-73721653D01*
X106606588Y-73721346D01*
X106124714Y-73602166D01*
X106117507Y-73596854D01*
X105824649Y-73109710D01*
X105823324Y-73100856D01*
X105828330Y-73093856D01*
X106576103Y-72611189D01*
X106582448Y-72609319D01*
X106693364Y-72609319D01*
X106701637Y-72612746D01*
G37*
%TD.AperFunction*%
%TD*%
%TA.AperFunction,Conductor*%
%TO.N,VDD_ESP*%
G36*
X119542649Y-66180726D02*
G01*
X119545919Y-66183030D01*
X119621383Y-66258494D01*
X119624624Y-66264692D01*
X119639314Y-66346193D01*
X119639500Y-66348268D01*
X119639500Y-66350093D01*
X119639046Y-66353322D01*
X119553447Y-66651415D01*
X119547869Y-66658421D01*
X119538972Y-66659432D01*
X119531966Y-66653854D01*
X119530668Y-66650154D01*
X119479474Y-66350093D01*
X119472174Y-66307304D01*
X119473129Y-66300337D01*
X119527071Y-66186297D01*
X119533705Y-66180287D01*
X119542649Y-66180726D01*
G37*
%TD.AperFunction*%
%TD*%
%TA.AperFunction,Conductor*%
%TO.N,B+*%
G36*
X106627950Y-75147445D02*
G01*
X106634271Y-75153788D01*
X106634346Y-75153974D01*
X107025657Y-76151521D01*
X107025488Y-76160475D01*
X107023038Y-76164067D01*
X106944067Y-76243038D01*
X106935794Y-76246465D01*
X106931522Y-76245657D01*
X106495024Y-76074431D01*
X105933974Y-75854346D01*
X105927524Y-75848135D01*
X105927355Y-75839181D01*
X105927430Y-75838995D01*
X106127437Y-75353795D01*
X106133757Y-75347452D01*
X106618996Y-75147430D01*
X106627950Y-75147445D01*
G37*
%TD.AperFunction*%
%TD*%
%TA.AperFunction,Conductor*%
%TO.N,B-*%
G36*
X124115243Y-66545836D02*
G01*
X124409612Y-66805724D01*
X124413546Y-66813769D01*
X124411410Y-66821267D01*
X124174498Y-67155072D01*
X124166915Y-67159835D01*
X124164957Y-67160000D01*
X124050043Y-67160000D01*
X124041770Y-67156573D01*
X124040502Y-67155072D01*
X123803589Y-66821267D01*
X123801595Y-66812537D01*
X123805386Y-66805725D01*
X124099757Y-66545835D01*
X124108226Y-66542930D01*
X124115243Y-66545836D01*
G37*
%TD.AperFunction*%
%TD*%
%TA.AperFunction,Conductor*%
%TO.N,SEL2*%
G36*
X114323747Y-71854554D02*
G01*
X114588988Y-71923488D01*
X114647427Y-71938676D01*
X114654572Y-71944074D01*
X114655808Y-71952943D01*
X114650410Y-71960088D01*
X114647427Y-71961324D01*
X114323751Y-72045444D01*
X114317972Y-72045471D01*
X114198864Y-72015714D01*
X114191668Y-72010384D01*
X114190000Y-72004363D01*
X114190000Y-71895636D01*
X114193427Y-71887363D01*
X114198862Y-71884285D01*
X114317975Y-71854528D01*
X114323747Y-71854554D01*
G37*
%TD.AperFunction*%
%TD*%
%TA.AperFunction,Conductor*%
%TO.N,VDD_ESP*%
G36*
X107533294Y-74873305D02*
G01*
X107533609Y-74873609D01*
X108020155Y-75360155D01*
X108023582Y-75368428D01*
X108020155Y-75376701D01*
X108017942Y-75378436D01*
X107540297Y-75667649D01*
X107531445Y-75669003D01*
X107524229Y-75663701D01*
X107524079Y-75663446D01*
X107135938Y-74979093D01*
X107134838Y-74970208D01*
X107137841Y-74965052D01*
X107218101Y-74884792D01*
X107225935Y-74881374D01*
X107524901Y-74870190D01*
X107533294Y-74873305D01*
G37*
%TD.AperFunction*%
%TD*%
%TA.AperFunction,Conductor*%
%TO.N,VDD_ESP*%
G36*
X114753588Y-68153427D02*
G01*
X114756306Y-68157688D01*
X114787455Y-68243029D01*
X114787072Y-68251976D01*
X114784778Y-68255273D01*
X114698314Y-68342602D01*
X114690058Y-68346070D01*
X114681768Y-68342684D01*
X114681686Y-68342602D01*
X114595221Y-68255273D01*
X114591835Y-68246983D01*
X114592544Y-68243029D01*
X114623694Y-68157688D01*
X114629750Y-68151092D01*
X114634685Y-68150000D01*
X114745315Y-68150000D01*
X114753588Y-68153427D01*
G37*
%TD.AperFunction*%
%TD*%
%TA.AperFunction,Conductor*%
%TO.N,RESET*%
G36*
X120607910Y-63355356D02*
G01*
X120608257Y-63355527D01*
X120833813Y-63471420D01*
X120836737Y-63473553D01*
X120919747Y-63556563D01*
X120923174Y-63564836D01*
X120922308Y-63569254D01*
X120601933Y-64354815D01*
X120595635Y-64361182D01*
X120586681Y-64361231D01*
X120586645Y-64361216D01*
X120208163Y-64205388D01*
X120201817Y-64199069D01*
X120201798Y-64190115D01*
X120202021Y-64189606D01*
X120592340Y-63360953D01*
X120598965Y-63354931D01*
X120607910Y-63355356D01*
G37*
%TD.AperFunction*%
%TD*%
%TA.AperFunction,Conductor*%
%TO.N,B-*%
G36*
X120804155Y-67400930D02*
G01*
X120807466Y-67403253D01*
X120886746Y-67482533D01*
X120890173Y-67490806D01*
X120889474Y-67494790D01*
X120142019Y-69558638D01*
X120135980Y-69565250D01*
X120134309Y-69565882D01*
X118159833Y-70144685D01*
X118150930Y-70143723D01*
X118145314Y-70136748D01*
X118145314Y-70130166D01*
X118724119Y-68155688D01*
X118729734Y-68148715D01*
X118731351Y-68147984D01*
X120795210Y-67400525D01*
X120804155Y-67400930D01*
G37*
%TD.AperFunction*%
%TD*%
%TA.AperFunction,Conductor*%
%TO.N,Net-(U5-GAIN_SLOT)*%
G36*
X107685988Y-68354950D02*
G01*
X107688612Y-68358963D01*
X107761231Y-68544718D01*
X107761480Y-68552535D01*
X107654287Y-68888480D01*
X107648508Y-68895320D01*
X107639584Y-68896069D01*
X107632744Y-68890290D01*
X107632009Y-68888523D01*
X107523892Y-68553643D01*
X107524611Y-68544719D01*
X107524982Y-68544050D01*
X107591559Y-68433321D01*
X107593307Y-68431085D01*
X107669443Y-68354949D01*
X107677715Y-68351523D01*
X107685988Y-68354950D01*
G37*
%TD.AperFunction*%
%TD*%
%TA.AperFunction,Conductor*%
%TO.N,MIC_DATA1*%
G36*
X107037950Y-65917445D02*
G01*
X107044271Y-65923788D01*
X107044346Y-65923974D01*
X107435657Y-66921521D01*
X107435488Y-66930475D01*
X107433038Y-66934067D01*
X107354067Y-67013038D01*
X107345794Y-67016465D01*
X107341522Y-67015657D01*
X106905024Y-66844431D01*
X106343974Y-66624346D01*
X106337524Y-66618135D01*
X106337355Y-66609181D01*
X106337430Y-66608995D01*
X106537437Y-66123795D01*
X106543757Y-66117452D01*
X107028996Y-65917430D01*
X107037950Y-65917445D01*
G37*
%TD.AperFunction*%
%TD*%
%TA.AperFunction,Conductor*%
%TO.N,B-*%
G36*
X107400770Y-70367370D02*
G01*
X107401655Y-70368170D01*
X108001596Y-70969087D01*
X108005016Y-70977363D01*
X108003821Y-70982503D01*
X107709211Y-71583450D01*
X107702493Y-71589370D01*
X107698706Y-71590000D01*
X107583462Y-71590000D01*
X107575671Y-71587028D01*
X107471908Y-71494403D01*
X107468018Y-71486337D01*
X107467999Y-71485675D01*
X107467999Y-71421599D01*
X107452740Y-71344883D01*
X107452739Y-71344882D01*
X107394612Y-71257888D01*
X107394611Y-71257887D01*
X107307617Y-71199760D01*
X107300785Y-71198401D01*
X107230901Y-71184500D01*
X107230900Y-71184500D01*
X107129201Y-71184500D01*
X107121410Y-71181528D01*
X106898394Y-70982451D01*
X106894504Y-70974386D01*
X106897118Y-70966331D01*
X107384310Y-70369040D01*
X107392193Y-70364796D01*
X107400770Y-70367370D01*
G37*
%TD.AperFunction*%
%TD*%
%TA.AperFunction,Conductor*%
%TO.N,B-*%
G36*
X107825514Y-63907554D02*
G01*
X107825718Y-63907642D01*
X108293015Y-64113424D01*
X108299206Y-64119895D01*
X108300000Y-64124132D01*
X108300000Y-64235867D01*
X108296573Y-64244140D01*
X108293015Y-64246575D01*
X107825718Y-64452357D01*
X107816766Y-64452555D01*
X107810295Y-64446364D01*
X107810207Y-64446160D01*
X107726816Y-64246575D01*
X107700883Y-64184509D01*
X107700857Y-64175556D01*
X107700862Y-64175542D01*
X107810208Y-63913837D01*
X107816559Y-63907527D01*
X107825514Y-63907554D01*
G37*
%TD.AperFunction*%
%TD*%
%TA.AperFunction,Conductor*%
%TO.N,BOOT*%
G36*
X112077742Y-62125832D02*
G01*
X112372938Y-62386343D01*
X112376873Y-62394386D01*
X112374900Y-62401652D01*
X112136978Y-62754837D01*
X112129513Y-62759784D01*
X112127274Y-62760000D01*
X112012726Y-62760000D01*
X112004453Y-62756573D01*
X112003022Y-62754837D01*
X111765099Y-62401652D01*
X111763319Y-62392876D01*
X111767060Y-62386344D01*
X112062258Y-62125831D01*
X112070729Y-62122927D01*
X112077742Y-62125832D01*
G37*
%TD.AperFunction*%
%TD*%
%TA.AperFunction,Conductor*%
%TO.N,SEL2*%
G36*
X110394351Y-71705914D02*
G01*
X110967432Y-72029452D01*
X111081913Y-72094083D01*
X111087433Y-72101134D01*
X111086349Y-72110023D01*
X111086182Y-72110309D01*
X110798425Y-72587896D01*
X110791221Y-72593214D01*
X110782366Y-72591879D01*
X110780131Y-72590131D01*
X110293534Y-72103534D01*
X110290107Y-72095261D01*
X110290110Y-72095003D01*
X110296708Y-71796041D01*
X110300131Y-71788028D01*
X110380330Y-71707829D01*
X110388602Y-71704403D01*
X110394351Y-71705914D01*
G37*
%TD.AperFunction*%
%TD*%
%TA.AperFunction,Conductor*%
%TO.N,VDD_ESP*%
G36*
X119548033Y-66746145D02*
G01*
X119549331Y-66749845D01*
X119607825Y-67092692D01*
X119606869Y-67099663D01*
X119552930Y-67213699D01*
X119546294Y-67219712D01*
X119537350Y-67219273D01*
X119534080Y-67216969D01*
X119458616Y-67141505D01*
X119455376Y-67135309D01*
X119440686Y-67053805D01*
X119440500Y-67051730D01*
X119440500Y-67049905D01*
X119440953Y-67046679D01*
X119526553Y-66748582D01*
X119532130Y-66741578D01*
X119541027Y-66740567D01*
X119548033Y-66746145D01*
G37*
%TD.AperFunction*%
%TD*%
%TA.AperFunction,Conductor*%
%TO.N,SPK2_N*%
G36*
X107208319Y-72691152D02*
G01*
X108090994Y-73095030D01*
X108097091Y-73101588D01*
X108096765Y-73110537D01*
X108096663Y-73110755D01*
X107862113Y-73596622D01*
X107855430Y-73602583D01*
X107855407Y-73602591D01*
X107371976Y-73770119D01*
X107363037Y-73769590D01*
X107357090Y-73762895D01*
X107356823Y-73762012D01*
X107082793Y-72704725D01*
X107084035Y-72695858D01*
X107091184Y-72690465D01*
X107094119Y-72690091D01*
X107203451Y-72690091D01*
X107208319Y-72691152D01*
G37*
%TD.AperFunction*%
%TD*%
%TA.AperFunction,Conductor*%
%TO.N,VDD_ESP*%
G36*
X123455078Y-62137810D02*
G01*
X123462205Y-62143231D01*
X123462919Y-62144675D01*
X123588047Y-62449051D01*
X123588023Y-62458006D01*
X123581675Y-62464321D01*
X123581548Y-62464372D01*
X122997623Y-62696488D01*
X122988669Y-62696360D01*
X122985028Y-62693889D01*
X122905905Y-62614766D01*
X122902478Y-62606493D01*
X122903160Y-62602556D01*
X123098886Y-62055057D01*
X123104897Y-62048424D01*
X123112881Y-62047685D01*
X123455078Y-62137810D01*
G37*
%TD.AperFunction*%
%TD*%
%TA.AperFunction,Conductor*%
%TO.N,D-*%
G36*
X123568473Y-76174341D02*
G01*
X124566025Y-76565653D01*
X124572475Y-76571864D01*
X124572644Y-76580818D01*
X124572569Y-76581004D01*
X124372562Y-77066204D01*
X124366241Y-77072547D01*
X124366204Y-77072562D01*
X123881004Y-77272569D01*
X123872049Y-77272554D01*
X123865728Y-77266211D01*
X123865653Y-77266025D01*
X123596865Y-76580818D01*
X123474342Y-76268475D01*
X123474511Y-76259524D01*
X123476958Y-76255935D01*
X123555933Y-76176960D01*
X123564205Y-76173534D01*
X123568473Y-76174341D01*
G37*
%TD.AperFunction*%
%TD*%
%TA.AperFunction,Conductor*%
%TO.N,B-*%
G36*
X124674979Y-71008427D02*
G01*
X124676868Y-71010902D01*
X124888847Y-71382422D01*
X124889971Y-71391306D01*
X124886051Y-71397310D01*
X124617366Y-71615031D01*
X124608781Y-71617577D01*
X124602634Y-71615031D01*
X124333948Y-71397310D01*
X124329678Y-71389439D01*
X124331151Y-71382425D01*
X124543132Y-71010901D01*
X124550208Y-71005414D01*
X124553294Y-71005000D01*
X124666706Y-71005000D01*
X124674979Y-71008427D01*
G37*
%TD.AperFunction*%
%TD*%
%TA.AperFunction,Conductor*%
%TO.N,D-*%
G36*
X119550088Y-73639589D02*
G01*
X119551324Y-73642572D01*
X119635444Y-73966248D01*
X119635471Y-73972027D01*
X119605714Y-74091136D01*
X119600384Y-74098332D01*
X119594363Y-74100000D01*
X119485637Y-74100000D01*
X119477364Y-74096573D01*
X119474286Y-74091136D01*
X119462756Y-74044989D01*
X119444528Y-73972024D01*
X119444554Y-73966252D01*
X119528676Y-73642571D01*
X119534074Y-73635427D01*
X119542943Y-73634191D01*
X119550088Y-73639589D01*
G37*
%TD.AperFunction*%
%TD*%
%TA.AperFunction,Conductor*%
%TO.N,VDD_ESP*%
G36*
X108538227Y-74877182D02*
G01*
X109025995Y-75303004D01*
X109029973Y-75311025D01*
X109030000Y-75311817D01*
X109030000Y-75428182D01*
X109026573Y-75436455D01*
X109025995Y-75436996D01*
X108538228Y-75862816D01*
X108529741Y-75865675D01*
X108522268Y-75862283D01*
X108096130Y-75436996D01*
X108037296Y-75378280D01*
X108033862Y-75370012D01*
X108037280Y-75361735D01*
X108522268Y-74877715D01*
X108530545Y-74874297D01*
X108538227Y-74877182D01*
G37*
%TD.AperFunction*%
%TD*%
%TA.AperFunction,Conductor*%
%TO.N,VDD_ESP*%
G36*
X122480359Y-65979490D02*
G01*
X123089966Y-66225593D01*
X123096354Y-66231866D01*
X123096434Y-66240821D01*
X123096407Y-66240888D01*
X122975897Y-66534165D01*
X122969583Y-66540515D01*
X122967306Y-66541203D01*
X122615637Y-66609522D01*
X122606862Y-66607736D01*
X122602126Y-66601142D01*
X122464701Y-66101523D01*
X122464282Y-66098420D01*
X122464282Y-65990340D01*
X122467709Y-65982067D01*
X122475982Y-65978640D01*
X122480359Y-65979490D01*
G37*
%TD.AperFunction*%
%TD*%
%TA.AperFunction,Conductor*%
%TO.N,CLK2*%
G36*
X111304775Y-70592295D02*
G01*
X111304890Y-70592545D01*
X111703711Y-71484219D01*
X111704731Y-71488996D01*
X111704731Y-71598203D01*
X111701304Y-71606476D01*
X111693031Y-71609903D01*
X111689968Y-71609495D01*
X110769036Y-71359720D01*
X110634749Y-71323298D01*
X110627663Y-71317826D01*
X110626521Y-71308944D01*
X110626774Y-71308130D01*
X110797383Y-70824581D01*
X110803365Y-70817922D01*
X111289185Y-70586756D01*
X111298126Y-70586297D01*
X111304775Y-70592295D01*
G37*
%TD.AperFunction*%
%TD*%
%TA.AperFunction,Conductor*%
%TO.N,B-*%
G36*
X107494693Y-63974661D02*
G01*
X107695426Y-64174452D01*
X107698872Y-64182717D01*
X107697968Y-64187256D01*
X107589050Y-64447935D01*
X107582698Y-64454247D01*
X107575478Y-64454790D01*
X107128815Y-64345679D01*
X107121591Y-64340387D01*
X107119891Y-64334313D01*
X107119891Y-64222715D01*
X107123318Y-64214442D01*
X107125041Y-64213020D01*
X107479889Y-63973259D01*
X107488662Y-63971467D01*
X107494693Y-63974661D01*
G37*
%TD.AperFunction*%
%TD*%
%TA.AperFunction,Conductor*%
%TO.N,CLK2*%
G36*
X110912960Y-70319782D02*
G01*
X110921180Y-70323330D01*
X110924486Y-70331652D01*
X110924128Y-70334359D01*
X110801905Y-70815983D01*
X110796548Y-70823159D01*
X110796508Y-70823183D01*
X110310357Y-71109940D01*
X110301490Y-71111191D01*
X110294335Y-71105806D01*
X110294176Y-71105527D01*
X109905810Y-70403788D01*
X109904803Y-70394893D01*
X109907773Y-70389854D01*
X109987850Y-70309777D01*
X109996122Y-70306351D01*
X109996241Y-70306351D01*
X110912960Y-70319782D01*
G37*
%TD.AperFunction*%
%TD*%
%TA.AperFunction,Conductor*%
%TO.N,Net-(D4-A)*%
G36*
X112554735Y-74864759D02*
G01*
X112893981Y-75053157D01*
X112899549Y-75060169D01*
X112900000Y-75063385D01*
X112900000Y-75176614D01*
X112896573Y-75184887D01*
X112893980Y-75186843D01*
X112554737Y-75375239D01*
X112545841Y-75376259D01*
X112540425Y-75372908D01*
X112316227Y-75127898D01*
X112313170Y-75119482D01*
X112316227Y-75112102D01*
X112360806Y-75063385D01*
X112540426Y-74867090D01*
X112548539Y-74863300D01*
X112554735Y-74864759D01*
G37*
%TD.AperFunction*%
%TD*%
%TA.AperFunction,Conductor*%
%TO.N,VDD_ESP*%
G36*
X121945181Y-72650570D02*
G01*
X121948618Y-72650948D01*
X122079580Y-72665353D01*
X122087428Y-72669664D01*
X122090000Y-72676983D01*
X122090000Y-72785279D01*
X122086573Y-72793552D01*
X122082266Y-72796286D01*
X121979007Y-72833492D01*
X121972540Y-72833915D01*
X121634430Y-72759939D01*
X121627081Y-72754823D01*
X121625501Y-72746008D01*
X121630617Y-72738659D01*
X121633719Y-72737259D01*
X121936673Y-72650948D01*
X121939879Y-72650500D01*
X121943902Y-72650500D01*
X121945181Y-72650570D01*
G37*
%TD.AperFunction*%
%TD*%
%TA.AperFunction,Conductor*%
%TO.N,Net-(U8-XTAL_P)*%
G36*
X115140736Y-64367802D02*
G01*
X115437139Y-64562170D01*
X115442178Y-64569572D01*
X115441516Y-64576471D01*
X115238276Y-65062114D01*
X115231921Y-65068423D01*
X115227483Y-65069297D01*
X115043376Y-65069297D01*
X115035103Y-65065870D01*
X115032422Y-65061708D01*
X114829065Y-64519884D01*
X114829366Y-64510934D01*
X114835044Y-64505183D01*
X115129351Y-64366996D01*
X115138296Y-64366583D01*
X115140736Y-64367802D01*
G37*
%TD.AperFunction*%
%TD*%
%TA.AperFunction,Conductor*%
%TO.N,B-*%
G36*
X124173230Y-65923427D02*
G01*
X124174498Y-65924928D01*
X124411410Y-66258730D01*
X124413404Y-66267460D01*
X124409613Y-66274273D01*
X124115244Y-66534163D01*
X124106774Y-66537069D01*
X124099756Y-66534163D01*
X123805386Y-66274273D01*
X123801453Y-66266228D01*
X123803588Y-66258732D01*
X124040502Y-65924927D01*
X124048085Y-65920165D01*
X124050043Y-65920000D01*
X124164957Y-65920000D01*
X124173230Y-65923427D01*
G37*
%TD.AperFunction*%
%TD*%
%TA.AperFunction,Conductor*%
%TO.N,VDD_ESP*%
G36*
X105960109Y-71120133D02*
G01*
X105960145Y-71120219D01*
X106003019Y-71225753D01*
X106002958Y-71234708D01*
X105998236Y-71240167D01*
X105794358Y-71363541D01*
X105785506Y-71364892D01*
X105780028Y-71361804D01*
X105665589Y-71247365D01*
X105662162Y-71239092D01*
X105665589Y-71230819D01*
X105669367Y-71228291D01*
X105944816Y-71113818D01*
X105953770Y-71113808D01*
X105960109Y-71120133D01*
G37*
%TD.AperFunction*%
%TD*%
%TA.AperFunction,Conductor*%
%TO.N,VDD_ESP*%
G36*
X114698232Y-67957315D02*
G01*
X114698314Y-67957397D01*
X114784778Y-68044726D01*
X114788164Y-68053016D01*
X114787455Y-68056970D01*
X114756306Y-68142312D01*
X114750250Y-68148908D01*
X114745315Y-68150000D01*
X114634685Y-68150000D01*
X114626412Y-68146573D01*
X114623694Y-68142312D01*
X114592544Y-68056970D01*
X114592927Y-68048023D01*
X114595219Y-68044728D01*
X114681686Y-67957396D01*
X114689942Y-67953929D01*
X114698232Y-67957315D01*
G37*
%TD.AperFunction*%
%TD*%
%TA.AperFunction,Conductor*%
%TO.N,B+*%
G36*
X123107747Y-78463597D02*
G01*
X123583689Y-78648517D01*
X123590160Y-78654708D01*
X123590358Y-78663660D01*
X123590275Y-78663867D01*
X123482563Y-78926184D01*
X123476251Y-78932536D01*
X123476184Y-78932563D01*
X123213867Y-79040275D01*
X123204912Y-79040248D01*
X123198600Y-79033896D01*
X123198517Y-79033689D01*
X123159226Y-78932563D01*
X123013598Y-78557749D01*
X123013796Y-78548799D01*
X123016228Y-78545244D01*
X123095242Y-78466230D01*
X123103514Y-78462804D01*
X123107747Y-78463597D01*
G37*
%TD.AperFunction*%
%TD*%
%TA.AperFunction,Conductor*%
%TO.N,Net-(U8-XTAL_P)*%
G36*
X115271835Y-63681146D02*
G01*
X115272190Y-63681486D01*
X115402472Y-63811768D01*
X115405675Y-63817763D01*
X115491618Y-64250790D01*
X115489867Y-64259572D01*
X115483414Y-64264301D01*
X115143863Y-64363215D01*
X115134962Y-64362239D01*
X115130166Y-64357293D01*
X114957071Y-64017501D01*
X114956369Y-64008574D01*
X114958883Y-64004272D01*
X115255306Y-63681839D01*
X115263426Y-63678069D01*
X115271835Y-63681146D01*
G37*
%TD.AperFunction*%
%TD*%
%TA.AperFunction,Conductor*%
%TO.N,CLK2*%
G36*
X114323747Y-71454554D02*
G01*
X114588988Y-71523488D01*
X114647427Y-71538676D01*
X114654572Y-71544074D01*
X114655808Y-71552943D01*
X114650410Y-71560088D01*
X114647427Y-71561324D01*
X114323751Y-71645444D01*
X114317972Y-71645471D01*
X114198864Y-71615714D01*
X114191668Y-71610384D01*
X114190000Y-71604363D01*
X114190000Y-71495636D01*
X114193427Y-71487363D01*
X114198862Y-71484285D01*
X114317975Y-71454528D01*
X114323747Y-71454554D01*
G37*
%TD.AperFunction*%
%TD*%
%TA.AperFunction,Conductor*%
%TO.N,SPK_DATA1*%
G36*
X114323747Y-69454554D02*
G01*
X114588988Y-69523488D01*
X114647427Y-69538676D01*
X114654572Y-69544074D01*
X114655808Y-69552943D01*
X114650410Y-69560088D01*
X114647427Y-69561324D01*
X114323751Y-69645444D01*
X114317972Y-69645471D01*
X114198864Y-69615714D01*
X114191668Y-69610384D01*
X114190000Y-69604363D01*
X114190000Y-69495636D01*
X114193427Y-69487363D01*
X114198862Y-69484285D01*
X114317975Y-69454528D01*
X114323747Y-69454554D01*
G37*
%TD.AperFunction*%
%TD*%
%TA.AperFunction,Conductor*%
%TO.N,SPK2_DATA*%
G36*
X110317119Y-68497105D02*
G01*
X110802417Y-68981434D01*
X110805852Y-68989703D01*
X110802433Y-68997980D01*
X110802133Y-68998270D01*
X110318023Y-69449866D01*
X110309636Y-69453004D01*
X110302016Y-69449824D01*
X109813674Y-68989463D01*
X109810005Y-68981295D01*
X109810000Y-68980950D01*
X109810000Y-68864906D01*
X109813427Y-68856633D01*
X109814753Y-68855492D01*
X110301908Y-68495971D01*
X110310598Y-68493817D01*
X110317119Y-68497105D01*
G37*
%TD.AperFunction*%
%TD*%
%TA.AperFunction,Conductor*%
%TO.N,B-*%
G36*
X108757590Y-63787571D02*
G01*
X109142696Y-64171717D01*
X109146133Y-64179985D01*
X109142716Y-64188263D01*
X109142696Y-64188283D01*
X108757590Y-64572428D01*
X108749312Y-64575845D01*
X108741795Y-64573098D01*
X108354168Y-64247006D01*
X108350043Y-64239058D01*
X108350000Y-64238053D01*
X108350000Y-64121946D01*
X108353427Y-64113673D01*
X108354159Y-64113001D01*
X108741797Y-63786900D01*
X108750332Y-63784197D01*
X108757590Y-63787571D01*
G37*
%TD.AperFunction*%
%TD*%
%TA.AperFunction,Conductor*%
%TO.N,VDD_ESP*%
G36*
X121223747Y-72654554D02*
G01*
X121488988Y-72723488D01*
X121547427Y-72738676D01*
X121554572Y-72744074D01*
X121555808Y-72752943D01*
X121550410Y-72760088D01*
X121547427Y-72761324D01*
X121223751Y-72845444D01*
X121217972Y-72845471D01*
X121098864Y-72815714D01*
X121091668Y-72810384D01*
X121090000Y-72804363D01*
X121090000Y-72695636D01*
X121093427Y-72687363D01*
X121098862Y-72684285D01*
X121217975Y-72654528D01*
X121223747Y-72654554D01*
G37*
%TD.AperFunction*%
%TD*%
%TA.AperFunction,Conductor*%
%TO.N,B-*%
G36*
X118422819Y-64166682D02*
G01*
X118715814Y-64277639D01*
X118722337Y-64283774D01*
X118722612Y-64292725D01*
X118722510Y-64292984D01*
X118483484Y-64881396D01*
X118477195Y-64887772D01*
X118472644Y-64888693D01*
X118360835Y-64888693D01*
X118352562Y-64885266D01*
X118350316Y-64882116D01*
X118349965Y-64881396D01*
X118111383Y-64391569D01*
X118110841Y-64382631D01*
X118115167Y-64376879D01*
X118411946Y-64168055D01*
X118420683Y-64166098D01*
X118422819Y-64166682D01*
G37*
%TD.AperFunction*%
%TD*%
%TA.AperFunction,Conductor*%
%TO.N,VDD_ESP*%
G36*
X123399388Y-72467740D02*
G01*
X123624160Y-72722255D01*
X123627068Y-72730725D01*
X123624160Y-72737745D01*
X123399388Y-72992259D01*
X123391343Y-72996192D01*
X123384022Y-72994178D01*
X123095104Y-72796983D01*
X123090203Y-72789488D01*
X123090000Y-72787319D01*
X123090000Y-72672680D01*
X123093427Y-72664407D01*
X123095101Y-72663018D01*
X123384024Y-72465820D01*
X123392787Y-72463988D01*
X123399388Y-72467740D01*
G37*
%TD.AperFunction*%
%TD*%
%TA.AperFunction,Conductor*%
%TO.N,Net-(D3-A)*%
G36*
X123932261Y-71520644D02*
G01*
X123938223Y-71527326D01*
X123938421Y-71527946D01*
X124098427Y-72083904D01*
X124097422Y-72092802D01*
X124095456Y-72095413D01*
X124016441Y-72174428D01*
X124008168Y-72177855D01*
X124003029Y-72176666D01*
X123528475Y-71944669D01*
X123522548Y-71937957D01*
X123522659Y-71930048D01*
X123637368Y-71624420D01*
X123643482Y-71617880D01*
X123644456Y-71617490D01*
X123923321Y-71520136D01*
X123932261Y-71520644D01*
G37*
%TD.AperFunction*%
%TD*%
%TA.AperFunction,Conductor*%
%TO.N,MIC_DATA2*%
G36*
X114323747Y-72254554D02*
G01*
X114588988Y-72323488D01*
X114647427Y-72338676D01*
X114654572Y-72344074D01*
X114655808Y-72352943D01*
X114650410Y-72360088D01*
X114647427Y-72361324D01*
X114323751Y-72445444D01*
X114317972Y-72445471D01*
X114198864Y-72415714D01*
X114191668Y-72410384D01*
X114190000Y-72404363D01*
X114190000Y-72295636D01*
X114193427Y-72287363D01*
X114198862Y-72284285D01*
X114317975Y-72254528D01*
X114323747Y-72254554D01*
G37*
%TD.AperFunction*%
%TD*%
%TA.AperFunction,Conductor*%
%TO.N,VDD_ESP*%
G36*
X106523421Y-68803374D02*
G01*
X106635127Y-68914194D01*
X106638587Y-68922453D01*
X106635193Y-68930740D01*
X106635127Y-68930806D01*
X106523421Y-69041625D01*
X106515134Y-69045019D01*
X106510016Y-69043817D01*
X106399035Y-68989215D01*
X106393124Y-68982488D01*
X106392500Y-68978717D01*
X106392500Y-68866282D01*
X106395927Y-68858009D01*
X106399031Y-68855786D01*
X106510016Y-68801181D01*
X106518952Y-68800604D01*
X106523421Y-68803374D01*
G37*
%TD.AperFunction*%
%TD*%
%TA.AperFunction,Conductor*%
%TO.N,B-*%
G36*
X106128267Y-67522576D02*
G01*
X106134522Y-67528790D01*
X106343214Y-68019235D01*
X106343300Y-68028189D01*
X106340721Y-68032089D01*
X106261768Y-68111042D01*
X106253495Y-68114469D01*
X106249504Y-68113767D01*
X105807530Y-67953399D01*
X105800922Y-67947356D01*
X105800028Y-67940210D01*
X105858106Y-67635515D01*
X105863021Y-67628032D01*
X105865147Y-67626889D01*
X106119316Y-67522548D01*
X106128267Y-67522576D01*
G37*
%TD.AperFunction*%
%TD*%
%TA.AperFunction,Conductor*%
%TO.N,SPK2_N*%
G36*
X107152904Y-71829459D02*
G01*
X107153641Y-71831237D01*
X107261549Y-72167699D01*
X107261462Y-72175106D01*
X107208728Y-72327134D01*
X107202779Y-72333828D01*
X107197674Y-72335000D01*
X107087326Y-72335000D01*
X107079053Y-72331573D01*
X107076272Y-72327134D01*
X107023537Y-72175106D01*
X107023450Y-72167701D01*
X107131359Y-71831236D01*
X107137149Y-71824406D01*
X107146073Y-71823669D01*
X107152904Y-71829459D01*
G37*
%TD.AperFunction*%
%TD*%
%TA.AperFunction,Conductor*%
%TO.N,SPK2_DATA*%
G36*
X108274983Y-68801182D02*
G01*
X108310295Y-68818555D01*
X108385966Y-68855785D01*
X108391876Y-68862511D01*
X108392500Y-68866282D01*
X108392500Y-68978717D01*
X108389073Y-68986990D01*
X108385965Y-68989215D01*
X108274983Y-69043817D01*
X108266047Y-69044395D01*
X108261578Y-69041625D01*
X108205508Y-68986000D01*
X108149871Y-68930805D01*
X108146412Y-68922547D01*
X108149806Y-68914260D01*
X108149872Y-68914194D01*
X108261579Y-68803373D01*
X108269865Y-68799980D01*
X108274983Y-68801182D01*
G37*
%TD.AperFunction*%
%TD*%
%TA.AperFunction,Conductor*%
%TO.N,B-*%
G36*
X124101983Y-68758106D02*
G01*
X124109468Y-68763022D01*
X124110614Y-68765151D01*
X124231452Y-69059164D01*
X124231427Y-69068119D01*
X124225078Y-69074434D01*
X124225064Y-69074439D01*
X123652769Y-69308787D01*
X123643814Y-69308751D01*
X123640062Y-69306233D01*
X123560940Y-69227111D01*
X123557513Y-69218838D01*
X123558155Y-69215015D01*
X123608296Y-69070000D01*
X123736693Y-68698656D01*
X123742635Y-68691959D01*
X123749940Y-68690988D01*
X124101983Y-68758106D01*
G37*
%TD.AperFunction*%
%TD*%
%TA.AperFunction,Conductor*%
%TO.N,B-*%
G36*
X107209329Y-69132972D02*
G01*
X107242209Y-69162322D01*
X107313091Y-69225596D01*
X107316981Y-69233660D01*
X107317000Y-69234323D01*
X107317000Y-69298400D01*
X107332259Y-69375116D01*
X107332260Y-69375117D01*
X107390388Y-69462112D01*
X107477383Y-69520240D01*
X107554099Y-69535500D01*
X107655799Y-69535499D01*
X107663589Y-69538471D01*
X107886605Y-69737548D01*
X107890495Y-69745613D01*
X107887880Y-69753671D01*
X107400690Y-70350958D01*
X107392806Y-70355203D01*
X107384229Y-70352629D01*
X107383344Y-70351829D01*
X106783403Y-69750912D01*
X106779983Y-69742636D01*
X106781177Y-69737499D01*
X107075789Y-69136550D01*
X107082507Y-69130630D01*
X107086294Y-69130000D01*
X107201538Y-69130000D01*
X107209329Y-69132972D01*
G37*
%TD.AperFunction*%
%TD*%
%TA.AperFunction,Conductor*%
%TO.N,Net-(U8-XTAL_N)*%
G36*
X117419004Y-63444980D02*
G01*
X117818348Y-63532140D01*
X117825700Y-63537252D01*
X117827484Y-63544837D01*
X117771136Y-64062454D01*
X117766834Y-64070308D01*
X117759505Y-64072888D01*
X117574597Y-64072888D01*
X117566633Y-64069759D01*
X117133304Y-63667115D01*
X117129576Y-63658973D01*
X117132697Y-63650580D01*
X117134338Y-63649118D01*
X117409598Y-63446983D01*
X117418294Y-63444849D01*
X117419004Y-63444980D01*
G37*
%TD.AperFunction*%
%TD*%
%TA.AperFunction,Conductor*%
%TO.N,B-*%
G36*
X119684089Y-61838254D02*
G01*
X119943774Y-62122102D01*
X119946830Y-62130520D01*
X119943774Y-62137898D01*
X119684089Y-62421745D01*
X119675977Y-62425535D01*
X119670321Y-62424359D01*
X119279064Y-62233206D01*
X119273135Y-62226496D01*
X119272500Y-62222694D01*
X119272500Y-62037305D01*
X119275927Y-62029032D01*
X119279064Y-62026793D01*
X119670322Y-61835639D01*
X119679259Y-61835087D01*
X119684089Y-61838254D01*
G37*
%TD.AperFunction*%
%TD*%
%TA.AperFunction,Conductor*%
%TO.N,B-*%
G36*
X124173230Y-68143427D02*
G01*
X124174498Y-68144928D01*
X124411410Y-68478730D01*
X124413404Y-68487460D01*
X124409613Y-68494273D01*
X124115244Y-68754163D01*
X124106774Y-68757069D01*
X124099756Y-68754163D01*
X123805386Y-68494273D01*
X123801453Y-68486228D01*
X123803588Y-68478732D01*
X124040502Y-68144927D01*
X124048085Y-68140165D01*
X124050043Y-68140000D01*
X124164957Y-68140000D01*
X124173230Y-68143427D01*
G37*
%TD.AperFunction*%
%TD*%
%TA.AperFunction,Conductor*%
%TO.N,D+*%
G36*
X123887076Y-74867076D02*
G01*
X124371604Y-75351604D01*
X124375031Y-75359877D01*
X124371604Y-75368150D01*
X124370779Y-75368901D01*
X123888821Y-75766681D01*
X123880259Y-75769304D01*
X123872520Y-75765307D01*
X123415435Y-75236355D01*
X123412619Y-75227855D01*
X123416014Y-75220433D01*
X123497486Y-75138961D01*
X123498855Y-75137790D01*
X123871913Y-74865893D01*
X123880616Y-74863790D01*
X123887076Y-74867076D01*
G37*
%TD.AperFunction*%
%TD*%
%TA.AperFunction,Conductor*%
%TO.N,VDD_ESP*%
G36*
X123815990Y-62048893D02*
G01*
X123821114Y-62055061D01*
X124016838Y-62602554D01*
X124016396Y-62611498D01*
X124014094Y-62614766D01*
X123934971Y-62693889D01*
X123926698Y-62697316D01*
X123922376Y-62696488D01*
X123338451Y-62464372D01*
X123332029Y-62458132D01*
X123331901Y-62449178D01*
X123331906Y-62449164D01*
X123457080Y-62144674D01*
X123463395Y-62138327D01*
X123464911Y-62137813D01*
X123807118Y-62047686D01*
X123815990Y-62048893D01*
G37*
%TD.AperFunction*%
%TD*%
%TA.AperFunction,Conductor*%
%TO.N,B-*%
G36*
X119684532Y-61838738D02*
G01*
X119943774Y-62122102D01*
X119946830Y-62130520D01*
X119943774Y-62137898D01*
X119684532Y-62421261D01*
X119676420Y-62425051D01*
X119670041Y-62423490D01*
X119278341Y-62196879D01*
X119272896Y-62189770D01*
X119272500Y-62186752D01*
X119272500Y-62073247D01*
X119275927Y-62064974D01*
X119278336Y-62063123D01*
X119670043Y-61836508D01*
X119678918Y-61835332D01*
X119684532Y-61838738D01*
G37*
%TD.AperFunction*%
%TD*%
%TA.AperFunction,Conductor*%
%TO.N,VDD_ESP*%
G36*
X115841976Y-66602927D02*
G01*
X115845273Y-66605221D01*
X115932602Y-66691686D01*
X115936070Y-66699942D01*
X115932684Y-66708232D01*
X115932602Y-66708314D01*
X115845273Y-66794778D01*
X115836983Y-66798164D01*
X115833029Y-66797455D01*
X115747688Y-66766306D01*
X115741092Y-66760250D01*
X115740000Y-66755315D01*
X115740000Y-66644684D01*
X115743427Y-66636411D01*
X115747684Y-66633695D01*
X115833030Y-66602544D01*
X115841976Y-66602927D01*
G37*
%TD.AperFunction*%
%TD*%
%TA.AperFunction,Conductor*%
%TO.N,B-*%
G36*
X105842689Y-67043427D02*
G01*
X105843512Y-67044341D01*
X106084469Y-67342138D01*
X106087008Y-67350725D01*
X106084426Y-67356909D01*
X105867831Y-67621435D01*
X105859938Y-67625665D01*
X105851366Y-67623076D01*
X105850880Y-67622655D01*
X105605800Y-67398393D01*
X105602009Y-67390279D01*
X105602550Y-67386208D01*
X105710402Y-67048144D01*
X105716182Y-67041304D01*
X105721549Y-67040000D01*
X105834416Y-67040000D01*
X105842689Y-67043427D01*
G37*
%TD.AperFunction*%
%TD*%
%TA.AperFunction,Conductor*%
%TO.N,B-*%
G36*
X117202636Y-66203427D02*
G01*
X117205714Y-66208864D01*
X117235471Y-66327972D01*
X117235444Y-66333751D01*
X117151324Y-66657427D01*
X117145926Y-66664572D01*
X117137057Y-66665808D01*
X117129912Y-66660410D01*
X117128676Y-66657427D01*
X117113488Y-66598988D01*
X117044554Y-66333747D01*
X117044528Y-66327975D01*
X117074286Y-66208864D01*
X117079616Y-66201668D01*
X117085637Y-66200000D01*
X117194363Y-66200000D01*
X117202636Y-66203427D01*
G37*
%TD.AperFunction*%
%TD*%
%TA.AperFunction,Conductor*%
%TO.N,Net-(U5-GAIN_SLOT)*%
G36*
X107148267Y-67522576D02*
G01*
X107154522Y-67528790D01*
X107363214Y-68019235D01*
X107363300Y-68028189D01*
X107360721Y-68032089D01*
X107281768Y-68111042D01*
X107273495Y-68114469D01*
X107269504Y-68113767D01*
X106827530Y-67953399D01*
X106820922Y-67947356D01*
X106820028Y-67940210D01*
X106878106Y-67635515D01*
X106883021Y-67628032D01*
X106885147Y-67626889D01*
X107139316Y-67522548D01*
X107148267Y-67522576D01*
G37*
%TD.AperFunction*%
%TD*%
%TA.AperFunction,Conductor*%
%TO.N,RESET*%
G36*
X120630266Y-61581211D02*
G01*
X121202565Y-61815560D01*
X121208922Y-61821866D01*
X121208958Y-61830821D01*
X121208953Y-61830835D01*
X121088114Y-62124848D01*
X121081799Y-62131197D01*
X121079483Y-62131893D01*
X120727441Y-62199010D01*
X120718673Y-62197193D01*
X120714192Y-62191340D01*
X120693637Y-62131893D01*
X120535655Y-61674984D01*
X120536191Y-61666046D01*
X120538437Y-61662891D01*
X120617563Y-61583765D01*
X120625835Y-61580339D01*
X120630266Y-61581211D01*
G37*
%TD.AperFunction*%
%TD*%
M02*
