%TF.GenerationSoftware,KiCad,Pcbnew,8.0.3*%
%TF.CreationDate,2025-03-09T13:34:34-05:00*%
%TF.ProjectId,HearingAid_RightV3,48656172-696e-4674-9169-645f52696768,rev?*%
%TF.SameCoordinates,Original*%
%TF.FileFunction,Legend,Top*%
%TF.FilePolarity,Positive*%
%FSLAX46Y46*%
G04 Gerber Fmt 4.6, Leading zero omitted, Abs format (unit mm)*
G04 Created by KiCad (PCBNEW 8.0.3) date 2025-03-09 13:34:34*
%MOMM*%
%LPD*%
G01*
G04 APERTURE LIST*
G04 Aperture macros list*
%AMRoundRect*
0 Rectangle with rounded corners*
0 $1 Rounding radius*
0 $2 $3 $4 $5 $6 $7 $8 $9 X,Y pos of 4 corners*
0 Add a 4 corners polygon primitive as box body*
4,1,4,$2,$3,$4,$5,$6,$7,$8,$9,$2,$3,0*
0 Add four circle primitives for the rounded corners*
1,1,$1+$1,$2,$3*
1,1,$1+$1,$4,$5*
1,1,$1+$1,$6,$7*
1,1,$1+$1,$8,$9*
0 Add four rect primitives between the rounded corners*
20,1,$1+$1,$2,$3,$4,$5,0*
20,1,$1+$1,$4,$5,$6,$7,0*
20,1,$1+$1,$6,$7,$8,$9,0*
20,1,$1+$1,$8,$9,$2,$3,0*%
G04 Aperture macros list end*
%ADD10C,0.080000*%
%ADD11C,0.125000*%
%ADD12C,0.150000*%
%ADD13C,0.100000*%
%ADD14C,0.120000*%
%ADD15C,0.127000*%
%ADD16C,0.200000*%
%ADD17C,0.000000*%
%ADD18R,1.000000X1.000000*%
%ADD19RoundRect,0.135000X-0.135000X-0.185000X0.135000X-0.185000X0.135000X0.185000X-0.135000X0.185000X0*%
%ADD20RoundRect,0.062500X-0.062500X0.350000X-0.062500X-0.350000X0.062500X-0.350000X0.062500X0.350000X0*%
%ADD21RoundRect,0.062500X-0.350000X0.062500X-0.350000X-0.062500X0.350000X-0.062500X0.350000X0.062500X0*%
%ADD22R,1.230000X1.230000*%
%ADD23RoundRect,0.102000X-0.400000X-0.850000X0.400000X-0.850000X0.400000X0.850000X-0.400000X0.850000X0*%
%ADD24RoundRect,0.155000X0.023164X0.262001X-0.256555X-0.057970X-0.023164X-0.262001X0.256555X0.057970X0*%
%ADD25RoundRect,0.160000X0.197500X0.160000X-0.197500X0.160000X-0.197500X-0.160000X0.197500X-0.160000X0*%
%ADD26RoundRect,0.147500X0.147500X0.172500X-0.147500X0.172500X-0.147500X-0.172500X0.147500X-0.172500X0*%
%ADD27RoundRect,0.102000X0.350000X0.550000X-0.350000X0.550000X-0.350000X-0.550000X0.350000X-0.550000X0*%
%ADD28RoundRect,0.102000X0.500000X0.400000X-0.500000X0.400000X-0.500000X-0.400000X0.500000X-0.400000X0*%
%ADD29RoundRect,0.155000X0.212500X0.155000X-0.212500X0.155000X-0.212500X-0.155000X0.212500X-0.155000X0*%
%ADD30RoundRect,0.050000X-0.350000X-0.050000X0.350000X-0.050000X0.350000X0.050000X-0.350000X0.050000X0*%
%ADD31RoundRect,0.050000X-0.050000X-0.350000X0.050000X-0.350000X0.050000X0.350000X-0.050000X0.350000X0*%
%ADD32R,4.000000X4.000000*%
%ADD33RoundRect,0.155000X-0.212500X-0.155000X0.212500X-0.155000X0.212500X0.155000X-0.212500X0.155000X0*%
%ADD34RoundRect,0.102000X0.400000X0.850000X-0.400000X0.850000X-0.400000X-0.850000X0.400000X-0.850000X0*%
%ADD35RoundRect,0.135000X0.135000X0.185000X-0.135000X0.185000X-0.135000X-0.185000X0.135000X-0.185000X0*%
%ADD36RoundRect,0.160000X-0.197500X-0.160000X0.197500X-0.160000X0.197500X0.160000X-0.197500X0.160000X0*%
%ADD37RoundRect,0.147500X-0.172500X0.147500X-0.172500X-0.147500X0.172500X-0.147500X0.172500X0.147500X0*%
%ADD38RoundRect,0.135000X0.185000X-0.135000X0.185000X0.135000X-0.185000X0.135000X-0.185000X-0.135000X0*%
%ADD39RoundRect,0.102000X-0.061580X0.509247X-0.512280X-0.026355X0.061580X-0.509247X0.512280X0.026355X0*%
%ADD40RoundRect,0.155000X-0.262417X0.017855X0.063152X-0.255329X0.262417X-0.017855X-0.063152X0.255329X0*%
G04 APERTURE END LIST*
D10*
X108187438Y-78171317D02*
X108425533Y-78171317D01*
X108139819Y-78399889D02*
X108306485Y-77599889D01*
X108306485Y-77599889D02*
X108473152Y-78399889D01*
X108592199Y-77866555D02*
X108711247Y-78399889D01*
X108711247Y-78399889D02*
X108830294Y-77866555D01*
X109211246Y-78361794D02*
X109163627Y-78399889D01*
X109163627Y-78399889D02*
X109068389Y-78399889D01*
X109068389Y-78399889D02*
X109020770Y-78361794D01*
X109020770Y-78361794D02*
X108996961Y-78285603D01*
X108996961Y-78285603D02*
X108996961Y-77980841D01*
X108996961Y-77980841D02*
X109020770Y-77904651D01*
X109020770Y-77904651D02*
X109068389Y-77866555D01*
X109068389Y-77866555D02*
X109163627Y-77866555D01*
X109163627Y-77866555D02*
X109211246Y-77904651D01*
X109211246Y-77904651D02*
X109235056Y-77980841D01*
X109235056Y-77980841D02*
X109235056Y-78057032D01*
X109235056Y-78057032D02*
X108996961Y-78133222D01*
X109449341Y-78399889D02*
X109449341Y-77866555D01*
X109449341Y-78018936D02*
X109473151Y-77942746D01*
X109473151Y-77942746D02*
X109496960Y-77904651D01*
X109496960Y-77904651D02*
X109544579Y-77866555D01*
X109544579Y-77866555D02*
X109592198Y-77866555D01*
X109711246Y-77866555D02*
X109830294Y-78399889D01*
X109949341Y-77866555D02*
X109830294Y-78399889D01*
X109830294Y-78399889D02*
X109782675Y-78590365D01*
X109782675Y-78590365D02*
X109758865Y-78628460D01*
X109758865Y-78628460D02*
X109711246Y-78666555D01*
X110496960Y-78171317D02*
X110735055Y-78171317D01*
X110449341Y-78399889D02*
X110616007Y-77599889D01*
X110616007Y-77599889D02*
X110782674Y-78399889D01*
X110877912Y-77866555D02*
X111068388Y-77866555D01*
X110949340Y-77599889D02*
X110949340Y-78285603D01*
X110949340Y-78285603D02*
X110973150Y-78361794D01*
X110973150Y-78361794D02*
X111020769Y-78399889D01*
X111020769Y-78399889D02*
X111068388Y-78399889D01*
X111449340Y-78361794D02*
X111401721Y-78399889D01*
X111401721Y-78399889D02*
X111306483Y-78399889D01*
X111306483Y-78399889D02*
X111258864Y-78361794D01*
X111258864Y-78361794D02*
X111235054Y-78323698D01*
X111235054Y-78323698D02*
X111211245Y-78247508D01*
X111211245Y-78247508D02*
X111211245Y-78018936D01*
X111211245Y-78018936D02*
X111235054Y-77942746D01*
X111235054Y-77942746D02*
X111258864Y-77904651D01*
X111258864Y-77904651D02*
X111306483Y-77866555D01*
X111306483Y-77866555D02*
X111401721Y-77866555D01*
X111401721Y-77866555D02*
X111449340Y-77904651D01*
X111663625Y-78399889D02*
X111663625Y-77599889D01*
X111877911Y-78399889D02*
X111877911Y-77980841D01*
X111877911Y-77980841D02*
X111854101Y-77904651D01*
X111854101Y-77904651D02*
X111806482Y-77866555D01*
X111806482Y-77866555D02*
X111735054Y-77866555D01*
X111735054Y-77866555D02*
X111687435Y-77904651D01*
X111687435Y-77904651D02*
X111663625Y-77942746D01*
X112187435Y-78399889D02*
X112139816Y-78361794D01*
X112139816Y-78361794D02*
X112116006Y-78285603D01*
X112116006Y-78285603D02*
X112116006Y-77599889D01*
X112568387Y-78361794D02*
X112520768Y-78399889D01*
X112520768Y-78399889D02*
X112425530Y-78399889D01*
X112425530Y-78399889D02*
X112377911Y-78361794D01*
X112377911Y-78361794D02*
X112354102Y-78285603D01*
X112354102Y-78285603D02*
X112354102Y-77980841D01*
X112354102Y-77980841D02*
X112377911Y-77904651D01*
X112377911Y-77904651D02*
X112425530Y-77866555D01*
X112425530Y-77866555D02*
X112520768Y-77866555D01*
X112520768Y-77866555D02*
X112568387Y-77904651D01*
X112568387Y-77904651D02*
X112592197Y-77980841D01*
X112592197Y-77980841D02*
X112592197Y-78057032D01*
X112592197Y-78057032D02*
X112354102Y-78133222D01*
X112758863Y-77866555D02*
X112877911Y-78399889D01*
X112996958Y-77866555D02*
X112877911Y-78399889D01*
X112877911Y-78399889D02*
X112830292Y-78590365D01*
X112830292Y-78590365D02*
X112806482Y-78628460D01*
X112806482Y-78628460D02*
X112758863Y-78666555D01*
X108211247Y-79687844D02*
X108211247Y-78887844D01*
X108211247Y-78887844D02*
X108401723Y-78887844D01*
X108401723Y-78887844D02*
X108449342Y-78925939D01*
X108449342Y-78925939D02*
X108473152Y-78964034D01*
X108473152Y-78964034D02*
X108496961Y-79040225D01*
X108496961Y-79040225D02*
X108496961Y-79154510D01*
X108496961Y-79154510D02*
X108473152Y-79230701D01*
X108473152Y-79230701D02*
X108449342Y-79268796D01*
X108449342Y-79268796D02*
X108401723Y-79306891D01*
X108401723Y-79306891D02*
X108211247Y-79306891D01*
X108782676Y-79687844D02*
X108735057Y-79649749D01*
X108735057Y-79649749D02*
X108711247Y-79573558D01*
X108711247Y-79573558D02*
X108711247Y-78887844D01*
X109187438Y-79687844D02*
X109187438Y-79268796D01*
X109187438Y-79268796D02*
X109163628Y-79192606D01*
X109163628Y-79192606D02*
X109116009Y-79154510D01*
X109116009Y-79154510D02*
X109020771Y-79154510D01*
X109020771Y-79154510D02*
X108973152Y-79192606D01*
X109187438Y-79649749D02*
X109139819Y-79687844D01*
X109139819Y-79687844D02*
X109020771Y-79687844D01*
X109020771Y-79687844D02*
X108973152Y-79649749D01*
X108973152Y-79649749D02*
X108949343Y-79573558D01*
X108949343Y-79573558D02*
X108949343Y-79497368D01*
X108949343Y-79497368D02*
X108973152Y-79421177D01*
X108973152Y-79421177D02*
X109020771Y-79383082D01*
X109020771Y-79383082D02*
X109139819Y-79383082D01*
X109139819Y-79383082D02*
X109187438Y-79344987D01*
X109425533Y-79154510D02*
X109425533Y-79687844D01*
X109425533Y-79230701D02*
X109449343Y-79192606D01*
X109449343Y-79192606D02*
X109496962Y-79154510D01*
X109496962Y-79154510D02*
X109568390Y-79154510D01*
X109568390Y-79154510D02*
X109616009Y-79192606D01*
X109616009Y-79192606D02*
X109639819Y-79268796D01*
X109639819Y-79268796D02*
X109639819Y-79687844D01*
X110258866Y-79687844D02*
X110258866Y-78887844D01*
X110496961Y-79687844D02*
X110496961Y-78887844D01*
X111044580Y-78887844D02*
X111330294Y-78887844D01*
X111187437Y-79687844D02*
X111187437Y-78887844D01*
X111496960Y-79687844D02*
X111496960Y-78887844D01*
X111711246Y-79687844D02*
X111711246Y-79268796D01*
X111711246Y-79268796D02*
X111687436Y-79192606D01*
X111687436Y-79192606D02*
X111639817Y-79154510D01*
X111639817Y-79154510D02*
X111568389Y-79154510D01*
X111568389Y-79154510D02*
X111520770Y-79192606D01*
X111520770Y-79192606D02*
X111496960Y-79230701D01*
X112139817Y-79649749D02*
X112092198Y-79687844D01*
X112092198Y-79687844D02*
X111996960Y-79687844D01*
X111996960Y-79687844D02*
X111949341Y-79649749D01*
X111949341Y-79649749D02*
X111925532Y-79573558D01*
X111925532Y-79573558D02*
X111925532Y-79268796D01*
X111925532Y-79268796D02*
X111949341Y-79192606D01*
X111949341Y-79192606D02*
X111996960Y-79154510D01*
X111996960Y-79154510D02*
X112092198Y-79154510D01*
X112092198Y-79154510D02*
X112139817Y-79192606D01*
X112139817Y-79192606D02*
X112163627Y-79268796D01*
X112163627Y-79268796D02*
X112163627Y-79344987D01*
X112163627Y-79344987D02*
X111925532Y-79421177D01*
X112354103Y-79649749D02*
X112401722Y-79687844D01*
X112401722Y-79687844D02*
X112496960Y-79687844D01*
X112496960Y-79687844D02*
X112544579Y-79649749D01*
X112544579Y-79649749D02*
X112568388Y-79573558D01*
X112568388Y-79573558D02*
X112568388Y-79535463D01*
X112568388Y-79535463D02*
X112544579Y-79459272D01*
X112544579Y-79459272D02*
X112496960Y-79421177D01*
X112496960Y-79421177D02*
X112425531Y-79421177D01*
X112425531Y-79421177D02*
X112377912Y-79383082D01*
X112377912Y-79383082D02*
X112354103Y-79306891D01*
X112354103Y-79306891D02*
X112354103Y-79268796D01*
X112354103Y-79268796D02*
X112377912Y-79192606D01*
X112377912Y-79192606D02*
X112425531Y-79154510D01*
X112425531Y-79154510D02*
X112496960Y-79154510D01*
X112496960Y-79154510D02*
X112544579Y-79192606D01*
X112782674Y-79687844D02*
X112782674Y-79154510D01*
X112782674Y-78887844D02*
X112758865Y-78925939D01*
X112758865Y-78925939D02*
X112782674Y-78964034D01*
X112782674Y-78964034D02*
X112806484Y-78925939D01*
X112806484Y-78925939D02*
X112782674Y-78887844D01*
X112782674Y-78887844D02*
X112782674Y-78964034D01*
X112996960Y-79649749D02*
X113044579Y-79687844D01*
X113044579Y-79687844D02*
X113139817Y-79687844D01*
X113139817Y-79687844D02*
X113187436Y-79649749D01*
X113187436Y-79649749D02*
X113211245Y-79573558D01*
X113211245Y-79573558D02*
X113211245Y-79535463D01*
X113211245Y-79535463D02*
X113187436Y-79459272D01*
X113187436Y-79459272D02*
X113139817Y-79421177D01*
X113139817Y-79421177D02*
X113068388Y-79421177D01*
X113068388Y-79421177D02*
X113020769Y-79383082D01*
X113020769Y-79383082D02*
X112996960Y-79306891D01*
X112996960Y-79306891D02*
X112996960Y-79268796D01*
X112996960Y-79268796D02*
X113020769Y-79192606D01*
X113020769Y-79192606D02*
X113068388Y-79154510D01*
X113068388Y-79154510D02*
X113139817Y-79154510D01*
X113139817Y-79154510D02*
X113187436Y-79192606D01*
D11*
X113670404Y-64858571D02*
X113694214Y-64787143D01*
X113694214Y-64787143D02*
X113718023Y-64763333D01*
X113718023Y-64763333D02*
X113765642Y-64739524D01*
X113765642Y-64739524D02*
X113837071Y-64739524D01*
X113837071Y-64739524D02*
X113884690Y-64763333D01*
X113884690Y-64763333D02*
X113908500Y-64787143D01*
X113908500Y-64787143D02*
X113932309Y-64834762D01*
X113932309Y-64834762D02*
X113932309Y-65025238D01*
X113932309Y-65025238D02*
X113432309Y-65025238D01*
X113432309Y-65025238D02*
X113432309Y-64858571D01*
X113432309Y-64858571D02*
X113456119Y-64810952D01*
X113456119Y-64810952D02*
X113479928Y-64787143D01*
X113479928Y-64787143D02*
X113527547Y-64763333D01*
X113527547Y-64763333D02*
X113575166Y-64763333D01*
X113575166Y-64763333D02*
X113622785Y-64787143D01*
X113622785Y-64787143D02*
X113646595Y-64810952D01*
X113646595Y-64810952D02*
X113670404Y-64858571D01*
X113670404Y-64858571D02*
X113670404Y-65025238D01*
X113432309Y-64430000D02*
X113432309Y-64334762D01*
X113432309Y-64334762D02*
X113456119Y-64287143D01*
X113456119Y-64287143D02*
X113503738Y-64239524D01*
X113503738Y-64239524D02*
X113598976Y-64215714D01*
X113598976Y-64215714D02*
X113765642Y-64215714D01*
X113765642Y-64215714D02*
X113860880Y-64239524D01*
X113860880Y-64239524D02*
X113908500Y-64287143D01*
X113908500Y-64287143D02*
X113932309Y-64334762D01*
X113932309Y-64334762D02*
X113932309Y-64430000D01*
X113932309Y-64430000D02*
X113908500Y-64477619D01*
X113908500Y-64477619D02*
X113860880Y-64525238D01*
X113860880Y-64525238D02*
X113765642Y-64549047D01*
X113765642Y-64549047D02*
X113598976Y-64549047D01*
X113598976Y-64549047D02*
X113503738Y-64525238D01*
X113503738Y-64525238D02*
X113456119Y-64477619D01*
X113456119Y-64477619D02*
X113432309Y-64430000D01*
X113432309Y-63906190D02*
X113432309Y-63810952D01*
X113432309Y-63810952D02*
X113456119Y-63763333D01*
X113456119Y-63763333D02*
X113503738Y-63715714D01*
X113503738Y-63715714D02*
X113598976Y-63691904D01*
X113598976Y-63691904D02*
X113765642Y-63691904D01*
X113765642Y-63691904D02*
X113860880Y-63715714D01*
X113860880Y-63715714D02*
X113908500Y-63763333D01*
X113908500Y-63763333D02*
X113932309Y-63810952D01*
X113932309Y-63810952D02*
X113932309Y-63906190D01*
X113932309Y-63906190D02*
X113908500Y-63953809D01*
X113908500Y-63953809D02*
X113860880Y-64001428D01*
X113860880Y-64001428D02*
X113765642Y-64025237D01*
X113765642Y-64025237D02*
X113598976Y-64025237D01*
X113598976Y-64025237D02*
X113503738Y-64001428D01*
X113503738Y-64001428D02*
X113456119Y-63953809D01*
X113456119Y-63953809D02*
X113432309Y-63906190D01*
X113432309Y-63549046D02*
X113432309Y-63263332D01*
X113932309Y-63406189D02*
X113432309Y-63406189D01*
D12*
X120710475Y-81317200D02*
X120824761Y-81355295D01*
X120824761Y-81355295D02*
X121015237Y-81355295D01*
X121015237Y-81355295D02*
X121091428Y-81317200D01*
X121091428Y-81317200D02*
X121129523Y-81279104D01*
X121129523Y-81279104D02*
X121167618Y-81202914D01*
X121167618Y-81202914D02*
X121167618Y-81126723D01*
X121167618Y-81126723D02*
X121129523Y-81050533D01*
X121129523Y-81050533D02*
X121091428Y-81012438D01*
X121091428Y-81012438D02*
X121015237Y-80974342D01*
X121015237Y-80974342D02*
X120862856Y-80936247D01*
X120862856Y-80936247D02*
X120786666Y-80898152D01*
X120786666Y-80898152D02*
X120748571Y-80860057D01*
X120748571Y-80860057D02*
X120710475Y-80783866D01*
X120710475Y-80783866D02*
X120710475Y-80707676D01*
X120710475Y-80707676D02*
X120748571Y-80631485D01*
X120748571Y-80631485D02*
X120786666Y-80593390D01*
X120786666Y-80593390D02*
X120862856Y-80555295D01*
X120862856Y-80555295D02*
X121053333Y-80555295D01*
X121053333Y-80555295D02*
X121167618Y-80593390D01*
X121929523Y-81355295D02*
X121472380Y-81355295D01*
X121700952Y-81355295D02*
X121700952Y-80555295D01*
X121700952Y-80555295D02*
X121624761Y-80669580D01*
X121624761Y-80669580D02*
X121548571Y-80745771D01*
X121548571Y-80745771D02*
X121472380Y-80783866D01*
D11*
X124872309Y-64323809D02*
X124634214Y-64490475D01*
X124872309Y-64609523D02*
X124372309Y-64609523D01*
X124372309Y-64609523D02*
X124372309Y-64419047D01*
X124372309Y-64419047D02*
X124396119Y-64371428D01*
X124396119Y-64371428D02*
X124419928Y-64347618D01*
X124419928Y-64347618D02*
X124467547Y-64323809D01*
X124467547Y-64323809D02*
X124538976Y-64323809D01*
X124538976Y-64323809D02*
X124586595Y-64347618D01*
X124586595Y-64347618D02*
X124610404Y-64371428D01*
X124610404Y-64371428D02*
X124634214Y-64419047D01*
X124634214Y-64419047D02*
X124634214Y-64609523D01*
X124848500Y-64133332D02*
X124872309Y-64061904D01*
X124872309Y-64061904D02*
X124872309Y-63942856D01*
X124872309Y-63942856D02*
X124848500Y-63895237D01*
X124848500Y-63895237D02*
X124824690Y-63871428D01*
X124824690Y-63871428D02*
X124777071Y-63847618D01*
X124777071Y-63847618D02*
X124729452Y-63847618D01*
X124729452Y-63847618D02*
X124681833Y-63871428D01*
X124681833Y-63871428D02*
X124658023Y-63895237D01*
X124658023Y-63895237D02*
X124634214Y-63942856D01*
X124634214Y-63942856D02*
X124610404Y-64038094D01*
X124610404Y-64038094D02*
X124586595Y-64085713D01*
X124586595Y-64085713D02*
X124562785Y-64109523D01*
X124562785Y-64109523D02*
X124515166Y-64133332D01*
X124515166Y-64133332D02*
X124467547Y-64133332D01*
X124467547Y-64133332D02*
X124419928Y-64109523D01*
X124419928Y-64109523D02*
X124396119Y-64085713D01*
X124396119Y-64085713D02*
X124372309Y-64038094D01*
X124372309Y-64038094D02*
X124372309Y-63919047D01*
X124372309Y-63919047D02*
X124396119Y-63847618D01*
X124372309Y-63704761D02*
X124372309Y-63419047D01*
X124872309Y-63561904D02*
X124372309Y-63561904D01*
D10*
X115169238Y-62595976D02*
X115285832Y-62694087D01*
X114972307Y-62569669D02*
X115169238Y-62595976D01*
X115169238Y-62595976D02*
X115109663Y-62406438D01*
X115531111Y-62402603D02*
X115413377Y-62542515D01*
X115472244Y-62472559D02*
X115227397Y-62266525D01*
X115227397Y-62266525D02*
X115242753Y-62319277D01*
X115242753Y-62319277D02*
X115246449Y-62362218D01*
X115246449Y-62362218D02*
X115238486Y-62395348D01*
%TO.C,TP23*%
D13*
X123630000Y-74610000D02*
X125130000Y-74610000D01*
X125130000Y-76110000D01*
X123630000Y-76110000D01*
X123630000Y-74610000D01*
%TO.C,TP24*%
X105380000Y-74600000D02*
X106880000Y-74600000D01*
X106880000Y-76100000D01*
X105380000Y-76100000D01*
X105380000Y-74600000D01*
D14*
%TO.C,R11*%
X123986359Y-72350000D02*
X124293641Y-72350000D01*
X123986359Y-73110000D02*
X124293641Y-73110000D01*
%TO.C,TP16*%
D13*
X109390000Y-65980000D02*
X110890000Y-65980000D01*
X110890000Y-67480000D01*
X109390000Y-67480000D01*
X109390000Y-65980000D01*
D14*
%TO.C,U5*%
X105782500Y-68750000D02*
X106257500Y-68750000D01*
X105782500Y-69225000D02*
X105782500Y-68750000D01*
X105782500Y-71495000D02*
X105782500Y-71970000D01*
X105782500Y-71970000D02*
X106257500Y-71970000D01*
X108527500Y-68750000D02*
X108762500Y-68750000D01*
X109002500Y-69225000D02*
X109002500Y-69050000D01*
X109002500Y-71495000D02*
X109002500Y-71970000D01*
X109002500Y-71970000D02*
X108527500Y-71970000D01*
X109332500Y-68990000D02*
X109002500Y-68750000D01*
X109332500Y-68510000D01*
X109332500Y-68990000D01*
G36*
X109332500Y-68990000D02*
G01*
X109002500Y-68750000D01*
X109332500Y-68510000D01*
X109332500Y-68990000D01*
G37*
D15*
%TO.C,SW2*%
X109350000Y-62930000D02*
X112350000Y-62930000D01*
X109350000Y-65430000D02*
X112350000Y-65430000D01*
D16*
X108250000Y-63980000D02*
G75*
G02*
X108050000Y-63980000I-100000J0D01*
G01*
X108050000Y-63980000D02*
G75*
G02*
X108250000Y-63980000I100000J0D01*
G01*
D14*
%TO.C,C7*%
X117848714Y-64268593D02*
X117696237Y-64443014D01*
X118390783Y-64742472D02*
X118238306Y-64916893D01*
%TO.C,TP22*%
D13*
X123620000Y-76320000D02*
X125120000Y-76320000D01*
X125120000Y-77820000D01*
X123620000Y-77820000D01*
X123620000Y-76320000D01*
D14*
%TO.C,R14*%
X123030121Y-61760000D02*
X122694879Y-61760000D01*
X123030121Y-62520000D02*
X122694879Y-62520000D01*
%TO.C,TP20*%
D13*
X107280000Y-74620000D02*
X108780000Y-74620000D01*
X108780000Y-76120000D01*
X107280000Y-76120000D01*
X107280000Y-74620000D01*
%TO.C,D3*%
X125265000Y-71620000D02*
G75*
G02*
X125165000Y-71620000I-50000J0D01*
G01*
X125165000Y-71620000D02*
G75*
G02*
X125265000Y-71620000I50000J0D01*
G01*
D16*
%TO.C,S1*%
X114770000Y-77585000D02*
X114770000Y-78385000D01*
X116730000Y-79435000D02*
X115320000Y-79435000D01*
X116730000Y-80935000D02*
X116730000Y-79435000D01*
X118230000Y-79435000D02*
X118230000Y-80935000D01*
X118230000Y-80935000D02*
X116730000Y-80935000D01*
X118320000Y-76535000D02*
X116620000Y-76535000D01*
X121120000Y-79435000D02*
X118230000Y-79435000D01*
X121670000Y-78385000D02*
X121670000Y-77585000D01*
X116620000Y-77085000D02*
G75*
G02*
X116420000Y-77085000I-100000J0D01*
G01*
X116420000Y-77085000D02*
G75*
G02*
X116620000Y-77085000I100000J0D01*
G01*
%TO.C,TP21*%
D13*
X110060000Y-75500000D02*
X111560000Y-75500000D01*
X111560000Y-77000000D01*
X110060000Y-77000000D01*
X110060000Y-75500000D01*
%TO.C,TP15*%
X107590000Y-65970000D02*
X109090000Y-65970000D01*
X109090000Y-67470000D01*
X107590000Y-67470000D01*
X107590000Y-65970000D01*
%TO.C,TP7*%
X110040000Y-71850000D02*
X111540000Y-71850000D01*
X111540000Y-73350000D01*
X110040000Y-73350000D01*
X110040000Y-71850000D01*
%TO.C,TP3*%
X105370000Y-72850000D02*
X106870000Y-72850000D01*
X106870000Y-74350000D01*
X105370000Y-74350000D01*
X105370000Y-72850000D01*
D17*
%TO.C,G\u002A\u002A\u002A*%
G36*
X107816391Y-78030439D02*
G01*
X107808478Y-78038351D01*
X107800566Y-78030439D01*
X107808478Y-78022526D01*
X107816391Y-78030439D01*
G37*
G36*
X107863868Y-77998788D02*
G01*
X107855955Y-78006700D01*
X107848042Y-77998788D01*
X107855955Y-77990875D01*
X107863868Y-77998788D01*
G37*
G36*
X107863868Y-78030439D02*
G01*
X107855955Y-78038351D01*
X107848042Y-78030439D01*
X107855955Y-78022526D01*
X107863868Y-78030439D01*
G37*
G36*
X107895519Y-78014613D02*
G01*
X107887606Y-78022526D01*
X107879693Y-78014613D01*
X107887606Y-78006700D01*
X107895519Y-78014613D01*
G37*
G36*
X107763900Y-77956256D02*
G01*
X107765786Y-77980990D01*
X107762650Y-77986589D01*
X107755457Y-77981869D01*
X107754338Y-77965818D01*
X107758203Y-77948931D01*
X107763900Y-77956256D01*
G37*
G36*
X107842767Y-77885371D02*
G01*
X107840595Y-77894779D01*
X107832217Y-77895922D01*
X107819190Y-77890131D01*
X107821666Y-77885371D01*
X107840447Y-77883477D01*
X107842767Y-77885371D01*
G37*
G36*
X107795600Y-77906144D02*
G01*
X107792653Y-77911747D01*
X107777742Y-77926861D01*
X107774959Y-77927573D01*
X107773880Y-77917350D01*
X107776827Y-77911747D01*
X107791738Y-77896634D01*
X107794521Y-77895922D01*
X107795600Y-77906144D01*
G37*
G36*
X107889183Y-77917733D02*
G01*
X107906589Y-77948413D01*
X107906788Y-77969222D01*
X107900738Y-77988470D01*
X107898057Y-77977346D01*
X107897355Y-77966345D01*
X107888447Y-77930054D01*
X107879750Y-77914856D01*
X107876605Y-77908081D01*
X107889183Y-77917733D01*
G37*
G36*
X107863625Y-77935925D02*
G01*
X107852907Y-77957515D01*
X107832217Y-77979290D01*
X107809468Y-77996428D01*
X107801585Y-77989103D01*
X107800808Y-77963025D01*
X107803161Y-77935424D01*
X107811395Y-77936215D01*
X107816633Y-77943398D01*
X107831530Y-77959180D01*
X107845689Y-77946565D01*
X107847800Y-77943398D01*
X107860616Y-77930919D01*
X107863625Y-77935925D01*
G37*
G36*
X104248967Y-77006405D02*
G01*
X104349462Y-77018468D01*
X104454778Y-77039159D01*
X104561206Y-77068667D01*
X104575906Y-77073486D01*
X104638128Y-77094980D01*
X104694526Y-77116443D01*
X104749787Y-77140268D01*
X104808597Y-77168850D01*
X104875646Y-77204581D01*
X104955620Y-77249853D01*
X105053206Y-77307062D01*
X105170645Y-77377131D01*
X105262566Y-77431232D01*
X105351016Y-77481457D01*
X105430423Y-77524780D01*
X105495213Y-77558176D01*
X105539812Y-77578618D01*
X105546106Y-77580987D01*
X105640678Y-77603824D01*
X105745542Y-77612254D01*
X105849358Y-77606459D01*
X105940783Y-77586619D01*
X105972715Y-77574162D01*
X105998652Y-77562750D01*
X106023817Y-77554019D01*
X106052698Y-77547632D01*
X106089784Y-77543256D01*
X106139565Y-77540553D01*
X106206528Y-77539188D01*
X106295163Y-77538827D01*
X106409959Y-77539132D01*
X106439569Y-77539257D01*
X106562900Y-77540019D01*
X106658904Y-77541302D01*
X106731903Y-77543408D01*
X106786220Y-77546637D01*
X106826176Y-77551289D01*
X106856095Y-77557666D01*
X106880299Y-77566069D01*
X106890597Y-77570647D01*
X106952414Y-77590205D01*
X107033818Y-77603150D01*
X107123293Y-77608720D01*
X107209320Y-77606154D01*
X107275049Y-77596069D01*
X107314082Y-77584883D01*
X107356350Y-77569138D01*
X107405584Y-77546896D01*
X107465520Y-77516215D01*
X107539888Y-77475158D01*
X107632422Y-77421785D01*
X107746855Y-77354156D01*
X107788406Y-77329368D01*
X107953657Y-77234033D01*
X108099553Y-77157807D01*
X108230643Y-77099054D01*
X108351477Y-77056138D01*
X108466604Y-77027420D01*
X108580573Y-77011265D01*
X108686796Y-77006104D01*
X108783497Y-77007728D01*
X108852118Y-77015509D01*
X108895817Y-77030509D01*
X108917754Y-77053787D01*
X108921273Y-77084870D01*
X108916266Y-77128383D01*
X108742185Y-77138325D01*
X108645621Y-77146629D01*
X108557298Y-77161242D01*
X108472763Y-77184215D01*
X108387563Y-77217601D01*
X108297242Y-77263454D01*
X108197348Y-77323825D01*
X108083427Y-77400769D01*
X107951025Y-77496338D01*
X107927170Y-77513982D01*
X107791538Y-77612390D01*
X107675889Y-77691366D01*
X107576964Y-77752965D01*
X107491503Y-77799243D01*
X107432681Y-77825787D01*
X107390030Y-77845296D01*
X107362787Y-77861885D01*
X107357510Y-77868459D01*
X107370818Y-77886218D01*
X107404378Y-77908753D01*
X107448441Y-77930749D01*
X107493259Y-77946893D01*
X107507487Y-77950209D01*
X107552493Y-77966248D01*
X107586174Y-77990050D01*
X107606179Y-78026862D01*
X107597274Y-78062718D01*
X107558580Y-78099007D01*
X107494418Y-78134676D01*
X107394110Y-78170758D01*
X107298321Y-78179423D01*
X107198697Y-78160820D01*
X107143805Y-78140915D01*
X107078553Y-78115095D01*
X107036262Y-78104402D01*
X107010750Y-78111609D01*
X106995835Y-78139493D01*
X106985338Y-78190828D01*
X106981746Y-78213671D01*
X106965001Y-78288500D01*
X106935204Y-78375967D01*
X106890311Y-78481767D01*
X106869691Y-78526225D01*
X106833506Y-78604046D01*
X106800998Y-78676185D01*
X106775286Y-78735563D01*
X106759488Y-78775103D01*
X106757614Y-78780557D01*
X106741772Y-78873203D01*
X106747089Y-78981882D01*
X106773027Y-79098780D01*
X106789713Y-79156674D01*
X106796812Y-79194357D01*
X106794821Y-79221623D01*
X106784236Y-79248263D01*
X106780939Y-79254750D01*
X106763466Y-79298498D01*
X106756081Y-79336768D01*
X106756080Y-79337122D01*
X106742113Y-79379279D01*
X106705138Y-79424030D01*
X106652540Y-79465146D01*
X106591708Y-79496395D01*
X106553525Y-79507990D01*
X106475760Y-79521425D01*
X106411505Y-79523043D01*
X106344789Y-79512547D01*
X106308277Y-79503407D01*
X106232193Y-79472486D01*
X106174493Y-79423196D01*
X106130659Y-79350744D01*
X106108113Y-79290995D01*
X106074359Y-79185704D01*
X106106621Y-79092229D01*
X106131229Y-78990925D01*
X106137933Y-78888379D01*
X106126158Y-78796601D01*
X106121523Y-78780557D01*
X106108395Y-78746475D01*
X106084649Y-78690957D01*
X106053402Y-78621080D01*
X106017775Y-78543923D01*
X106009447Y-78526225D01*
X105959116Y-78413790D01*
X105924314Y-78321503D01*
X105902863Y-78243277D01*
X105897195Y-78212401D01*
X105888595Y-78157890D01*
X105879110Y-78124138D01*
X105862738Y-78108895D01*
X105833475Y-78109915D01*
X105785316Y-78124950D01*
X105723858Y-78147503D01*
X105660284Y-78166237D01*
X105595186Y-78178308D01*
X105561299Y-78180781D01*
X105504177Y-78173859D01*
X105439608Y-78155587D01*
X105376053Y-78129711D01*
X105321972Y-78099975D01*
X105285827Y-78070124D01*
X105276578Y-78054767D01*
X105278320Y-78013924D01*
X105306271Y-77978397D01*
X105354997Y-77954162D01*
X105371650Y-77950209D01*
X105416158Y-77936875D01*
X105462224Y-77915661D01*
X105500213Y-77891947D01*
X105520493Y-77871110D01*
X105521687Y-77866433D01*
X105508038Y-77854034D01*
X105472418Y-77835610D01*
X105427266Y-77816993D01*
X105359299Y-77785478D01*
X105270583Y-77734511D01*
X105163851Y-77665863D01*
X105041833Y-77581305D01*
X104907263Y-77482609D01*
X104880752Y-77462595D01*
X104744428Y-77363455D01*
X104623734Y-77285760D01*
X104513377Y-77227204D01*
X104408064Y-77185481D01*
X104302504Y-77158285D01*
X104191405Y-77143311D01*
X104140365Y-77140044D01*
X104061980Y-77135604D01*
X104009587Y-77130157D01*
X103977527Y-77122624D01*
X103960141Y-77111931D01*
X103955028Y-77104775D01*
X103948678Y-77068989D01*
X103969411Y-77040709D01*
X104013517Y-77020124D01*
X104077285Y-77007421D01*
X104157005Y-77002786D01*
X104248967Y-77006405D01*
G37*
%TO.C,TP18*%
D13*
X105790000Y-65370000D02*
X107290000Y-65370000D01*
X107290000Y-66870000D01*
X105790000Y-66870000D01*
X105790000Y-65370000D01*
D14*
%TO.C,C5*%
X120633335Y-61770000D02*
X120401665Y-61770000D01*
X120633335Y-62490000D02*
X120401665Y-62490000D01*
%TO.C,U8*%
X114530000Y-67190000D02*
X114530000Y-66780000D01*
X114530000Y-73760000D02*
X114530000Y-73110000D01*
X115180000Y-66540000D02*
X114830000Y-66540000D01*
X115180000Y-73760000D02*
X114530000Y-73760000D01*
X121100000Y-66540000D02*
X121750000Y-66540000D01*
X121100000Y-73760000D02*
X121750000Y-73760000D01*
X121750000Y-66540000D02*
X121750000Y-67190000D01*
X121750000Y-73760000D02*
X121750000Y-73110000D01*
X114530000Y-66540000D02*
X114290000Y-66210000D01*
X114770000Y-66210000D01*
X114530000Y-66540000D01*
G36*
X114530000Y-66540000D02*
G01*
X114290000Y-66210000D01*
X114770000Y-66210000D01*
X114530000Y-66540000D01*
G37*
%TO.C,TP13*%
D13*
X110030000Y-73630000D02*
X111530000Y-73630000D01*
X111530000Y-75130000D01*
X110030000Y-75130000D01*
X110030000Y-73630000D01*
%TO.C,TP6*%
X105790000Y-63530000D02*
X107290000Y-63530000D01*
X107290000Y-65030000D01*
X105790000Y-65030000D01*
X105790000Y-63530000D01*
%TO.C,TP17*%
X111210000Y-65980000D02*
X112710000Y-65980000D01*
X112710000Y-67480000D01*
X111210000Y-67480000D01*
X111210000Y-65980000D01*
D14*
%TO.C,C8*%
X123424165Y-68400000D02*
X123655835Y-68400000D01*
X123424165Y-69120000D02*
X123655835Y-69120000D01*
%TO.C,TP8*%
D13*
X110050000Y-70070000D02*
X111550000Y-70070000D01*
X111550000Y-71570000D01*
X110050000Y-71570000D01*
X110050000Y-70070000D01*
D15*
%TO.C,RST*%
X123397500Y-62950000D02*
X120397500Y-62950000D01*
X123397500Y-65450000D02*
X120397500Y-65450000D01*
D16*
X124697500Y-65100000D02*
G75*
G02*
X124497500Y-65100000I-100000J0D01*
G01*
X124497500Y-65100000D02*
G75*
G02*
X124697500Y-65100000I100000J0D01*
G01*
%TO.C,TP4*%
D13*
X107110000Y-72850000D02*
X108610000Y-72850000D01*
X108610000Y-74350000D01*
X107110000Y-74350000D01*
X107110000Y-72850000D01*
%TO.C,TP9*%
X110060000Y-68240000D02*
X111560000Y-68240000D01*
X111560000Y-69740000D01*
X110060000Y-69740000D01*
X110060000Y-68240000D01*
D14*
%TO.C,R13*%
X106523641Y-67250000D02*
X106216359Y-67250000D01*
X106523641Y-68010000D02*
X106216359Y-68010000D01*
%TO.C,C3*%
X123424165Y-66180000D02*
X123655835Y-66180000D01*
X123424165Y-66900000D02*
X123655835Y-66900000D01*
%TO.C,C4*%
X123434165Y-67290000D02*
X123665835Y-67290000D01*
X123434165Y-68010000D02*
X123665835Y-68010000D01*
%TO.C,R15*%
X111304879Y-61740000D02*
X111640121Y-61740000D01*
X111304879Y-62500000D02*
X111640121Y-62500000D01*
D13*
%TO.C,D4*%
X113450000Y-73520000D02*
G75*
G02*
X113350000Y-73520000I-50000J0D01*
G01*
X113350000Y-73520000D02*
G75*
G02*
X113450000Y-73520000I50000J0D01*
G01*
D14*
%TO.C,R12*%
X111930000Y-74763641D02*
X111930000Y-74456359D01*
X112690000Y-74763641D02*
X112690000Y-74456359D01*
D16*
%TO.C,Y1*%
X118309805Y-63003733D02*
G75*
G02*
X118109805Y-63003733I-100000J0D01*
G01*
X118109805Y-63003733D02*
G75*
G02*
X118309805Y-63003733I100000J0D01*
G01*
D14*
%TO.C,C6*%
X115249861Y-64931318D02*
X115427331Y-65080234D01*
X115712669Y-64379766D02*
X115890139Y-64528682D01*
%TD*%
%LPC*%
D18*
%TO.C,TP23*%
X124380000Y-75360000D03*
%TD*%
%TO.C,TP24*%
X106130000Y-75350000D03*
%TD*%
D19*
%TO.C,R11*%
X123630000Y-72730000D03*
X124650000Y-72730000D03*
%TD*%
D18*
%TO.C,TP16*%
X110140000Y-66730000D03*
%TD*%
D20*
%TO.C,U5*%
X108142500Y-68922500D03*
X107642500Y-68922500D03*
X107142500Y-68922500D03*
X106642500Y-68922500D03*
D21*
X105955000Y-69610000D03*
X105955000Y-70110000D03*
X105955000Y-70610000D03*
X105955000Y-71110000D03*
D20*
X106642500Y-71797500D03*
X107142500Y-71797500D03*
X107642500Y-71797500D03*
X108142500Y-71797500D03*
D21*
X108830000Y-71110000D03*
X108830000Y-70610000D03*
X108830000Y-70110000D03*
X108830000Y-69610000D03*
D22*
X107392500Y-70360000D03*
%TD*%
D23*
%TO.C,SW2*%
X109150000Y-64180000D03*
X112550000Y-64180000D03*
%TD*%
D24*
%TO.C,C7*%
X118417020Y-64165486D03*
X117670000Y-65020000D03*
%TD*%
D18*
%TO.C,TP22*%
X124370000Y-77070000D03*
%TD*%
D25*
%TO.C,R14*%
X123460000Y-62140000D03*
X122265000Y-62140000D03*
%TD*%
D18*
%TO.C,TP20*%
X108030000Y-75370000D03*
%TD*%
D26*
%TO.C,D3*%
X124610000Y-71620000D03*
X123640000Y-71620000D03*
%TD*%
D27*
%TO.C,S1*%
X115970000Y-75935000D03*
X118970000Y-75935000D03*
X120470000Y-75935000D03*
D28*
X121970000Y-79135000D03*
X114470000Y-79135000D03*
X114470000Y-76835000D03*
X121970000Y-76835000D03*
%TD*%
D18*
%TO.C,TP21*%
X110810000Y-76250000D03*
%TD*%
%TO.C,TP15*%
X108340000Y-66720000D03*
%TD*%
%TO.C,TP7*%
X110790000Y-72600000D03*
%TD*%
%TO.C,TP3*%
X106120000Y-73600000D03*
%TD*%
%TO.C,TP18*%
X106540000Y-66120000D03*
%TD*%
D29*
%TO.C,C5*%
X121085000Y-62130000D03*
X119950000Y-62130000D03*
%TD*%
D30*
%TO.C,U8*%
X114690000Y-67550000D03*
X114690000Y-67950000D03*
X114690000Y-68350000D03*
X114690000Y-68750000D03*
X114690000Y-69150000D03*
X114690000Y-69550000D03*
X114690000Y-69950000D03*
X114690000Y-70350000D03*
X114690000Y-70750000D03*
X114690000Y-71150000D03*
X114690000Y-71550000D03*
X114690000Y-71950000D03*
X114690000Y-72350000D03*
X114690000Y-72750000D03*
D31*
X115540000Y-73600000D03*
X115940000Y-73600000D03*
X116340000Y-73600000D03*
X116740000Y-73600000D03*
X117140000Y-73600000D03*
X117540000Y-73600000D03*
X117940000Y-73600000D03*
X118340000Y-73600000D03*
X118740000Y-73600000D03*
X119140000Y-73600000D03*
X119540000Y-73600000D03*
X119940000Y-73600000D03*
X120340000Y-73600000D03*
X120740000Y-73600000D03*
D30*
X121590000Y-72750000D03*
X121590000Y-72350000D03*
X121590000Y-71950000D03*
X121590000Y-71550000D03*
X121590000Y-71150000D03*
X121590000Y-70750000D03*
X121590000Y-70350000D03*
X121590000Y-69950000D03*
X121590000Y-69550000D03*
X121590000Y-69150000D03*
X121590000Y-68750000D03*
X121590000Y-68350000D03*
X121590000Y-67950000D03*
X121590000Y-67550000D03*
D31*
X120740000Y-66700000D03*
X120340000Y-66700000D03*
X119940000Y-66700000D03*
X119540000Y-66700000D03*
X119140000Y-66700000D03*
X118740000Y-66700000D03*
X118340000Y-66700000D03*
X117940000Y-66700000D03*
X117540000Y-66700000D03*
X117140000Y-66700000D03*
X116740000Y-66700000D03*
X116340000Y-66700000D03*
X115940000Y-66700000D03*
X115540000Y-66700000D03*
D32*
X118140000Y-70150000D03*
%TD*%
D18*
%TO.C,TP13*%
X110780000Y-74380000D03*
%TD*%
%TO.C,TP6*%
X106540000Y-64280000D03*
%TD*%
%TO.C,TP17*%
X111960000Y-66730000D03*
%TD*%
D33*
%TO.C,C8*%
X122972500Y-68760000D03*
X124107500Y-68760000D03*
%TD*%
D18*
%TO.C,TP8*%
X110800000Y-70820000D03*
%TD*%
D34*
%TO.C,RST*%
X123597500Y-64200000D03*
X120197500Y-64200000D03*
%TD*%
D18*
%TO.C,TP4*%
X107860000Y-73600000D03*
%TD*%
%TO.C,TP9*%
X110810000Y-68990000D03*
%TD*%
D35*
%TO.C,R13*%
X106880000Y-67630000D03*
X105860000Y-67630000D03*
%TD*%
D33*
%TO.C,C3*%
X122972500Y-66540000D03*
X124107500Y-66540000D03*
%TD*%
%TO.C,C4*%
X122982500Y-67650000D03*
X124117500Y-67650000D03*
%TD*%
D36*
%TO.C,R15*%
X110875000Y-62120000D03*
X112070000Y-62120000D03*
%TD*%
D37*
%TO.C,D4*%
X113400000Y-74125000D03*
X113400000Y-75095000D03*
%TD*%
D38*
%TO.C,R12*%
X112310000Y-75120000D03*
X112310000Y-74100000D03*
%TD*%
D39*
%TO.C,Y1*%
X117413856Y-63444857D03*
X116380908Y-62575648D03*
X115737052Y-63340791D03*
X116770000Y-64210000D03*
%TD*%
D40*
%TO.C,C6*%
X115135270Y-64365218D03*
X116004730Y-65094782D03*
%TD*%
%LPD*%
M02*
