%TF.GenerationSoftware,KiCad,Pcbnew,8.0.3*%
%TF.CreationDate,2025-03-09T13:34:37-05:00*%
%TF.ProjectId,HearingAid_RightV3,48656172-696e-4674-9169-645f52696768,rev?*%
%TF.SameCoordinates,Original*%
%TF.FileFunction,Drillmap*%
%TF.FilePolarity,Positive*%
%FSLAX45Y45*%
G04 Gerber Fmt 4.5, Leading zero omitted, Abs format (unit mm)*
G04 Created by KiCad (PCBNEW 8.0.3) date 2025-03-09 13:34:37*
%MOMM*%
%LPD*%
G01*
G04 APERTURE LIST*
%ADD10C,0.100000*%
%ADD11C,0.200000*%
G04 APERTURE END LIST*
D10*
X12504736Y-6095000D02*
X12504736Y-6095000D01*
G75*
G02*
X12804736Y-6395000I4J-300000D01*
G01*
X12803736Y-7706736D01*
G75*
G02*
X12503736Y-8006736I-299996J-4D01*
G01*
X10664202Y-8006202D01*
G75*
G02*
X10364868Y-7706868I-2J299332D01*
G01*
X10365000Y-6395000D01*
G75*
G02*
X10665000Y-6095000I300000J0D01*
G01*
X12504736Y-6095000D01*
D11*
X10620645Y-8323220D02*
X10620645Y-8123220D01*
X10620645Y-8123220D02*
X10668264Y-8123220D01*
X10668264Y-8123220D02*
X10696835Y-8132744D01*
X10696835Y-8132744D02*
X10715883Y-8151791D01*
X10715883Y-8151791D02*
X10725407Y-8170839D01*
X10725407Y-8170839D02*
X10734931Y-8208934D01*
X10734931Y-8208934D02*
X10734931Y-8237505D01*
X10734931Y-8237505D02*
X10725407Y-8275601D01*
X10725407Y-8275601D02*
X10715883Y-8294648D01*
X10715883Y-8294648D02*
X10696835Y-8313696D01*
X10696835Y-8313696D02*
X10668264Y-8323220D01*
X10668264Y-8323220D02*
X10620645Y-8323220D01*
X10820645Y-8323220D02*
X10820645Y-8189886D01*
X10820645Y-8227982D02*
X10830169Y-8208934D01*
X10830169Y-8208934D02*
X10839692Y-8199410D01*
X10839692Y-8199410D02*
X10858740Y-8189886D01*
X10858740Y-8189886D02*
X10877788Y-8189886D01*
X10944454Y-8323220D02*
X10944454Y-8189886D01*
X10944454Y-8123220D02*
X10934931Y-8132744D01*
X10934931Y-8132744D02*
X10944454Y-8142267D01*
X10944454Y-8142267D02*
X10953978Y-8132744D01*
X10953978Y-8132744D02*
X10944454Y-8123220D01*
X10944454Y-8123220D02*
X10944454Y-8142267D01*
X11068264Y-8323220D02*
X11049216Y-8313696D01*
X11049216Y-8313696D02*
X11039692Y-8294648D01*
X11039692Y-8294648D02*
X11039692Y-8123220D01*
X11173026Y-8323220D02*
X11153978Y-8313696D01*
X11153978Y-8313696D02*
X11144454Y-8294648D01*
X11144454Y-8294648D02*
X11144454Y-8123220D01*
X11401597Y-8323220D02*
X11401597Y-8123220D01*
X11401597Y-8123220D02*
X11468264Y-8266077D01*
X11468264Y-8266077D02*
X11534930Y-8123220D01*
X11534930Y-8123220D02*
X11534930Y-8323220D01*
X11715883Y-8323220D02*
X11715883Y-8218458D01*
X11715883Y-8218458D02*
X11706359Y-8199410D01*
X11706359Y-8199410D02*
X11687311Y-8189886D01*
X11687311Y-8189886D02*
X11649216Y-8189886D01*
X11649216Y-8189886D02*
X11630169Y-8199410D01*
X11715883Y-8313696D02*
X11696835Y-8323220D01*
X11696835Y-8323220D02*
X11649216Y-8323220D01*
X11649216Y-8323220D02*
X11630169Y-8313696D01*
X11630169Y-8313696D02*
X11620645Y-8294648D01*
X11620645Y-8294648D02*
X11620645Y-8275601D01*
X11620645Y-8275601D02*
X11630169Y-8256553D01*
X11630169Y-8256553D02*
X11649216Y-8247029D01*
X11649216Y-8247029D02*
X11696835Y-8247029D01*
X11696835Y-8247029D02*
X11715883Y-8237505D01*
X11811121Y-8189886D02*
X11811121Y-8389886D01*
X11811121Y-8199410D02*
X11830169Y-8189886D01*
X11830169Y-8189886D02*
X11868264Y-8189886D01*
X11868264Y-8189886D02*
X11887311Y-8199410D01*
X11887311Y-8199410D02*
X11896835Y-8208934D01*
X11896835Y-8208934D02*
X11906359Y-8227982D01*
X11906359Y-8227982D02*
X11906359Y-8285124D01*
X11906359Y-8285124D02*
X11896835Y-8304172D01*
X11896835Y-8304172D02*
X11887311Y-8313696D01*
X11887311Y-8313696D02*
X11868264Y-8323220D01*
X11868264Y-8323220D02*
X11830169Y-8323220D01*
X11830169Y-8323220D02*
X11811121Y-8313696D01*
X11992073Y-8304172D02*
X12001597Y-8313696D01*
X12001597Y-8313696D02*
X11992073Y-8323220D01*
X11992073Y-8323220D02*
X11982550Y-8313696D01*
X11982550Y-8313696D02*
X11992073Y-8304172D01*
X11992073Y-8304172D02*
X11992073Y-8323220D01*
X11992073Y-8199410D02*
X12001597Y-8208934D01*
X12001597Y-8208934D02*
X11992073Y-8218458D01*
X11992073Y-8218458D02*
X11982550Y-8208934D01*
X11982550Y-8208934D02*
X11992073Y-8199410D01*
X11992073Y-8199410D02*
X11992073Y-8218458D01*
M02*
