%TF.GenerationSoftware,KiCad,Pcbnew,8.0.3*%
%TF.CreationDate,2025-03-09T13:34:34-05:00*%
%TF.ProjectId,HearingAid_RightV3,48656172-696e-4674-9169-645f52696768,rev?*%
%TF.SameCoordinates,Original*%
%TF.FileFunction,Soldermask,Top*%
%TF.FilePolarity,Negative*%
%FSLAX46Y46*%
G04 Gerber Fmt 4.6, Leading zero omitted, Abs format (unit mm)*
G04 Created by KiCad (PCBNEW 8.0.3) date 2025-03-09 13:34:34*
%MOMM*%
%LPD*%
G01*
G04 APERTURE LIST*
G04 Aperture macros list*
%AMRoundRect*
0 Rectangle with rounded corners*
0 $1 Rounding radius*
0 $2 $3 $4 $5 $6 $7 $8 $9 X,Y pos of 4 corners*
0 Add a 4 corners polygon primitive as box body*
4,1,4,$2,$3,$4,$5,$6,$7,$8,$9,$2,$3,0*
0 Add four circle primitives for the rounded corners*
1,1,$1+$1,$2,$3*
1,1,$1+$1,$4,$5*
1,1,$1+$1,$6,$7*
1,1,$1+$1,$8,$9*
0 Add four rect primitives between the rounded corners*
20,1,$1+$1,$2,$3,$4,$5,0*
20,1,$1+$1,$4,$5,$6,$7,0*
20,1,$1+$1,$6,$7,$8,$9,0*
20,1,$1+$1,$8,$9,$2,$3,0*%
G04 Aperture macros list end*
%ADD10R,1.000000X1.000000*%
%ADD11RoundRect,0.135000X-0.135000X-0.185000X0.135000X-0.185000X0.135000X0.185000X-0.135000X0.185000X0*%
%ADD12RoundRect,0.062500X-0.062500X0.350000X-0.062500X-0.350000X0.062500X-0.350000X0.062500X0.350000X0*%
%ADD13RoundRect,0.062500X-0.350000X0.062500X-0.350000X-0.062500X0.350000X-0.062500X0.350000X0.062500X0*%
%ADD14R,1.230000X1.230000*%
%ADD15RoundRect,0.102000X-0.400000X-0.850000X0.400000X-0.850000X0.400000X0.850000X-0.400000X0.850000X0*%
%ADD16RoundRect,0.155000X0.023164X0.262001X-0.256555X-0.057970X-0.023164X-0.262001X0.256555X0.057970X0*%
%ADD17RoundRect,0.160000X0.197500X0.160000X-0.197500X0.160000X-0.197500X-0.160000X0.197500X-0.160000X0*%
%ADD18RoundRect,0.147500X0.147500X0.172500X-0.147500X0.172500X-0.147500X-0.172500X0.147500X-0.172500X0*%
%ADD19RoundRect,0.102000X0.350000X0.550000X-0.350000X0.550000X-0.350000X-0.550000X0.350000X-0.550000X0*%
%ADD20RoundRect,0.102000X0.500000X0.400000X-0.500000X0.400000X-0.500000X-0.400000X0.500000X-0.400000X0*%
%ADD21RoundRect,0.155000X0.212500X0.155000X-0.212500X0.155000X-0.212500X-0.155000X0.212500X-0.155000X0*%
%ADD22RoundRect,0.050000X-0.350000X-0.050000X0.350000X-0.050000X0.350000X0.050000X-0.350000X0.050000X0*%
%ADD23RoundRect,0.050000X-0.050000X-0.350000X0.050000X-0.350000X0.050000X0.350000X-0.050000X0.350000X0*%
%ADD24R,4.000000X4.000000*%
%ADD25RoundRect,0.155000X-0.212500X-0.155000X0.212500X-0.155000X0.212500X0.155000X-0.212500X0.155000X0*%
%ADD26RoundRect,0.102000X0.400000X0.850000X-0.400000X0.850000X-0.400000X-0.850000X0.400000X-0.850000X0*%
%ADD27RoundRect,0.135000X0.135000X0.185000X-0.135000X0.185000X-0.135000X-0.185000X0.135000X-0.185000X0*%
%ADD28RoundRect,0.160000X-0.197500X-0.160000X0.197500X-0.160000X0.197500X0.160000X-0.197500X0.160000X0*%
%ADD29RoundRect,0.147500X-0.172500X0.147500X-0.172500X-0.147500X0.172500X-0.147500X0.172500X0.147500X0*%
%ADD30RoundRect,0.135000X0.185000X-0.135000X0.185000X0.135000X-0.185000X0.135000X-0.185000X-0.135000X0*%
%ADD31RoundRect,0.102000X-0.061580X0.509247X-0.512280X-0.026355X0.061580X-0.509247X0.512280X0.026355X0*%
%ADD32RoundRect,0.155000X-0.262417X0.017855X0.063152X-0.255329X0.262417X-0.017855X-0.063152X0.255329X0*%
G04 APERTURE END LIST*
D10*
%TO.C,TP23*%
X124380000Y-75360000D03*
%TD*%
%TO.C,TP24*%
X106130000Y-75350000D03*
%TD*%
D11*
%TO.C,R11*%
X123630000Y-72730000D03*
X124650000Y-72730000D03*
%TD*%
D10*
%TO.C,TP16*%
X110140000Y-66730000D03*
%TD*%
D12*
%TO.C,U5*%
X108142500Y-68922500D03*
X107642500Y-68922500D03*
X107142500Y-68922500D03*
X106642500Y-68922500D03*
D13*
X105955000Y-69610000D03*
X105955000Y-70110000D03*
X105955000Y-70610000D03*
X105955000Y-71110000D03*
D12*
X106642500Y-71797500D03*
X107142500Y-71797500D03*
X107642500Y-71797500D03*
X108142500Y-71797500D03*
D13*
X108830000Y-71110000D03*
X108830000Y-70610000D03*
X108830000Y-70110000D03*
X108830000Y-69610000D03*
D14*
X107392500Y-70360000D03*
%TD*%
D15*
%TO.C,SW2*%
X109150000Y-64180000D03*
X112550000Y-64180000D03*
%TD*%
D16*
%TO.C,C7*%
X118417020Y-64165486D03*
X117670000Y-65020000D03*
%TD*%
D10*
%TO.C,TP22*%
X124370000Y-77070000D03*
%TD*%
D17*
%TO.C,R14*%
X123460000Y-62140000D03*
X122265000Y-62140000D03*
%TD*%
D10*
%TO.C,TP20*%
X108030000Y-75370000D03*
%TD*%
D18*
%TO.C,D3*%
X124610000Y-71620000D03*
X123640000Y-71620000D03*
%TD*%
D19*
%TO.C,S1*%
X115970000Y-75935000D03*
X118970000Y-75935000D03*
X120470000Y-75935000D03*
D20*
X121970000Y-79135000D03*
X114470000Y-79135000D03*
X114470000Y-76835000D03*
X121970000Y-76835000D03*
%TD*%
D10*
%TO.C,TP21*%
X110810000Y-76250000D03*
%TD*%
%TO.C,TP15*%
X108340000Y-66720000D03*
%TD*%
%TO.C,TP7*%
X110790000Y-72600000D03*
%TD*%
%TO.C,TP3*%
X106120000Y-73600000D03*
%TD*%
%TO.C,TP18*%
X106540000Y-66120000D03*
%TD*%
D21*
%TO.C,C5*%
X121085000Y-62130000D03*
X119950000Y-62130000D03*
%TD*%
D22*
%TO.C,U8*%
X114690000Y-67550000D03*
X114690000Y-67950000D03*
X114690000Y-68350000D03*
X114690000Y-68750000D03*
X114690000Y-69150000D03*
X114690000Y-69550000D03*
X114690000Y-69950000D03*
X114690000Y-70350000D03*
X114690000Y-70750000D03*
X114690000Y-71150000D03*
X114690000Y-71550000D03*
X114690000Y-71950000D03*
X114690000Y-72350000D03*
X114690000Y-72750000D03*
D23*
X115540000Y-73600000D03*
X115940000Y-73600000D03*
X116340000Y-73600000D03*
X116740000Y-73600000D03*
X117140000Y-73600000D03*
X117540000Y-73600000D03*
X117940000Y-73600000D03*
X118340000Y-73600000D03*
X118740000Y-73600000D03*
X119140000Y-73600000D03*
X119540000Y-73600000D03*
X119940000Y-73600000D03*
X120340000Y-73600000D03*
X120740000Y-73600000D03*
D22*
X121590000Y-72750000D03*
X121590000Y-72350000D03*
X121590000Y-71950000D03*
X121590000Y-71550000D03*
X121590000Y-71150000D03*
X121590000Y-70750000D03*
X121590000Y-70350000D03*
X121590000Y-69950000D03*
X121590000Y-69550000D03*
X121590000Y-69150000D03*
X121590000Y-68750000D03*
X121590000Y-68350000D03*
X121590000Y-67950000D03*
X121590000Y-67550000D03*
D23*
X120740000Y-66700000D03*
X120340000Y-66700000D03*
X119940000Y-66700000D03*
X119540000Y-66700000D03*
X119140000Y-66700000D03*
X118740000Y-66700000D03*
X118340000Y-66700000D03*
X117940000Y-66700000D03*
X117540000Y-66700000D03*
X117140000Y-66700000D03*
X116740000Y-66700000D03*
X116340000Y-66700000D03*
X115940000Y-66700000D03*
X115540000Y-66700000D03*
D24*
X118140000Y-70150000D03*
%TD*%
D10*
%TO.C,TP13*%
X110780000Y-74380000D03*
%TD*%
%TO.C,TP6*%
X106540000Y-64280000D03*
%TD*%
%TO.C,TP17*%
X111960000Y-66730000D03*
%TD*%
D25*
%TO.C,C8*%
X122972500Y-68760000D03*
X124107500Y-68760000D03*
%TD*%
D10*
%TO.C,TP8*%
X110800000Y-70820000D03*
%TD*%
D26*
%TO.C,RST*%
X123597500Y-64200000D03*
X120197500Y-64200000D03*
%TD*%
D10*
%TO.C,TP4*%
X107860000Y-73600000D03*
%TD*%
%TO.C,TP9*%
X110810000Y-68990000D03*
%TD*%
D27*
%TO.C,R13*%
X106880000Y-67630000D03*
X105860000Y-67630000D03*
%TD*%
D25*
%TO.C,C3*%
X122972500Y-66540000D03*
X124107500Y-66540000D03*
%TD*%
%TO.C,C4*%
X122982500Y-67650000D03*
X124117500Y-67650000D03*
%TD*%
D28*
%TO.C,R15*%
X110875000Y-62120000D03*
X112070000Y-62120000D03*
%TD*%
D29*
%TO.C,D4*%
X113400000Y-74125000D03*
X113400000Y-75095000D03*
%TD*%
D30*
%TO.C,R12*%
X112310000Y-75120000D03*
X112310000Y-74100000D03*
%TD*%
D31*
%TO.C,Y1*%
X117413856Y-63444857D03*
X116380908Y-62575648D03*
X115737052Y-63340791D03*
X116770000Y-64210000D03*
%TD*%
D32*
%TO.C,C6*%
X115135270Y-64365218D03*
X116004730Y-65094782D03*
%TD*%
M02*
