%TF.GenerationSoftware,KiCad,Pcbnew,8.0.3*%
%TF.CreationDate,2025-03-09T13:34:37-05:00*%
%TF.ProjectId,HearingAid_RightV3,48656172-696e-4674-9169-645f52696768,rev?*%
%TF.SameCoordinates,Original*%
%TF.FileFunction,Drillmap*%
%TF.FilePolarity,Positive*%
%FSLAX45Y45*%
G04 Gerber Fmt 4.5, Leading zero omitted, Abs format (unit mm)*
G04 Created by KiCad (PCBNEW 8.0.3) date 2025-03-09 13:34:37*
%MOMM*%
%LPD*%
G01*
G04 APERTURE LIST*
%ADD10C,0.100000*%
%ADD11C,0.200000*%
G04 APERTURE END LIST*
D10*
X12504736Y-6095000D02*
X12504736Y-6095000D01*
G75*
G02*
X12804736Y-6395000I4J-300000D01*
G01*
X12803736Y-7706736D01*
G75*
G02*
X12503736Y-8006736I-299996J-4D01*
G01*
X10664202Y-8006202D01*
G75*
G02*
X10364868Y-7706868I-2J299332D01*
G01*
X10365000Y-6395000D01*
G75*
G02*
X10665000Y-6095000I300000J0D01*
G01*
X12504736Y-6095000D01*
D11*
D10*
X10480000Y-7620000D02*
X10510000Y-7650000D01*
X10510000Y-7620000D02*
X10480000Y-7650000D01*
X10755000Y-6403000D02*
X10785000Y-6433000D01*
X10785000Y-6403000D02*
X10755000Y-6433000D01*
X12207000Y-6323000D02*
X12237000Y-6353000D01*
X12237000Y-6323000D02*
X12207000Y-6353000D01*
X12333000Y-7878000D02*
X12363000Y-7908000D01*
X12363000Y-7878000D02*
X12333000Y-7908000D01*
X12500000Y-6542000D02*
X12530000Y-6572000D01*
X12530000Y-6542000D02*
X12500000Y-6572000D01*
D11*
X10620645Y-8323220D02*
X10620645Y-8123220D01*
X10620645Y-8123220D02*
X10668264Y-8123220D01*
X10668264Y-8123220D02*
X10696835Y-8132744D01*
X10696835Y-8132744D02*
X10715883Y-8151791D01*
X10715883Y-8151791D02*
X10725407Y-8170839D01*
X10725407Y-8170839D02*
X10734931Y-8208934D01*
X10734931Y-8208934D02*
X10734931Y-8237505D01*
X10734931Y-8237505D02*
X10725407Y-8275601D01*
X10725407Y-8275601D02*
X10715883Y-8294648D01*
X10715883Y-8294648D02*
X10696835Y-8313696D01*
X10696835Y-8313696D02*
X10668264Y-8323220D01*
X10668264Y-8323220D02*
X10620645Y-8323220D01*
X10820645Y-8323220D02*
X10820645Y-8189886D01*
X10820645Y-8227982D02*
X10830169Y-8208934D01*
X10830169Y-8208934D02*
X10839692Y-8199410D01*
X10839692Y-8199410D02*
X10858740Y-8189886D01*
X10858740Y-8189886D02*
X10877788Y-8189886D01*
X10944454Y-8323220D02*
X10944454Y-8189886D01*
X10944454Y-8123220D02*
X10934931Y-8132744D01*
X10934931Y-8132744D02*
X10944454Y-8142267D01*
X10944454Y-8142267D02*
X10953978Y-8132744D01*
X10953978Y-8132744D02*
X10944454Y-8123220D01*
X10944454Y-8123220D02*
X10944454Y-8142267D01*
X11068264Y-8323220D02*
X11049216Y-8313696D01*
X11049216Y-8313696D02*
X11039692Y-8294648D01*
X11039692Y-8294648D02*
X11039692Y-8123220D01*
X11173026Y-8323220D02*
X11153978Y-8313696D01*
X11153978Y-8313696D02*
X11144454Y-8294648D01*
X11144454Y-8294648D02*
X11144454Y-8123220D01*
X11401597Y-8323220D02*
X11401597Y-8123220D01*
X11401597Y-8123220D02*
X11468264Y-8266077D01*
X11468264Y-8266077D02*
X11534930Y-8123220D01*
X11534930Y-8123220D02*
X11534930Y-8323220D01*
X11715883Y-8323220D02*
X11715883Y-8218458D01*
X11715883Y-8218458D02*
X11706359Y-8199410D01*
X11706359Y-8199410D02*
X11687311Y-8189886D01*
X11687311Y-8189886D02*
X11649216Y-8189886D01*
X11649216Y-8189886D02*
X11630169Y-8199410D01*
X11715883Y-8313696D02*
X11696835Y-8323220D01*
X11696835Y-8323220D02*
X11649216Y-8323220D01*
X11649216Y-8323220D02*
X11630169Y-8313696D01*
X11630169Y-8313696D02*
X11620645Y-8294648D01*
X11620645Y-8294648D02*
X11620645Y-8275601D01*
X11620645Y-8275601D02*
X11630169Y-8256553D01*
X11630169Y-8256553D02*
X11649216Y-8247029D01*
X11649216Y-8247029D02*
X11696835Y-8247029D01*
X11696835Y-8247029D02*
X11715883Y-8237505D01*
X11811121Y-8189886D02*
X11811121Y-8389886D01*
X11811121Y-8199410D02*
X11830169Y-8189886D01*
X11830169Y-8189886D02*
X11868264Y-8189886D01*
X11868264Y-8189886D02*
X11887311Y-8199410D01*
X11887311Y-8199410D02*
X11896835Y-8208934D01*
X11896835Y-8208934D02*
X11906359Y-8227982D01*
X11906359Y-8227982D02*
X11906359Y-8285124D01*
X11906359Y-8285124D02*
X11896835Y-8304172D01*
X11896835Y-8304172D02*
X11887311Y-8313696D01*
X11887311Y-8313696D02*
X11868264Y-8323220D01*
X11868264Y-8323220D02*
X11830169Y-8323220D01*
X11830169Y-8323220D02*
X11811121Y-8313696D01*
X11992073Y-8304172D02*
X12001597Y-8313696D01*
X12001597Y-8313696D02*
X11992073Y-8323220D01*
X11992073Y-8323220D02*
X11982550Y-8313696D01*
X11982550Y-8313696D02*
X11992073Y-8304172D01*
X11992073Y-8304172D02*
X11992073Y-8323220D01*
X11992073Y-8199410D02*
X12001597Y-8208934D01*
X12001597Y-8208934D02*
X11992073Y-8218458D01*
X11992073Y-8218458D02*
X11982550Y-8208934D01*
X11982550Y-8208934D02*
X11992073Y-8199410D01*
X11992073Y-8199410D02*
X11992073Y-8218458D01*
D10*
X10329868Y-8636736D02*
X10359868Y-8666736D01*
X10359868Y-8636736D02*
X10329868Y-8666736D01*
D11*
X10658740Y-8543220D02*
X10677788Y-8543220D01*
X10677788Y-8543220D02*
X10696835Y-8552744D01*
X10696835Y-8552744D02*
X10706359Y-8562267D01*
X10706359Y-8562267D02*
X10715883Y-8581315D01*
X10715883Y-8581315D02*
X10725407Y-8619410D01*
X10725407Y-8619410D02*
X10725407Y-8667029D01*
X10725407Y-8667029D02*
X10715883Y-8705125D01*
X10715883Y-8705125D02*
X10706359Y-8724172D01*
X10706359Y-8724172D02*
X10696835Y-8733696D01*
X10696835Y-8733696D02*
X10677788Y-8743220D01*
X10677788Y-8743220D02*
X10658740Y-8743220D01*
X10658740Y-8743220D02*
X10639692Y-8733696D01*
X10639692Y-8733696D02*
X10630169Y-8724172D01*
X10630169Y-8724172D02*
X10620645Y-8705125D01*
X10620645Y-8705125D02*
X10611121Y-8667029D01*
X10611121Y-8667029D02*
X10611121Y-8619410D01*
X10611121Y-8619410D02*
X10620645Y-8581315D01*
X10620645Y-8581315D02*
X10630169Y-8562267D01*
X10630169Y-8562267D02*
X10639692Y-8552744D01*
X10639692Y-8552744D02*
X10658740Y-8543220D01*
X10811121Y-8724172D02*
X10820645Y-8733696D01*
X10820645Y-8733696D02*
X10811121Y-8743220D01*
X10811121Y-8743220D02*
X10801597Y-8733696D01*
X10801597Y-8733696D02*
X10811121Y-8724172D01*
X10811121Y-8724172D02*
X10811121Y-8743220D01*
X10887312Y-8543220D02*
X11011121Y-8543220D01*
X11011121Y-8543220D02*
X10944454Y-8619410D01*
X10944454Y-8619410D02*
X10973026Y-8619410D01*
X10973026Y-8619410D02*
X10992073Y-8628934D01*
X10992073Y-8628934D02*
X11001597Y-8638458D01*
X11001597Y-8638458D02*
X11011121Y-8657506D01*
X11011121Y-8657506D02*
X11011121Y-8705125D01*
X11011121Y-8705125D02*
X11001597Y-8724172D01*
X11001597Y-8724172D02*
X10992073Y-8733696D01*
X10992073Y-8733696D02*
X10973026Y-8743220D01*
X10973026Y-8743220D02*
X10915883Y-8743220D01*
X10915883Y-8743220D02*
X10896835Y-8733696D01*
X10896835Y-8733696D02*
X10887312Y-8724172D01*
X11134931Y-8543220D02*
X11153978Y-8543220D01*
X11153978Y-8543220D02*
X11173026Y-8552744D01*
X11173026Y-8552744D02*
X11182550Y-8562267D01*
X11182550Y-8562267D02*
X11192073Y-8581315D01*
X11192073Y-8581315D02*
X11201597Y-8619410D01*
X11201597Y-8619410D02*
X11201597Y-8667029D01*
X11201597Y-8667029D02*
X11192073Y-8705125D01*
X11192073Y-8705125D02*
X11182550Y-8724172D01*
X11182550Y-8724172D02*
X11173026Y-8733696D01*
X11173026Y-8733696D02*
X11153978Y-8743220D01*
X11153978Y-8743220D02*
X11134931Y-8743220D01*
X11134931Y-8743220D02*
X11115883Y-8733696D01*
X11115883Y-8733696D02*
X11106359Y-8724172D01*
X11106359Y-8724172D02*
X11096835Y-8705125D01*
X11096835Y-8705125D02*
X11087312Y-8667029D01*
X11087312Y-8667029D02*
X11087312Y-8619410D01*
X11087312Y-8619410D02*
X11096835Y-8581315D01*
X11096835Y-8581315D02*
X11106359Y-8562267D01*
X11106359Y-8562267D02*
X11115883Y-8552744D01*
X11115883Y-8552744D02*
X11134931Y-8543220D01*
X11325407Y-8543220D02*
X11344454Y-8543220D01*
X11344454Y-8543220D02*
X11363502Y-8552744D01*
X11363502Y-8552744D02*
X11373026Y-8562267D01*
X11373026Y-8562267D02*
X11382550Y-8581315D01*
X11382550Y-8581315D02*
X11392073Y-8619410D01*
X11392073Y-8619410D02*
X11392073Y-8667029D01*
X11392073Y-8667029D02*
X11382550Y-8705125D01*
X11382550Y-8705125D02*
X11373026Y-8724172D01*
X11373026Y-8724172D02*
X11363502Y-8733696D01*
X11363502Y-8733696D02*
X11344454Y-8743220D01*
X11344454Y-8743220D02*
X11325407Y-8743220D01*
X11325407Y-8743220D02*
X11306359Y-8733696D01*
X11306359Y-8733696D02*
X11296835Y-8724172D01*
X11296835Y-8724172D02*
X11287311Y-8705125D01*
X11287311Y-8705125D02*
X11277788Y-8667029D01*
X11277788Y-8667029D02*
X11277788Y-8619410D01*
X11277788Y-8619410D02*
X11287311Y-8581315D01*
X11287311Y-8581315D02*
X11296835Y-8562267D01*
X11296835Y-8562267D02*
X11306359Y-8552744D01*
X11306359Y-8552744D02*
X11325407Y-8543220D01*
X11477788Y-8743220D02*
X11477788Y-8609886D01*
X11477788Y-8628934D02*
X11487311Y-8619410D01*
X11487311Y-8619410D02*
X11506359Y-8609886D01*
X11506359Y-8609886D02*
X11534931Y-8609886D01*
X11534931Y-8609886D02*
X11553978Y-8619410D01*
X11553978Y-8619410D02*
X11563502Y-8638458D01*
X11563502Y-8638458D02*
X11563502Y-8743220D01*
X11563502Y-8638458D02*
X11573026Y-8619410D01*
X11573026Y-8619410D02*
X11592073Y-8609886D01*
X11592073Y-8609886D02*
X11620645Y-8609886D01*
X11620645Y-8609886D02*
X11639692Y-8619410D01*
X11639692Y-8619410D02*
X11649216Y-8638458D01*
X11649216Y-8638458D02*
X11649216Y-8743220D01*
X11744454Y-8743220D02*
X11744454Y-8609886D01*
X11744454Y-8628934D02*
X11753978Y-8619410D01*
X11753978Y-8619410D02*
X11773026Y-8609886D01*
X11773026Y-8609886D02*
X11801597Y-8609886D01*
X11801597Y-8609886D02*
X11820645Y-8619410D01*
X11820645Y-8619410D02*
X11830169Y-8638458D01*
X11830169Y-8638458D02*
X11830169Y-8743220D01*
X11830169Y-8638458D02*
X11839692Y-8619410D01*
X11839692Y-8619410D02*
X11858740Y-8609886D01*
X11858740Y-8609886D02*
X11887311Y-8609886D01*
X11887311Y-8609886D02*
X11906359Y-8619410D01*
X11906359Y-8619410D02*
X11915883Y-8638458D01*
X11915883Y-8638458D02*
X11915883Y-8743220D01*
X12306359Y-8533696D02*
X12134931Y-8790839D01*
X12563502Y-8543220D02*
X12582550Y-8543220D01*
X12582550Y-8543220D02*
X12601597Y-8552744D01*
X12601597Y-8552744D02*
X12611121Y-8562267D01*
X12611121Y-8562267D02*
X12620645Y-8581315D01*
X12620645Y-8581315D02*
X12630169Y-8619410D01*
X12630169Y-8619410D02*
X12630169Y-8667029D01*
X12630169Y-8667029D02*
X12620645Y-8705125D01*
X12620645Y-8705125D02*
X12611121Y-8724172D01*
X12611121Y-8724172D02*
X12601597Y-8733696D01*
X12601597Y-8733696D02*
X12582550Y-8743220D01*
X12582550Y-8743220D02*
X12563502Y-8743220D01*
X12563502Y-8743220D02*
X12544454Y-8733696D01*
X12544454Y-8733696D02*
X12534931Y-8724172D01*
X12534931Y-8724172D02*
X12525407Y-8705125D01*
X12525407Y-8705125D02*
X12515883Y-8667029D01*
X12515883Y-8667029D02*
X12515883Y-8619410D01*
X12515883Y-8619410D02*
X12525407Y-8581315D01*
X12525407Y-8581315D02*
X12534931Y-8562267D01*
X12534931Y-8562267D02*
X12544454Y-8552744D01*
X12544454Y-8552744D02*
X12563502Y-8543220D01*
X12715883Y-8724172D02*
X12725407Y-8733696D01*
X12725407Y-8733696D02*
X12715883Y-8743220D01*
X12715883Y-8743220D02*
X12706359Y-8733696D01*
X12706359Y-8733696D02*
X12715883Y-8724172D01*
X12715883Y-8724172D02*
X12715883Y-8743220D01*
X12849216Y-8543220D02*
X12868264Y-8543220D01*
X12868264Y-8543220D02*
X12887312Y-8552744D01*
X12887312Y-8552744D02*
X12896835Y-8562267D01*
X12896835Y-8562267D02*
X12906359Y-8581315D01*
X12906359Y-8581315D02*
X12915883Y-8619410D01*
X12915883Y-8619410D02*
X12915883Y-8667029D01*
X12915883Y-8667029D02*
X12906359Y-8705125D01*
X12906359Y-8705125D02*
X12896835Y-8724172D01*
X12896835Y-8724172D02*
X12887312Y-8733696D01*
X12887312Y-8733696D02*
X12868264Y-8743220D01*
X12868264Y-8743220D02*
X12849216Y-8743220D01*
X12849216Y-8743220D02*
X12830169Y-8733696D01*
X12830169Y-8733696D02*
X12820645Y-8724172D01*
X12820645Y-8724172D02*
X12811121Y-8705125D01*
X12811121Y-8705125D02*
X12801597Y-8667029D01*
X12801597Y-8667029D02*
X12801597Y-8619410D01*
X12801597Y-8619410D02*
X12811121Y-8581315D01*
X12811121Y-8581315D02*
X12820645Y-8562267D01*
X12820645Y-8562267D02*
X12830169Y-8552744D01*
X12830169Y-8552744D02*
X12849216Y-8543220D01*
X13106359Y-8743220D02*
X12992074Y-8743220D01*
X13049216Y-8743220D02*
X13049216Y-8543220D01*
X13049216Y-8543220D02*
X13030169Y-8571791D01*
X13030169Y-8571791D02*
X13011121Y-8590839D01*
X13011121Y-8590839D02*
X12992074Y-8600363D01*
X13296835Y-8743220D02*
X13182550Y-8743220D01*
X13239693Y-8743220D02*
X13239693Y-8543220D01*
X13239693Y-8543220D02*
X13220645Y-8571791D01*
X13220645Y-8571791D02*
X13201597Y-8590839D01*
X13201597Y-8590839D02*
X13182550Y-8600363D01*
X13411121Y-8628934D02*
X13392074Y-8619410D01*
X13392074Y-8619410D02*
X13382550Y-8609886D01*
X13382550Y-8609886D02*
X13373026Y-8590839D01*
X13373026Y-8590839D02*
X13373026Y-8581315D01*
X13373026Y-8581315D02*
X13382550Y-8562267D01*
X13382550Y-8562267D02*
X13392074Y-8552744D01*
X13392074Y-8552744D02*
X13411121Y-8543220D01*
X13411121Y-8543220D02*
X13449216Y-8543220D01*
X13449216Y-8543220D02*
X13468264Y-8552744D01*
X13468264Y-8552744D02*
X13477788Y-8562267D01*
X13477788Y-8562267D02*
X13487312Y-8581315D01*
X13487312Y-8581315D02*
X13487312Y-8590839D01*
X13487312Y-8590839D02*
X13477788Y-8609886D01*
X13477788Y-8609886D02*
X13468264Y-8619410D01*
X13468264Y-8619410D02*
X13449216Y-8628934D01*
X13449216Y-8628934D02*
X13411121Y-8628934D01*
X13411121Y-8628934D02*
X13392074Y-8638458D01*
X13392074Y-8638458D02*
X13382550Y-8647982D01*
X13382550Y-8647982D02*
X13373026Y-8667029D01*
X13373026Y-8667029D02*
X13373026Y-8705125D01*
X13373026Y-8705125D02*
X13382550Y-8724172D01*
X13382550Y-8724172D02*
X13392074Y-8733696D01*
X13392074Y-8733696D02*
X13411121Y-8743220D01*
X13411121Y-8743220D02*
X13449216Y-8743220D01*
X13449216Y-8743220D02*
X13468264Y-8733696D01*
X13468264Y-8733696D02*
X13477788Y-8724172D01*
X13477788Y-8724172D02*
X13487312Y-8705125D01*
X13487312Y-8705125D02*
X13487312Y-8667029D01*
X13487312Y-8667029D02*
X13477788Y-8647982D01*
X13477788Y-8647982D02*
X13468264Y-8638458D01*
X13468264Y-8638458D02*
X13449216Y-8628934D01*
X13563502Y-8543220D02*
X13563502Y-8581315D01*
X13639693Y-8543220D02*
X13639693Y-8581315D01*
X13934931Y-8819410D02*
X13925407Y-8809886D01*
X13925407Y-8809886D02*
X13906359Y-8781315D01*
X13906359Y-8781315D02*
X13896836Y-8762267D01*
X13896836Y-8762267D02*
X13887312Y-8733696D01*
X13887312Y-8733696D02*
X13877788Y-8686077D01*
X13877788Y-8686077D02*
X13877788Y-8647982D01*
X13877788Y-8647982D02*
X13887312Y-8600363D01*
X13887312Y-8600363D02*
X13896836Y-8571791D01*
X13896836Y-8571791D02*
X13906359Y-8552744D01*
X13906359Y-8552744D02*
X13925407Y-8524172D01*
X13925407Y-8524172D02*
X13934931Y-8514648D01*
X14106359Y-8543220D02*
X14011121Y-8543220D01*
X14011121Y-8543220D02*
X14001597Y-8638458D01*
X14001597Y-8638458D02*
X14011121Y-8628934D01*
X14011121Y-8628934D02*
X14030169Y-8619410D01*
X14030169Y-8619410D02*
X14077788Y-8619410D01*
X14077788Y-8619410D02*
X14096836Y-8628934D01*
X14096836Y-8628934D02*
X14106359Y-8638458D01*
X14106359Y-8638458D02*
X14115883Y-8657506D01*
X14115883Y-8657506D02*
X14115883Y-8705125D01*
X14115883Y-8705125D02*
X14106359Y-8724172D01*
X14106359Y-8724172D02*
X14096836Y-8733696D01*
X14096836Y-8733696D02*
X14077788Y-8743220D01*
X14077788Y-8743220D02*
X14030169Y-8743220D01*
X14030169Y-8743220D02*
X14011121Y-8733696D01*
X14011121Y-8733696D02*
X14001597Y-8724172D01*
X14353978Y-8743220D02*
X14353978Y-8543220D01*
X14439693Y-8743220D02*
X14439693Y-8638458D01*
X14439693Y-8638458D02*
X14430169Y-8619410D01*
X14430169Y-8619410D02*
X14411121Y-8609886D01*
X14411121Y-8609886D02*
X14382550Y-8609886D01*
X14382550Y-8609886D02*
X14363502Y-8619410D01*
X14363502Y-8619410D02*
X14353978Y-8628934D01*
X14563502Y-8743220D02*
X14544455Y-8733696D01*
X14544455Y-8733696D02*
X14534931Y-8724172D01*
X14534931Y-8724172D02*
X14525407Y-8705125D01*
X14525407Y-8705125D02*
X14525407Y-8647982D01*
X14525407Y-8647982D02*
X14534931Y-8628934D01*
X14534931Y-8628934D02*
X14544455Y-8619410D01*
X14544455Y-8619410D02*
X14563502Y-8609886D01*
X14563502Y-8609886D02*
X14592074Y-8609886D01*
X14592074Y-8609886D02*
X14611121Y-8619410D01*
X14611121Y-8619410D02*
X14620645Y-8628934D01*
X14620645Y-8628934D02*
X14630169Y-8647982D01*
X14630169Y-8647982D02*
X14630169Y-8705125D01*
X14630169Y-8705125D02*
X14620645Y-8724172D01*
X14620645Y-8724172D02*
X14611121Y-8733696D01*
X14611121Y-8733696D02*
X14592074Y-8743220D01*
X14592074Y-8743220D02*
X14563502Y-8743220D01*
X14744455Y-8743220D02*
X14725407Y-8733696D01*
X14725407Y-8733696D02*
X14715883Y-8714648D01*
X14715883Y-8714648D02*
X14715883Y-8543220D01*
X14896836Y-8733696D02*
X14877788Y-8743220D01*
X14877788Y-8743220D02*
X14839693Y-8743220D01*
X14839693Y-8743220D02*
X14820645Y-8733696D01*
X14820645Y-8733696D02*
X14811121Y-8714648D01*
X14811121Y-8714648D02*
X14811121Y-8638458D01*
X14811121Y-8638458D02*
X14820645Y-8619410D01*
X14820645Y-8619410D02*
X14839693Y-8609886D01*
X14839693Y-8609886D02*
X14877788Y-8609886D01*
X14877788Y-8609886D02*
X14896836Y-8619410D01*
X14896836Y-8619410D02*
X14906359Y-8638458D01*
X14906359Y-8638458D02*
X14906359Y-8657506D01*
X14906359Y-8657506D02*
X14811121Y-8676553D01*
X14982550Y-8733696D02*
X15001598Y-8743220D01*
X15001598Y-8743220D02*
X15039693Y-8743220D01*
X15039693Y-8743220D02*
X15058740Y-8733696D01*
X15058740Y-8733696D02*
X15068264Y-8714648D01*
X15068264Y-8714648D02*
X15068264Y-8705125D01*
X15068264Y-8705125D02*
X15058740Y-8686077D01*
X15058740Y-8686077D02*
X15039693Y-8676553D01*
X15039693Y-8676553D02*
X15011121Y-8676553D01*
X15011121Y-8676553D02*
X14992074Y-8667029D01*
X14992074Y-8667029D02*
X14982550Y-8647982D01*
X14982550Y-8647982D02*
X14982550Y-8638458D01*
X14982550Y-8638458D02*
X14992074Y-8619410D01*
X14992074Y-8619410D02*
X15011121Y-8609886D01*
X15011121Y-8609886D02*
X15039693Y-8609886D01*
X15039693Y-8609886D02*
X15058740Y-8619410D01*
X15134931Y-8819410D02*
X15144455Y-8809886D01*
X15144455Y-8809886D02*
X15163502Y-8781315D01*
X15163502Y-8781315D02*
X15173026Y-8762267D01*
X15173026Y-8762267D02*
X15182550Y-8733696D01*
X15182550Y-8733696D02*
X15192074Y-8686077D01*
X15192074Y-8686077D02*
X15192074Y-8647982D01*
X15192074Y-8647982D02*
X15182550Y-8600363D01*
X15182550Y-8600363D02*
X15173026Y-8571791D01*
X15173026Y-8571791D02*
X15163502Y-8552744D01*
X15163502Y-8552744D02*
X15144455Y-8524172D01*
X15144455Y-8524172D02*
X15134931Y-8514648D01*
M02*
